<svg width="28" height="34" viewBox="0 0 28 34" fill="none" xmlns="http://www.w3.org/2000/svg">
<path d="M26.1855 18.4844C26.1855 26.186 20.7944 30.0368 14.3867 32.2702C14.0512 32.3839 13.6867 32.3785 13.3547 32.2548C6.93162 30.0368 1.54053 26.186 1.54053 18.4844V7.70223C1.54053 7.29371 1.70281 6.90193 1.99167 6.61306C2.28054 6.3242 2.67232 6.16191 3.08084 6.16191C6.16147 6.16191 10.0122 4.31354 12.6924 1.97226C13.0187 1.69346 13.4338 1.54028 13.863 1.54028C14.2922 1.54028 14.7073 1.69346 15.0337 1.97226C17.7292 4.32894 21.5646 6.16191 24.6452 6.16191C25.0537 6.16191 25.4455 6.3242 25.7344 6.61306C26.0233 6.90193 26.1855 7.29371 26.1855 7.70223V18.4844Z" stroke="#2B7FFF" strokeWidth="3.08063" strokeLinecap="round" strokeLinejoin="round"/>
</svg>
