<svg width="37" height="37" viewBox="0 0 37 37" fill="none" xmlns="http://www.w3.org/2000/svg">
<path d="M29.2661 16.9434H7.70172C6.00034 16.9434 4.62109 18.3226 4.62109 20.024V30.8062C4.62109 32.5076 6.00034 33.8868 7.70172 33.8868H29.2661C30.9675 33.8868 32.3467 32.5076 32.3467 30.8062V20.024C32.3467 18.3226 30.9675 16.9434 29.2661 16.9434Z" stroke="#FF9500" strokeWidth="3.08063" strokeLinecap="round" strokeLinejoin="round"/>
<path d="M10.7822 16.9434V10.7821C10.7822 8.73955 11.5936 6.78063 13.038 5.3363C14.4823 3.89198 16.4412 3.08057 18.4838 3.08057C20.5264 3.08057 22.4853 3.89198 23.9296 5.3363C25.3739 6.78063 26.1854 8.73955 26.1854 10.7821V16.9434" stroke="#FF9500" strokeWidth="3.08063" strokeLinecap="round" strokeLinejoin="round"/>
</svg>
