<svg width="37" height="37" viewBox="0 0 37 37" fill="none" xmlns="http://www.w3.org/2000/svg">
<path d="M3.17636 19.0198C3.04799 18.674 3.04799 18.2936 3.17636 17.9477C4.42663 14.9162 6.54889 12.3241 9.2741 10.5002C11.9993 8.67621 15.2047 7.70251 18.484 7.70251C21.7632 7.70251 24.9687 8.67621 27.6939 10.5002C30.4191 12.3241 32.5413 14.9162 33.7916 17.9477C33.92 18.2936 33.92 18.674 33.7916 19.0198C32.5413 22.0513 30.4191 24.6434 27.6939 26.4674C24.9687 28.2913 21.7632 29.265 18.484 29.265C15.2047 29.265 11.9993 28.2913 9.2741 26.4674C6.54889 24.6434 4.42663 22.0513 3.17636 19.0198Z" stroke="#FF9500" strokeWidth="3.08063" strokeLinecap="round" strokeLinejoin="round"/>
<path d="M18.4837 23.1047C21.0358 23.1047 23.1047 21.0358 23.1047 18.4837C23.1047 15.9317 21.0358 13.8628 18.4837 13.8628C15.9317 13.8628 13.8628 15.9317 13.8628 18.4837C13.8628 21.0358 15.9317 23.1047 18.4837 23.1047Z" stroke="#FF9500" strokeWidth="3.08063" strokeLinecap="round" strokeLinejoin="round"/>
</svg>
