<svg width="37" height="37" viewBox="0 0 37 37" fill="none" xmlns="http://www.w3.org/2000/svg">
<path d="M30.8062 3.08057H6.16119C4.45981 3.08057 3.08057 4.45981 3.08057 6.16119V12.3224C3.08057 14.0238 4.45981 15.4031 6.16119 15.4031H30.8062C32.5076 15.4031 33.8868 14.0238 33.8868 12.3224V6.16119C33.8868 4.45981 32.5076 3.08057 30.8062 3.08057Z" stroke="#2DB67C" strokeWidth="3.08063" strokeLinecap="round" strokeLinejoin="round"/>
<path d="M30.8062 21.5645H6.16119C4.45981 21.5645 3.08057 22.9437 3.08057 24.6451V30.8063C3.08057 32.5077 4.45981 33.887 6.16119 33.887H30.8062C32.5076 33.887 33.8868 32.5077 33.8868 30.8063V24.6451C33.8868 22.9437 32.5076 21.5645 30.8062 21.5645Z" stroke="#2DB67C" strokeWidth="3.08063" strokeLinecap="round" strokeLinejoin="round"/>
<path d="M9.2417 9.24194H9.2571" stroke="#2DB67C" strokeWidth="3.08063" strokeLinecap="round" strokeLinejoin="round"/>
<path d="M9.2417 27.7256H9.2571" stroke="#2DB67C" strokeWidth="3.08063" strokeLinecap="round" strokeLinejoin="round"/>
</svg>
