<svg width="37" height="37" viewBox="0 0 37 37" fill="none" xmlns="http://www.w3.org/2000/svg">
<path d="M18.4837 33.8868C26.9906 33.8868 33.8868 26.9906 33.8868 18.4837C33.8868 9.97678 26.9906 3.08057 18.4837 3.08057C9.97678 3.08057 3.08057 9.97678 3.08057 18.4837C3.08057 26.9906 9.97678 33.8868 18.4837 33.8868Z" stroke="#00B8DB" strokeWidth="3.08063" strokeLinecap="round" strokeLinejoin="round"/>
<path d="M18.4841 27.7257C23.5882 27.7257 27.7259 23.588 27.7259 18.4838C27.7259 13.3797 23.5882 9.24194 18.4841 9.24194C13.3799 9.24194 9.24219 13.3797 9.24219 18.4838C9.24219 23.588 13.3799 27.7257 18.4841 27.7257Z" stroke="#00B8DB" strokeWidth="3.08063" strokeLinecap="round" strokeLinejoin="round"/>
<path d="M18.4839 21.5643C20.1853 21.5643 21.5646 20.1851 21.5646 18.4837C21.5646 16.7823 20.1853 15.4031 18.4839 15.4031C16.7826 15.4031 15.4033 16.7823 15.4033 18.4837C15.4033 20.1851 16.7826 21.5643 18.4839 21.5643Z" stroke="#00B8DB" strokeWidth="3.08063" strokeLinecap="round" strokeLinejoin="round"/>
</svg>
