<svg width="140" height="69" viewBox="0 0 140 69" fill="none" xmlns="http://www.w3.org/2000/svg">
<g clipPath="url(#clip0_3035_11307)">
<path d="M-1.22559 90.6107H69.5302L138.774 -5.22266H-1.22559V90.6107Z" fill="url(#paint0_linear_3035_11307)"/>
<path d="M83.165 10.1834H69.3379L69.3843 42.4911L57.3443 10.1712H45.4061L35.1284 37.1627C34.0357 30.2944 26.8883 27.9245 21.2645 26.1493C17.551 24.9643 13.6094 23.2211 13.6493 21.2948C13.6802 19.7138 15.758 18.2474 19.8872 18.4661C22.6574 18.6144 25.1044 18.8361 29.9724 21.1723L34.7589 12.8853C30.3202 10.6406 24.1827 9.22337 19.15 9.21875H19.1191C13.2509 9.21875 8.36457 11.1067 5.3357 14.2185C3.22422 16.3896 2.08535 19.1509 2.03941 22.2043C1.9623 26.406 3.51215 29.3847 6.76879 31.7652C9.52066 33.7684 13.0404 35.0679 16.1414 36.022C19.966 37.1993 23.0903 38.2237 23.0517 40.404C23.0211 41.1992 22.7192 41.9421 22.1439 42.5417C21.1896 43.5202 19.7275 43.8872 17.7036 43.9271C13.7989 44.0094 10.9059 43.3993 6.29465 40.6917L2.03613 49.0858C6.64246 51.6883 11.5321 52.9938 17.088 52.9938L18.3377 52.9846C23.1734 52.8977 27.0978 51.7461 30.2158 49.254C30.3946 49.1116 30.5546 48.9679 30.7208 48.8226L30.1975 51.5016L41.8634 51.465L43.9566 46.1408C46.1572 46.887 48.6597 47.3 51.3161 47.3C53.9048 47.3 56.3395 46.9085 58.4988 46.2052L59.9579 51.465L80.8887 51.4848L80.9395 39.3473H85.3935C96.1591 39.3473 102.523 33.9042 102.523 24.7761C102.519 14.61 96.333 10.182 83.165 10.182V10.1834ZM51.3161 37.8002C49.7078 37.8002 48.1995 37.5218 46.9023 37.0325L51.2669 23.3404H51.3517L55.6455 37.0708C54.3527 37.5297 52.8797 37.8002 51.3145 37.8002H51.3161ZM83.9744 29.9334H80.9365V18.8991H83.9761C88.0237 18.8991 91.2558 20.2384 91.2558 24.3452C91.2522 28.5958 88.0237 29.9337 83.9761 29.9337" fill="white"/>
</g>
<defs>
<linearGradient id="paint0_linear_3035_11307" x1="6998.77" y1="-5.22266" x2="6998.77" y2="9578.3" gradientUnits="userSpaceOnUse">
<stop stopColor="#00AEEF"/>
<stop offset="0.212" stopColor="#0097DC"/>
<stop offset="0.519" stopColor="#007CC5"/>
<stop offset="0.792" stopColor="#006CB8"/>
<stop offset="1" stopColor="#0066B3"/>
</linearGradient>
<clipPath id="clip0_3035_11307">
<rect width="140" height="69" fill="white"/>
</clipPath>
</defs>
</svg>
