<svg width="111" height="55" viewBox="0 0 111 55" fill="none" xmlns="http://www.w3.org/2000/svg">
<g clipPath="url(#clip0_3047_11960)">
<path d="M0 54.8443H56.0992L111 0H0V54.8443Z" fill="url(#paint0_linear_3047_11960)"/>
<path d="M65.8734 10.9681H54.9105L54.9473 36.7207L45.4013 10.9584H35.936L27.7872 32.4734C26.9209 26.9987 21.254 25.1096 16.7952 23.6946C13.8509 22.75 10.7257 21.3605 10.7574 19.8251C10.7819 18.5648 12.4293 17.396 15.7032 17.5703C17.8995 17.6885 19.8397 17.8652 23.6993 19.7274L27.4943 13.1218C23.9751 11.3326 19.1088 10.2029 15.1187 10.1992H15.0942C10.4415 10.1992 6.56735 11.7041 4.16589 14.1846C2.49179 15.9151 1.58883 18.1162 1.55241 20.55C1.49127 23.8992 2.72007 26.2735 5.30212 28.171C7.48397 29.7677 10.2746 30.8036 12.7333 31.5641C15.7656 32.5026 18.2427 33.3191 18.2122 35.0571C18.1879 35.6909 17.9485 36.2831 17.4924 36.761C16.7358 37.5409 15.5766 37.8335 13.9718 37.8653C10.876 37.9309 8.58226 37.4446 4.9262 35.2864L1.5498 41.9773C5.20197 44.0517 9.07873 45.0924 13.4838 45.0924L14.4746 45.085C18.3086 45.0157 21.4201 44.0978 23.8922 42.1113C24.034 41.9979 24.1609 41.8833 24.2927 41.7675L23.8777 43.903L33.1271 43.8737L34.7867 39.6298C36.5315 40.2247 38.5156 40.5538 40.6218 40.5538C42.6742 40.5538 44.6046 40.2418 46.3166 39.6812L47.4735 43.8737L64.0686 43.8895L64.1089 34.2147H67.6403C76.1758 34.2147 81.2216 29.876 81.2216 22.6C81.2188 14.4966 76.3137 10.9671 65.8734 10.9671V10.9681ZM40.6218 32.9816C39.3466 32.9816 38.1508 32.7596 37.1223 32.3696L40.5828 21.4556H40.65L44.0544 32.4002C43.0293 32.7659 41.8615 32.9816 40.6205 32.9816H40.6218ZM66.5152 26.7109H64.1065V17.9155H66.5165C69.7257 17.9155 72.2882 18.983 72.2882 22.2566C72.2854 25.6447 69.7257 26.7111 66.5165 26.7111" fill="white"/>
</g>
<defs>
<linearGradient id="paint0_linear_3047_11960" x1="5550" y1="0" x2="5550" y2="5484.54" gradientUnits="userSpaceOnUse">
<stop stopColor="#00AEEF"/>
<stop offset="0.212" stopColor="#0097DC"/>
<stop offset="0.519" stopColor="#007CC5"/>
<stop offset="0.792" stopColor="#006CB8"/>
<stop offset="1" stopColor="#0066B3"/>
</linearGradient>
<clipPath id="clip0_3047_11960">
<rect width="111" height="55" fill="white"/>
</clipPath>
</defs>
</svg>
