<svg width="88" height="62" viewBox="0 0 88 62" fill="none" xmlns="http://www.w3.org/2000/svg">
<g clipPath="url(#clip0_3047_11964)">
<path d="M36.6276 6.76756C39.4628 3.8074 43.4101 1.97151 47.7754 1.97151C53.5789 1.97151 58.642 5.21411 61.338 10.0277C63.7498 8.94808 66.3622 8.39168 69.0037 8.39506C79.4705 8.39506 87.956 16.9717 87.956 27.5513C87.956 38.1323 79.4705 46.7093 69.0037 46.7093C67.75 46.71 66.4994 46.585 65.2705 46.3363C62.8959 50.5802 58.3715 53.4474 53.1781 53.4474C51.0779 53.4502 49.0048 52.9721 47.1171 52.0496C44.7102 57.7226 39.1022 61.7006 32.5662 61.7006C25.7599 61.7006 19.9595 57.385 17.7327 51.3328C16.7599 51.5402 15.7516 51.648 14.7173 51.648C6.61373 51.648 0.043982 44.9974 0.043982 36.7921C0.0382134 34.1917 0.712622 31.6352 2 29.3774C3.28739 27.1195 5.14279 25.2392 7.38133 23.9236C6.45208 21.7795 5.97372 19.4664 5.97608 17.1288C5.97608 7.69239 13.6214 0.0429688 23.0519 0.0429688C28.5883 0.0429688 33.5084 2.68072 36.6276 6.76756Z" fill="#00A1E0"/>
<path d="M12.7776 32.0184C12.7226 32.1627 12.7976 32.1927 12.8155 32.2182C12.9805 32.3384 13.1482 32.4248 13.3173 32.5213C14.2142 32.9983 15.0605 33.1378 15.946 33.1378C17.7493 33.1378 18.8689 32.1768 18.8689 30.6293V30.5993C18.8689 29.1688 17.6053 28.649 16.4193 28.2743L16.2653 28.2237C15.3712 27.9326 14.5999 27.6818 14.5999 27.0918V27.0608C14.5999 26.5562 15.0505 26.1845 15.7494 26.1845C16.5259 26.1845 17.4475 26.4429 18.0411 26.7718C18.0411 26.7718 18.2151 26.8848 18.279 26.7153C18.3141 26.6251 18.6145 25.8146 18.6461 25.7268C18.6798 25.6314 18.6197 25.5611 18.5585 25.5236C17.881 25.1102 16.9442 24.8281 15.9749 24.8281L15.7944 24.8295C14.1441 24.8295 12.9918 25.8284 12.9918 27.2602V27.2902C12.9918 28.7999 14.263 29.289 15.4537 29.6304L15.6456 29.6896C16.5132 29.9566 17.2612 30.1863 17.2612 30.7987V30.8287C17.2612 31.3884 16.7751 31.8052 15.991 31.8052C15.6868 31.8052 14.7164 31.799 13.668 31.1349C13.5415 31.0608 13.4676 31.0071 13.3699 30.9482C13.3184 30.9155 13.1898 30.8587 13.1334 31.0295L12.7776 32.0184ZM39.1776 32.0184C39.1226 32.1627 39.1976 32.1927 39.2155 32.2182C39.3805 32.3384 39.5482 32.4248 39.7173 32.5213C40.6138 32.9983 41.4605 33.1378 42.346 33.1378C44.1493 33.1378 45.2689 32.1768 45.2689 30.6293V30.5993C45.2689 29.1688 44.0053 28.649 42.8193 28.2743L42.6653 28.2237C41.7712 27.9326 40.9995 27.6818 40.9995 27.0918V27.0608C40.9995 26.5562 41.4505 26.1845 42.1494 26.1845C42.9259 26.1845 43.8475 26.4429 44.4411 26.7718C44.4411 26.7718 44.6151 26.8848 44.679 26.7153C44.7141 26.6251 45.0145 25.8146 45.0458 25.7268C45.0798 25.6314 45.0197 25.5611 44.9581 25.5236C44.281 25.1102 43.3439 24.8281 42.3749 24.8281L42.1944 24.8295C40.5437 24.8295 39.3918 25.8284 39.3918 27.2602V27.2902C39.3918 28.7999 40.6626 29.289 41.8537 29.6304L42.0452 29.6896C42.9132 29.9566 43.6622 30.1863 43.6622 30.7987V30.8287C43.6622 31.3884 43.1748 31.8052 42.391 31.8052C41.5683 31.8111 40.7615 31.5783 40.068 31.1349C39.9415 31.0608 39.8662 31.0095 39.7713 30.9482C39.7386 30.9269 39.5857 30.8676 39.5331 31.0295L39.1776 32.0184ZM57.2001 28.9876C57.2001 29.8625 57.0372 30.5514 56.7168 31.0381C56.3999 31.5203 55.9203 31.7546 55.2514 31.7546C54.5814 31.7546 54.1043 31.5214 53.7925 31.0381C53.477 30.5524 53.3168 29.8625 53.3168 28.9876C53.3168 28.1145 53.477 27.4266 53.7925 26.9451C54.1043 26.468 54.5814 26.2359 55.2514 26.2359C55.9203 26.2359 56.3995 26.468 56.7178 26.9447C57.0375 27.427 57.2001 28.1145 57.2001 28.9876ZM58.7054 27.3663C58.5576 26.8659 58.3273 26.4243 58.0203 26.0564C57.7133 25.6875 57.3252 25.3916 56.8643 25.1757C56.4047 24.9611 55.8612 24.8519 55.2514 24.8519C54.6402 24.8519 54.0967 24.9611 53.6371 25.1757C53.1765 25.3913 52.7881 25.6875 52.4801 26.0564C52.1745 26.4253 51.9438 26.8672 51.795 27.3663C51.6486 27.8647 51.575 28.4093 51.575 28.9876C51.575 29.5663 51.6486 30.1122 51.795 30.6089C51.9442 31.1084 52.1731 31.55 52.4815 31.9192C52.7958 32.2941 53.191 32.5926 53.6371 32.7924C54.0978 33.0021 54.6402 33.1086 55.2514 33.1086C55.8612 33.1086 56.4036 33.0018 56.8643 32.7924C57.3106 32.5927 57.7058 32.2941 58.0203 31.9192C58.3273 31.5513 58.5576 31.1098 58.7054 30.6089C58.8532 30.1109 58.9271 29.5653 58.9271 28.9876C58.9271 28.4107 58.8532 27.8647 58.7054 27.3663ZM71.0663 31.5214C71.0165 31.3746 70.8748 31.4297 70.8748 31.4297C70.6559 31.5138 70.4228 31.5916 70.175 31.6306C69.9017 31.6709 69.6258 31.6906 69.3496 31.6895C68.6209 31.6895 68.042 31.4725 67.6274 31.0433C67.2118 30.6141 66.9788 29.9204 66.9812 28.9814C66.9839 28.1272 67.1895 27.4845 67.5587 26.995C67.9258 26.5083 68.4841 26.2586 69.2293 26.2586C69.8505 26.2586 70.3238 26.3299 70.8198 26.487C70.8198 26.487 70.9388 26.5386 70.9952 26.3826C71.1265 26.0165 71.2244 25.754 71.3647 25.3513C71.4046 25.237 71.3069 25.1881 71.2719 25.1743C71.0766 25.0978 70.6157 24.9735 70.2674 24.9208C69.9419 24.8708 69.5614 24.8443 69.1379 24.8443C68.5054 24.8443 67.942 24.9521 67.4597 25.1681C66.9788 25.3827 66.5707 25.6789 66.2476 26.0478C65.9245 26.4167 65.6791 26.8583 65.5151 27.3577C65.3521 27.8558 65.2696 28.4031 65.2696 28.9814C65.2696 30.2325 65.6065 31.2441 66.2713 31.9843C66.9375 32.7273 67.9385 33.1048 69.2431 33.1048C70.0144 33.1048 70.8061 32.9481 71.3743 32.7235C71.3743 32.7235 71.4836 32.6708 71.4362 32.544L71.0663 31.5214ZM73.7005 28.1499C73.7716 27.6643 73.9057 27.2602 74.1123 26.9454C74.4241 26.4673 74.8998 26.2049 75.5687 26.2049C76.2373 26.2049 76.6794 26.4684 76.9963 26.9454C77.2067 27.2602 77.2981 27.6818 77.3342 28.1499H73.7005ZM78.7684 27.0822C78.6405 26.5989 78.3236 26.1108 78.1159 25.8876C77.7877 25.5335 77.4673 25.2862 77.149 25.1485C76.6872 24.9519 76.1904 24.8511 75.6887 24.8522C75.0528 24.8522 74.4753 24.959 74.0071 25.1795C73.5375 25.4006 73.1429 25.7016 72.8335 26.0771C72.5242 26.4508 72.2914 26.8965 72.1436 27.4022C71.9944 27.905 71.9195 28.4537 71.9195 29.0321C71.9195 29.6207 71.9972 30.1687 72.1512 30.662C72.3062 31.159 72.5544 31.5971 72.8902 31.9595C73.2244 32.3246 73.6551 32.6108 74.1711 32.8103C74.6832 33.0087 75.3054 33.1117 76.0204 33.1103C77.492 33.1051 78.2675 32.7765 78.5865 32.5995C78.6429 32.5685 78.6969 32.513 78.6292 32.3549L78.2961 31.4201C78.2462 31.2806 78.1046 31.3323 78.1046 31.3323C77.7402 31.4676 77.2218 31.7112 76.0132 31.7087C75.2229 31.7074 74.6368 31.4738 74.2701 31.1087C73.893 30.735 73.7091 30.1856 73.6764 29.4099L78.7722 29.4147C78.7722 29.4147 78.9062 29.4123 78.92 29.2818C78.9248 29.2267 79.0953 28.2326 78.7684 27.0822ZM32.8915 28.1499C32.964 27.6643 33.0967 27.2602 33.3036 26.9454C33.6154 26.4673 34.0912 26.2049 34.7598 26.2049C35.4287 26.2049 35.8708 26.4684 36.1887 26.9454C36.3981 27.2602 36.4895 27.6818 36.5256 28.1499H32.8915ZM37.9584 27.0822C37.8305 26.5989 37.5149 26.1108 37.307 25.8876C36.979 25.5335 36.6583 25.2862 36.3403 25.1485C35.8786 24.9519 35.3818 24.8511 34.8801 24.8522C34.2452 24.8522 33.6666 24.959 33.1985 25.1795C32.7286 25.4006 32.3343 25.7016 32.0249 26.0771C31.7155 26.4508 31.4828 26.8965 31.335 27.4022C31.1872 27.905 31.1109 28.4537 31.1109 29.0321C31.1109 29.6207 31.1882 30.1687 31.3426 30.662C31.4976 31.159 31.7458 31.5971 32.0813 31.9595C32.4157 32.3246 32.8465 32.6108 33.3624 32.8103C33.8746 33.0087 34.4968 33.1117 35.2118 33.1103C36.6834 33.1051 37.4586 32.7765 37.7779 32.5995C37.8343 32.5685 37.8879 32.513 37.8205 32.3549L37.4888 31.4201C37.4372 31.2806 37.296 31.3323 37.296 31.3323C36.9316 31.4676 36.4142 31.7112 35.2032 31.7087C34.4143 31.7074 33.8282 31.4738 33.4614 31.1087C33.0843 30.735 32.9001 30.1856 32.8678 29.4099L37.9632 29.4147C37.9632 29.4147 38.0972 29.4123 38.111 29.2818C38.1161 29.2267 38.2863 28.2326 37.9584 27.0822ZM21.8774 31.4931C21.678 31.334 21.6505 31.2937 21.5831 31.1907C21.4828 31.034 21.4316 30.8104 21.4316 30.527C21.4316 30.0778 21.5794 29.7554 21.886 29.5384C21.8826 29.5394 22.3243 29.1554 23.3641 29.1692C24.0939 29.1795 24.7463 29.2873 24.7463 29.2873V31.6089H24.7477C24.7477 31.6089 24.1001 31.748 23.3713 31.7918C22.3342 31.8544 21.8736 31.4921 21.8774 31.4931ZM23.9048 27.9057C23.6982 27.8906 23.4305 27.8816 23.1097 27.8816C22.6725 27.8816 22.2504 27.9367 21.8551 28.0435C21.4733 28.1426 21.1126 28.3102 20.7905 28.5381C20.4828 28.7581 20.2299 29.0461 20.0514 29.38C19.8713 29.7165 19.7798 30.1129 19.7798 30.5569C19.7798 31.0088 19.8572 31.4015 20.0126 31.7229C20.164 32.0405 20.3928 32.315 20.6777 32.5209C20.9606 32.728 21.3102 32.8799 21.7158 32.9715C22.1153 33.0631 22.5683 33.1093 23.0644 33.1093C23.5869 33.1093 24.1076 33.0669 24.6123 32.9801C25.0418 32.906 25.4697 32.8232 25.8958 32.7317C26.065 32.6914 26.253 32.6401 26.253 32.6401C26.3795 32.6088 26.3692 32.4731 26.3692 32.4731L26.3668 27.8041C26.3668 26.7801 26.0938 26.0209 25.5566 25.5504C25.022 25.0809 24.2341 24.844 23.216 24.844C22.8344 24.844 22.2191 24.8967 21.8513 24.9707C21.8513 24.9707 20.7375 25.1863 20.2793 25.5453C20.2793 25.5453 20.1793 25.6079 20.2343 25.7485L20.5952 26.7198C20.6399 26.8452 20.7616 26.8025 20.7616 26.8025C20.7616 26.8025 20.8004 26.7877 20.8455 26.7611C21.8258 26.2266 23.0657 26.2431 23.0657 26.2431C23.6168 26.2431 24.0399 26.3533 24.3256 26.5731C24.6037 26.7863 24.745 27.1087 24.745 27.789V28.0046C24.3067 27.9419 23.9048 27.9057 23.9048 27.9057ZM65.0036 25.2745C65.0109 25.2575 65.0148 25.2392 65.0149 25.2206C65.015 25.202 65.0114 25.1837 65.0042 25.1665C64.9971 25.1494 64.9865 25.1339 64.9732 25.121C64.96 25.1081 64.9442 25.098 64.9269 25.0913C64.8406 25.0575 64.4072 24.9659 64.0727 24.9445C63.433 24.9056 63.0772 25.0134 62.7592 25.1567C62.4437 25.2997 62.0931 25.5304 61.8975 25.7929V25.1715C61.8975 25.0851 61.8363 25.0162 61.751 25.0162H60.4448C60.3599 25.0162 60.2983 25.0851 60.2983 25.1715V32.7872C60.2983 32.8726 60.3685 32.9429 60.4537 32.9429H61.7923C61.8126 32.9428 61.8327 32.9387 61.8514 32.9308C61.8702 32.923 61.8872 32.9115 61.9015 32.897C61.9158 32.8825 61.9271 32.8654 61.9348 32.8466C61.9425 32.8277 61.9464 32.8076 61.9463 32.7872V28.9825C61.9463 28.472 62.0027 27.9622 62.1154 27.6426C62.2254 27.326 62.376 27.0729 62.5612 26.8907C62.7383 26.716 62.9543 26.5861 63.1913 26.5118C63.4278 26.4391 63.6898 26.4153 63.8751 26.4153C64.1418 26.4153 64.4347 26.4842 64.4347 26.4842C64.5323 26.4956 64.5877 26.4353 64.6203 26.3464C64.7076 26.1129 64.9558 25.4137 65.0032 25.2745" fill="white"/>
<path d="M52.4372 21.7435C52.2718 21.6936 52.1037 21.6533 51.9336 21.6229C51.7048 21.5854 51.4732 21.5678 51.2413 21.5706C50.3194 21.5706 49.593 21.8313 49.0836 22.3459C48.5762 22.8578 48.2318 23.6373 48.0592 24.6623L47.9963 25.0075H46.8392C46.8392 25.0075 46.699 25.0023 46.6691 25.1556L46.48 26.2185C46.4663 26.3188 46.5099 26.3828 46.645 26.3828H47.7711L46.6289 32.7723C46.5402 33.2869 46.4374 33.7098 46.3233 34.0309C46.2119 34.3471 46.1033 34.5844 45.9678 34.7576C45.8372 34.923 45.7148 35.0463 45.5017 35.1176C45.3264 35.1768 45.1236 35.2044 44.9019 35.2044C44.7791 35.2044 44.6152 35.1841 44.4938 35.1593C44.3987 35.1407 44.3061 35.1106 44.2181 35.0697C44.2181 35.0697 44.0868 35.0198 44.0342 35.1517C43.993 35.2609 43.6922 36.0875 43.6561 36.1895C43.6211 36.2911 43.6709 36.37 43.7348 36.3938C43.8851 36.4465 43.9964 36.4816 44.2006 36.5305C44.4839 36.5973 44.7231 36.6008 44.9472 36.6008C45.4154 36.6008 45.8437 36.5343 46.1981 36.4065C46.5539 36.2773 46.8643 36.0524 47.14 35.7486C47.4367 35.42 47.6233 35.0763 47.8011 34.6057C47.9777 34.1414 48.1293 33.5641 48.2493 32.8918L49.3978 26.3828H51.076C51.076 26.3828 51.2172 26.3876 51.2461 26.2333L51.4366 25.1718C51.4489 25.0701 51.4066 25.0075 51.2698 25.0075H49.6405C49.6494 24.9709 49.7233 24.3964 49.91 23.8556C49.9901 23.6259 50.1403 23.4389 50.2668 23.3111C50.3859 23.1894 50.5325 23.0981 50.6941 23.0448C50.8556 22.9921 51.0395 22.967 51.2413 22.967C51.3939 22.967 51.5455 22.9845 51.6593 23.0083C51.8174 23.0424 51.8786 23.06 51.9199 23.0724C52.0866 23.1227 52.1089 23.0737 52.1416 22.9931L52.5311 21.9219C52.5713 21.8065 52.4723 21.7573 52.4372 21.7435ZM29.6734 32.7864C29.6734 32.8715 29.6119 32.9407 29.527 32.9407H28.1757C28.0904 32.9407 28.0303 32.8718 28.0303 32.7864V21.8892C28.0303 21.8041 28.0904 21.7349 28.1757 21.7349H29.5266C29.6119 21.7349 29.6734 21.8038 29.6734 21.8892V32.7864Z" fill="white"/>
</g>
<defs>
<clipPath id="clip0_3047_11964">
<rect width="88" height="62" fill="white"/>
</clipPath>
</defs>
</svg>
