<svg width="31" height="34" viewBox="0 0 31 34" fill="none" xmlns="http://www.w3.org/2000/svg">
<path d="M3.0856 20.028C2.79412 20.029 2.50834 19.9473 2.26147 19.7923C2.01459 19.6374 1.81675 19.4156 1.69093 19.1526C1.56511 18.8897 1.51648 18.5965 1.55068 18.307C1.58489 18.0175 1.70052 17.7437 1.88416 17.5173L17.1333 1.80615C17.2476 1.67411 17.4035 1.58489 17.5753 1.55313C17.7471 1.52136 17.9246 1.54893 18.0786 1.63133C18.2326 1.71372 18.3541 1.84604 18.423 2.00655C18.4919 2.16707 18.5043 2.34626 18.4579 2.51469L15.5005 11.7874C15.4133 12.0208 15.384 12.2718 15.4152 12.519C15.4463 12.7662 15.537 13.0022 15.6793 13.2067C15.8217 13.4111 16.0116 13.578 16.2326 13.693C16.4536 13.808 16.6993 13.8676 16.9484 13.8668H27.7306C28.0221 13.8658 28.3079 13.9475 28.5547 14.1025C28.8016 14.2575 28.9995 14.4793 29.1253 14.7422C29.2511 15.0052 29.2997 15.2984 29.2655 15.5879C29.2313 15.8773 29.1157 16.1511 28.9321 16.3775L13.683 32.0887C13.5686 32.2207 13.4127 32.31 13.2409 32.3417C13.0691 32.3735 12.8917 32.3459 12.7376 32.2635C12.5836 32.1811 12.4621 32.0488 12.3932 31.8883C12.3243 31.7278 12.312 31.5486 12.3583 31.3802L15.3157 22.1075C15.4029 21.8741 15.4322 21.623 15.401 21.3758C15.3699 21.1286 15.2792 20.8927 15.1369 20.6882C14.9945 20.4837 14.8047 20.3168 14.5836 20.2019C14.3626 20.0869 14.1169 20.0272 13.8678 20.028H3.0856Z" stroke="#F0B100" strokeWidth="3.08063" strokeLinecap="round" strokeLinejoin="round"/>
</svg>
