<svg width="37" height="37" viewBox="0 0 37 37" fill="none" xmlns="http://www.w3.org/2000/svg">
<path d="M23.839 19.8555L26.1726 32.9882C26.1987 33.1428 26.177 33.3018 26.1104 33.4437C26.0437 33.5857 25.9354 33.704 25.7997 33.7827C25.6641 33.8614 25.5076 33.8968 25.3513 33.8842C25.195 33.8716 25.0462 33.8116 24.9249 33.7121L19.4106 29.5733C19.1444 29.3744 18.821 29.267 18.4887 29.267C18.1564 29.267 17.833 29.3744 17.5668 29.5733L12.0433 33.7106C11.9221 33.8098 11.7735 33.8698 11.6174 33.8824C11.4612 33.895 11.305 33.8597 11.1694 33.7812C11.0338 33.7027 10.9254 33.5848 10.8587 33.4431C10.7919 33.3014 10.7699 33.1427 10.7956 32.9882L13.1277 19.8555" stroke="#2B7FFF" strokeWidth="3.08063" strokeLinecap="round" strokeLinejoin="round"/>
<path d="M18.4841 21.5638C23.5882 21.5638 27.7259 17.4261 27.7259 12.322C27.7259 7.21781 23.5882 3.08008 18.4841 3.08008C13.3799 3.08008 9.24219 7.21781 9.24219 12.322C9.24219 17.4261 13.3799 21.5638 18.4841 21.5638Z" stroke="#2B7FFF" strokeWidth="3.08063" strokeLinecap="round" strokeLinejoin="round"/>
</svg>
