<svg width="37" height="37" viewBox="0 0 37 37" fill="none" xmlns="http://www.w3.org/2000/svg">
<path d="M24.6445 32.3454V29.2648C24.6445 27.6307 23.9953 26.0636 22.8399 24.9081C21.6844 23.7526 20.1173 23.1035 18.4832 23.1035H9.24133C7.60726 23.1035 6.04013 23.7526 4.88467 24.9081C3.72921 26.0636 3.08008 27.6307 3.08008 29.2648V32.3454" stroke="#FF9500" strokeWidth="3.08063" strokeLinecap="round" strokeLinejoin="round"/>
<path d="M24.6445 4.81641C25.9657 5.15893 27.1358 5.93046 27.9711 7.00991C28.8064 8.08936 29.2596 9.41561 29.2596 10.7805C29.2596 12.1454 28.8064 13.4716 27.9711 14.5511C27.1358 15.6305 25.9657 16.4021 24.6445 16.7446" stroke="#FF9500" strokeWidth="3.08063" strokeLinecap="round" strokeLinejoin="round"/>
<path d="M33.8866 32.3463V29.2657C33.8855 27.9006 33.4312 26.5744 32.5948 25.4955C31.7584 24.4166 30.5874 23.646 29.2656 23.3047" stroke="#FF9500" strokeWidth="3.08063" strokeLinecap="round" strokeLinejoin="round"/>
<path d="M13.8624 16.9436C17.2652 16.9436 20.0237 14.1851 20.0237 10.7823C20.0237 7.37958 17.2652 4.62109 13.8624 4.62109C10.4597 4.62109 7.70117 7.37958 7.70117 10.7823C7.70117 14.1851 10.4597 16.9436 13.8624 16.9436Z" stroke="#FF9500" strokeWidth="3.08063" strokeLinecap="round" strokeLinejoin="round"/>
</svg>
