<svg width="56" height="56" viewBox="0 0 56 56" fill="none" xmlns="http://www.w3.org/2000/svg">
<path d="M0 27.7256C0 12.4132 12.4132 0 27.7256 0C43.0381 0 55.4513 12.4132 55.4513 27.7256C55.4513 43.0381 43.0381 55.4513 27.7256 55.4513C12.4132 55.4513 0 43.0381 0 27.7256Z" fill="#FFEDD4"/>
<path d="M32.3466 38.1228V35.8123C32.3466 34.5868 31.8598 33.4114 30.9932 32.5448C30.1266 31.6783 28.9512 31.1914 27.7257 31.1914H20.7943C19.5687 31.1914 18.3934 31.6783 17.5268 32.5448C16.6602 33.4114 16.1733 34.5868 16.1733 35.8123V38.1228" stroke="#FF9500" strokeWidth="2.31047" strokeLinecap="round" strokeLinejoin="round"/>
<path d="M32.3467 17.4763C33.3376 17.7332 34.2151 18.3119 34.8416 19.1214C35.4681 19.931 35.808 20.9257 35.808 21.9494C35.808 22.9731 35.4681 23.9677 34.8416 24.7773C34.2151 25.5869 33.3376 26.1656 32.3467 26.4225" stroke="#FF9500" strokeWidth="2.31047" strokeLinecap="round" strokeLinejoin="round"/>
<path d="M39.2782 38.1225V35.8121C39.2774 34.7882 38.9367 33.7936 38.3094 32.9844C37.6821 32.1752 36.8038 31.5973 35.8125 31.3413" stroke="#FF9500" strokeWidth="2.31047" strokeLinecap="round" strokeLinejoin="round"/>
<path d="M24.2601 26.5702C26.8122 26.5702 28.881 24.5014 28.881 21.9493C28.881 19.3972 26.8122 17.3284 24.2601 17.3284C21.708 17.3284 19.6392 19.3972 19.6392 21.9493C19.6392 24.5014 21.708 26.5702 24.2601 26.5702Z" stroke="#FF9500" strokeWidth="2.31047" strokeLinecap="round" strokeLinejoin="round"/>
</svg>
