<svg width="56" height="56" viewBox="0 0 56 56" fill="none" xmlns="http://www.w3.org/2000/svg">
<path d="M0 27.7256C0 12.4132 12.4132 0 27.7256 0C43.0381 0 55.4513 12.4132 55.4513 27.7256C55.4513 43.0381 43.0381 55.4513 27.7256 55.4513C12.4132 55.4513 0 43.0381 0 27.7256Z" fill="#FFEDD4"/>
<path d="M17.3286 30.0362H20.7943C21.4071 30.0362 21.9948 30.2796 22.4281 30.7129C22.8614 31.1462 23.1048 31.7339 23.1048 32.3467V35.8124C23.1048 36.4251 22.8614 37.0128 22.4281 37.4461C21.9948 37.8794 21.4071 38.1228 20.7943 38.1228H19.6391C19.0263 38.1228 18.4386 37.8794 18.0053 37.4461C17.572 37.0128 17.3286 36.4251 17.3286 35.8124V27.7257C17.3286 24.9682 18.424 22.3237 20.3739 20.3739C22.3237 18.424 24.9682 17.3286 27.7257 17.3286C30.4832 17.3286 33.1278 18.424 35.0776 20.3739C37.0274 22.3237 38.1228 24.9682 38.1228 27.7257V35.8124C38.1228 36.4251 37.8794 37.0128 37.4461 37.4461C37.0128 37.8794 36.4251 38.1228 35.8124 38.1228H34.6571C34.0444 38.1228 33.4567 37.8794 33.0234 37.4461C32.5901 37.0128 32.3467 36.4251 32.3467 35.8124V32.3467C32.3467 31.7339 32.5901 31.1462 33.0234 30.7129C33.4567 30.2796 34.0444 30.0362 34.6571 30.0362H38.1228" stroke="#FF9500" strokeWidth="2.31047" strokeLinecap="round" strokeLinejoin="round"/>
</svg>
