<svg width="1699" height="461" viewBox="0 0 1699 461" fill="none" xmlns="http://www.w3.org/2000/svg">
<path d="M1.41284 371.053V36.7334H32.4951V171.289C45.4871 155.324 60.058 143.399 76.1747 135.482C92.2914 127.565 109.954 123.623 129.162 123.623C163.304 123.623 192.478 136.008 216.653 160.744C240.828 185.514 252.899 215.539 252.899 250.853C252.899 285.74 240.697 315.503 216.291 340.207C191.886 364.877 162.547 377.229 128.274 377.229C108.605 377.229 90.8113 373.024 74.8261 364.582C58.8739 356.139 44.7306 343.525 32.4622 326.672V371.02H1.41284V371.053ZM125.709 347.335C142.977 347.335 158.929 343.098 173.533 334.589C188.137 326.081 199.78 314.156 208.398 298.782C217.048 283.408 221.357 267.147 221.357 249.999C221.357 232.851 217.015 216.524 208.299 201.019C199.583 185.514 187.873 173.425 173.204 164.785C158.502 156.145 142.845 151.809 126.137 151.809C109.165 151.809 93.015 156.145 77.7535 164.785C62.459 173.425 50.7497 185.054 42.5269 199.705C34.337 214.323 30.2256 230.814 30.2256 249.145C30.2256 277.068 39.4022 300.425 57.7885 319.215C76.2076 337.94 98.8368 347.335 125.709 347.335Z" stroke="white" strokeWidth="2.82569" stroke-miterlimit="10"/>
<path d="M512.456 290.756L538.721 304.526C530.109 321.426 520.144 335.064 508.86 345.44C497.575 355.817 484.872 363.723 470.75 369.126C456.628 374.528 440.658 377.229 422.84 377.229C383.311 377.229 352.428 364.283 330.123 338.424C307.818 312.564 296.698 283.345 296.698 250.732C296.698 220.063 306.135 192.721 325.008 168.706C348.93 138.169 380.936 122.917 421.058 122.917C462.369 122.917 495.332 138.564 520.012 169.826C537.533 191.898 546.475 219.47 546.772 252.511H328.77C329.364 280.61 338.338 303.637 355.76 321.59C373.149 339.544 394.629 348.537 420.201 348.537C432.541 348.537 444.551 346.396 456.199 342.113C467.879 337.831 477.778 332.132 485.961 325.049C494.078 317.967 502.921 306.536 512.456 290.756ZM512.456 225.597C508.299 208.994 502.228 195.719 494.276 185.803C486.324 175.888 475.798 167.883 462.732 161.789C449.666 155.727 435.906 152.664 421.487 152.664C397.698 152.664 377.273 160.306 360.182 175.558C347.709 186.66 338.239 203.361 331.871 225.564H512.456V225.597Z" stroke="white" strokeWidth="2.82569" stroke-miterlimit="10"/>
<path d="M631.612 39.5586H662.736V129.064H712.075V155.89H662.736V370.165H631.612V155.89H589.157V129.064H631.612V39.5586Z" stroke="white" strokeWidth="2.82569" stroke-miterlimit="10"/>
<path d="M872.581 122.917C909.917 122.917 940.882 136.39 965.409 163.37C987.725 187.977 998.882 217.098 998.882 250.732C998.882 284.53 987.097 314.047 963.494 339.313C939.924 364.58 909.587 377.229 872.548 377.229C835.344 377.229 804.974 364.58 781.371 339.313C757.801 314.047 745.983 284.498 745.983 250.732C745.983 217.23 757.141 188.175 779.456 163.6C804.083 136.489 835.113 122.917 872.581 122.917ZM872.482 153.388C846.535 153.388 824.253 162.942 805.634 182.081C787.016 201.187 777.674 224.312 777.674 251.457C777.674 268.949 781.932 285.255 790.416 300.376C798.9 315.496 810.388 327.157 824.847 335.393C839.306 343.628 855.184 347.746 872.482 347.746C889.78 347.746 905.625 343.628 920.084 335.393C934.543 327.157 946.031 315.496 954.515 300.376C962.999 285.255 967.258 268.949 967.258 251.457C967.258 224.345 957.915 201.22 939.198 182.081C920.514 162.942 898.264 153.388 872.482 153.388Z" stroke="white" strokeWidth="2.82569" stroke-miterlimit="10"/>
<path d="M1056.81 129.137H1087.71V173.563C1099.91 156.681 1113.94 144.044 1129.83 135.587C1145.69 127.162 1163.42 122.917 1182.97 122.917C1217.08 122.917 1246.25 135.291 1270.49 160.005C1294.75 184.719 1306.88 214.501 1306.88 249.285C1306.88 284.826 1294.88 314.97 1270.84 339.783C1246.81 364.596 1217.83 376.969 1183.86 376.969C1164.76 376.969 1147.2 372.987 1131.17 364.991C1115.15 356.994 1100.66 345.081 1087.75 329.252V459.174H1056.84V129.137H1056.81ZM1180.39 152.897C1153.67 152.897 1131.17 162.275 1112.89 181.066C1094.61 199.857 1085.49 223.222 1085.49 251.161C1085.49 269.491 1089.58 285.978 1097.72 300.622C1105.86 315.266 1117.54 326.883 1132.74 335.439C1147.95 344.028 1163.97 348.306 1180.85 348.306C1197.43 348.306 1213.03 343.995 1227.65 335.34C1242.26 326.685 1253.87 314.608 1262.54 299.075C1271.2 283.543 1275.52 267.286 1275.52 250.272C1275.52 233.127 1271.24 216.837 1262.64 201.469C1254.07 186.101 1242.49 174.155 1227.97 165.632C1213.42 157.175 1197.59 152.897 1180.39 152.897Z" stroke="white" strokeWidth="2.82569" stroke-miterlimit="10"/>
<path d="M1360.57 129.014V371.577H1391.65V94.6592L1360.57 129.014Z" stroke="white" strokeWidth="2.82569" stroke-miterlimit="10"/>
<path d="M1696.83 129.176V371.036H1666.21V329.463C1653.18 345.308 1638.58 357.266 1622.36 365.238C1606.18 373.243 1588.45 377.229 1569.21 377.229C1535.04 377.229 1505.83 364.81 1481.65 340.005C1457.45 315.167 1445.34 284.992 1445.34 249.414C1445.34 214.595 1457.54 184.782 1481.98 160.043C1506.39 135.303 1535.76 122.917 1570.1 122.917C1589.93 122.917 1607.86 127.134 1623.91 135.6C1639.96 144.066 1654.07 156.715 1666.21 173.615V129.143H1696.83V129.176ZM1572.63 152.96C1555.33 152.96 1539.38 157.21 1524.74 165.742C1510.1 174.241 1498.46 186.199 1489.81 201.615C1481.16 216.999 1476.85 233.306 1476.85 250.468C1476.85 267.499 1481.19 283.773 1489.94 299.321C1498.66 314.87 1510.37 326.96 1525.07 335.623C1539.77 344.287 1555.56 348.603 1572.4 348.603C1589.41 348.603 1605.52 344.32 1620.72 335.722C1635.95 327.124 1647.66 315.529 1655.88 300.87C1664.07 286.21 1668.18 269.707 1668.18 251.358C1668.18 223.39 1658.97 200.001 1640.58 181.191C1622.2 162.381 1599.54 152.96 1572.63 152.96Z" stroke="white" strokeWidth="2.82569" stroke-miterlimit="10"/>
<path d="M1391.65 89.0093V0L1436.86 44.521L1391.65 89.0093Z" fill="#F69348"/>
</svg>
