<svg width="84" height="84" viewBox="0 0 84 84" fill="none" xmlns="http://www.w3.org/2000/svg">
<g filter="url(#filter0_dd_338_11182)">
<path d="M13.8633 18.4838C13.8633 9.55156 21.1043 2.31055 30.0366 2.31055H53.1413C62.0735 2.31055 69.3145 9.55157 69.3145 18.4838V41.5885C69.3145 50.5208 62.0735 57.7618 53.1413 57.7618H30.0366C21.1043 57.7618 13.8633 50.5208 13.8633 41.5885V18.4838Z" fill="url(#paint0_linear_338_11182)" shapeRendering="crispEdges"/>
<path d="M41.5898 39.2788V41.5893" stroke="white" strokeWidth="2.31047" strokeLinecap="round" strokeLinejoin="round"/>
<path d="M41.5898 18.4839V20.7944" stroke="white" strokeWidth="2.31047" strokeLinecap="round" strokeLinejoin="round"/>
<path d="M47.3652 39.2788V41.5893" stroke="white" strokeWidth="2.31047" strokeLinecap="round" strokeLinejoin="round"/>
<path d="M47.3652 18.4839V20.7944" stroke="white" strokeWidth="2.31047" strokeLinecap="round" strokeLinejoin="round"/>
<path d="M30.0371 30.0366H32.3476" stroke="white" strokeWidth="2.31047" strokeLinecap="round" strokeLinejoin="round"/>
<path d="M30.0371 35.812H32.3476" stroke="white" strokeWidth="2.31047" strokeLinecap="round" strokeLinejoin="round"/>
<path d="M30.0371 24.2612H32.3476" stroke="white" strokeWidth="2.31047" strokeLinecap="round" strokeLinejoin="round"/>
<path d="M50.832 30.0366H53.1425" stroke="white" strokeWidth="2.31047" strokeLinecap="round" strokeLinejoin="round"/>
<path d="M50.832 35.812H53.1425" stroke="white" strokeWidth="2.31047" strokeLinecap="round" strokeLinejoin="round"/>
<path d="M50.832 24.2612H53.1425" stroke="white" strokeWidth="2.31047" strokeLinecap="round" strokeLinejoin="round"/>
<path d="M35.8125 39.2788V41.5893" stroke="white" strokeWidth="2.31047" strokeLinecap="round" strokeLinejoin="round"/>
<path d="M35.8125 18.4839V20.7944" stroke="white" strokeWidth="2.31047" strokeLinecap="round" strokeLinejoin="round"/>
<path d="M48.5209 20.7944H34.6581C33.3821 20.7944 32.3477 21.8289 32.3477 23.1049V36.9677C32.3477 38.2438 33.3821 39.2782 34.6581 39.2782H48.5209C49.797 39.2782 50.8314 38.2438 50.8314 36.9677V23.1049C50.8314 21.8289 49.797 20.7944 48.5209 20.7944Z" stroke="white" strokeWidth="2.31047" strokeLinecap="round" strokeLinejoin="round"/>
<path d="M45.0554 25.4155H38.124C37.486 25.4155 36.9688 25.9327 36.9688 26.5708V33.5022C36.9688 34.1402 37.486 34.6574 38.124 34.6574H45.0554C45.6934 34.6574 46.2106 34.1402 46.2106 33.5022V26.5708C46.2106 25.9327 45.6934 25.4155 45.0554 25.4155Z" stroke="white" strokeWidth="2.31047" strokeLinecap="round" strokeLinejoin="round"/>
</g>
<defs>
<filter id="filter0_dd_338_11182" x="0.000465393" y="7.82013e-05" width="83.1768" height="83.1768" filterUnits="userSpaceOnUse" colorInterpolationFilters="sRGB">
<feFlood floodOpacity="0" result="BackgroundImageFix"/>
<feColorMatrix in="SourceAlpha" type="matrix" values="0 0 0 0 0 0 0 0 0 0 0 0 0 0 0 0 0 0 127 0" result="hardAlpha"/>
<feMorphology radius="4.62094" operator="erode" in="SourceAlpha" result="effect1_dropShadow_338_11182"/>
<feOffset dy="4.62094"/>
<feGaussianBlur stdDeviation="3.4657"/>
<feComposite in2="hardAlpha" operator="out"/>
<feColorMatrix type="matrix" values="0 0 0 0 0 0 0 0 0 0 0 0 0 0 0 0 0 0 0.1 0"/>
<feBlend mode="normal" in2="BackgroundImageFix" result="effect1_dropShadow_338_11182"/>
<feColorMatrix in="SourceAlpha" type="matrix" values="0 0 0 0 0 0 0 0 0 0 0 0 0 0 0 0 0 0 127 0" result="hardAlpha"/>
<feMorphology radius="3.4657" operator="erode" in="SourceAlpha" result="effect2_dropShadow_338_11182"/>
<feOffset dy="11.5523"/>
<feGaussianBlur stdDeviation="8.66426"/>
<feComposite in2="hardAlpha" operator="out"/>
<feColorMatrix type="matrix" values="0 0 0 0 0 0 0 0 0 0 0 0 0 0 0 0 0 0 0.1 0"/>
<feBlend mode="normal" in2="effect1_dropShadow_338_11182" result="effect2_dropShadow_338_11182"/>
<feBlend mode="normal" in="SourceGraphic" in2="effect2_dropShadow_338_11182" result="shape"/>
</filter>
<linearGradient id="paint0_linear_338_11182" x1="13.8633" y1="2.31055" x2="69.3145" y2="57.7618" gradientUnits="userSpaceOnUse">
<stop stopColor="#2B7FFF"/>
<stop offset="1" stopColor="#1447E6"/>
</linearGradient>
</defs>
</svg>
