<svg width="163" height="78" viewBox="0 0 163 78" fill="none" xmlns="http://www.w3.org/2000/svg">
<g clipPath="url(#clip0_209_20291)">
<path d="M69.678 41.8242C70.175 49.2492 64.7327 55.1094 57.6043 55.5866C50.4758 56.0637 44.301 50.9812 43.8039 43.5562C43.3034 36.0789 48.7493 30.2711 55.8777 29.7939C63.0062 29.3167 69.1775 34.3469 69.678 41.8242ZM64.0148 42.2033C63.7042 37.5634 60.1252 34.6141 56.2179 34.8757C52.3106 35.1372 49.1566 38.5373 49.4672 43.1771C49.7746 47.7705 53.3568 50.7663 57.2641 50.5048C61.1714 50.2432 64.3219 46.7909 64.0148 42.2033Z" fill="white"/>
<path d="M97.5873 39.9561C98.0843 47.3811 92.642 53.2412 85.5136 53.7184C78.3851 54.1956 72.2103 49.1131 71.7132 41.6881C71.2131 34.2166 76.6586 28.4029 83.787 27.9257C90.9155 27.4486 97.0868 32.4788 97.5873 39.9561ZM91.9241 40.3352C91.6135 35.6953 88.0345 32.746 84.1272 33.0075C80.2199 33.2691 77.0659 36.6691 77.3765 41.309C77.684 45.9024 81.2661 48.8982 85.1734 48.6366C89.0807 48.3751 92.2312 44.9227 91.9241 40.3352Z" fill="white"/>
<path d="M123.523 26.0485L125.073 49.2014C125.71 58.7254 120.354 62.9912 113.714 63.4357C107.463 63.8541 103.422 59.9254 101.774 56.6015L106.567 54.219C107.586 56.2592 109.903 58.5921 113.368 58.3601C117.619 58.0756 120.077 55.277 119.746 50.3406L119.622 48.4858L119.425 48.499C118.262 50.148 115.911 51.6778 112.83 51.8841C106.381 52.3157 100.098 47.0945 99.6142 39.8672C99.1269 32.5875 104.655 26.5289 111.103 26.0972C114.179 25.8913 116.713 27.0943 118.088 28.5266L118.285 28.5133L118.145 26.4143L123.523 26.0543L123.523 26.0485ZM119.36 38.5454C119.056 34.0044 115.804 30.8871 111.949 31.1452C108.042 31.4067 104.991 34.9459 105.295 39.4869C105.596 43.9814 109.088 47.0358 112.996 46.7743C116.851 46.5162 119.661 43.0399 119.36 38.5454Z" fill="white"/>
<path d="M131.481 11.8844L134.011 49.678L128.487 50.0477L125.957 12.2542L131.481 11.8844Z" fill="white"/>
<path d="M155.01 40.3757L159.602 43.0119C158.324 45.2059 155.147 49.0513 149.239 49.4467C141.913 49.9371 136.063 44.6402 135.579 37.4071C135.065 29.7379 140.233 24.1414 146.879 23.6965C153.571 23.2485 157.201 28.3554 158.464 31.1619L159.149 32.5878L142.388 40.8819C143.881 43.381 146.021 44.5634 148.9 44.3708C151.784 44.1777 153.689 42.6251 155.01 40.3757ZM141.169 36.6415L152.373 31.0849C151.631 29.5167 149.649 28.5222 147.405 28.6724C144.527 28.8651 140.691 31.6741 141.169 36.6415Z" fill="white"/>
<path d="M22.6707 41.6009L22.3045 36.1295L40.7419 34.8953C40.986 35.8368 41.1545 36.9586 41.2363 38.1796C41.511 42.2846 40.7286 47.4357 37.3542 51.2943C34.0817 55.1928 29.7179 57.4473 23.764 57.8459C12.7283 58.5846 2.84675 50.2168 2.10803 39.181C1.3693 28.1453 10.0474 18.5351 21.0831 17.7963C27.1882 17.3877 31.6977 19.4921 35.1744 22.3957L31.5721 26.5149C29.0818 24.4739 25.7927 22.9769 21.4435 23.2681C13.3848 23.8075 7.51671 30.7241 8.05616 38.7829C8.5956 46.8416 15.3332 52.9144 23.3919 52.3749C28.6191 52.025 31.4555 49.7268 33.235 47.692C34.6781 46.0418 35.5477 43.7642 35.7469 40.7197L22.6707 41.6009Z" fill="white"/>
</g>
<defs>
<clipPath id="clip0_209_20291">
<rect width="157.968" height="67.1015" fill="white" transform="translate(0 10.5508) rotate(-3.82964)"/>
</clipPath>
</defs>
</svg>
