<svg width="134" height="46" viewBox="0 0 134 46" fill="none" xmlns="http://www.w3.org/2000/svg">
<path d="M0 1.30908L2.4772 38.3156L7.21309 38.017L6.03347 20.3949L17.4149 19.633L17.1028 14.9705L5.70315 15.7336L5.02733 5.63753L19.8687 4.64406L19.5578 -0.000106597L0 1.30908ZM28.5475 6.95797C29.3686 6.90301 30.134 6.52153 30.6754 5.89744C31.2168 5.27335 31.4898 4.45779 31.4344 3.63016C31.379 2.80252 30.9997 2.03062 30.38 1.48426C29.7602 0.937901 28.9508 0.661835 28.1298 0.716795C27.3087 0.771755 26.5433 1.15324 26.0019 1.77733C25.4605 2.40141 25.1875 3.21698 25.2429 4.04461C25.2983 4.87224 25.6776 5.64414 26.2973 6.1905C26.9171 6.73686 27.7265 7.01293 28.5475 6.95797ZM26.4729 11.7618L28.1366 36.6164L32.8713 36.2995L31.2075 11.4449L26.4729 11.7618Z" fill="white"/>
<path fill-rule="evenodd" clip-rule="evenodd" d="M48.6596 9.55754C42.3953 9.97687 38.3824 15.6111 38.8075 21.9624C39.2327 28.3138 43.9607 33.3629 50.225 32.9436C53.1022 32.751 55.3958 31.4911 57.0029 29.5397L57.2241 32.8438C57.3022 33.8303 57.1856 34.8224 56.881 35.7627C56.5764 36.7031 56.0898 37.573 55.4493 38.3223C54.8089 39.0716 54.0274 39.6853 53.1499 40.128C52.2724 40.5708 51.3163 40.8337 50.337 40.9016C48.8256 41.0028 47.293 40.5153 46.0528 39.7502L43.962 44.0388C45.8723 45.109 48.0333 45.64 50.2169 45.5757C52.4005 45.5114 54.5258 44.8543 56.3686 43.6735C58.2114 42.4928 59.7033 40.8324 60.687 38.8673C61.6706 36.9022 62.1096 34.7054 61.9575 32.5086L60.4179 9.50798L55.6832 9.82492L55.8319 12.046C53.9791 10.3262 51.538 9.38329 48.6608 9.57589L48.6596 9.55754ZM43.524 21.6467C43.2598 17.7001 46.0386 14.398 49.4985 14.1664C52.9585 13.9347 56.1356 16.8566 56.3986 20.7849C56.6628 24.7315 53.8827 28.0153 50.441 28.2457C46.9811 28.4773 43.7882 25.5934 43.524 21.6467Z" fill="white"/>
<path d="M77.688 12.2795C76.3355 12.3942 75.0827 13.0411 74.2006 14.0801C73.3186 15.1191 72.8781 16.4667 72.9745 17.8316L74.0263 33.5447L69.2916 33.8616L67.6279 9.00703L72.3626 8.69009L72.5149 10.9663C73.1599 9.97249 74.0289 9.14659 75.0511 8.55588C76.0732 7.96517 77.2196 7.62636 78.3968 7.56705C81.7111 7.34519 84.3711 8.82661 85.9975 11.2623C86.7252 9.93797 87.7675 8.81652 89.0311 7.99828C90.2947 7.18004 91.7402 6.69054 93.2382 6.57358C98.6102 6.21398 102.272 10.3573 102.634 15.7724L103.691 31.5589L98.9925 31.8734L97.9395 16.142C97.8531 14.7765 97.2369 13.4995 96.2242 12.5874C95.2116 11.6752 93.8838 11.2011 92.5281 11.2677C91.1756 11.3824 89.9228 12.0292 89.0407 13.0682C88.1587 14.1072 87.7182 15.4549 87.8146 16.8197L88.8664 32.5328L84.1317 32.8498L83.0799 17.1367C82.9938 15.7743 82.3803 14.4999 81.3716 13.588C80.3629 12.6761 79.0396 12.1996 77.6867 12.2611L77.688 12.2795Z" fill="white"/>
<path fill-rule="evenodd" clip-rule="evenodd" d="M127.401 7.84535C126.25 6.78722 124.898 5.97667 123.426 5.46329C121.954 4.94992 120.394 4.74451 118.842 4.85963C111.813 5.33016 107.224 11.6484 107.703 18.8073C108.182 25.9663 113.572 31.6165 120.601 31.146C122.155 31.05 123.672 30.6371 125.062 29.9324C126.452 29.2277 127.685 28.2458 128.686 27.0461L128.876 29.873L133.592 29.5573L131.928 4.70274L127.194 5.01968L127.383 7.84656L127.401 7.84535ZM112.419 18.4916C112.102 13.7557 115.456 9.75126 119.663 9.46967C123.851 9.18931 127.727 12.7098 128.044 17.4457C128.361 22.1817 125.006 26.1678 120.799 26.4493C116.611 26.7297 112.736 23.2276 112.419 18.4916Z" fill="white"/>
</svg>
