<svg width="161" height="78" viewBox="0 0 161 78" fill="none" xmlns="http://www.w3.org/2000/svg">
<g clipPath="url(#clip0_209_20297)">
<path fill-rule="evenodd" clip-rule="evenodd" d="M156.071 35.4809C156.375 35.0682 156.96 35.047 157.288 35.4436L157.285 35.4437L158.533 36.954C158.77 37.2444 158.796 37.6652 158.59 37.9772C156.784 40.7231 153.481 43.4709 149.309 43.9946C146.016 44.4071 143.204 43.3159 141.559 41.0073C141.233 40.5507 140.584 40.5662 140.284 41.0387C138.684 43.5604 136.68 45.5828 134.468 45.8608C130.53 46.3548 129.233 43.7327 129.812 37.7212C129.871 37.1227 129.327 36.6565 128.786 36.8408C127.982 37.1169 127.118 37.2728 126.23 37.2543C125.861 37.2468 125.531 37.4973 125.445 37.8753C124.309 42.8609 121.131 47.6406 116.642 48.2055C113.775 48.5656 109.365 47.1769 109.326 40.1437C109.324 39.5712 108.791 39.1564 108.284 39.3505C107.4 39.69 106.437 39.8866 105.442 39.8671C105.073 39.8597 104.745 40.1099 104.659 40.4882C103.523 45.4736 100.345 50.2535 95.8557 50.8182C92.9894 51.1783 88.5789 49.7897 88.54 42.7565C88.5376 42.184 88.0047 41.7691 87.4976 41.9634C86.6139 42.3028 85.6513 42.5014 84.656 42.4798C84.2872 42.4726 83.9595 42.7228 83.8734 43.1008C82.7366 48.0865 79.5595 52.8662 75.0699 53.4311C73.0307 53.6877 70.2077 53.0576 68.7354 50.1408C68.4517 49.5773 67.7114 49.5387 67.3817 50.0674C65.7673 52.6562 63.73 54.7508 61.475 55.0339C59.1638 55.3247 57.8312 54.4629 57.1663 52.8114C56.9305 52.2286 56.1884 52.136 55.8246 52.6349C54.3675 54.6346 52.6561 56.1427 50.8382 56.3706C48.0356 56.7244 46.2738 54.7118 45.9682 52.1514C45.6131 49.1639 46.6532 45.5683 47.8204 41.642C47.9826 41.0965 47.5862 40.5443 47.0441 40.5566C46.2206 40.5758 45.2769 40.5508 44.3841 40.4423C43.9815 40.3913 43.6124 40.6683 43.5268 41.0865C42.2524 47.3125 40.0752 53.477 38.1369 57.1646C37.9205 57.5776 37.4249 57.7169 37.0412 57.4682L35.2968 56.3358C34.9388 56.1013 34.8134 55.6132 35.0163 55.2253C37.8169 49.894 40.0713 41.6901 40.6367 35.6957C40.6716 35.313 40.9559 35.0116 41.3179 34.9654L43.5185 34.6879C44.0231 34.6241 44.4545 35.0777 44.3976 35.6121L44.3919 35.6686C44.3405 36.1445 44.679 36.5663 45.1295 36.5983C47.1293 36.7428 50.0922 36.5784 52.0963 36.3642C52.6598 36.3045 53.0989 36.8717 52.9308 37.4416C51.6107 41.9108 49.8551 48.0991 50.1394 50.4827C50.2683 51.5592 50.7768 52.1179 51.5984 52.0148C53.1706 51.8176 55.3821 48.4278 56.9816 44.7109C57.0112 44.6447 57.0309 44.5735 57.0412 44.5007C57.4728 41.6451 58.1829 38.4459 58.9003 35.2135L58.9449 35.0127C59.0187 34.6755 59.2839 34.4254 59.6103 34.3836L62.2462 34.053C62.7902 33.9845 63.2362 34.5153 63.1075 35.0785C63.0018 35.5429 62.8964 36.0043 62.7919 36.4614C60.983 44.3783 59.464 51.027 62.0872 50.6982C63.8019 50.4831 66.0421 47.3499 67.857 42.9817C67.8862 42.9096 67.9058 42.8342 67.9157 42.7555C67.9842 42.1962 68.0735 41.6098 68.1895 40.9953C69.0801 35.9447 70.1379 30.9298 71.1968 25.9088C71.5236 24.3592 71.8506 22.809 72.1727 21.257C72.2444 20.9139 72.5109 20.6578 72.841 20.6156L75.5464 20.2764C76.0963 20.2075 76.5424 20.7443 76.4063 21.312C75.5532 24.845 74.6661 28.6065 73.8265 32.2266C73.6504 32.9893 74.4792 33.5584 75.072 33.0863C76.0937 32.2691 77.2999 31.6917 78.4952 31.5417C81.54 31.1597 83.7919 33.5778 84.2492 37.4174C84.2739 37.62 84.3005 37.8385 84.3207 38.0613C84.3604 38.4873 84.6982 38.811 85.1023 38.8199C86.5497 38.8532 87.9913 38.3202 89.0582 37.2137C89.1679 37.1002 89.2372 36.9514 89.2662 36.7932C90.0948 32.2706 91.0424 27.7733 91.9903 23.2704C92.3153 21.7287 92.6402 20.1864 92.9605 18.6421C93.0317 18.299 93.2985 18.0429 93.629 18.0007L96.3337 17.6615C96.8836 17.5927 97.3305 18.1294 97.1944 18.6971C96.3406 22.2301 95.4536 25.9916 94.614 29.6117C94.4379 30.3744 95.2673 30.9435 95.8596 30.4714C96.8817 29.6542 98.0879 29.0769 99.2824 28.9268C102.327 28.5449 104.579 30.9629 105.037 34.8027C105.062 35.005 105.088 35.2238 105.109 35.4465C105.146 35.8725 105.486 36.1961 105.89 36.2052C107.337 36.2384 108.779 35.7053 109.846 34.5987C109.955 34.4855 110.024 34.3366 110.054 34.1784C110.883 29.6558 111.83 25.1586 112.778 20.6557C113.103 19.114 113.428 17.5716 113.748 16.0273C113.82 15.6841 114.087 15.428 114.416 15.3859L117.122 15.0466C117.672 14.9778 118.118 15.5145 117.982 16.0823C117.129 19.6152 116.242 23.3767 115.402 26.9968C115.226 27.7595 116.055 28.3287 116.648 27.8566C117.669 27.0393 118.875 26.462 120.07 26.312C123.115 25.93 125.367 28.348 125.825 32.1877C125.85 32.3923 125.876 32.6088 125.896 32.8316C125.936 33.2554 126.272 33.5813 126.675 33.5904C128.076 33.6227 129.472 33.1248 130.527 32.0912C130.644 31.9772 130.721 31.8219 130.751 31.6556C131.697 26.5428 133.14 19.8309 134.534 13.4065C134.608 13.0672 134.874 12.8171 135.201 12.7752L137.882 12.4376C138.426 12.3692 138.871 12.8959 138.744 13.459C136.81 22.066 135.267 29.5855 134.434 34.0161C133.336 40.0241 133.392 41.7323 135.083 41.519C136.504 41.3398 138.287 39.1541 139.89 35.9232C139.954 35.7968 139.982 35.6549 139.979 35.513C139.799 29.272 143.173 23.3579 148.73 22.6596C152.452 22.1922 154.691 24.9255 155.027 27.7401C155.667 33.1133 150.657 36.9106 145.556 36.9316C144.962 36.9332 144.575 37.608 144.873 38.1526C145.686 39.6479 147.238 40.4092 149.778 40.0888C152.194 39.787 154.596 37.4878 156.071 35.4809ZM72.21 42.6142C71.3335 47.6085 72.9256 49.4339 74.811 49.1976C77.9062 48.8081 80.5247 42.8164 79.9942 38.3629C79.7616 36.4184 78.571 35.4769 77.2653 35.6405C75.091 35.9141 72.9118 38.6288 72.21 42.6142ZM92.9975 40.0015C92.1213 44.9955 93.7133 46.8211 95.5992 46.5848L95.5969 46.5849C98.6921 46.1955 101.312 40.2036 100.782 35.7502C100.551 33.8054 99.3585 32.8641 98.0528 33.0276C95.8787 33.3013 93.6999 36.016 92.9975 40.0015ZM113.786 37.3884C112.909 42.3826 114.501 44.2082 116.387 43.9719L116.385 43.972C119.478 43.5828 122.1 37.5908 121.57 33.1373C121.339 31.1925 120.147 30.2512 118.841 30.4147C116.667 30.6884 114.487 33.4032 113.786 37.3884ZM151.088 28.4403C150.983 27.1539 150.143 26.2731 148.886 26.4313L148.885 26.4314C146.416 26.7428 144.658 29.6015 144.262 32.9537C144.199 33.4865 144.611 33.9515 145.117 33.9055C148.313 33.6097 151.378 31.246 151.088 28.4403ZM35.0265 38.6105C34.0348 28.6557 27.2152 22.4989 17.8121 23.4727C13.7774 23.931 9.25067 25.8018 5.95334 28.8256C5.64325 29.1106 5.59078 29.5987 5.83756 29.9506L7.47984 32.2994C7.76022 32.7011 8.30271 32.7508 8.64915 32.4153C11.1509 29.9973 14.6724 28.286 18.1442 27.8974C24.5858 27.1919 29.6133 31.0801 30.4341 39.1862C31.4139 48.6232 25.8856 59.8633 15.8772 61.1219C15.5282 61.1653 15.1634 61.1978 14.798 61.2222C14.2857 61.2565 13.8732 60.7735 13.966 60.2387C15.3714 52.1537 17.0623 43.471 18.8379 35.3773C18.961 34.8144 18.5174 34.2915 17.9753 34.3599L15.0487 34.728C14.7205 34.77 14.4535 35.0221 14.3799 35.3634C12.6855 43.3135 11.0333 51.9236 9.56845 59.9965C9.48425 60.4626 9.04423 60.7564 8.6087 60.6372C7.54308 60.3463 6.56451 59.9994 5.72251 59.5731C5.31907 59.3679 4.83847 59.5644 4.66711 60.0002L3.58488 62.7677C3.42498 63.1769 3.59502 63.654 3.97654 63.8426C6.94781 65.3016 11.3539 65.9536 15.7025 65.4084C30.0127 63.6093 36.1473 49.6437 35.0268 38.6145L35.0265 38.6105ZM62.4387 24.4629C60.6977 24.6816 59.2814 26.7826 59.5316 28.8802C59.6959 30.2628 60.6338 31.131 61.9883 30.9623C63.7293 30.7436 65.1817 28.534 64.9441 26.5377C64.7798 25.1552 63.6955 24.3047 62.4387 24.4629Z" fill="white"/>
</g>
<defs>
<clipPath id="clip0_209_20297">
<rect width="156.57" height="67.1015" fill="white" transform="translate(0 10.4573) rotate(-3.82964)"/>
</clipPath>
</defs>
</svg>
