<svg width="184" height="79" viewBox="0 0 184 79" fill="none" xmlns="http://www.w3.org/2000/svg">
<g clipPath="url(#clip0_209_20295)">
<path fill-rule="evenodd" clip-rule="evenodd" d="M141.865 46.7534C146.467 46.4453 149.964 42.5264 149.662 38.0175C149.36 33.5084 145.372 30.0906 140.77 30.3986C136.17 30.7066 132.672 34.6255 132.974 39.1346C133.275 43.6435 137.264 47.0613 141.865 46.7534ZM148.302 17.6952L148.528 17.6801L152.255 17.4306L154.424 49.8319L150.47 50.0965L150.254 46.8613C148.111 49.0863 145.246 50.4184 142.124 50.6274C135.344 51.0812 129.466 46.0442 129.021 39.3992C128.576 32.7537 133.731 26.9784 140.511 26.5245C143.632 26.3156 146.65 27.2537 149.07 29.1735L148.302 17.6952ZM59.8743 52.0984C64.4752 51.7904 67.9728 47.8716 67.671 43.3625C67.3692 38.8536 63.3805 35.4359 58.7796 35.7438C54.1784 36.0518 50.6808 39.9707 50.9826 44.4796C51.2845 48.9887 55.2732 52.4064 59.8743 52.0984ZM50.3906 35.636C52.5334 33.4109 55.3998 32.0787 58.5202 31.8698C65.3008 31.4159 71.1792 36.4529 71.624 43.0979C72.0689 49.743 66.9142 55.5185 60.1336 55.9724C57.0132 56.1813 53.9948 55.2433 51.5746 53.3233L52.343 64.8017L48.3899 65.0663L46.221 32.6651L50.174 32.4005L50.3906 35.636ZM79.0407 40.7114C79.6852 36.9898 82.8242 34.1385 86.6055 33.8853C90.3374 33.6355 93.6358 35.9996 94.7178 39.662L79.0407 40.7114ZM86.344 29.9793C79.665 30.4263 74.5963 36.241 75.0448 42.9405C75.4932 49.6403 81.2917 54.7273 87.9707 54.2802C91.7109 54.0298 95.0496 52.3954 97.1323 49.7959L98.2142 48.4447L98.3536 48.2704L98.1798 48.1298L95.4855 45.9583L95.3117 45.8179L95.1715 45.9924L94.0896 47.3437C92.7096 49.0662 90.3245 50.1993 87.7093 50.3744C83.928 50.6275 80.4371 48.2199 79.3021 44.6172L99.0865 43.2929L98.9557 41.34C98.4997 34.5266 92.9598 29.5364 86.344 29.9793ZM176.984 36.1169C177.288 40.6629 173.793 44.6119 169.192 44.9199C164.591 45.2278 160.6 41.78 160.296 37.234C159.992 32.6878 163.487 28.7387 168.088 28.4308C172.69 28.1228 176.68 31.5707 176.984 36.1169ZM167.827 24.5248C161.046 24.9787 155.895 30.7987 156.343 37.4985C156.792 44.1983 162.673 49.2797 169.453 48.8258C176.234 48.3719 181.386 42.5519 180.938 35.8522C180.489 29.1523 174.608 24.0709 167.827 24.5248ZM112.83 28.2063C110.084 28.3901 107.537 29.6113 105.605 31.6596L105.407 28.7032L101.559 28.9608L103.185 53.2618L107.034 53.0041L106.204 40.603C105.907 36.1785 108.997 32.3559 113.09 32.0819C117.184 31.8078 120.756 35.1846 121.052 39.609L121.882 52.0102L125.73 51.7526L124.9 39.3515C124.46 32.79 119.046 27.7902 112.83 28.2063Z" fill="white"/>
<path fill-rule="evenodd" clip-rule="evenodd" d="M2.59359 50.6963L21.1912 49.4514L22.4084 67.6359L39.7889 48.2065L38.5717 30.0222L19.9739 31.2671L2.59359 50.6963Z" fill="white"/>
</g>
<defs>
<clipPath id="clip0_209_20295">
<rect width="178.937" height="67.1015" fill="white" transform="translate(0 11.9512) rotate(-3.82964)"/>
</clipPath>
</defs>
</svg>
