<svg width="190" height="80" viewBox="0 0 190 80" fill="none" xmlns="http://www.w3.org/2000/svg">
<g clipPath="url(#clip0_209_20296)">
<path d="M20.9735 19.4205L0.560242 20.787L3.82816 69.6059L20.9735 19.4205Z" fill="white"/>
<path d="M35.3362 18.4591L55.7228 17.0944L58.9907 65.9133L35.3362 18.4591Z" fill="white"/>
<path d="M29.3594 36.9328L44.4156 66.8891L35.8912 67.4597L31.3511 57.9053L21.8426 58.5418L29.3594 36.9328Z" fill="white"/>
<path d="M91.1032 45.911L93.9722 52.6518C94.0636 52.8193 94.1886 52.8911 94.4014 52.8769L99.0293 52.5671C99.282 52.5502 99.3138 52.4278 99.257 52.1778L87.9177 26.2607C87.8635 26.0506 87.821 26.0134 87.6082 26.0276L81.8632 26.4122C81.7036 26.4229 81.6186 26.5488 81.6301 26.7217C81.6438 28.1234 81.5526 28.5569 81.4073 28.9808L74.5058 53.7946C74.4855 54.0898 74.5866 54.2033 74.826 54.1873L78.9618 53.9104C79.2145 53.8935 79.3288 53.8057 79.405 53.5468L81.2224 46.5724L91.1032 45.911ZM82.2372 41.9761C83.2344 38.1156 84.5594 33.1646 85.0392 30.354L85.0791 30.3513C86.0976 33.1952 88.4238 38.8102 89.4849 41.4909L82.2372 41.9761Z" fill="white"/>
<path d="M111.602 52.1395C114.089 51.973 116.705 51.3437 119.314 50.0069C119.521 49.9129 119.555 49.8171 119.541 49.6177C119.412 48.8783 119.247 47.8073 119.191 46.9828L117.518 21.9816C117.507 21.822 117.502 21.7422 117.302 21.7556L112.794 22.0573C112.621 22.0689 112.547 22.1541 112.561 22.3668L113.128 30.838C112.418 30.8054 111.923 30.7984 111.338 30.8376C104.064 31.3245 99.9169 36.4244 100.318 42.422C100.784 49.3772 105.604 52.541 111.602 52.1395ZM114.231 47.3149C113.502 47.6041 112.684 47.7524 111.846 47.8085C108.548 48.0292 105.724 46.3481 105.421 41.8266C105.153 37.8238 107.774 35.2706 111.458 35.024C112.203 34.9742 112.86 35.0103 113.419 35.1866L114.231 47.3149Z" fill="white"/>
<path d="M132.635 29.4121C126.425 29.8278 122.9 34.8459 123.294 40.7239C123.645 45.9768 127.061 51.1048 133.963 50.6428C139.801 50.252 143.609 45.6824 143.179 39.2592C142.8 33.594 139.005 28.9857 132.635 29.4121ZM132.662 33.6047C136.173 33.3697 137.864 36.2888 138.095 39.7331C138.38 43.9886 136.327 46.25 133.774 46.4209C130.622 46.6319 128.583 44.1101 128.328 40.2934C128.065 36.3703 129.883 33.7908 132.662 33.6047Z" fill="white"/>
<path d="M146.558 19.7972C146.386 19.8087 146.271 19.8965 146.285 20.1093L148.18 48.4086C148.188 48.5283 148.322 48.733 148.497 48.7614C150.52 49.2405 152.614 49.3941 154.755 49.2508C160.886 48.8404 166.589 44.6383 166.076 36.9783C165.705 31.4328 161.619 27.4718 155.661 27.8706C154.292 27.9623 153.029 28.2605 151.937 28.7077L151.288 19.8145C151.269 19.5219 151.186 19.4874 150.894 19.507L146.558 19.7972ZM161.016 37.8246C161.324 42.4126 158.329 44.777 154.938 45.004C154.233 45.0512 153.606 45.0532 153.022 44.9186L152.214 32.8435C152.849 32.5472 153.619 32.2819 155.069 32.1849C158.34 31.9659 160.753 33.8882 161.016 37.8246Z" fill="white"/>
<path d="M183.034 37.847C185.055 37.7117 186.715 37.5605 187.278 37.3892C187.488 37.3351 187.563 37.25 187.591 37.0744C187.68 36.6143 187.67 35.6665 187.593 34.5095C187.329 30.5732 184.641 25.9308 178.523 26.3403C172.273 26.7587 169.143 32.0844 169.528 37.8294C169.869 42.9227 172.909 48.0357 180.436 47.5319C183.256 47.3431 185.047 46.769 186.567 45.9193C186.721 45.8288 186.792 45.6905 186.776 45.4511L186.545 42.0068C186.532 41.8073 186.409 41.7754 186.295 41.8632C184.77 42.6332 183.09 43.0796 181.229 43.2042C177.013 43.4864 174.942 41.2874 174.629 38.4096L183.034 37.847ZM174.391 34.8456C174.588 32.8019 175.718 30.5222 178.577 30.3308C181.729 30.1199 182.73 32.7111 182.81 33.9079C182.813 33.9478 182.825 34.1207 182.833 34.2404C182.662 34.2919 182.13 34.3275 180.561 34.4325L174.391 34.8456Z" fill="white"/>
</g>
<defs>
<clipPath id="clip0_209_20296">
<rect width="185.927" height="67.1015" fill="white" transform="translate(0 12.4181) rotate(-3.82964)"/>
</clipPath>
</defs>
</svg>
