<svg width="223" height="82" viewBox="0 0 223 82" fill="none" xmlns="http://www.w3.org/2000/svg">
<path d="M58.0964 30.9451L79.9383 29.483L80.2105 33.5491L71.6104 34.1248L73.1448 57.0462L68.431 57.3617L66.8966 34.4403L58.3326 35.0136L58.0964 30.9451ZM79.5013 36.9942L83.5314 36.7244L83.7844 40.5026L83.8563 40.4978C83.9641 39.9484 84.1823 39.4278 84.5084 38.9C84.8345 38.3721 85.235 37.8754 85.7482 37.4435C86.2231 36.978 86.7772 36.6156 87.408 36.3203C88.0029 36.0275 88.6409 35.8402 89.2886 35.7968C89.7924 35.7631 90.1546 35.775 90.3345 35.763C90.5169 35.7869 90.7352 35.8085 90.9151 35.7964L91.1921 39.9345C90.8994 39.8818 90.5732 39.8675 90.2469 39.8532C89.9206 39.8389 89.6304 39.8222 89.3065 39.8438C88.5868 39.892 87.9128 40.0817 87.2844 40.4129C86.6559 40.7442 86.1451 41.2121 85.6775 41.7856C85.2482 42.3926 84.8982 43.1028 84.6657 43.9497C84.4332 44.7966 84.3543 45.7777 84.4266 46.8572L85.048 56.1409L80.73 56.43L79.5013 36.9942ZM112.043 54.4423L107.797 54.7266L107.614 51.9918L107.542 51.9967C107.069 53.0403 106.328 53.849 105.326 54.5305C104.323 55.2121 103.263 55.5722 102.183 55.6445C99.6287 55.8155 97.7166 55.329 96.4784 54.1107C95.2426 52.9284 94.5368 51.0238 94.3658 48.469L93.5348 36.0548L97.8528 35.7657L98.6549 47.7482C98.7705 49.4754 99.1763 50.6771 99.9057 51.315C100.602 51.9913 101.561 52.2885 102.749 52.2091C103.648 52.1488 104.394 51.9543 104.987 51.6255C105.579 51.2967 106.059 50.9031 106.387 50.4113C106.752 49.917 106.965 49.3244 107.102 48.6647C107.238 48.0049 107.262 47.2804 107.212 46.5248L106.453 35.1901L110.771 34.901L112.079 54.4399L112.043 54.4423ZM118.964 47.6899C119.192 48.9397 119.718 49.7719 120.582 50.2563C121.443 50.7047 122.468 50.8891 123.619 50.812C124.015 50.7855 124.48 50.7182 124.979 50.6125C125.478 50.5068 125.975 50.3652 126.394 50.1564C126.85 49.9451 127.193 49.6692 127.457 49.29C127.721 48.9109 127.836 48.4695 127.764 47.9322C127.691 47.3948 127.48 46.9391 127.06 46.6058C126.64 46.2724 126.156 46.0519 125.563 45.8385C124.973 45.6611 124.277 45.527 123.512 45.4336C122.747 45.3403 121.979 45.211 121.175 45.084C120.372 44.9571 119.566 44.7942 118.793 44.5929C118.021 44.3916 117.351 44.1111 116.708 43.6843C116.104 43.291 115.564 42.785 115.194 42.123C114.788 41.4634 114.555 40.6838 114.488 39.6763C114.416 38.5968 114.61 37.7163 115.101 36.9605C115.557 36.2071 116.202 35.5856 116.965 35.1008C117.728 34.6161 118.606 34.232 119.565 33.987C120.525 33.7421 121.455 33.6075 122.319 33.5497C123.326 33.4822 124.305 33.5252 125.219 33.6808C126.133 33.8365 127.019 34.1026 127.772 34.5581C128.559 34.9753 129.214 35.5821 129.732 36.3064C130.287 37.0284 130.637 37.9447 130.853 39.0145L126.355 39.3156C126.07 38.2865 125.556 37.6342 124.812 37.3225C124.033 37.0133 123.193 36.8888 122.221 36.9538C121.934 36.9731 121.54 37.0355 121.147 37.098C120.72 37.1989 120.365 37.2949 119.979 37.4654C119.628 37.6334 119.319 37.871 119.084 38.1397C118.849 38.4084 118.729 38.7779 118.758 39.2097C118.794 39.7495 119.001 40.1332 119.382 40.433C119.764 40.7328 120.248 40.9533 120.877 41.1643C121.467 41.3416 122.163 41.4758 122.928 41.5691C123.693 41.6625 124.497 41.7894 125.301 41.9163C126.104 42.0433 126.874 42.2086 127.647 42.4099C128.419 42.6112 129.125 42.8893 129.732 43.3185C130.336 43.7118 130.876 44.2178 131.28 44.8414C131.683 45.465 131.918 46.2806 131.981 47.2161C132.058 48.3676 131.871 49.356 131.387 50.2198C130.9 51.0475 130.262 51.777 129.468 52.3361C128.674 52.8953 127.727 53.3202 126.736 53.6395C125.707 53.9253 124.709 54.1366 123.701 54.2041C122.478 54.286 121.317 54.2191 120.254 54.0011C119.191 53.7831 118.227 53.4139 117.435 52.9248C116.641 52.3996 115.983 51.7569 115.494 50.9222C115.007 50.1235 114.687 49.1328 114.572 47.9478L118.926 47.6563L118.928 47.6923L118.964 47.6899ZM132.289 33.4606L135.563 33.2414L135.168 27.3402L139.486 27.0511L139.879 32.9164L143.765 32.6562L143.979 35.8588L140.093 36.1189L140.792 46.5541C140.823 47.0218 140.883 47.3793 140.943 47.7367C141.001 48.0581 141.128 48.3388 141.251 48.5474C141.409 48.7537 141.637 48.9192 141.896 49.0103C142.191 49.0989 142.556 49.1468 143.059 49.1131C143.347 49.0938 143.671 49.0721 143.957 49.0169C144.242 48.9616 144.564 48.904 144.847 48.8127L145.071 52.1592C144.608 52.2625 144.142 52.3298 143.677 52.3971C143.214 52.5003 142.782 52.5292 142.278 52.563C141.127 52.64 140.22 52.5923 139.522 52.4222C138.824 52.252 138.262 51.9643 137.84 51.595C137.415 51.1897 137.13 50.7028 136.945 50.1007C136.76 49.4986 136.637 48.7478 136.548 47.9586L135.778 36.4439L132.503 36.6631L132.284 33.3886L132.289 33.4606ZM146.79 32.4899L150.856 32.2177L151.034 34.8805L151.106 34.8757C151.641 33.6832 152.416 32.8362 153.461 32.2602C154.507 31.6842 155.642 31.3552 156.937 31.2685C158.485 31.1649 159.833 31.3277 161.023 31.8263C162.21 32.289 163.194 32.946 164.015 33.867C164.833 34.752 165.483 35.8289 165.928 37.0643C166.372 38.2996 166.679 39.6525 166.773 41.0558C166.862 42.3872 166.767 43.6587 166.525 44.9038C166.247 46.1513 165.818 47.3005 165.197 48.2818C164.576 49.2632 163.763 50.0766 162.722 50.7246C161.681 51.3726 160.476 51.7424 159.037 51.8387C158.425 51.8797 157.773 51.8511 157.154 51.7841C156.535 51.7171 155.911 51.5781 155.319 51.3648C154.726 51.1514 154.165 50.8637 153.67 50.4992C153.14 50.1371 152.713 49.6958 152.355 49.2137L152.283 49.2185L152.936 58.97L148.618 59.259L146.826 32.4875L146.79 32.4899ZM162.522 41.2681C162.464 40.4045 162.299 39.5481 161.991 38.7374C161.72 37.9242 161.312 37.2286 160.801 36.6122C160.29 35.9959 159.68 35.5306 159.006 35.1782C158.296 34.8281 157.492 34.7012 156.629 34.759C154.83 34.8794 153.503 35.5827 152.652 36.9047C151.837 38.2244 151.482 39.9469 151.622 42.0339C151.689 43.0415 151.857 43.9338 152.165 44.7446C152.472 45.5553 152.844 46.2533 153.389 46.8313C153.897 47.4117 154.504 47.8409 155.212 48.155C155.92 48.4691 156.688 48.5984 157.587 48.5382C158.595 48.4707 159.372 48.2019 160.029 47.7603C160.686 47.3187 161.19 46.7428 161.617 46.0998C162.005 45.4232 162.281 44.6818 162.405 43.8422C162.528 42.9665 162.58 42.1317 162.522 41.2681ZM168.961 23.5239L173.279 23.2348L173.551 27.3009L169.233 27.59L168.961 23.5239ZM169.46 30.9724L173.778 30.6834L175.086 50.2223L170.768 50.5113L169.46 30.9724ZM177.129 22.9771L181.447 22.6881L183.254 49.6755L178.936 49.9646L177.129 22.9771ZM196.46 49.3337C194.912 49.4373 193.492 49.2793 192.233 48.8215C190.973 48.3636 189.92 47.7474 188.996 46.9056C188.108 46.0614 187.386 44.9893 186.87 43.7588C186.354 42.5283 186.008 41.1418 185.909 39.6665C185.81 38.1911 185.935 36.8093 186.318 35.5186C186.666 34.2303 187.241 33.1074 188.006 32.1165C188.773 31.1615 189.769 30.372 190.958 29.7863C192.148 29.2006 193.532 28.8188 195.08 28.7153C196.627 28.6117 198.047 28.7696 199.307 29.2275C200.564 29.6493 201.619 30.3016 202.543 31.1433C203.431 31.9875 204.153 33.0597 204.67 34.2902C205.186 35.5207 205.529 36.8712 205.628 38.3465C205.729 39.8578 205.605 41.2396 205.221 42.5303C204.838 43.8211 204.298 44.9415 203.533 45.9325C202.766 46.8875 201.771 47.677 200.581 48.2626C199.391 48.8483 198.043 49.2277 196.46 49.3337ZM196.231 45.9153C197.166 45.8526 198.016 45.5789 198.673 45.1373C199.366 44.6934 199.87 44.1175 200.294 43.4385C200.718 42.7595 200.992 41.9821 201.155 41.176C201.315 40.334 201.368 39.4991 201.31 38.6355C201.254 37.8079 201.091 36.9875 200.82 36.1744C200.549 35.3612 200.176 34.6632 199.665 34.0468C199.154 33.4304 198.545 32.9652 197.835 32.6152C197.088 32.2675 196.246 32.107 195.311 32.1697C194.375 32.2323 193.526 32.506 192.869 32.9476C192.176 33.3916 191.672 33.9674 191.245 34.6105C190.821 35.2895 190.545 36.0308 190.385 36.8729C190.224 37.715 190.172 38.5498 190.227 39.3774C190.285 40.241 190.448 41.0614 190.719 41.8746C190.991 42.6877 191.363 43.3857 191.874 44.0021C192.385 44.6185 192.997 45.1197 193.707 45.4697C194.456 45.8534 195.295 45.9779 196.231 45.9153ZM206.27 28.5083L209.545 28.2891L209.15 22.3879L213.468 22.0988L213.861 27.9641L217.747 27.7039L217.961 30.9065L214.075 31.1666L214.773 41.6018C214.805 42.0695 214.865 42.427 214.925 42.7844C214.983 43.1058 215.11 43.3865 215.232 43.5951C215.391 43.8014 215.619 43.9669 215.878 44.058C216.173 44.1466 216.537 44.1945 217.041 44.1608C217.329 44.1415 217.653 44.1198 217.938 44.0646C218.224 44.0093 218.545 43.9517 218.828 43.8604L219.052 47.2069C218.589 47.3102 218.124 47.3775 217.659 47.4448C217.196 47.548 216.764 47.5769 216.26 47.6107C215.109 47.6877 214.202 47.64 213.504 47.4699C212.805 47.2997 212.244 47.012 211.822 46.6427C211.397 46.2374 211.111 45.7505 210.927 45.1484C210.742 44.5463 210.619 43.7955 210.53 43.0063L209.759 31.4916L206.485 31.7108L206.266 28.4363L206.27 28.5083Z" fill="white"/>
<path d="M53.0587 31.2824L33.3039 32.6048L25.9654 14.2286L21.1056 33.4214L1.34832 34.7077L18.1029 45.2609L13.2431 64.4536L28.4417 51.7616L45.1963 62.3147L37.8577 43.9385L53.0587 31.2824Z" fill="white"/>
<path d="M39.5096 48.0929L37.858 43.9384L28.4779 51.7591L39.5096 48.0929Z" fill="#4A4C4F"/>
</svg>
