<svg width="164" height="78" viewBox="0 0 164 78" fill="none" xmlns="http://www.w3.org/2000/svg">
<g clipPath="url(#clip0_209_20294)">
<path d="M46.5469 51.079C42.1066 51.3762 38.9419 48.2094 38.0347 46.9614C38.5351 38.6485 41.4395 35.8364 45.5083 35.564C49.531 35.2948 52.8672 38.237 53.1755 42.8429C53.4838 47.4489 50.5695 50.8097 46.5469 51.079ZM45.1696 30.5035C37.9291 30.9882 34.1849 35.8807 33.343 40.7159C31.8656 38.3797 30.6739 35.2026 29.714 32.2382L19.704 32.9083L20.5204 45.1051C20.8166 49.5293 18.978 52.9397 14.9554 53.2089C10.9329 53.4782 8.40857 50.3598 8.11241 45.9357L7.34237 33.7357L1.57156 34.122L2.38801 46.3188C2.62635 49.8794 4.0182 53.028 6.32288 55.1869C8.69452 57.4176 11.7946 58.458 15.2911 58.2239C22.2532 57.7579 26.7614 52.2056 26.2604 44.7208L25.7117 36.524C26.6192 39.1722 28.699 44.238 32.3141 48.5618L30.3751 66.0262L36.2388 65.6337L37.4624 53.2699C38.1642 53.7707 38.9083 54.208 39.6958 54.5967C41.7418 55.6773 44.0308 56.2089 46.3566 56.1292C46.3566 56.1292 46.7134 56.1205 46.8991 56.1081C54.0779 55.6276 59.4226 49.8063 58.9307 42.4577C58.4388 35.1094 52.3483 30.023 45.1696 30.5035Z" fill="white"/>
<path d="M128.302 28.2578L128.128 25.6518L122.465 26.0309L124.081 50.1668L129.821 49.7826L129.188 40.3282C128.798 34.5102 129.06 30.2921 137.064 30.3042L136.695 24.7892C132.964 24.765 130.121 25.7162 128.302 28.2578Z" fill="white"/>
<path d="M88.2751 28.32L85.2431 45.4771L79.673 28.8958L72.3706 29.3846L69.0446 46.5615L63.7685 29.9605L57.9512 30.3499L65.9421 54.0744L72.8424 53.6125L76.4904 36.1401L82.3881 52.9735L89.2884 52.5116L94.4173 27.9088L88.2751 28.32Z" fill="white"/>
<path d="M108.389 46.9545C104.305 47.2279 101.03 44.2816 100.721 39.6603C100.412 35.0392 103.281 31.6968 107.349 31.4244C111.372 31.1551 114.708 34.0974 115.017 38.7033C115.325 43.3093 112.412 46.6852 108.389 46.9545ZM107.011 26.3639C99.7856 26.8475 94.4903 32.7113 94.9812 40.0445C95.4721 47.3777 101.499 52.438 108.724 51.9544C115.903 51.4738 121.247 45.6523 120.757 38.3191C120.266 30.986 114.205 25.8823 107.011 26.3639Z" fill="white"/>
<path d="M145.767 36.7977L147.098 36.7086L155.907 48.0506L162.39 47.6167L152.287 35.0675C156.644 33.0561 159.346 28.3856 159.025 23.5826L153.3 23.9658C153.649 29.1779 149.588 31.4282 145.427 31.7068L144.308 14.9949L138.552 15.3801L140.807 49.0614L146.547 48.6772L145.767 36.7977Z" fill="white"/>
</g>
<defs>
<clipPath id="clip0_209_20294">
<rect width="159.366" height="67.1015" fill="white" transform="translate(0 10.6441) rotate(-3.82964)"/>
</clipPath>
</defs>
</svg>
