<?xml version="1.0" encoding="UTF-8"?>
<svg id="Layer_2" data-name="Layer 2" xmlns="http://www.w3.org/2000/svg" viewBox="0 0 494.33 119.48">
  <defs>
    <style>
      .cls-1 {
        fill: #fff;
      }
    </style>
  </defs>
  <g id="Layer_1-2" data-name="Layer 1">
    <g>
      <path class="cls-1" d="M17.84,5.65s1.25,9.55,1.25,25.85c0,.01,0,.03,0,.04,0-3.02-.36-5.96-1.02-8.78-1.34-5.05-3.84-9.82-7.31-14.14C7.78,5.28,4.17,2.37.08,0c3.97,6.27,6.64,18,6.64,31.44S4.05,56.58.09,62.86c-.03.07-.06.14-.09.21,2.28-1.31,4.42-2.8,6.37-4.43,6.76-6.43,11.2-14.14,12.44-22.53.18-1.49.27-3.01.27-4.55,0,16.26-1.25,25.8-1.25,25.79h0c6.37-6.76,10.29-15.84,10.29-25.85h0c0-10.01-3.91-19.1-10.29-25.86h0Z"/>
      <path class="cls-1" d="M278.15,41.71c0-12.52-10.06-22.45-22.75-22.45h0c-12.7,0-22.82,9.94-22.82,22.46s10.09,22.43,22.79,22.43,22.79-9.92,22.79-22.43ZM255.37,54.06c-7.3,0-11.8-5.67-11.8-12.34s4.5-12.35,11.8-12.35,11.8,5.67,11.8,12.34-4.5,12.35-11.8,12.35Z"/>
      <path class="cls-1" d="M73.99,41.78c0,12.09,8.71,22.39,21.37,22.39,9.13,0,17.44-5.47,20.58-14h-11.08c-1.72,2.28-5.08,4.22-9.43,4.22-6.93,0-10.08-4.95-10.45-8.73h31.69c.19-1.22.29-3.24.29-4.64,0-13.09-9.63-21.76-21.26-21.76h0c-12.59,0-21.7,10.17-21.7,22.53ZM95.31,28.93c5.69,0,10.32,3.8,10.32,8.48h-20.63c0-4.69,4.62-8.48,10.31-8.48Z"/>
      <path class="cls-1" d="M291.56,38.61c0-5.53,3.93-9.05,8.48-9.05s8.45,3.55,8.44,9.08l-.02,24.44h10.94v-24.47c0-10.7-8.65-19.34-19.34-19.34h0c-10.7,0-19.34,8.64-19.34,19.33v24.48h10.84v-24.46Z"/>
      <path class="cls-1" d="M179.28,35.13c.3-.58,3.34-5.77,9.64-5.77,2.36,0,4.5.72,5.04.99l3.78-9.73h0c-1.2-.56-3.79-1.37-6.76-1.37-8.55,0-11.87,6.58-12.24,7.31v-6.21h-10.27l-.03,42.72h10.84s0-27.94,0-27.94Z"/>
      <path class="cls-1" d="M140.23,64.17c6.12-.01,10.94-2.63,13.45-6.43v5.34h10.98v-21.92c-.01-12.35-10.28-21.9-22.7-21.9h0c-12.61,0-22.86,9.84-22.86,22.65,0,12,8.99,22.29,21.14,22.26ZM141.88,29.36c7.3,0,11.8,5.76,11.8,12.42s-4.5,12.42-11.8,12.42-11.8-5.76-11.8-12.42,4.5-12.42,11.8-12.42Z"/>
      <path class="cls-1" d="M76.84,20.18c0-11.53-8.38-20.18-20.89-20.18h-21.4v63.08s10.76,0,10.76,0v-22.73h10.64c12.52,0,20.89-8.64,20.89-20.17ZM54.59,30.08h0s-9.27,0-9.27,0V10.27h9.27c7.39,0,11.26,3.96,11.26,9.91s-3.87,9.91-11.26,9.91Z"/>
      <path class="cls-1" d="M212.44,46.13c6.48,1.37,8.47,1.89,8.47,4.18,0,3.12-3.69,4.38-7.45,4.38-5.8,0-10.61-3-13.53-6.12l-6.03,7.84c2.52,2.39,9.03,7.77,19.38,7.77s18.54-5.88,18.54-13.18c0-8.83-6.03-11.62-14.5-13.42h0c-7.2-1.54-10.09-2.17-10.09-4.61,0-2.77,3.69-4.21,7.59-4.21,5.92,0,10.29,3.32,10.78,3.69l5.4-7.93c-2.77-1.85-8.02-5.25-16.28-5.25-11.46,0-18.13,6.52-18.13,13.8,0,7.66,7.38,11.28,15.85,13.07Z"/>
      <path class="cls-1" d="M49.23,92.24c-1.4-.7-3.01-1.05-4.86-1.05h-9.83v27.83h3.66v-10.65h6.16c1.87,0,3.49-.35,4.88-1.06s2.47-1.71,3.25-2.99c.78-1.28,1.18-2.8,1.18-4.54s-.39-3.26-1.18-4.56c-.78-1.29-1.87-2.29-3.27-2.99ZM49.3,102.55c-.45.8-1.08,1.41-1.91,1.83-.82.42-1.79.63-2.91.63h-6.28v-10.46h6.28c1.12,0,2.09.21,2.91.64.82.42,1.46,1.03,1.91,1.81.45.78.67,1.71.67,2.78s-.22,1.97-.67,2.76Z"/>
      <path class="cls-1" d="M63.42,99.51c-.74.43-1.34,1.03-1.79,1.81v-2.42h-3.4v20.14h3.47v-11.99c0-1.62.44-2.87,1.31-3.75.87-.88,2.02-1.33,3.44-1.33h1.76v-3.29h-1.23c-1.4,0-2.58.28-3.55.84Z"/>
      <path class="cls-1" d="M86.14,99.81c-1.57-.91-3.32-1.36-5.27-1.36s-3.74.46-5.3,1.38c-1.57.92-2.81,2.17-3.72,3.74-.91,1.57-1.36,3.36-1.36,5.38s.46,3.82,1.38,5.42c.92,1.59,2.17,2.85,3.74,3.75,1.57.91,3.33,1.36,5.27,1.36s3.62-.45,5.17-1.36c1.56-.91,2.81-2.15,3.75-3.74.95-1.58,1.42-3.39,1.42-5.44s-.45-3.85-1.36-5.42c-.91-1.57-2.15-2.81-3.72-3.72ZM86.64,112.6c-.59,1.1-1.38,1.96-2.39,2.58-1.01.62-2.14.93-3.38.93s-2.41-.31-3.42-.93c-1.01-.62-1.81-1.48-2.41-2.58-.6-1.1-.9-2.32-.9-3.66s.3-2.58.9-3.64c.6-1.06,1.4-1.91,2.41-2.54,1.01-.64,2.15-.95,3.42-.95s2.37.32,3.38.95c1.01.63,1.81,1.48,2.39,2.54.58,1.06.88,2.27.88,3.64s-.29,2.57-.88,3.66Z"/>
      <path class="cls-1" d="M104.26,90.75c-1.3,0-2.47.26-3.53.78-1.06.52-1.91,1.28-2.54,2.28-.63,1-.95,2.22-.95,3.66v1.42h-3.85v3.33h3.85v16.81h3.51v-16.81h4.78v-3.33h-4.78v-1.42c0-1.27.37-2.18,1.1-2.73.73-.55,1.67-.82,2.82-.82.15,0,.36,0,.64.02.27.01.51.04.71.09v-3.1c-.22-.05-.5-.09-.84-.13s-.64-.06-.92-.06Z"/>
      <path class="cls-1" d="M124.9,101.41c-.81-.91-1.79-1.63-2.95-2.17-1.16-.54-2.48-.8-3.98-.8-1.84,0-3.51.45-4.99,1.36-1.48.91-2.65,2.15-3.51,3.72-.86,1.57-1.29,3.36-1.29,5.38s.44,3.79,1.31,5.4c.87,1.61,2.07,2.87,3.59,3.79,1.52.92,3.25,1.38,5.19,1.38,1.39,0,2.66-.22,3.79-.67,1.13-.45,2.12-1.05,2.95-1.81.83-.76,1.45-1.6,1.85-2.52l-2.91-1.49c-.57.97-1.32,1.77-2.24,2.39-.92.62-2.05.93-3.4.93-1.22,0-2.35-.3-3.38-.92-1.03-.61-1.83-1.47-2.39-2.58-.42-.84-.66-1.78-.7-2.82h15.41c.05-.3.09-.62.13-.95.04-.34.06-.64.06-.92,0-1.25-.22-2.45-.65-3.61-.44-1.16-1.06-2.19-1.87-3.1ZM114.76,102.44c.97-.6,2.04-.9,3.21-.9s2.22.3,3.14.9c.92.6,1.62,1.41,2.09,2.43.3.65.46,1.36.48,2.13h-11.77c.1-.73.3-1.39.59-2,.54-1.11,1.29-1.96,2.26-2.56Z"/>
      <path class="cls-1" d="M141.28,107.82l-3.29-.97c-.4-.12-.81-.28-1.23-.47-.42-.19-.78-.46-1.08-.82-.3-.36-.45-.83-.45-1.4,0-.77.3-1.41.9-1.92.6-.51,1.41-.77,2.43-.77,1.12,0,2.13.31,3.03.92.9.61,1.57,1.44,2.02,2.48l2.84-1.31c-.6-1.62-1.6-2.88-3.01-3.77-1.41-.9-3-1.34-4.76-1.34-1.32,0-2.51.25-3.57.75-1.06.5-1.89,1.19-2.5,2.07-.61.88-.92,1.92-.92,3.12,0,1.3.42,2.43,1.25,3.4.83.97,2.16,1.72,3.98,2.24l3.03.86c.4.1.83.26,1.31.47.47.21.88.5,1.21.86.34.36.5.84.5,1.44,0,.85-.36,1.53-1.08,2.05-.72.52-1.63.78-2.73.78-1.22,0-2.33-.35-3.32-1.05-1-.7-1.78-1.64-2.35-2.84l-2.76,1.35c.62,1.69,1.68,3.04,3.18,4.03,1.49,1,3.25,1.49,5.27,1.49,1.44,0,2.71-.25,3.81-.75,1.1-.5,1.96-1.2,2.58-2.09.62-.9.93-1.91.93-3.03,0-1.39-.45-2.59-1.36-3.59-.91-1-2.19-1.73-3.83-2.2Z"/>
      <path class="cls-1" d="M160.37,107.82l-3.29-.97c-.4-.12-.81-.28-1.23-.47-.42-.19-.78-.46-1.08-.82-.3-.36-.45-.83-.45-1.4,0-.77.3-1.41.9-1.92.6-.51,1.41-.77,2.43-.77,1.12,0,2.13.31,3.03.92.9.61,1.57,1.44,2.02,2.48l2.84-1.31c-.6-1.62-1.6-2.88-3.01-3.77-1.41-.9-3-1.34-4.76-1.34-1.32,0-2.51.25-3.57.75-1.06.5-1.89,1.19-2.5,2.07-.61.88-.92,1.92-.92,3.12,0,1.3.42,2.43,1.25,3.4s2.16,1.72,3.98,2.24l3.03.86c.4.1.83.26,1.31.47.47.21.88.5,1.21.86.34.36.5.84.5,1.44,0,.85-.36,1.53-1.08,2.05-.72.52-1.63.78-2.73.78-1.22,0-2.33-.35-3.33-1.05-1-.7-1.78-1.64-2.35-2.84l-2.76,1.35c.62,1.69,1.68,3.04,3.18,4.03,1.49,1,3.25,1.49,5.27,1.49,1.44,0,2.71-.25,3.81-.75,1.1-.5,1.95-1.2,2.58-2.09.62-.9.93-1.91.93-3.03,0-1.39-.45-2.59-1.36-3.59-.91-1-2.19-1.73-3.83-2.2Z"/>
      <rect class="cls-1" x="170.12" y="91.2" width="3.47" height="4.48"/>
      <rect class="cls-1" x="170.12" y="98.89" width="3.47" height="20.14"/>
      <path class="cls-1" d="M193.81,99.81c-1.57-.91-3.33-1.36-5.27-1.36s-3.74.46-5.3,1.38c-1.57.92-2.81,2.17-3.72,3.74-.91,1.57-1.36,3.36-1.36,5.38s.46,3.82,1.38,5.42c.92,1.59,2.17,2.85,3.74,3.75,1.57.91,3.33,1.36,5.27,1.36s3.62-.45,5.17-1.36c1.56-.91,2.81-2.15,3.75-3.74.95-1.58,1.42-3.39,1.42-5.44s-.45-3.85-1.36-5.42c-.91-1.57-2.15-2.81-3.72-3.72ZM194.31,112.6c-.59,1.1-1.38,1.96-2.39,2.58-1.01.62-2.14.93-3.38.93s-2.41-.31-3.42-.93c-1.01-.62-1.81-1.48-2.41-2.58-.6-1.1-.9-2.32-.9-3.66s.3-2.58.9-3.64c.6-1.06,1.4-1.91,2.41-2.54,1.01-.64,2.15-.95,3.42-.95s2.37.32,3.38.95c1.01.63,1.81,1.48,2.39,2.54.58,1.06.88,2.27.88,3.64s-.29,2.57-.88,3.66Z"/>
      <path class="cls-1" d="M216.43,99.42c-1.13-.65-2.42-.97-3.87-.97s-2.8.35-3.9,1.06c-.76.49-1.38,1.11-1.85,1.86v-2.48h-3.4v20.14h3.47v-11.92c0-1.1.21-2.04.64-2.82.42-.78,1-1.39,1.74-1.83.73-.44,1.58-.65,2.52-.65s1.79.22,2.52.65c.73.44,1.3,1.04,1.7,1.81.4.77.6,1.72.6,2.84v11.92h3.51v-13.04c0-1.44-.33-2.74-.99-3.89-.66-1.15-1.56-2.04-2.69-2.69Z"/>
      <path class="cls-1" d="M237.45,99.32c-1.17-.58-2.53-.88-4.07-.88-1.2,0-2.34.21-3.44.63-1.1.42-2.05,1-2.88,1.74-.82.74-1.42,1.56-1.79,2.48l3.03,1.57c.42-.97,1.08-1.75,1.96-2.33.88-.58,1.9-.88,3.04-.88,1.32,0,2.38.34,3.19,1.03.81.69,1.21,1.58,1.21,2.67v.92l-6.87,1.13c-1.49.25-2.73.67-3.72,1.27-.98.6-1.71,1.33-2.17,2.19-.46.86-.69,1.82-.69,2.9s.29,2.11.86,2.97c.57.86,1.36,1.53,2.37,2.02,1.01.49,2.17.73,3.49.73,1.15,0,2.2-.17,3.18-.52.97-.35,1.82-.82,2.54-1.42.41-.34.77-.72,1.08-1.12v2.62h3.4v-13.67c0-1.37-.33-2.57-.99-3.61-.66-1.03-1.58-1.84-2.75-2.43ZM236.9,113.54c-.54.92-1.27,1.65-2.2,2.19-.93.54-2.04.8-3.31.8-1,0-1.82-.27-2.48-.82-.66-.55-.99-1.23-.99-2.05,0-.87.29-1.61.88-2.2.58-.6,1.53-1.01,2.82-1.23l6.09-1.02v1.28c0,1.12-.27,2.14-.8,3.06Z"/>
      <rect class="cls-1" x="246.56" y="90.75" width="3.47" height="28.28"/>
      <path class="cls-1" d="M269.57,91.2l-9.98,27.83h3.92l2.28-6.54h11.88l2.28,6.54h3.92l-9.98-27.83h-4.33ZM266.96,109.13l4.78-13.77,4.78,13.77h-9.56Z"/>
      <path class="cls-1" d="M296.32,107.82l-3.29-.97c-.4-.12-.81-.28-1.23-.47-.42-.19-.78-.46-1.08-.82-.3-.36-.45-.83-.45-1.4,0-.77.3-1.41.9-1.92.6-.51,1.41-.77,2.43-.77,1.12,0,2.13.31,3.03.92.9.61,1.57,1.44,2.02,2.48l2.84-1.31c-.6-1.62-1.6-2.88-3.01-3.77-1.41-.9-3-1.34-4.76-1.34-1.32,0-2.51.25-3.57.75-1.06.5-1.89,1.19-2.5,2.07-.61.88-.92,1.92-.92,3.12,0,1.3.42,2.43,1.25,3.4.83.97,2.16,1.72,3.98,2.24l3.03.86c.4.1.83.26,1.31.47.47.21.88.5,1.21.86.34.36.5.84.5,1.44,0,.85-.36,1.53-1.08,2.05-.72.52-1.63.78-2.73.78-1.22,0-2.33-.35-3.32-1.05-1-.7-1.78-1.64-2.35-2.84l-2.76,1.35c.62,1.69,1.68,3.04,3.18,4.03,1.49,1,3.25,1.49,5.27,1.49,1.44,0,2.71-.25,3.81-.75,1.1-.5,1.96-1.2,2.58-2.09.62-.9.93-1.91.93-3.03,0-1.39-.45-2.59-1.36-3.59-.91-1-2.19-1.73-3.83-2.2Z"/>
      <path class="cls-1" d="M315.41,107.82l-3.29-.97c-.4-.12-.81-.28-1.23-.47-.42-.19-.78-.46-1.08-.82-.3-.36-.45-.83-.45-1.4,0-.77.3-1.41.9-1.92.6-.51,1.41-.77,2.43-.77,1.12,0,2.13.31,3.03.92.9.61,1.57,1.44,2.02,2.48l2.84-1.31c-.6-1.62-1.6-2.88-3.01-3.77-1.41-.9-3-1.34-4.76-1.34-1.32,0-2.51.25-3.57.75-1.06.5-1.89,1.19-2.5,2.07-.61.88-.92,1.92-.92,3.12,0,1.3.42,2.43,1.25,3.4s2.16,1.72,3.98,2.24l3.03.86c.4.1.83.26,1.31.47.47.21.88.5,1.21.86.34.36.5.84.5,1.44,0,.85-.36,1.53-1.08,2.05-.72.52-1.63.78-2.73.78-1.22,0-2.33-.35-3.33-1.05-1-.7-1.78-1.64-2.35-2.84l-2.76,1.35c.62,1.69,1.68,3.04,3.18,4.03,1.49,1,3.25,1.49,5.27,1.49,1.44,0,2.71-.25,3.81-.75,1.1-.5,1.95-1.2,2.58-2.09.62-.9.93-1.91.93-3.03,0-1.39-.45-2.59-1.36-3.59-.91-1-2.19-1.73-3.83-2.2Z"/>
      <path class="cls-1" d="M341.06,101.41c-.81-.91-1.79-1.63-2.95-2.17-1.16-.54-2.48-.8-3.98-.8-1.84,0-3.51.45-4.99,1.36-1.48.91-2.65,2.15-3.51,3.72s-1.29,3.36-1.29,5.38.44,3.79,1.31,5.4c.87,1.61,2.07,2.87,3.59,3.79,1.52.92,3.25,1.38,5.19,1.38,1.39,0,2.66-.22,3.79-.67,1.13-.45,2.12-1.05,2.95-1.81.83-.76,1.45-1.6,1.85-2.52l-2.91-1.49c-.57.97-1.32,1.77-2.24,2.39-.92.62-2.05.93-3.4.93-1.22,0-2.35-.3-3.38-.92-1.03-.61-1.83-1.47-2.39-2.58-.42-.84-.66-1.78-.7-2.82h15.41c.05-.3.09-.62.13-.95.04-.34.06-.64.06-.92,0-1.25-.22-2.45-.65-3.61-.44-1.16-1.06-2.19-1.87-3.1ZM330.92,102.44c.97-.6,2.04-.9,3.21-.9s2.22.3,3.14.9c.92.6,1.62,1.41,2.09,2.43.3.65.46,1.36.48,2.13h-11.77c.1-.73.3-1.39.59-2,.54-1.11,1.29-1.96,2.26-2.56Z"/>
      <path class="cls-1" d="M357.44,107.82l-3.29-.97c-.4-.12-.81-.28-1.23-.47-.42-.19-.78-.46-1.08-.82-.3-.36-.45-.83-.45-1.4,0-.77.3-1.41.9-1.92.6-.51,1.41-.77,2.43-.77,1.12,0,2.13.31,3.03.92.9.61,1.57,1.44,2.02,2.48l2.84-1.31c-.6-1.62-1.6-2.88-3.01-3.77-1.41-.9-2.99-1.34-4.76-1.34-1.32,0-2.51.25-3.57.75-1.06.5-1.89,1.19-2.5,2.07-.61.88-.92,1.92-.92,3.12,0,1.3.42,2.43,1.25,3.4.83.97,2.16,1.72,3.98,2.24l3.03.86c.4.1.83.26,1.31.47.47.21.88.5,1.21.86.34.36.5.84.5,1.44,0,.85-.36,1.53-1.08,2.05-.72.52-1.63.78-2.73.78-1.22,0-2.33-.35-3.33-1.05-1-.7-1.78-1.64-2.35-2.84l-2.76,1.35c.62,1.69,1.68,3.04,3.18,4.03,1.49,1,3.25,1.49,5.27,1.49,1.44,0,2.71-.25,3.81-.75,1.1-.5,1.96-1.2,2.58-2.09.62-.9.93-1.91.93-3.03,0-1.39-.46-2.59-1.36-3.59-.91-1-2.19-1.73-3.83-2.2Z"/>
      <path class="cls-1" d="M376.53,107.82l-3.29-.97c-.4-.12-.81-.28-1.23-.47-.42-.19-.78-.46-1.08-.82-.3-.36-.45-.83-.45-1.4,0-.77.3-1.41.9-1.92.6-.51,1.41-.77,2.43-.77,1.12,0,2.13.31,3.03.92.9.61,1.57,1.44,2.02,2.48l2.84-1.31c-.6-1.62-1.6-2.88-3.01-3.77-1.41-.9-3-1.34-4.76-1.34-1.32,0-2.51.25-3.57.75-1.06.5-1.89,1.19-2.5,2.07-.61.88-.92,1.92-.92,3.12,0,1.3.42,2.43,1.25,3.4.83.97,2.16,1.72,3.98,2.24l3.03.86c.4.1.83.26,1.31.47.47.21.88.5,1.21.86.34.36.5.84.5,1.44,0,.85-.36,1.53-1.08,2.05-.72.52-1.63.78-2.73.78-1.22,0-2.33-.35-3.32-1.05-1-.7-1.78-1.64-2.35-2.84l-2.76,1.35c.62,1.69,1.68,3.04,3.18,4.03,1.49,1,3.25,1.49,5.27,1.49,1.44,0,2.71-.25,3.81-.75s1.96-1.2,2.58-2.09c.62-.9.93-1.91.93-3.03,0-1.39-.45-2.59-1.36-3.59-.91-1-2.19-1.73-3.83-2.2Z"/>
      <path class="cls-1" d="M411.74,99.42c-1.13-.65-2.4-.97-3.79-.97-1.52,0-2.9.4-4.15,1.21-.92.6-1.64,1.4-2.17,2.42-.5-.92-1.2-1.69-2.11-2.32-1.26-.87-2.67-1.31-4.24-1.31-1.37,0-2.6.34-3.7,1.01-.79.49-1.43,1.13-1.91,1.93v-2.49h-3.4v20.14h3.47v-11.92c0-1.1.21-2.04.62-2.82.41-.78.97-1.39,1.68-1.83.71-.44,1.51-.65,2.41-.65s1.72.22,2.41.65c.68.44,1.23,1.04,1.63,1.81.4.77.6,1.72.6,2.84v11.92h3.51v-11.92c0-1.1.21-2.04.62-2.82.41-.78.97-1.39,1.68-1.83.71-.44,1.51-.65,2.41-.65s1.72.22,2.41.65c.68.44,1.23,1.04,1.63,1.81.4.77.6,1.72.6,2.84v11.92h3.51v-13.04c0-1.44-.34-2.74-1.01-3.89-.67-1.15-1.58-2.04-2.71-2.69Z"/>
      <path class="cls-1" d="M436.29,101.41c-.81-.91-1.79-1.63-2.95-2.17-1.16-.54-2.48-.8-3.98-.8-1.84,0-3.51.45-4.99,1.36-1.48.91-2.65,2.15-3.51,3.72s-1.29,3.36-1.29,5.38.44,3.79,1.31,5.4c.87,1.61,2.07,2.87,3.59,3.79,1.52.92,3.25,1.38,5.19,1.38,1.39,0,2.66-.22,3.79-.67,1.13-.45,2.12-1.05,2.95-1.81.83-.76,1.45-1.6,1.85-2.52l-2.91-1.49c-.57.97-1.32,1.77-2.24,2.39-.92.62-2.05.93-3.4.93-1.22,0-2.35-.3-3.38-.92-1.03-.61-1.83-1.47-2.39-2.58-.42-.84-.66-1.78-.7-2.82h15.41c.05-.3.09-.62.13-.95.04-.34.06-.64.06-.92,0-1.25-.22-2.45-.65-3.61-.44-1.16-1.06-2.19-1.87-3.1ZM426.15,102.44c.97-.6,2.04-.9,3.21-.9s2.22.3,3.14.9c.92.6,1.62,1.41,2.09,2.43.3.65.46,1.36.48,2.13h-11.77c.1-.73.3-1.39.59-2,.54-1.11,1.29-1.96,2.26-2.56Z"/>
      <path class="cls-1" d="M456.35,99.42c-1.13-.65-2.42-.97-3.87-.97s-2.8.35-3.9,1.06c-.76.49-1.38,1.11-1.85,1.86v-2.48h-3.4v20.14h3.47v-11.92c0-1.1.21-2.04.64-2.82.42-.78,1-1.39,1.74-1.83.73-.44,1.57-.65,2.52-.65s1.79.22,2.52.65c.73.44,1.3,1.04,1.7,1.81.4.77.6,1.72.6,2.84v11.92h3.51v-13.04c0-1.44-.33-2.74-.99-3.89-.66-1.15-1.56-2.04-2.69-2.69Z"/>
      <path class="cls-1" d="M473.89,116.08c-.82,0-1.48-.14-1.98-.43-.5-.29-.85-.68-1.06-1.18-.21-.5-.32-1.08-.32-1.76v-10.5h4.52v-3.33h-4.52v-4.63h-3.47v1.64c0,.9-.26,1.62-.78,2.17-.52.55-1.23.82-2.13.82h-.75v3.33h3.66v10.61c0,2.04.53,3.62,1.59,4.74,1.06,1.12,2.57,1.68,4.54,1.68.27,0,.61-.02,1.01-.06.4-.04.76-.09,1.08-.17v-3.06c-.22.03-.47.05-.73.07-.26.03-.48.04-.65.04Z"/>
      <path class="cls-1" d="M492.96,110.03c-.91-1-2.19-1.73-3.83-2.2l-3.29-.97c-.4-.12-.81-.28-1.23-.47-.42-.19-.78-.46-1.08-.82-.3-.36-.45-.83-.45-1.4,0-.77.3-1.41.9-1.92.6-.51,1.41-.77,2.43-.77,1.12,0,2.13.31,3.03.92.9.61,1.57,1.44,2.02,2.48l2.84-1.31c-.6-1.62-1.6-2.88-3.01-3.77-1.41-.9-3-1.34-4.76-1.34-1.32,0-2.51.25-3.57.75-1.06.5-1.89,1.19-2.5,2.07-.61.88-.92,1.92-.92,3.12,0,1.3.42,2.43,1.25,3.4.83.97,2.16,1.72,3.98,2.24l3.03.86c.4.1.83.26,1.31.47.47.21.88.5,1.21.86.34.36.5.84.5,1.44,0,.85-.36,1.53-1.08,2.05-.72.52-1.63.78-2.73.78-1.22,0-2.33-.35-3.32-1.05-1-.7-1.78-1.64-2.35-2.84l-2.76,1.35c.62,1.69,1.68,3.04,3.18,4.03,1.49,1,3.25,1.49,5.27,1.49,1.44,0,2.71-.25,3.81-.75,1.1-.5,1.95-1.2,2.58-2.09.62-.9.93-1.91.93-3.03,0-1.39-.45-2.59-1.36-3.59Z"/>
    </g>
  </g>
</svg>