<svg width="56" height="56" viewBox="0 0 56 56" fill="none" xmlns="http://www.w3.org/2000/svg">
<path d="M0 11.5593C0 5.17528 5.17528 0 11.5593 0H43.9253C50.3094 0 55.4846 5.17528 55.4846 11.5593V43.9253C55.4846 50.3094 50.3094 55.4846 43.9253 55.4846H11.5593C5.17528 55.4846 0 50.3094 0 43.9253V11.5593Z" fill="#FFEDD4"/>
<path d="M27.7419 39.3004C34.1259 39.3004 39.3012 34.1251 39.3012 27.7411C39.3012 21.357 34.1259 16.1818 27.7419 16.1818C21.3579 16.1818 16.1826 21.357 16.1826 27.7411C16.1826 34.1251 21.3579 39.3004 27.7419 39.3004Z" stroke="#FF9500" strokeWidth="2.31186" strokeLinecap="round" strokeLinejoin="round"/>
<path d="M27.7422 34.6779C31.5726 34.6779 34.6778 31.5728 34.6778 27.7423C34.6778 23.9119 31.5726 20.8068 27.7422 20.8068C23.9118 20.8068 20.8066 23.9119 20.8066 27.7423C20.8066 31.5728 23.9118 34.6779 27.7422 34.6779Z" stroke="#FF9500" strokeWidth="2.31186" strokeLinecap="round" strokeLinejoin="round"/>
<path d="M27.742 30.0533C29.0188 30.0533 30.0539 29.0182 30.0539 27.7414C30.0539 26.4646 29.0188 25.4296 27.742 25.4296C26.4652 25.4296 25.4302 26.4646 25.4302 27.7414C25.4302 29.0182 26.4652 30.0533 27.742 30.0533Z" stroke="#FF9500" strokeWidth="2.31186" strokeLinecap="round" strokeLinejoin="round"/>
</svg>
