<svg width="56" height="56" viewBox="0 0 56 56" fill="none" xmlns="http://www.w3.org/2000/svg">
<path d="M0 11.5593C0 5.17528 5.17528 0 11.5593 0H43.9253C50.3094 0 55.4846 5.17528 55.4846 11.5593V43.9253C55.4846 50.3094 50.3094 55.4846 43.9253 55.4846H11.5593C5.17528 55.4846 0 50.3094 0 43.9253V11.5593Z" fill="#FFEDD4"/>
<path d="M32.3659 38.1448V35.8329C32.3659 34.6067 31.8787 33.4306 31.0116 32.5635C30.1445 31.6964 28.9684 31.2092 27.7422 31.2092H20.8066C19.5803 31.2092 18.4042 31.6964 17.5371 32.5635C16.67 33.4306 16.1829 34.6067 16.1829 35.8329V38.1448" stroke="#FF9500" strokeWidth="2.31186" strokeLinecap="round" strokeLinejoin="round"/>
<path d="M24.2744 26.5856C26.828 26.5856 28.8981 24.5155 28.8981 21.9619C28.8981 19.4082 26.828 17.3381 24.2744 17.3381C21.7207 17.3381 19.6506 19.4082 19.6506 21.9619C19.6506 24.5155 21.7207 26.5856 24.2744 26.5856Z" stroke="#FF9500" strokeWidth="2.31186" strokeLinecap="round" strokeLinejoin="round"/>
<path d="M39.3013 38.1468V35.8349C39.3005 34.8104 38.9595 33.8152 38.3319 33.0055C37.7042 32.1959 36.8254 31.6176 35.8335 31.3615" stroke="#FF9500" strokeWidth="2.31186" strokeLinecap="round" strokeLinejoin="round"/>
<path d="M32.3657 17.4884C33.3603 17.7431 34.2418 18.3215 34.8714 19.1325C35.5009 19.9435 35.8426 20.941 35.8426 21.9676C35.8426 22.9943 35.5009 23.9918 34.8714 24.8028C34.2418 25.6138 33.3603 26.1922 32.3657 26.4469" stroke="#FF9500" strokeWidth="2.31186" strokeLinecap="round" strokeLinejoin="round"/>
</svg>
