<svg width="56" height="56" viewBox="0 0 56 56" fill="none" xmlns="http://www.w3.org/2000/svg">
<path d="M0 11.5593C0 5.17528 5.17528 0 11.5593 0H43.9253C50.3094 0 55.4846 5.17528 55.4846 11.5593V43.9253C55.4846 50.3094 50.3094 55.4846 43.9253 55.4846H11.5593C5.17528 55.4846 0 50.3094 0 43.9253V11.5593Z" fill="#FFEDD4"/>
<path d="M27.7424 39.3004C34.1264 39.3004 39.3017 34.1251 39.3017 27.7411C39.3017 21.357 34.1264 16.1818 27.7424 16.1818C21.3584 16.1818 16.1831 21.357 16.1831 27.7411C16.1831 34.1251 21.3584 39.3004 27.7424 39.3004Z" stroke="#FF9500" strokeWidth="2.31186" strokeLinecap="round" strokeLinejoin="round"/>
<path d="M27.7424 16.1818C24.7742 19.2983 23.1187 23.4372 23.1187 27.7411C23.1187 32.0449 24.7742 36.1838 27.7424 39.3004C30.7105 36.1838 32.3661 32.0449 32.3661 27.7411C32.3661 23.4372 30.7105 19.2983 27.7424 16.1818Z" stroke="#FF9500" strokeWidth="2.31186" strokeLinecap="round" strokeLinejoin="round"/>
<path d="M16.1831 27.7423H39.3017" stroke="#FF9500" strokeWidth="2.31186" strokeLinecap="round" strokeLinejoin="round"/>
</svg>
