<svg width="56" height="56" viewBox="0 0 56 56" fill="none" xmlns="http://www.w3.org/2000/svg">
<path d="M0 11.5593C0 5.17528 5.17528 0 11.5593 0H43.9253C50.3094 0 55.4846 5.17528 55.4846 11.5593V43.9253C55.4846 50.3094 50.3094 55.4846 43.9253 55.4846H11.5593C5.17528 55.4846 0 50.3094 0 43.9253V11.5593Z" fill="#FFEDD4"/>
<path d="M31.7616 28.7716L33.5128 38.6271C33.5325 38.7431 33.5162 38.8624 33.4662 38.9689C33.4162 39.0755 33.3348 39.1642 33.233 39.2233C33.1312 39.2824 33.0138 39.3089 32.8965 39.2995C32.7792 39.29 32.6676 39.245 32.5765 39.1704L28.4383 36.0644C28.2385 35.9151 27.9959 35.8345 27.7465 35.8345C27.4971 35.8345 27.2544 35.9151 27.0547 36.0644L22.9095 39.1692C22.8185 39.2437 22.707 39.2887 22.5899 39.2981C22.4727 39.3076 22.3554 39.2811 22.2537 39.2222C22.152 39.1633 22.0706 39.0748 22.0205 38.9685C21.9704 38.8621 21.9539 38.743 21.9732 38.6271L23.7233 28.7716" stroke="#FF9500" strokeWidth="2.31186" strokeLinecap="round" strokeLinejoin="round"/>
<path d="M27.7422 30.0529C31.5726 30.0529 34.6778 26.9478 34.6778 23.1173C34.6778 19.2869 31.5726 16.1818 27.7422 16.1818C23.9118 16.1818 20.8066 19.2869 20.8066 23.1173C20.8066 26.9478 23.9118 30.0529 27.7422 30.0529Z" stroke="#FF9500" strokeWidth="2.31186" strokeLinecap="round" strokeLinejoin="round"/>
</svg>
