<svg width="287" height="69" viewBox="0 0 287 69" fill="none" xmlns="http://www.w3.org/2000/svg">
<path d="M19.4477 54V47.7282H2.63519V41.7991L14.7834 16.0533H22.0302L9.88196 41.7991H19.4477V31.9171H25.8776V41.7991H29.4351V47.7282H25.8776V54H19.4477ZM35.7789 54V47.4911H42.2878V54H35.7789ZM52.6552 54L65.7258 22.0615H49.1504V16.0533H72.5246V22.0615L59.5067 54H52.6552Z" fill="#070A0E"/>
<g clipPath="url(#clip0_153_22507)">
<path d="M106.892 2.54551C107.162 1.89623 108.082 1.89623 108.352 2.54551L111.619 10.3997C111.733 10.6734 111.99 10.8604 112.286 10.8841L120.765 11.5639C121.466 11.6201 121.75 12.4948 121.216 12.9523L114.756 18.4862C114.531 18.6791 114.432 18.9817 114.501 19.27L116.475 27.5443C116.638 28.2283 115.894 28.7689 115.294 28.4024L108.034 23.9684C107.781 23.8139 107.463 23.8139 107.21 23.9684L99.9508 28.4024C99.3507 28.7689 98.6066 28.2283 98.7697 27.5443L100.743 19.27C100.812 18.9817 100.714 18.6791 100.489 18.4862L94.0285 12.9523C93.4945 12.4948 93.7787 11.6201 94.4796 11.5639L102.959 10.8841C103.254 10.8604 103.512 10.6734 103.626 10.3997L106.892 2.54551Z" fill="#F0F0F1"/>
<g clipPath="url(#clip1_153_22507)">
<path d="M106.892 2.54551C107.162 1.89623 108.082 1.89623 108.352 2.54551L111.619 10.3997C111.733 10.6734 111.99 10.8604 112.286 10.8841L120.765 11.5639C121.466 11.6201 121.75 12.4948 121.216 12.9523L114.756 18.4862C114.531 18.6791 114.432 18.9817 114.501 19.27L116.475 27.5443C116.638 28.2283 115.894 28.7689 115.294 28.4024L108.034 23.9684C107.781 23.8139 107.463 23.8139 107.21 23.9684L99.9508 28.4024C99.3507 28.7689 98.6066 28.2283 98.7697 27.5443L100.743 19.27C100.812 18.9817 100.714 18.6791 100.489 18.4862L94.0285 12.9523C93.4945 12.4948 93.7787 11.6201 94.4796 11.5639L102.959 10.8841C103.254 10.8604 103.512 10.6734 103.626 10.3997L106.892 2.54551Z" fill="#FA9200"/>
</g>
</g>
<g clipPath="url(#clip2_153_22507)">
<path d="M147.738 2.54551C148.008 1.89623 148.928 1.89623 149.198 2.54551L152.464 10.3997C152.578 10.6734 152.836 10.8604 153.131 10.8841L161.61 11.5639C162.311 11.6201 162.596 12.4948 162.061 12.9523L155.601 18.4862C155.376 18.6791 155.278 18.9817 155.347 19.27L157.32 27.5443C157.483 28.2283 156.739 28.7689 156.139 28.4024L148.88 23.9684C148.627 23.8139 148.309 23.8139 148.056 23.9684L140.796 28.4024C140.196 28.7689 139.452 28.2283 139.615 27.5443L141.589 19.27C141.658 18.9817 141.559 18.6791 141.334 18.4862L134.874 12.9523C134.34 12.4948 134.624 11.6201 135.325 11.5639L143.804 10.8841C144.1 10.8604 144.357 10.6734 144.471 10.3997L147.738 2.54551Z" fill="#F0F0F1"/>
<g clipPath="url(#clip3_153_22507)">
<path d="M147.738 2.54551C148.008 1.89623 148.928 1.89623 149.198 2.54551L152.464 10.3997C152.578 10.6734 152.836 10.8604 153.131 10.8841L161.61 11.5639C162.311 11.6201 162.596 12.4948 162.061 12.9523L155.601 18.4862C155.376 18.6791 155.278 18.9817 155.347 19.27L157.32 27.5443C157.483 28.2283 156.739 28.7689 156.139 28.4024L148.88 23.9684C148.627 23.8139 148.309 23.8139 148.056 23.9684L140.796 28.4024C140.196 28.7689 139.452 28.2283 139.615 27.5443L141.589 19.27C141.658 18.9817 141.559 18.6791 141.334 18.4862L134.874 12.9523C134.34 12.4948 134.624 11.6201 135.325 11.5639L143.804 10.8841C144.1 10.8604 144.357 10.6734 144.471 10.3997L147.738 2.54551Z" fill="#FA9200"/>
</g>
</g>
<g clipPath="url(#clip4_153_22507)">
<path d="M188.583 2.54551C188.853 1.89623 189.773 1.89623 190.043 2.54551L193.31 10.3997C193.424 10.6734 193.681 10.8604 193.977 10.8841L202.456 11.5639C203.157 11.6201 203.441 12.4948 202.907 12.9523L196.447 18.4862C196.222 18.6791 196.123 18.9817 196.192 19.27L198.166 27.5443C198.329 28.2283 197.585 28.7689 196.985 28.4024L189.725 23.9684C189.472 23.8139 189.154 23.8139 188.901 23.9684L181.642 28.4024C181.042 28.7689 180.297 28.2283 180.461 27.5443L182.434 19.27C182.503 18.9817 182.405 18.6791 182.18 18.4862L175.719 12.9523C175.185 12.4948 175.47 11.6201 176.171 11.5639L184.65 10.8841C184.945 10.8604 185.203 10.6734 185.317 10.3997L188.583 2.54551Z" fill="#F0F0F1"/>
<g clipPath="url(#clip5_153_22507)">
<path d="M188.583 2.54551C188.853 1.89623 189.773 1.89623 190.043 2.54551L193.31 10.3997C193.424 10.6734 193.681 10.8604 193.977 10.8841L202.456 11.5639C203.157 11.6201 203.441 12.4948 202.907 12.9523L196.447 18.4862C196.222 18.6791 196.123 18.9817 196.192 19.27L198.166 27.5443C198.329 28.2283 197.585 28.7689 196.985 28.4024L189.725 23.9684C189.472 23.8139 189.154 23.8139 188.901 23.9684L181.642 28.4024C181.042 28.7689 180.297 28.2283 180.461 27.5443L182.434 19.27C182.503 18.9817 182.405 18.6791 182.18 18.4862L175.719 12.9523C175.185 12.4948 175.47 11.6201 176.171 11.5639L184.65 10.8841C184.945 10.8604 185.203 10.6734 185.317 10.3997L188.583 2.54551Z" fill="#FA9200"/>
</g>
</g>
<g clipPath="url(#clip6_153_22507)">
<path d="M229.429 2.54551C229.699 1.89623 230.619 1.89623 230.889 2.54551L234.155 10.3997C234.269 10.6734 234.527 10.8604 234.822 10.8841L243.301 11.5639C244.002 11.6201 244.286 12.4948 243.752 12.9523L237.292 18.4862C237.067 18.6791 236.969 18.9817 237.037 19.27L239.011 27.5443C239.174 28.2283 238.43 28.7689 237.83 28.4024L230.571 23.9684C230.318 23.8139 230 23.8139 229.747 23.9684L222.487 28.4024C221.887 28.7689 221.143 28.2283 221.306 27.5443L223.28 19.27C223.349 18.9817 223.25 18.6791 223.025 18.4862L216.565 12.9523C216.031 12.4948 216.315 11.6201 217.016 11.5639L225.495 10.8841C225.791 10.8604 226.048 10.6734 226.162 10.3997L229.429 2.54551Z" fill="#F0F0F1"/>
<g clipPath="url(#clip7_153_22507)">
<path d="M229.429 2.54551C229.699 1.89623 230.619 1.89623 230.889 2.54551L234.155 10.3997C234.269 10.6734 234.527 10.8604 234.822 10.8841L243.301 11.5639C244.002 11.6201 244.286 12.4948 243.752 12.9523L237.292 18.4862C237.067 18.6791 236.969 18.9817 237.037 19.27L239.011 27.5443C239.174 28.2283 238.43 28.7689 237.83 28.4024L230.571 23.9684C230.318 23.8139 230 23.8139 229.747 23.9684L222.487 28.4024C221.887 28.7689 221.143 28.2283 221.306 27.5443L223.28 19.27C223.349 18.9817 223.25 18.6791 223.025 18.4862L216.565 12.9523C216.031 12.4948 216.315 11.6201 217.016 11.5639L225.495 10.8841C225.791 10.8604 226.048 10.6734 226.162 10.3997L229.429 2.54551Z" fill="#FA9200"/>
</g>
</g>
<g clipPath="url(#clip8_153_22507)">
<path d="M270.274 2.54551C270.544 1.89623 271.464 1.89623 271.734 2.54551L275.001 10.3997C275.115 10.6734 275.372 10.8604 275.667 10.8841L284.147 11.5639C284.848 11.6201 285.132 12.4948 284.598 12.9523L278.138 18.4862C277.912 18.6791 277.814 18.9817 277.883 19.27L279.857 27.5443C280.02 28.2283 279.276 28.7689 278.676 28.4024L271.416 23.9684C271.163 23.8139 270.845 23.8139 270.592 23.9684L263.333 28.4024C262.732 28.7689 261.988 28.2283 262.152 27.5443L264.125 19.27C264.194 18.9817 264.096 18.6791 263.871 18.4862L257.41 12.9523C256.876 12.4948 257.16 11.6201 257.861 11.5639L266.341 10.8841C266.636 10.8604 266.894 10.6734 267.007 10.3997L270.274 2.54551Z" fill="#F0F0F1"/>
<g clipPath="url(#clip9_153_22507)">
<path d="M270.274 2.54551C270.544 1.89623 271.464 1.89623 271.734 2.54551L275.001 10.3997C275.115 10.6734 275.372 10.8604 275.667 10.8841L284.147 11.5639C284.848 11.6201 285.132 12.4948 284.598 12.9523L278.138 18.4862C277.912 18.6791 277.814 18.9817 277.883 19.27L279.857 27.5443C280.02 28.2283 279.276 28.7689 278.676 28.4024L271.416 23.9684C271.163 23.8139 270.845 23.8139 270.592 23.9684L263.333 28.4024C262.732 28.7689 261.988 28.2283 262.152 27.5443L264.125 19.27C264.194 18.9817 264.096 18.6791 263.871 18.4862L257.41 12.9523C256.876 12.4948 257.16 11.6201 257.861 11.5639L266.341 10.8841C266.636 10.8604 266.894 10.6734 267.007 10.3997L270.274 2.54551Z" fill="#FA9200"/>
</g>
</g>
<path d="M94.4147 60.8926V48.6653C94.4147 48.3702 94.4288 48.0785 94.4569 47.7904C94.492 47.5023 94.5588 47.2282 94.6571 46.9682C94.7555 46.7012 94.9101 46.4552 95.1209 46.2304C95.3528 45.9774 95.6058 45.7947 95.8799 45.6823C96.1539 45.5628 96.4385 45.4855 96.7337 45.4504C97.0358 45.4152 97.331 45.3977 97.6191 45.3977H99.0737V46.7047H97.7245C97.1342 46.7047 96.6915 46.8488 96.3964 47.1369C96.1083 47.425 95.9642 47.8783 95.9642 48.4966V60.8926H94.4147ZM92.4436 50.8367V49.5086H99.0737V50.8367H92.4436ZM100.76 60.8926V49.5086H102.151V52.2492L101.877 51.8908C102.004 51.5535 102.169 51.2443 102.373 50.9632C102.577 50.6751 102.798 50.4397 103.037 50.2569C103.332 49.9969 103.676 49.8002 104.07 49.6667C104.463 49.5261 104.86 49.4453 105.261 49.4242C105.662 49.3961 106.027 49.4242 106.357 49.5086V50.9632C105.943 50.8578 105.489 50.8332 104.997 50.8894C104.506 50.9456 104.052 51.1424 103.638 51.4797C103.258 51.7748 102.974 52.1297 102.784 52.5443C102.594 52.9519 102.468 53.3876 102.404 53.8513C102.341 54.3081 102.31 54.7614 102.31 55.2111V60.8926H100.76ZM112.905 61.2088C111.773 61.2088 110.807 60.9523 110.006 60.4393C109.205 59.9263 108.59 59.2166 108.162 58.3101C107.733 57.4036 107.519 56.3636 107.519 55.19C107.519 53.9954 107.736 52.9484 108.172 52.0489C108.608 51.1494 109.226 50.4502 110.027 49.9513C110.835 49.4453 111.795 49.1923 112.905 49.1923C114.043 49.1923 115.013 49.4488 115.814 49.9618C116.622 50.4678 117.237 51.174 117.659 52.0805C118.087 52.98 118.302 54.0165 118.302 55.19C118.302 56.3846 118.087 57.4352 117.659 58.3417C117.23 59.2412 116.612 59.9439 115.804 60.4499C114.995 60.9558 114.029 61.2088 112.905 61.2088ZM112.905 59.7226C114.17 59.7226 115.111 59.3044 115.73 58.4682C116.348 57.6249 116.657 56.5322 116.657 55.19C116.657 53.8127 116.345 52.7165 115.719 51.9013C115.101 51.0862 114.163 50.6786 112.905 50.6786C112.055 50.6786 111.352 50.8718 110.797 51.2583C110.249 51.6378 109.837 52.1683 109.563 52.85C109.296 53.5246 109.163 54.3046 109.163 55.19C109.163 56.5603 109.479 57.6601 110.112 58.4893C110.744 59.3115 111.675 59.7226 112.905 59.7226ZM134.203 60.8926L134.214 53.4192C134.214 52.5408 133.968 51.8521 133.476 51.3532C132.991 50.8472 132.373 50.5943 131.621 50.5943C131.192 50.5943 130.774 50.6926 130.367 50.8894C129.959 51.0862 129.622 51.4024 129.355 51.8381C129.095 52.2737 128.965 52.8429 128.965 53.5457L128.048 53.2821C128.027 52.467 128.185 51.7537 128.522 51.1424C128.866 50.531 129.337 50.0567 129.934 49.7194C130.539 49.375 131.22 49.2029 131.979 49.2029C133.125 49.2029 134.042 49.5577 134.73 50.2675C135.419 50.9702 135.763 51.9224 135.763 53.124L135.753 60.8926H134.203ZM120.616 60.8926V49.5086H122.008V52.3124H122.176V60.8926H120.616ZM127.426 60.8926L127.436 53.5246C127.436 52.6181 127.194 51.9048 126.709 51.3848C126.231 50.8578 125.599 50.5943 124.812 50.5943C124.025 50.5943 123.389 50.8648 122.904 51.4059C122.419 51.94 122.176 52.6532 122.176 53.5457L121.249 53.0397C121.249 52.3089 121.421 51.6554 121.765 51.0791C122.11 50.4959 122.581 50.0391 123.178 49.7088C123.775 49.3715 124.453 49.2029 125.212 49.2029C125.936 49.2029 126.579 49.3575 127.141 49.6667C127.71 49.9759 128.157 50.4256 128.48 51.0159C128.803 51.6062 128.965 52.3229 128.965 53.1662L128.954 60.8926H127.426ZM146.797 61.1983C146.045 61.1983 145.352 61.0647 144.72 60.7977C144.088 60.5307 143.543 60.1512 143.086 59.6593C142.629 59.1604 142.296 58.5666 142.085 57.8779L143.561 57.4352C143.813 58.1871 144.228 58.7563 144.804 59.1428C145.388 59.5293 146.045 59.7155 146.775 59.7015C147.45 59.6874 148.03 59.5363 148.515 59.2482C149.007 58.9601 149.383 58.5596 149.643 58.0466C149.903 57.5336 150.033 56.9398 150.033 56.2652C150.033 55.2322 149.73 54.403 149.126 53.7776C148.529 53.1451 147.738 52.8289 146.754 52.8289C146.48 52.8289 146.192 52.8675 145.89 52.9448C145.588 53.0151 145.307 53.117 145.047 53.2505L144.267 52.0173L150.17 46.5677L150.423 47.2001H142.686V45.7139H151.456V47.2212L146.312 52.1332L146.291 51.5218C147.345 51.3883 148.272 51.5078 149.073 51.8802C149.874 52.2527 150.5 52.8219 150.95 53.5878C151.406 54.3468 151.635 55.2392 151.635 56.2652C151.635 57.2349 151.424 58.0922 151.002 58.8371C150.588 59.575 150.015 60.1547 149.284 60.5764C148.553 60.991 147.724 61.1983 146.797 61.1983ZM158.997 61.2088C158.048 61.2088 157.209 61.0191 156.478 60.6396C155.754 60.2601 155.185 59.7296 154.77 59.0479C154.363 58.3593 154.159 57.5547 154.159 56.6341C154.159 55.6925 154.387 54.8562 154.844 54.1254C155.301 53.3876 155.997 52.8289 156.931 52.4494L156.91 53.0608C156.13 52.7727 155.536 52.3019 155.129 51.6483C154.721 50.9948 154.517 50.271 154.517 49.4769C154.517 48.6337 154.711 47.9099 155.097 47.3055C155.484 46.6942 156.011 46.2234 156.678 45.8931C157.353 45.5628 158.126 45.3977 158.997 45.3977C159.868 45.3977 160.641 45.5628 161.316 45.8931C161.991 46.2234 162.521 46.6942 162.908 47.3055C163.294 47.9099 163.487 48.6337 163.487 49.4769C163.487 50.271 163.291 50.9913 162.897 51.6378C162.511 52.2843 161.917 52.7586 161.116 53.0608L161.063 52.4494C161.998 52.8219 162.697 53.377 163.161 54.1149C163.632 54.8527 163.867 55.6925 163.867 56.6341C163.867 57.5547 163.66 58.3593 163.245 59.0479C162.83 59.7296 162.258 60.2601 161.527 60.6396C160.796 61.0191 159.953 61.2088 158.997 61.2088ZM158.997 59.7226C159.953 59.7226 160.729 59.459 161.327 58.932C161.924 58.3979 162.223 57.632 162.223 56.6341C162.223 55.6222 161.927 54.8562 161.337 54.3362C160.747 53.8092 159.967 53.5457 158.997 53.5457C158.027 53.5457 157.251 53.8092 156.668 54.3362C156.084 54.8562 155.793 55.6222 155.793 56.6341C155.793 57.632 156.088 58.3979 156.678 58.932C157.268 59.459 158.041 59.7226 158.997 59.7226ZM158.997 52.0489C159.84 52.0489 160.526 51.8346 161.053 51.4059C161.58 50.9702 161.843 50.3272 161.843 49.4769C161.843 48.6266 161.58 47.9907 161.053 47.5691C160.526 47.1404 159.84 46.9261 158.997 46.9261C158.154 46.9261 157.469 47.1404 156.942 47.5691C156.422 47.9907 156.162 48.6266 156.162 49.4769C156.162 50.3272 156.422 50.9702 156.942 51.4059C157.469 51.8346 158.154 52.0489 158.997 52.0489ZM171.553 61.2088C170.618 61.2088 169.775 60.991 169.023 60.5553C168.278 60.1196 167.688 59.5293 167.252 58.7844C166.817 58.0325 166.599 57.1893 166.599 56.2546V50.3518C166.599 49.4172 166.817 48.5775 167.252 47.8326C167.688 47.0807 168.278 46.4869 169.023 46.0512C169.775 45.6155 170.618 45.3977 171.553 45.3977C172.487 45.3977 173.327 45.6155 174.072 46.0512C174.824 46.4869 175.418 47.0807 175.853 47.8326C176.289 48.5775 176.507 49.4172 176.507 50.3518V56.2546C176.507 57.1893 176.289 58.0325 175.853 58.7844C175.418 59.5293 174.824 60.1196 174.072 60.5553C173.327 60.991 172.487 61.2088 171.553 61.2088ZM171.553 59.712C172.178 59.712 172.747 59.5609 173.26 59.2588C173.773 58.9496 174.181 58.5385 174.483 58.0255C174.785 57.5125 174.936 56.9468 174.936 56.3284V50.278C174.936 49.6526 174.785 49.0834 174.483 48.5704C174.181 48.0574 173.773 47.6499 173.26 47.3477C172.747 47.0385 172.178 46.8839 171.553 46.8839C170.927 46.8839 170.358 47.0385 169.845 47.3477C169.332 47.6499 168.925 48.0574 168.622 48.5704C168.32 49.0834 168.169 49.6526 168.169 50.278V56.3284C168.169 56.9468 168.32 57.5125 168.622 58.0255C168.925 58.5385 169.332 58.9496 169.845 59.2588C170.358 59.5609 170.927 59.712 171.553 59.712ZM184.42 61.2088C183.485 61.2088 182.642 60.991 181.89 60.5553C181.145 60.1196 180.555 59.5293 180.119 58.7844C179.684 58.0325 179.466 57.1893 179.466 56.2546V50.3518C179.466 49.4172 179.684 48.5775 180.119 47.8326C180.555 47.0807 181.145 46.4869 181.89 46.0512C182.642 45.6155 183.485 45.3977 184.42 45.3977C185.355 45.3977 186.194 45.6155 186.939 46.0512C187.691 46.4869 188.285 47.0807 188.721 47.8326C189.156 48.5775 189.374 49.4172 189.374 50.3518V56.2546C189.374 57.1893 189.156 58.0325 188.721 58.7844C188.285 59.5293 187.691 60.1196 186.939 60.5553C186.194 60.991 185.355 61.2088 184.42 61.2088ZM184.42 59.712C185.045 59.712 185.615 59.5609 186.128 59.2588C186.641 58.9496 187.048 58.5385 187.35 58.0255C187.652 57.5125 187.804 56.9468 187.804 56.3284V50.278C187.804 49.6526 187.652 49.0834 187.35 48.5704C187.048 48.0574 186.641 47.6499 186.128 47.3477C185.615 47.0385 185.045 46.8839 184.42 46.8839C183.795 46.8839 183.225 47.0385 182.712 47.3477C182.199 47.6499 181.792 48.0574 181.49 48.5704C181.187 49.0834 181.036 49.6526 181.036 50.278V56.3284C181.036 56.9468 181.187 57.5125 181.49 58.0255C181.792 58.5385 182.199 58.9496 182.712 59.2588C183.225 59.5609 183.795 59.712 184.42 59.712ZM196.275 58.1204V53.9673H192.122V52.6392H196.275V48.4861H197.603V52.6392H201.746V53.9673H197.603V58.1204H196.275ZM208.7 60.8926V49.5086H210.091V52.2492L209.817 51.8908C209.944 51.5535 210.109 51.2443 210.313 50.9632C210.516 50.6751 210.738 50.4397 210.977 50.2569C211.272 49.9969 211.616 49.8002 212.01 49.6667C212.403 49.5261 212.8 49.4453 213.201 49.4242C213.601 49.3961 213.967 49.4242 214.297 49.5086V50.9632C213.882 50.8578 213.429 50.8332 212.937 50.8894C212.445 50.9456 211.992 51.1424 211.578 51.4797C211.198 51.7748 210.914 52.1297 210.724 52.5443C210.534 52.9519 210.408 53.3876 210.344 53.8513C210.281 54.3081 210.249 54.7614 210.249 55.2111V60.8926H208.7ZM220.908 61.2088C219.798 61.2088 218.835 60.9628 218.02 60.4709C217.212 59.979 216.583 59.2869 216.133 58.3944C215.683 57.502 215.458 56.4549 215.458 55.2533C215.458 54.0095 215.68 52.9343 216.122 52.0278C216.565 51.1213 217.187 50.4221 217.988 49.9302C218.796 49.4383 219.748 49.1923 220.845 49.1923C221.969 49.1923 222.928 49.4523 223.722 49.9723C224.516 50.4853 225.117 51.2232 225.525 52.1859C225.932 53.1486 226.119 54.2976 226.083 55.6327H224.502V55.0846C224.474 53.6089 224.155 52.4951 223.543 51.7432C222.939 50.9913 222.053 50.6153 220.887 50.6153C219.664 50.6153 218.726 51.0124 218.072 51.8064C217.426 52.6005 217.103 53.7319 217.103 55.2006C217.103 56.6341 217.426 57.7479 218.072 58.542C218.726 59.329 219.65 59.7226 220.845 59.7226C221.66 59.7226 222.37 59.5363 222.974 59.1639C223.585 58.7844 224.067 58.2398 224.418 57.5301L225.862 58.0887C225.412 59.0796 224.748 59.849 223.87 60.3972C222.999 60.9383 222.011 61.2088 220.908 61.2088ZM216.555 55.6327V54.3362H225.251V55.6327H216.555ZM231.089 60.8926L226.957 49.5086H228.527L231.89 58.8688L235.231 49.5086H236.823L232.691 60.8926H231.089ZM238.927 47.3477V45.6085H240.477V47.3477H238.927ZM238.927 60.8926V49.5086H240.477V60.8926H238.927ZM248.454 61.2088C247.344 61.2088 246.381 60.9628 245.566 60.4709C244.758 59.979 244.129 59.2869 243.679 58.3944C243.229 57.502 243.004 56.4549 243.004 55.2533C243.004 54.0095 243.226 52.9343 243.668 52.0278C244.111 51.1213 244.733 50.4221 245.534 49.9302C246.342 49.4383 247.294 49.1923 248.391 49.1923C249.515 49.1923 250.474 49.4523 251.268 49.9723C252.062 50.4853 252.663 51.2232 253.071 52.1859C253.478 53.1486 253.665 54.2976 253.629 55.6327H252.048V55.0846C252.02 53.6089 251.7 52.4951 251.089 51.7432C250.485 50.9913 249.599 50.6153 248.433 50.6153C247.21 50.6153 246.272 51.0124 245.618 51.8064C244.972 52.6005 244.649 53.7319 244.649 55.2006C244.649 56.6341 244.972 57.7479 245.618 58.542C246.272 59.329 247.196 59.7226 248.391 59.7226C249.206 59.7226 249.916 59.5363 250.52 59.1639C251.131 58.7844 251.613 58.2398 251.964 57.5301L253.408 58.0887C252.958 59.0796 252.294 59.849 251.416 60.3972C250.545 60.9383 249.557 61.2088 248.454 61.2088ZM244.101 55.6327V54.3362H252.797V55.6327H244.101ZM257.981 60.8926L254.503 49.498L256.052 49.5086L258.751 58.3523L261.46 49.5086H262.872L265.581 58.3523L268.301 49.5086H269.84L266.361 60.8926H265.012L262.166 51.8275L259.331 60.8926H257.981ZM275.575 61.1983C274.24 61.1983 273.14 60.9101 272.276 60.3339C271.418 59.7577 270.891 58.9566 270.694 57.9306L272.276 57.6671C272.444 58.3136 272.827 58.8301 273.424 59.2166C274.029 59.5961 274.774 59.7858 275.659 59.7858C276.523 59.7858 277.205 59.6066 277.704 59.2482C278.203 58.8828 278.452 58.3874 278.452 57.762C278.452 57.4106 278.372 57.126 278.21 56.9082C278.055 56.6833 277.736 56.476 277.251 56.2863C276.766 56.0965 276.042 55.8717 275.079 55.6117C274.046 55.3306 273.238 55.0495 272.655 54.7684C272.072 54.4873 271.657 54.1641 271.411 53.7986C271.165 53.4262 271.042 52.973 271.042 52.4389C271.042 51.7924 271.225 51.2267 271.59 50.7418C271.956 50.2499 272.462 49.8705 273.108 49.6034C273.755 49.3294 274.507 49.1923 275.364 49.1923C276.221 49.1923 276.987 49.3329 277.662 49.614C278.344 49.888 278.892 50.2745 279.306 50.7734C279.721 51.2724 279.967 51.8521 280.044 52.5127L278.463 52.7973C278.358 52.1297 278.024 51.6027 277.462 51.2162C276.906 50.8226 276.2 50.6188 275.343 50.6048C274.535 50.5837 273.878 50.7383 273.372 51.0686C272.866 51.3918 272.613 51.824 272.613 52.3651C272.613 52.6673 272.704 52.9273 272.887 53.1451C273.07 53.3559 273.4 53.5562 273.878 53.7459C274.363 53.9357 275.051 54.143 275.944 54.3678C276.991 54.6349 277.813 54.916 278.41 55.2111C279.008 55.5062 279.433 55.8541 279.686 56.2546C279.939 56.6552 280.065 57.1506 280.065 57.7409C280.065 58.816 279.665 59.6628 278.864 60.2812C278.069 60.8926 276.973 61.1983 275.575 61.1983Z" fill="#070A0E"/>
<defs>
<clipPath id="clip0_153_22507">
<rect width="31.6223" height="31.6223" fill="white" transform="translate(91.8111)"/>
</clipPath>
<clipPath id="clip1_153_22507">
<rect width="31.6223" height="31.6223" fill="white" transform="translate(91.8111)"/>
</clipPath>
<clipPath id="clip2_153_22507">
<rect width="31.6223" height="31.6223" fill="white" transform="translate(132.657)"/>
</clipPath>
<clipPath id="clip3_153_22507">
<rect width="31.6223" height="31.6223" fill="white" transform="translate(132.657)"/>
</clipPath>
<clipPath id="clip4_153_22507">
<rect width="31.6223" height="31.6223" fill="white" transform="translate(173.502)"/>
</clipPath>
<clipPath id="clip5_153_22507">
<rect width="31.6223" height="31.6223" fill="white" transform="translate(173.502)"/>
</clipPath>
<clipPath id="clip6_153_22507">
<rect width="31.6223" height="31.6223" fill="white" transform="translate(214.348)"/>
</clipPath>
<clipPath id="clip7_153_22507">
<rect width="31.6223" height="31.6223" fill="white" transform="translate(214.348)"/>
</clipPath>
<clipPath id="clip8_153_22507">
<rect width="31.6223" height="31.6223" fill="white" transform="translate(255.193)"/>
</clipPath>
<clipPath id="clip9_153_22507">
<rect width="15.8111" height="31.6223" fill="white" transform="translate(255.193)"/>
</clipPath>
</defs>
</svg>
