<svg width="102" height="102" viewBox="0 0 102 102" fill="none" xmlns="http://www.w3.org/2000/svg">
<g filter="url(#filter0_dd_1469_14732)">
<path d="M13.8789 18.5062C13.8789 9.56322 21.1287 2.31348 30.0717 2.31348H71.7102C80.6533 2.31348 87.903 9.56323 87.903 18.5062V60.1448C87.903 69.0878 80.6533 76.3376 71.7102 76.3376H30.0717C21.1287 76.3376 13.8789 69.0878 13.8789 60.1448V18.5062Z" fill="url(#paint0_linear_1469_14732)" shapeRendering="crispEdges"/>
<path d="M55.5185 23.9038H41.639C40.821 23.9038 40.0365 24.2288 39.4581 24.8072C38.8796 25.3856 38.5547 26.1701 38.5547 26.9881V51.6628C38.5547 52.4809 38.8796 53.2654 39.4581 53.8438C40.0365 54.4222 40.821 54.7472 41.639 54.7472H60.145C60.9631 54.7472 61.7476 54.4222 62.326 53.8438C62.9044 53.2654 63.2294 52.4809 63.2294 51.6628V31.6147L55.5185 23.9038Z" stroke="white" strokeWidth="3.08434" strokeLinecap="round" strokeLinejoin="round"/>
<path d="M53.9746 23.9038V30.0725C53.9746 30.8905 54.2996 31.675 54.878 32.2534C55.4564 32.8319 56.2409 33.1568 57.0589 33.1568H63.2276" stroke="white" strokeWidth="3.08434" strokeLinecap="round" strokeLinejoin="round"/>
<path d="M47.805 34.6987H44.7207" stroke="white" strokeWidth="3.08434" strokeLinecap="round" strokeLinejoin="round"/>
<path d="M57.0581 40.8677H44.7207" stroke="white" strokeWidth="3.08434" strokeLinecap="round" strokeLinejoin="round"/>
<path d="M57.0581 47.0361H44.7207" stroke="white" strokeWidth="3.08434" strokeLinecap="round" strokeLinejoin="round"/>
</g>
<defs>
<filter id="filter0_dd_1469_14732" x="-0.00061202" y="0.000223398" width="101.782" height="101.783" filterUnits="userSpaceOnUse" colorInterpolationFilters="sRGB">
<feFlood floodOpacity="0" result="BackgroundImageFix"/>
<feColorMatrix in="SourceAlpha" type="matrix" values="0 0 0 0 0 0 0 0 0 0 0 0 0 0 0 0 0 0 127 0" result="hardAlpha"/>
<feMorphology radius="4.62651" operator="erode" in="SourceAlpha" result="effect1_dropShadow_1469_14732"/>
<feOffset dy="4.62651"/>
<feGaussianBlur stdDeviation="3.46988"/>
<feComposite in2="hardAlpha" operator="out"/>
<feColorMatrix type="matrix" values="0 0 0 0 0 0 0 0 0 0 0 0 0 0 0 0 0 0 0.1 0"/>
<feBlend mode="normal" in2="BackgroundImageFix" result="effect1_dropShadow_1469_14732"/>
<feColorMatrix in="SourceAlpha" type="matrix" values="0 0 0 0 0 0 0 0 0 0 0 0 0 0 0 0 0 0 127 0" result="hardAlpha"/>
<feMorphology radius="3.46988" operator="erode" in="SourceAlpha" result="effect2_dropShadow_1469_14732"/>
<feOffset dy="11.5663"/>
<feGaussianBlur stdDeviation="8.6747"/>
<feComposite in2="hardAlpha" operator="out"/>
<feColorMatrix type="matrix" values="0 0 0 0 0 0 0 0 0 0 0 0 0 0 0 0 0 0 0.1 0"/>
<feBlend mode="normal" in2="effect1_dropShadow_1469_14732" result="effect2_dropShadow_1469_14732"/>
<feBlend mode="normal" in="SourceGraphic" in2="effect2_dropShadow_1469_14732" result="shape"/>
</filter>
<linearGradient id="paint0_linear_1469_14732" x1="13.8789" y1="2.31348" x2="87.903" y2="76.3376" gradientUnits="userSpaceOnUse">
<stop stopColor="#2B7FFF"/>
<stop offset="1" stopColor="#155DFC"/>
</linearGradient>
</defs>
</svg>
