<svg width="102" height="102" viewBox="0 0 102 102" fill="none" xmlns="http://www.w3.org/2000/svg">
<g filter="url(#filter0_dd_1469_14749)">
<path d="M13.8789 18.5062C13.8789 9.56322 21.1287 2.31348 30.0717 2.31348H71.7102C80.6533 2.31348 87.903 9.56323 87.903 18.5062V60.1448C87.903 69.0878 80.6533 76.3376 71.7102 76.3376H30.0717C21.1287 76.3376 13.8789 69.0878 13.8789 60.1448V18.5062Z" fill="url(#paint0_linear_1469_14749)" shapeRendering="crispEdges"/>
<path d="M50.8904 54.7472C59.4076 54.7472 66.3121 47.8427 66.3121 39.3255C66.3121 30.8083 59.4076 23.9038 50.8904 23.9038C42.3733 23.9038 35.4688 30.8083 35.4688 39.3255C35.4688 47.8427 42.3733 54.7472 50.8904 54.7472Z" stroke="white" strokeWidth="3.08434" strokeLinecap="round" strokeLinejoin="round"/>
<path d="M50.8917 48.5783C56.002 48.5783 60.1447 44.4356 60.1447 39.3253C60.1447 34.215 56.002 30.0723 50.8917 30.0723C45.7814 30.0723 41.6387 34.215 41.6387 39.3253C41.6387 44.4356 45.7814 48.5783 50.8917 48.5783Z" stroke="white" strokeWidth="3.08434" strokeLinecap="round" strokeLinejoin="round"/>
<path d="M50.8929 42.4099C52.5964 42.4099 53.9773 41.029 53.9773 39.3255C53.9773 37.6221 52.5964 36.2412 50.8929 36.2412C49.1895 36.2412 47.8086 37.6221 47.8086 39.3255C47.8086 41.029 49.1895 42.4099 50.8929 42.4099Z" stroke="white" strokeWidth="3.08434" strokeLinecap="round" strokeLinejoin="round"/>
</g>
<defs>
<filter id="filter0_dd_1469_14749" x="-0.00061202" y="0.000223398" width="101.782" height="101.783" filterUnits="userSpaceOnUse" colorInterpolationFilters="sRGB">
<feFlood floodOpacity="0" result="BackgroundImageFix"/>
<feColorMatrix in="SourceAlpha" type="matrix" values="0 0 0 0 0 0 0 0 0 0 0 0 0 0 0 0 0 0 127 0" result="hardAlpha"/>
<feMorphology radius="4.62651" operator="erode" in="SourceAlpha" result="effect1_dropShadow_1469_14749"/>
<feOffset dy="4.62651"/>
<feGaussianBlur stdDeviation="3.46988"/>
<feComposite in2="hardAlpha" operator="out"/>
<feColorMatrix type="matrix" values="0 0 0 0 0 0 0 0 0 0 0 0 0 0 0 0 0 0 0.1 0"/>
<feBlend mode="normal" in2="BackgroundImageFix" result="effect1_dropShadow_1469_14749"/>
<feColorMatrix in="SourceAlpha" type="matrix" values="0 0 0 0 0 0 0 0 0 0 0 0 0 0 0 0 0 0 127 0" result="hardAlpha"/>
<feMorphology radius="3.46988" operator="erode" in="SourceAlpha" result="effect2_dropShadow_1469_14749"/>
<feOffset dy="11.5663"/>
<feGaussianBlur stdDeviation="8.6747"/>
<feComposite in2="hardAlpha" operator="out"/>
<feColorMatrix type="matrix" values="0 0 0 0 0 0 0 0 0 0 0 0 0 0 0 0 0 0 0.1 0"/>
<feBlend mode="normal" in2="effect1_dropShadow_1469_14749" result="effect2_dropShadow_1469_14749"/>
<feBlend mode="normal" in="SourceGraphic" in2="effect2_dropShadow_1469_14749" result="shape"/>
</filter>
<linearGradient id="paint0_linear_1469_14749" x1="13.8789" y1="2.31348" x2="87.903" y2="76.3376" gradientUnits="userSpaceOnUse">
<stop stopColor="#AD46FF"/>
<stop offset="1" stopColor="#9810FA"/>
</linearGradient>
</defs>
</svg>
