<svg width="28" height="28" viewBox="0 0 28 28" fill="none" xmlns="http://www.w3.org/2000/svg">
<path d="M23.1189 11.5599C23.1189 17.3315 16.7162 23.3423 14.5662 25.1988C14.3659 25.3494 14.1221 25.4308 13.8715 25.4308C13.6209 25.4308 13.377 25.3494 13.1768 25.1988C11.0267 23.3423 4.62402 17.3315 4.62402 11.5599C4.62402 9.10737 5.5983 6.75524 7.33254 5.02101C9.06677 3.28678 11.4189 2.3125 13.8715 2.3125C16.324 2.3125 18.6762 3.28678 20.4104 5.02101C22.1446 6.75524 23.1189 9.10737 23.1189 11.5599Z" stroke="#FF9500" strokeWidth="2.31186" strokeLinecap="round" strokeLinejoin="round"/>
<path d="M13.8711 15.0274C15.7863 15.0274 17.3389 13.4748 17.3389 11.5596C17.3389 9.64438 15.7863 8.0918 13.8711 8.0918C11.9559 8.0918 10.4033 9.64438 10.4033 11.5596C10.4033 13.4748 11.9559 15.0274 13.8711 15.0274Z" stroke="#FF9500" strokeWidth="2.31186" strokeLinecap="round" strokeLinejoin="round"/>
</svg>
