<svg width="225" height="127" viewBox="0 0 225 127" fill="none" xmlns="http://www.w3.org/2000/svg">
<mask id="path-1-inside-1_1707_26763" fill="white">
<path d="M0 18.4949C0 8.28044 8.28044 0 18.4949 0H206.505C216.72 0 225 8.28044 225 18.4949V108.505C225 118.72 216.72 127 206.505 127H18.4949C8.28045 127 0 118.72 0 108.505V18.4949Z"/>
</mask>
<path d="M0 18.4949C0 8.28044 8.28044 0 18.4949 0H206.505C216.72 0 225 8.28044 225 18.4949V108.505C225 118.72 216.72 127 206.505 127H18.4949C8.28045 127 0 118.72 0 108.505V18.4949Z" fill="white"/>
<path d="M18.4949 0V1.15593H206.505V0V-1.15593H18.4949V0ZM225 18.4949H223.844V108.505H225H226.156V18.4949H225ZM206.505 127V125.844H18.4949V127V128.156H206.505V127ZM0 108.505H1.15593V18.4949H0H-1.15593V108.505H0ZM18.4949 127V125.844C8.91885 125.844 1.15593 118.081 1.15593 108.505H0H-1.15593C-1.15593 119.358 7.64205 128.156 18.4949 128.156V127ZM225 108.505H223.844C223.844 118.081 216.081 125.844 206.505 125.844V127V128.156C217.358 128.156 226.156 119.358 226.156 108.505H225ZM206.505 0V1.15593C216.081 1.15593 223.844 8.91884 223.844 18.4949H225H226.156C226.156 7.64204 217.358 -1.15593 206.505 -1.15593V0ZM18.4949 0V-1.15593C7.64204 -1.15593 -1.15593 7.64204 -1.15593 18.4949H0H1.15593C1.15593 8.91884 8.91884 1.15593 18.4949 1.15593V0Z" fill="#F3F4F6" mask="url(#path-1-inside-1_1707_26763)"/>
<path d="M60.6681 55.0959L66.1949 54.4253C66.371 55.8341 66.8451 56.911 67.6172 57.6561C68.3894 58.4011 69.324 58.7736 70.4213 58.7736C71.5998 58.7736 72.5886 58.3266 73.3879 57.4326C74.2006 56.5385 74.607 55.3329 74.607 53.8158C74.607 52.3799 74.2209 51.242 73.4488 50.4022C72.6767 49.5623 71.7352 49.1424 70.6245 49.1424C69.893 49.1424 69.0193 49.2846 68.0033 49.5691L68.6332 44.916C70.1775 44.9567 71.356 44.6248 72.1687 43.9204C72.9815 43.2024 73.3879 42.2542 73.3879 41.0757C73.3879 40.0733 73.0899 39.2741 72.4938 38.6781C71.8978 38.082 71.1054 37.784 70.1165 37.784C69.1412 37.784 68.3081 38.1227 67.6172 38.8C66.9264 39.4773 66.5065 40.4661 66.3575 41.7666L61.0948 40.8725C61.4606 39.0709 62.0092 37.635 62.7407 36.5649C63.4857 35.4812 64.5152 34.6346 65.8292 34.025C67.1567 33.4019 68.64 33.0903 70.279 33.0903C73.0831 33.0903 75.3317 33.9843 77.025 35.7724C78.4202 37.2354 79.1178 38.888 79.1178 40.7303C79.1178 43.3447 77.6887 45.4308 74.8305 46.9886C76.5373 47.3543 77.8987 48.1738 78.9147 49.4472C79.9442 50.7205 80.4589 52.258 80.4589 54.0596C80.4589 56.674 79.5039 58.9023 77.5939 60.7446C75.6839 62.5868 73.3066 63.508 70.4619 63.508C67.7663 63.508 65.5312 62.7359 63.7566 61.1916C61.9821 59.6338 60.9526 57.6019 60.6681 55.0959ZM93.6866 33.0903C96.5719 33.0903 98.8274 34.1198 100.453 36.1788C102.39 38.6171 103.359 42.6606 103.359 48.3093C103.359 53.9445 102.383 57.9947 100.433 60.4601C98.8206 62.492 96.5719 63.508 93.6866 63.508C90.7878 63.508 88.4511 62.3972 86.6765 60.1756C84.902 57.9405 84.0147 53.9648 84.0147 48.2483C84.0147 42.6403 84.9901 38.6036 86.9407 36.1382C88.5527 34.1063 90.8013 33.0903 93.6866 33.0903ZM93.6866 37.8247C92.9958 37.8247 92.3794 38.0482 91.8376 38.4952C91.2958 38.9287 90.8758 39.7143 90.5778 40.8522C90.185 42.3287 89.9886 44.8144 89.9886 48.3093C89.9886 51.8042 90.1647 54.2086 90.5169 55.5226C90.8691 56.823 91.3093 57.6899 91.8376 58.1234C92.3794 58.5569 92.9958 58.7736 93.6866 58.7736C94.3775 58.7736 94.9938 58.5569 95.5357 58.1234C96.0775 57.6764 96.4974 56.884 96.7955 55.7461C97.1883 54.2831 97.3847 51.8042 97.3847 48.3093C97.3847 44.8144 97.2086 42.4168 96.8564 41.1163C96.5042 39.8024 96.0572 38.9287 95.5154 38.4952C94.9871 38.0482 94.3775 37.8247 93.6866 37.8247ZM116.85 33.0903C119.736 33.0903 121.991 34.1198 123.617 36.1788C125.554 38.6171 126.522 42.6606 126.522 48.3093C126.522 53.9445 125.547 57.9947 123.596 60.4601C121.984 62.492 119.736 63.508 116.85 63.508C113.952 63.508 111.615 62.3972 109.84 60.1756C108.066 57.9405 107.179 53.9648 107.179 48.2483C107.179 42.6403 108.154 38.6036 110.104 36.1382C111.716 34.1063 113.965 33.0903 116.85 33.0903ZM116.85 37.8247C116.16 37.8247 115.543 38.0482 115.001 38.4952C114.46 38.9287 114.04 39.7143 113.742 40.8522C113.349 42.3287 113.152 44.8144 113.152 48.3093C113.152 51.8042 113.328 54.2086 113.681 55.5226C114.033 56.823 114.473 57.6899 115.001 58.1234C115.543 58.5569 116.16 58.7736 116.85 58.7736C117.541 58.7736 118.158 58.5569 118.699 58.1234C119.241 57.6764 119.661 56.884 119.959 55.7461C120.352 54.2831 120.548 51.8042 120.548 48.3093C120.548 44.8144 120.372 42.4168 120.02 41.1163C119.668 39.8024 119.221 38.9287 118.679 38.4952C118.151 38.0482 117.541 37.8247 116.85 37.8247ZM138.124 58.7127V50.9711H130.322V45.6272H138.124V37.8856H143.326V45.6272H151.149V50.9711H143.326V58.7127H138.124Z" fill="#FF9500"/>
<path d="M49.7682 91.8984V80.3143H58.1442V81.6813H51.3012V85.2293H57.7096V86.5884H51.3012V90.5314H58.4129V91.8984H49.7682ZM60.3488 91.8984V83.5067H61.6289V84.6998C62.2453 83.778 63.1356 83.317 64.2998 83.317C64.8055 83.317 65.2691 83.4092 65.6905 83.5936C66.1172 83.7727 66.4359 84.0097 66.6466 84.3047C66.8573 84.5997 67.0049 84.9501 67.0891 85.3557C67.1418 85.6191 67.1682 86.08 67.1682 86.7385V91.8984H65.7458V86.7938C65.7458 86.2144 65.6905 85.7824 65.5799 85.4979C65.4693 85.2082 65.2717 84.979 64.9872 84.8105C64.708 84.6366 64.3788 84.5497 63.9995 84.5497C63.3937 84.5497 62.8695 84.742 62.427 85.1265C61.9898 85.5111 61.7712 86.2407 61.7712 87.3154V91.8984H60.3488ZM72.4624 90.6262L72.6679 91.8826C72.2675 91.9669 71.9093 92.0091 71.5932 92.0091C71.0769 92.0091 70.6766 91.9274 70.3921 91.7641C70.1077 91.6008 69.9075 91.3875 69.7916 91.1241C69.6757 90.8554 69.6177 90.2944 69.6177 89.441V84.6129H68.5747V83.5067H69.6177V81.4285L71.0322 80.5751V83.5067H72.4624V84.6129H71.0322V89.52C71.0322 89.9256 71.0559 90.1864 71.1033 90.3023C71.156 90.4182 71.2376 90.5103 71.3482 90.5788C71.4641 90.6473 71.6274 90.6816 71.8382 90.6816C71.9962 90.6816 72.2043 90.6631 72.4624 90.6262ZM79.6057 89.196L81.0754 89.3777C80.8437 90.2364 80.4143 90.9028 79.7874 91.3769C79.1606 91.851 78.3598 92.0881 77.3853 92.0881C76.1578 92.0881 75.1833 91.7114 74.4616 90.9581C73.7451 90.1995 73.3869 89.1381 73.3869 87.7737C73.3869 86.3619 73.7504 85.2661 74.4774 84.4865C75.2044 83.7068 76.1473 83.317 77.3063 83.317C78.4283 83.317 79.3449 83.6989 80.0561 84.4628C80.7673 85.2266 81.1229 86.3013 81.1229 87.6867C81.1229 87.771 81.1202 87.8975 81.1149 88.066H74.8567C74.9094 88.9879 75.1701 89.6938 75.639 90.1837C76.1078 90.6736 76.6925 90.9186 77.3932 90.9186C77.9147 90.9186 78.3598 90.7816 78.7286 90.5077C79.0973 90.2338 79.3897 89.7965 79.6057 89.196ZM74.9357 86.8966H79.6215C79.5583 86.1907 79.3792 85.6612 79.0842 85.3083C78.6311 84.7604 78.0438 84.4865 77.3221 84.4865C76.6688 84.4865 76.1183 84.7051 75.6706 85.1423C75.2281 85.5796 74.9831 86.1643 74.9357 86.8966ZM82.8534 91.8984V83.5067H84.1335V84.7789C84.4601 84.1836 84.7603 83.7911 85.0343 83.6015C85.3135 83.4118 85.619 83.317 85.9509 83.317C86.4303 83.317 86.9176 83.4698 87.4127 83.7753L86.9228 85.0949C86.5751 84.8895 86.2275 84.7868 85.8798 84.7868C85.569 84.7868 85.2898 84.8816 85.0422 85.0712C84.7946 85.2556 84.6181 85.5137 84.5128 85.8456C84.3547 86.3513 84.2757 86.9045 84.2757 87.505V91.8984H82.8534ZM88.2582 95.1145V83.5067H89.5541V84.5971C89.8597 84.1704 90.2047 83.8517 90.5893 83.641C90.9738 83.425 91.4401 83.317 91.9879 83.317C92.7044 83.317 93.3365 83.5014 93.8844 83.8701C94.4322 84.2389 94.8458 84.7604 95.125 85.4347C95.4042 86.1037 95.5438 86.8386 95.5438 87.6393C95.5438 88.498 95.3884 89.2724 95.0775 89.9625C94.772 90.6473 94.3242 91.1741 93.7342 91.5429C93.1495 91.9063 92.5331 92.0881 91.8852 92.0881C91.4111 92.0881 90.9844 91.988 90.6051 91.7878C90.2311 91.5876 89.9229 91.3348 89.6806 91.0292V95.1145H88.2582ZM89.5462 87.75C89.5462 88.8299 89.7649 89.628 90.2021 90.1442C90.6393 90.6605 91.1688 90.9186 91.7904 90.9186C92.4225 90.9186 92.9625 90.6526 93.4103 90.1205C93.8633 89.5832 94.0898 88.7535 94.0898 87.6314C94.0898 86.562 93.8686 85.7613 93.4261 85.2293C92.9888 84.6972 92.4647 84.4312 91.8536 84.4312C91.2478 84.4312 90.7104 84.7156 90.2416 85.2846C89.778 85.8482 89.5462 86.67 89.5462 87.75ZM97.2506 91.8984V83.5067H98.5307V84.7789C98.8573 84.1836 99.1575 83.7911 99.4315 83.6015C99.7107 83.4118 100.016 83.317 100.348 83.317C100.827 83.317 101.315 83.4698 101.81 83.7753L101.32 85.0949C100.972 84.8895 100.625 84.7868 100.277 84.7868C99.9662 84.7868 99.687 84.8816 99.4394 85.0712C99.1918 85.2556 99.0153 85.5137 98.91 85.8456C98.7519 86.3513 98.6729 86.9045 98.6729 87.505V91.8984H97.2506ZM102.663 81.95V80.3143H104.086V81.95H102.663ZM102.663 91.8984V83.5067H104.086V91.8984H102.663ZM105.69 89.3935L107.096 89.1723C107.175 89.736 107.394 90.1679 107.752 90.4682C108.116 90.7685 108.621 90.9186 109.269 90.9186C109.923 90.9186 110.407 90.7869 110.723 90.5235C111.039 90.2548 111.197 89.9414 111.197 89.5832C111.197 89.2618 111.058 89.009 110.779 88.8246C110.584 88.6982 110.099 88.5375 109.325 88.3426C108.282 88.0792 107.557 87.8527 107.152 87.663C106.751 87.4681 106.446 87.2021 106.235 86.8649C106.03 86.5225 105.927 86.1459 105.927 85.735C105.927 85.361 106.011 85.0159 106.18 84.6998C106.354 84.3785 106.588 84.1125 106.883 83.9017C107.104 83.7384 107.404 83.6015 107.784 83.4909C108.168 83.375 108.579 83.317 109.016 83.317C109.675 83.317 110.252 83.4118 110.747 83.6015C111.247 83.7911 111.616 84.0493 111.853 84.3759C112.09 84.6972 112.254 85.1292 112.343 85.6718L110.952 85.8614C110.889 85.4294 110.705 85.0923 110.399 84.85C110.099 84.6076 109.672 84.4865 109.119 84.4865C108.466 84.4865 108 84.5945 107.721 84.8105C107.441 85.0264 107.302 85.2793 107.302 85.569C107.302 85.7534 107.36 85.9194 107.476 86.0669C107.591 86.2196 107.773 86.3461 108.021 86.4461C108.163 86.4988 108.582 86.62 109.277 86.8096C110.283 87.0783 110.984 87.2996 111.379 87.4734C111.779 87.642 112.093 87.8896 112.319 88.2162C112.546 88.5428 112.659 88.9484 112.659 89.4331C112.659 89.9072 112.52 90.3549 112.24 90.7764C111.966 91.1925 111.569 91.5165 111.047 91.7483C110.526 91.9748 109.936 92.0881 109.277 92.0881C108.187 92.0881 107.354 91.8616 106.78 91.4085C106.211 90.9555 105.848 90.2838 105.69 89.3935ZM120.095 89.196L121.565 89.3777C121.333 90.2364 120.903 90.9028 120.277 91.3769C119.65 91.851 118.849 92.0881 117.874 92.0881C116.647 92.0881 115.672 91.7114 114.951 90.9581C114.234 90.1995 113.876 89.1381 113.876 87.7737C113.876 86.3619 114.24 85.2661 114.967 84.4865C115.694 83.7068 116.636 83.317 117.795 83.317C118.917 83.317 119.834 83.6989 120.545 84.4628C121.256 85.2266 121.612 86.3013 121.612 87.6867C121.612 87.771 121.609 87.8975 121.604 88.066H115.346C115.399 88.9879 115.659 89.6938 116.128 90.1837C116.597 90.6736 117.182 90.9186 117.882 90.9186C118.404 90.9186 118.849 90.7816 119.218 90.5077C119.587 90.2338 119.879 89.7965 120.095 89.196ZM115.425 86.8966H120.111C120.047 86.1907 119.868 85.6612 119.573 85.3083C119.12 84.7604 118.533 84.4865 117.811 84.4865C117.158 84.4865 116.607 84.7051 116.16 85.1423C115.717 85.5796 115.472 86.1643 115.425 86.8966ZM136.309 87.8369L137.842 88.2241C137.521 89.4831 136.942 90.4445 136.104 91.1083C135.272 91.7667 134.252 92.096 133.046 92.096C131.798 92.096 130.781 91.8431 129.996 91.3374C129.216 90.8264 128.621 90.0889 128.21 89.1249C127.804 88.1609 127.602 87.1257 127.602 86.0194C127.602 84.8131 127.831 83.7621 128.289 82.8666C128.753 81.9658 129.409 81.2836 130.257 80.82C131.11 80.3512 132.048 80.1168 133.07 80.1168C134.229 80.1168 135.203 80.4118 135.993 81.0018C136.784 81.5918 137.334 82.4215 137.645 83.4909L136.136 83.8464C135.867 83.0036 135.477 82.3899 134.966 82.0053C134.455 81.6207 133.812 81.4285 133.038 81.4285C132.148 81.4285 131.402 81.6418 130.802 82.0685C130.207 82.4952 129.788 83.0694 129.545 83.7911C129.303 84.5076 129.182 85.2477 129.182 86.0115C129.182 86.9966 129.324 87.858 129.609 88.5955C129.898 89.3277 130.346 89.8756 130.952 90.239C131.558 90.6025 132.214 90.7843 132.92 90.7843C133.778 90.7843 134.505 90.5367 135.101 90.0415C135.696 89.5463 136.099 88.8114 136.309 87.8369ZM139.526 91.8984V80.3143H140.948V91.8984H139.526ZM143.168 81.95V80.3143H144.591V81.95H143.168ZM143.168 91.8984V83.5067H144.591V91.8984H143.168ZM152.508 89.196L153.978 89.3777C153.746 90.2364 153.317 90.9028 152.69 91.3769C152.063 91.851 151.262 92.0881 150.288 92.0881C149.06 92.0881 148.086 91.7114 147.364 90.9581C146.648 90.1995 146.29 89.1381 146.29 87.7737C146.29 86.3619 146.653 85.2661 147.38 84.4865C148.107 83.7068 149.05 83.317 150.209 83.317C151.331 83.317 152.248 83.6989 152.959 84.4628C153.67 85.2266 154.025 86.3013 154.025 87.6867C154.025 87.771 154.023 87.8975 154.018 88.066H147.759C147.812 88.9879 148.073 89.6938 148.542 90.1837C149.01 90.6736 149.595 90.9186 150.296 90.9186C150.817 90.9186 151.262 90.7816 151.631 90.5077C152 90.2338 152.292 89.7965 152.508 89.196ZM147.838 86.8966H152.524C152.461 86.1907 152.282 85.6612 151.987 85.3083C151.534 84.7604 150.946 84.4865 150.225 84.4865C149.571 84.4865 149.021 84.7051 148.573 85.1423C148.131 85.5796 147.886 86.1643 147.838 86.8966ZM155.772 91.8984V83.5067H157.052V84.6998C157.668 83.778 158.559 83.317 159.723 83.317C160.228 83.317 160.692 83.4092 161.113 83.5936C161.54 83.7727 161.859 84.0097 162.07 84.3047C162.28 84.5997 162.428 84.9501 162.512 85.3557C162.565 85.6191 162.591 86.08 162.591 86.7385V91.8984H161.169V86.7938C161.169 86.2144 161.113 85.7824 161.003 85.4979C160.892 85.2082 160.695 84.979 160.41 84.8105C160.131 84.6366 159.802 84.5497 159.422 84.5497C158.817 84.5497 158.292 84.742 157.85 85.1265C157.413 85.5111 157.194 86.2407 157.194 87.3154V91.8984H155.772ZM167.885 90.6262L168.091 91.8826C167.69 91.9669 167.332 92.0091 167.016 92.0091C166.5 92.0091 166.1 91.9274 165.815 91.7641C165.531 91.6008 165.33 91.3875 165.215 91.1241C165.099 90.8554 165.041 90.2944 165.041 89.441V84.6129H163.998V83.5067H165.041V81.4285L166.455 80.5751V83.5067H167.885V84.6129H166.455V89.52C166.455 89.9256 166.479 90.1864 166.526 90.3023C166.579 90.4182 166.661 90.5103 166.771 90.5788C166.887 90.6473 167.05 90.6816 167.261 90.6816C167.419 90.6816 167.627 90.6631 167.885 90.6262ZM168.715 89.3935L170.122 89.1723C170.201 89.736 170.419 90.1679 170.777 90.4682C171.141 90.7685 171.647 90.9186 172.295 90.9186C172.948 90.9186 173.432 90.7869 173.749 90.5235C174.065 90.2548 174.223 89.9414 174.223 89.5832C174.223 89.2618 174.083 89.009 173.804 88.8246C173.609 88.6982 173.124 88.5375 172.35 88.3426C171.307 88.0792 170.583 87.8527 170.177 87.663C169.777 87.4681 169.471 87.2021 169.26 86.8649C169.055 86.5225 168.952 86.1459 168.952 85.735C168.952 85.361 169.036 85.0159 169.205 84.6998C169.379 84.3785 169.613 84.1125 169.908 83.9017C170.129 83.7384 170.43 83.6015 170.809 83.4909C171.194 83.375 171.604 83.317 172.042 83.317C172.7 83.317 173.277 83.4118 173.772 83.6015C174.273 83.7911 174.641 84.0493 174.878 84.3759C175.116 84.6972 175.279 85.1292 175.368 85.6718L173.978 85.8614C173.914 85.4294 173.73 85.0923 173.425 84.85C173.124 84.6076 172.698 84.4865 172.144 84.4865C171.491 84.4865 171.025 84.5945 170.746 84.8105C170.467 85.0264 170.327 85.2793 170.327 85.569C170.327 85.7534 170.385 85.9194 170.501 86.0669C170.617 86.2196 170.799 86.3461 171.046 86.4461C171.188 86.4988 171.607 86.62 172.302 86.8096C173.309 87.0783 174.009 87.2996 174.404 87.4734C174.805 87.642 175.118 87.8896 175.345 88.2162C175.571 88.5428 175.684 88.9484 175.684 89.4331C175.684 89.9072 175.545 90.3549 175.266 90.7764C174.992 91.1925 174.594 91.5165 174.073 91.7483C173.551 91.9748 172.961 92.0881 172.302 92.0881C171.212 92.0881 170.38 91.8616 169.805 91.4085C169.237 90.9555 168.873 90.2838 168.715 89.3935Z" fill="#4A5565"/>
</svg>
