<svg width="272" height="174" viewBox="0 0 272 174" fill="none" xmlns="http://www.w3.org/2000/svg">
<g filter="url(#filter0_dd_1360_12048)">
<mask id="path-1-inside-1_1360_12048" fill="white">
<path d="M23.1187 18.4949C23.1187 8.28044 31.3991 0 41.6135 0H229.624C239.838 0 248.119 8.28044 248.119 18.4949V108.505C248.119 118.72 239.838 127 229.624 127H41.6135C31.3991 127 23.1187 118.72 23.1187 108.505V18.4949Z"/>
</mask>
<path d="M23.1187 18.4949C23.1187 8.28044 31.3991 0 41.6135 0H229.624C239.838 0 248.119 8.28044 248.119 18.4949V108.505C248.119 118.72 239.838 127 229.624 127H41.6135C31.3991 127 23.1187 118.72 23.1187 108.505V18.4949Z" fill="white" shapeRendering="crispEdges"/>
<path d="M41.6135 0V1.15593H229.624V0V-1.15593H41.6135V0ZM248.119 18.4949H246.963V108.505H248.119H249.275V18.4949H248.119ZM229.624 127V125.844H41.6135V127V128.156H229.624V127ZM23.1187 108.505H24.2746V18.4949H23.1187H21.9627V108.505H23.1187ZM41.6135 127V125.844C32.0375 125.844 24.2746 118.081 24.2746 108.505H23.1187H21.9627C21.9627 119.358 30.7607 128.156 41.6135 128.156V127ZM248.119 108.505H246.963C246.963 118.081 239.2 125.844 229.624 125.844V127V128.156C240.477 128.156 249.275 119.358 249.275 108.505H248.119ZM229.624 0V1.15593C239.2 1.15593 246.963 8.91884 246.963 18.4949H248.119H249.275C249.275 7.64204 240.477 -1.15593 229.624 -1.15593V0ZM41.6135 0V-1.15593C30.7607 -1.15593 21.9627 7.64204 21.9627 18.4949H23.1187H24.2746C24.2746 8.91884 32.0375 1.15593 41.6135 1.15593V0Z" fill="#F3F4F6" mask="url(#path-1-inside-1_1360_12048)"/>
<path d="M83.7865 55.0957L89.3133 54.4252C89.4894 55.834 89.9635 56.9109 90.7357 57.6559C91.5078 58.4009 92.4425 58.7734 93.5397 58.7734C94.7182 58.7734 95.7071 58.3264 96.5063 57.4324C97.319 56.5383 97.7254 55.3327 97.7254 53.8156C97.7254 52.3797 97.3394 51.2418 96.5672 50.402C95.7951 49.5621 94.8537 49.1422 93.7429 49.1422C93.0114 49.1422 92.1377 49.2844 91.1217 49.5689L91.7516 44.9158C93.2959 44.9565 94.4744 44.6246 95.2871 43.9202C96.0999 43.2023 96.5063 42.254 96.5063 41.0755C96.5063 40.0731 96.2083 39.2739 95.6122 38.6779C95.0162 38.0818 94.2238 37.7838 93.2349 37.7838C92.2596 37.7838 91.4265 38.1225 90.7357 38.7998C90.0448 39.4771 89.6249 40.466 89.4759 41.7664L84.2132 40.8723C84.579 39.0707 85.1276 37.6348 85.8591 36.5647C86.6041 35.481 87.6336 34.6344 88.9476 34.0248C90.2751 33.4017 91.7584 33.0901 93.3975 33.0901C96.2015 33.0901 98.4501 33.9842 100.143 35.7722C101.539 37.2352 102.236 38.8878 102.236 40.7301C102.236 43.3445 100.807 45.4306 97.9489 46.9884C99.6557 47.3541 101.017 48.1737 102.033 49.447C103.063 50.7203 103.577 52.2578 103.577 54.0594C103.577 56.6738 102.622 58.9021 100.712 60.7444C98.8023 62.5867 96.425 63.5078 93.5803 63.5078C90.8847 63.5078 88.6496 62.7357 86.875 61.1914C85.1005 59.6336 84.071 57.6017 83.7865 55.0957ZM116.805 33.0901C119.69 33.0901 121.946 34.1196 123.571 36.1786C125.508 38.6169 126.477 42.6604 126.477 48.3091C126.477 53.9443 125.502 57.9945 123.551 60.4599C121.939 62.4918 119.69 63.5078 116.805 63.5078C113.906 63.5078 111.569 62.397 109.795 60.1755C108.02 57.9404 107.133 53.9646 107.133 48.2482C107.133 42.6401 108.108 38.6034 110.059 36.138C111.671 34.1061 113.92 33.0901 116.805 33.0901ZM116.805 37.8245C116.114 37.8245 115.498 38.048 114.956 38.495C114.414 38.9285 113.994 39.7141 113.696 40.852C113.303 42.3285 113.107 44.8142 113.107 48.3091C113.107 51.804 113.283 54.2084 113.635 55.5224C113.987 56.8228 114.428 57.6898 114.956 58.1232C115.498 58.5567 116.114 58.7734 116.805 58.7734C117.496 58.7734 118.112 58.5567 118.654 58.1232C119.196 57.6762 119.616 56.8838 119.914 55.7459C120.307 54.2829 120.503 51.804 120.503 48.3091C120.503 44.8142 120.327 42.4166 119.975 41.1162C119.623 39.8022 119.176 38.9285 118.634 38.495C118.105 38.048 117.496 37.8245 116.805 37.8245ZM139.969 33.0901C142.854 33.0901 145.11 34.1196 146.735 36.1786C148.672 38.6169 149.641 42.6604 149.641 48.3091C149.641 53.9443 148.665 57.9945 146.715 60.4599C145.103 62.4918 142.854 63.5078 139.969 63.5078C137.07 63.5078 134.733 62.397 132.959 60.1755C131.184 57.9404 130.297 53.9646 130.297 48.2482C130.297 42.6401 131.272 38.6034 133.223 36.138C134.835 34.1061 137.083 33.0901 139.969 33.0901ZM139.969 37.8245C139.278 37.8245 138.662 38.048 138.12 38.495C137.578 38.9285 137.158 39.7141 136.86 40.852C136.467 42.3285 136.271 44.8142 136.271 48.3091C136.271 51.804 136.447 54.2084 136.799 55.5224C137.151 56.8228 137.591 57.6898 138.12 58.1232C138.662 58.5567 139.278 58.7734 139.969 58.7734C140.66 58.7734 141.276 58.5567 141.818 58.1232C142.36 57.6762 142.78 56.8838 143.078 55.7459C143.47 54.2829 143.667 51.804 143.667 48.3091C143.667 44.8142 143.491 42.4166 143.139 41.1162C142.786 39.8022 142.339 38.9285 141.798 38.495C141.269 38.048 140.66 37.8245 139.969 37.8245ZM161.243 58.7125V50.9709H153.44V45.627H161.243V37.8854H166.445V45.627H174.267V50.9709H166.445V58.7125H161.243Z" fill="#FF9500"/>
<path d="M72.8867 91.8983V80.3141H81.2626V81.6811H74.4196V85.2291H80.828V86.5882H74.4196V90.5312H81.5313V91.8983H72.8867ZM83.4673 91.8983V83.5065H84.7474V84.6997C85.3637 83.7778 86.254 83.3168 87.4182 83.3168C87.9239 83.3168 88.3875 83.409 88.8089 83.5934C89.2356 83.7725 89.5543 84.0096 89.765 84.3046C89.9758 84.5996 90.1233 84.9499 90.2075 85.3555C90.2602 85.6189 90.2866 86.0798 90.2866 86.7383V91.8983H88.8642V86.7936C88.8642 86.2142 88.8089 85.7822 88.6983 85.4977C88.5877 85.208 88.3901 84.9789 88.1056 84.8103C87.8264 84.6364 87.4972 84.5495 87.1179 84.5495C86.5121 84.5495 85.9879 84.7418 85.5454 85.1264C85.1082 85.5109 84.8896 86.2405 84.8896 87.3152V91.8983H83.4673ZM95.5808 90.6261L95.7863 91.8825C95.3859 91.9667 95.0277 92.0089 94.7116 92.0089C94.1954 92.0089 93.795 91.9272 93.5105 91.7639C93.2261 91.6006 93.0259 91.3873 92.91 91.1239C92.7941 90.8552 92.7361 90.2942 92.7361 89.4408V84.6127H91.6931V83.5065H92.7361V81.4283L94.1506 80.5749V83.5065H95.5808V84.6127H94.1506V89.5198C94.1506 89.9254 94.1743 90.1862 94.2217 90.3021C94.2744 90.418 94.356 90.5102 94.4667 90.5786C94.5825 90.6471 94.7459 90.6814 94.9566 90.6814C95.1146 90.6814 95.3227 90.6629 95.5808 90.6261ZM102.724 89.1958L104.194 89.3776C103.962 90.2362 103.533 90.9026 102.906 91.3767C102.279 91.8508 101.478 92.0879 100.504 92.0879C99.2763 92.0879 98.3017 91.7112 97.58 90.9579C96.8636 90.1994 96.5053 89.1379 96.5053 87.7735C96.5053 86.3617 96.8688 85.266 97.5958 84.4863C98.3228 83.7067 99.2657 83.3168 100.425 83.3168C101.547 83.3168 102.463 83.6988 103.175 84.4626C103.886 85.2264 104.241 86.3011 104.241 87.6866C104.241 87.7708 104.239 87.8973 104.233 88.0658H97.9751C98.0278 88.9877 98.2885 89.6936 98.7574 90.1835C99.2262 90.6735 99.8109 90.9184 100.512 90.9184C101.033 90.9184 101.478 90.7815 101.847 90.5075C102.216 90.2336 102.508 89.7964 102.724 89.1958ZM98.0541 86.8964H102.74C102.677 86.1905 102.498 85.661 102.203 85.3081C101.75 84.7602 101.162 84.4863 100.44 84.4863C99.7872 84.4863 99.2367 84.7049 98.789 85.1422C98.3465 85.5794 98.1015 86.1641 98.0541 86.8964ZM105.972 91.8983V83.5065H107.252V84.7787C107.578 84.1834 107.879 83.7909 108.153 83.6013C108.432 83.4117 108.737 83.3168 109.069 83.3168C109.549 83.3168 110.036 83.4696 110.531 83.7751L110.041 85.0947C109.694 84.8893 109.346 84.7866 108.998 84.7866C108.687 84.7866 108.408 84.8814 108.161 85.071C107.913 85.2554 107.737 85.5135 107.631 85.8454C107.473 86.3511 107.394 86.9043 107.394 87.5048V91.8983H105.972ZM111.377 95.1143V83.5065H112.673V84.5969C112.978 84.1702 113.323 83.8515 113.708 83.6408C114.092 83.4248 114.558 83.3168 115.106 83.3168C115.823 83.3168 116.455 83.5012 117.003 83.87C117.551 84.2387 117.964 84.7602 118.243 85.4345C118.523 86.1036 118.662 86.8384 118.662 87.6391C118.662 88.4978 118.507 89.2722 118.196 89.9623C117.89 90.6471 117.443 91.1739 116.853 91.5427C116.268 91.9062 115.652 92.0879 115.004 92.0879C114.529 92.0879 114.103 91.9878 113.723 91.7876C113.349 91.5874 113.041 91.3346 112.799 91.029V95.1143H111.377ZM112.665 87.7498C112.665 88.8297 112.883 89.6278 113.321 90.144C113.758 90.6603 114.287 90.9184 114.909 90.9184C115.541 90.9184 116.081 90.6524 116.529 90.1203C116.982 89.583 117.208 88.7533 117.208 87.6312C117.208 86.5619 116.987 85.7611 116.544 85.2291C116.107 84.697 115.583 84.431 114.972 84.431C114.366 84.431 113.829 84.7155 113.36 85.2844C112.896 85.8481 112.665 86.6699 112.665 87.7498ZM120.369 91.8983V83.5065H121.649V84.7787C121.976 84.1834 122.276 83.7909 122.55 83.6013C122.829 83.4117 123.135 83.3168 123.467 83.3168C123.946 83.3168 124.433 83.4696 124.928 83.7751L124.438 85.0947C124.091 84.8893 123.743 84.7866 123.395 84.7866C123.085 84.7866 122.805 84.8814 122.558 85.071C122.31 85.2554 122.134 85.5135 122.028 85.8454C121.87 86.3511 121.791 86.9043 121.791 87.5048V91.8983H120.369ZM125.782 81.9498V80.3141H127.204V81.9498H125.782ZM125.782 91.8983V83.5065H127.204V91.8983H125.782ZM128.808 89.3934L130.215 89.1721C130.294 89.7358 130.512 90.1677 130.871 90.468C131.234 90.7683 131.74 90.9184 132.388 90.9184C133.041 90.9184 133.526 90.7867 133.842 90.5233C134.158 90.2547 134.316 89.9412 134.316 89.583C134.316 89.2617 134.176 89.0088 133.897 88.8244C133.702 88.698 133.217 88.5373 132.443 88.3424C131.4 88.079 130.676 87.8525 130.27 87.6629C129.87 87.4679 129.564 87.2019 129.353 86.8648C129.148 86.5224 129.045 86.1457 129.045 85.7348C129.045 85.3608 129.13 85.0157 129.298 84.6997C129.472 84.3783 129.706 84.1123 130.001 83.9016C130.223 83.7383 130.523 83.6013 130.902 83.4907C131.287 83.3748 131.698 83.3168 132.135 83.3168C132.793 83.3168 133.37 83.4117 133.865 83.6013C134.366 83.7909 134.735 84.0491 134.972 84.3757C135.209 84.697 135.372 85.129 135.462 85.6716L134.071 85.8612C134.008 85.4293 133.823 85.0921 133.518 84.8498C133.217 84.6075 132.791 84.4863 132.238 84.4863C131.584 84.4863 131.118 84.5943 130.839 84.8103C130.56 85.0263 130.42 85.2791 130.42 85.5689C130.42 85.7532 130.478 85.9192 130.594 86.0667C130.71 86.2194 130.892 86.3459 131.139 86.446C131.281 86.4986 131.7 86.6198 132.396 86.8095C133.402 87.0781 134.102 87.2994 134.498 87.4732C134.898 87.6418 135.211 87.8894 135.438 88.216C135.664 88.5426 135.778 88.9482 135.778 89.4329C135.778 89.907 135.638 90.3548 135.359 90.7762C135.085 91.1924 134.687 91.5163 134.166 91.7481C133.644 91.9746 133.054 92.0879 132.396 92.0879C131.305 92.0879 130.473 91.8614 129.899 91.4083C129.33 90.9553 128.966 90.2836 128.808 89.3934ZM143.213 89.1958L144.683 89.3776C144.451 90.2362 144.022 90.9026 143.395 91.3767C142.768 91.8508 141.967 92.0879 140.993 92.0879C139.765 92.0879 138.791 91.7112 138.069 90.9579C137.353 90.1994 136.994 89.1379 136.994 87.7735C136.994 86.3617 137.358 85.266 138.085 84.4863C138.812 83.7067 139.755 83.3168 140.914 83.3168C142.036 83.3168 142.953 83.6988 143.664 84.4626C144.375 85.2264 144.73 86.3011 144.73 87.6866C144.73 87.7708 144.728 87.8973 144.723 88.0658H138.464C138.517 88.9877 138.778 89.6936 139.247 90.1835C139.715 90.6735 140.3 90.9184 141.001 90.9184C141.522 90.9184 141.967 90.7815 142.336 90.5075C142.705 90.2336 142.997 89.7964 143.213 89.1958ZM138.543 86.8964H143.229C143.166 86.1905 142.987 85.661 142.692 85.3081C142.239 84.7602 141.651 84.4863 140.93 84.4863C140.276 84.4863 139.726 84.7049 139.278 85.1422C138.836 85.5794 138.591 86.1641 138.543 86.8964ZM159.428 87.8367L160.961 88.2239C160.64 89.4829 160.06 90.4443 159.222 91.1081C158.39 91.7666 157.371 92.0958 156.164 92.0958C154.916 92.0958 153.899 91.8429 153.114 91.3372C152.335 90.8262 151.739 90.0887 151.328 89.1247C150.923 88.1607 150.72 87.1255 150.72 86.0193C150.72 84.8129 150.949 83.762 151.407 82.8664C151.871 81.9656 152.527 81.2834 153.375 80.8198C154.228 80.351 155.166 80.1166 156.188 80.1166C157.347 80.1166 158.322 80.4116 159.112 81.0016C159.902 81.5916 160.453 82.4213 160.763 83.4907L159.254 83.8463C158.985 83.0034 158.596 82.3897 158.085 82.0051C157.574 81.6206 156.931 81.4283 156.157 81.4283C155.266 81.4283 154.521 81.6416 153.92 82.0683C153.325 82.495 152.906 83.0692 152.664 83.7909C152.422 84.5074 152.3 85.2475 152.3 86.0114C152.3 86.9965 152.443 87.8578 152.727 88.5953C153.017 89.3275 153.465 89.8754 154.07 90.2389C154.676 90.6023 155.332 90.7841 156.038 90.7841C156.897 90.7841 157.624 90.5365 158.219 90.0413C158.814 89.5461 159.217 88.8113 159.428 87.8367ZM162.644 91.8983V80.3141H164.066V91.8983H162.644ZM166.287 81.9498V80.3141H167.709V81.9498H166.287ZM166.287 91.8983V83.5065H167.709V91.8983H166.287ZM175.627 89.1958L177.096 89.3776C176.865 90.2362 176.435 90.9026 175.808 91.3767C175.182 91.8508 174.381 92.0879 173.406 92.0879C172.179 92.0879 171.204 91.7112 170.483 90.9579C169.766 90.1994 169.408 89.1379 169.408 87.7735C169.408 86.3617 169.771 85.266 170.498 84.4863C171.225 83.7067 172.168 83.3168 173.327 83.3168C174.449 83.3168 175.366 83.6988 176.077 84.4626C176.788 85.2264 177.144 86.3011 177.144 87.6866C177.144 87.7708 177.141 87.8973 177.136 88.0658H170.878C170.93 88.9877 171.191 89.6936 171.66 90.1835C172.129 90.6735 172.714 90.9184 173.414 90.9184C173.936 90.9184 174.381 90.7815 174.75 90.5075C175.118 90.2336 175.411 89.7964 175.627 89.1958ZM170.957 86.8964H175.643C175.579 86.1905 175.4 85.661 175.105 85.3081C174.652 84.7602 174.065 84.4863 173.343 84.4863C172.69 84.4863 172.139 84.7049 171.692 85.1422C171.249 85.5794 171.004 86.1641 170.957 86.8964ZM178.89 91.8983V83.5065H180.17V84.6997C180.787 83.7778 181.677 83.3168 182.841 83.3168C183.347 83.3168 183.81 83.409 184.232 83.5934C184.659 83.7725 184.977 84.0096 185.188 84.3046C185.399 84.5996 185.546 84.9499 185.63 85.3555C185.683 85.6189 185.709 86.0798 185.709 86.7383V91.8983H184.287V86.7936C184.287 86.2142 184.232 85.7822 184.121 85.4977C184.011 85.208 183.813 84.9789 183.529 84.8103C183.249 84.6364 182.92 84.5495 182.541 84.5495C181.935 84.5495 181.411 84.7418 180.968 85.1264C180.531 85.5109 180.313 86.2405 180.313 87.3152V91.8983H178.89ZM191.004 90.6261L191.209 91.8825C190.809 91.9667 190.451 92.0089 190.135 92.0089C189.618 92.0089 189.218 91.9272 188.933 91.7639C188.649 91.6006 188.449 91.3873 188.333 91.1239C188.217 90.8552 188.159 90.2942 188.159 89.4408V84.6127H187.116V83.5065H188.159V81.4283L189.574 80.5749V83.5065H191.004V84.6127H189.574V89.5198C189.574 89.9254 189.597 90.1862 189.645 90.3021C189.697 90.418 189.779 90.5102 189.89 90.5786C190.005 90.6471 190.169 90.6814 190.379 90.6814C190.538 90.6814 190.746 90.6629 191.004 90.6261ZM191.833 89.3934L193.24 89.1721C193.319 89.7358 193.538 90.1677 193.896 90.468C194.259 90.7683 194.765 90.9184 195.413 90.9184C196.066 90.9184 196.551 90.7867 196.867 90.5233C197.183 90.2547 197.341 89.9412 197.341 89.583C197.341 89.2617 197.201 89.0088 196.922 88.8244C196.727 88.698 196.243 88.5373 195.468 88.3424C194.425 88.079 193.701 87.8525 193.295 87.6629C192.895 87.4679 192.589 87.2019 192.379 86.8648C192.173 86.5224 192.071 86.1457 192.071 85.7348C192.071 85.3608 192.155 85.0157 192.323 84.6997C192.497 84.3783 192.732 84.1123 193.027 83.9016C193.248 83.7383 193.548 83.6013 193.927 83.4907C194.312 83.3748 194.723 83.3168 195.16 83.3168C195.819 83.3168 196.395 83.4117 196.891 83.6013C197.391 83.7909 197.76 84.0491 197.997 84.3757C198.234 84.697 198.397 85.129 198.487 85.6716L197.096 85.8612C197.033 85.4293 196.849 85.0921 196.543 84.8498C196.243 84.6075 195.816 84.4863 195.263 84.4863C194.61 84.4863 194.143 84.5943 193.864 84.8103C193.585 85.0263 193.445 85.2791 193.445 85.5689C193.445 85.7532 193.503 85.9192 193.619 86.0667C193.735 86.2194 193.917 86.3459 194.165 86.446C194.307 86.4986 194.726 86.6198 195.421 86.8095C196.427 87.0781 197.128 87.2994 197.523 87.4732C197.923 87.6418 198.237 87.8894 198.463 88.216C198.69 88.5426 198.803 88.9482 198.803 89.4329C198.803 89.907 198.663 90.3548 198.384 90.7762C198.11 91.1924 197.712 91.5163 197.191 91.7481C196.669 91.9746 196.079 92.0879 195.421 92.0879C194.33 92.0879 193.498 91.8614 192.924 91.4083C192.355 90.9553 191.991 90.2836 191.833 89.3934Z" fill="#4A5565"/>
</g>
<defs>
<filter id="filter0_dd_1360_12048" x="4.86374e-05" y="-9.53674e-07" width="271.237" height="173.237" filterUnits="userSpaceOnUse" colorInterpolationFilters="sRGB">
<feFlood floodOpacity="0" result="BackgroundImageFix"/>
<feColorMatrix in="SourceAlpha" type="matrix" values="0 0 0 0 0 0 0 0 0 0 0 0 0 0 0 0 0 0 127 0" result="hardAlpha"/>
<feMorphology radius="6.93558" operator="erode" in="SourceAlpha" result="effect1_dropShadow_1360_12048"/>
<feOffset dy="9.24744"/>
<feGaussianBlur stdDeviation="5.77965"/>
<feComposite in2="hardAlpha" operator="out"/>
<feColorMatrix type="matrix" values="0 0 0 0 0 0 0 0 0 0 0 0 0 0 0 0 0 0 0.1 0"/>
<feBlend mode="normal" in2="BackgroundImageFix" result="effect1_dropShadow_1360_12048"/>
<feColorMatrix in="SourceAlpha" type="matrix" values="0 0 0 0 0 0 0 0 0 0 0 0 0 0 0 0 0 0 127 0" result="hardAlpha"/>
<feMorphology radius="5.77965" operator="erode" in="SourceAlpha" result="effect2_dropShadow_1360_12048"/>
<feOffset dy="23.1186"/>
<feGaussianBlur stdDeviation="14.4491"/>
<feComposite in2="hardAlpha" operator="out"/>
<feColorMatrix type="matrix" values="0 0 0 0 0 0 0 0 0 0 0 0 0 0 0 0 0 0 0.1 0"/>
<feBlend mode="normal" in2="effect1_dropShadow_1360_12048" result="effect2_dropShadow_1360_12048"/>
<feBlend mode="normal" in="SourceGraphic" in2="effect2_dropShadow_1360_12048" result="shape"/>
</filter>
</defs>
</svg>
