<svg width="56" height="56" viewBox="0 0 56 56" fill="none" xmlns="http://www.w3.org/2000/svg">
<path d="M0 14C0 6.26801 6.26801 0 14 0H42C49.732 0 56 6.26801 56 14V42C56 49.732 49.732 56 42 56H14C6.26801 56 0 49.732 0 42V14Z" fill="url(#paint0_linear_1283_13187)"/>
<path d="M34.4172 36.1654H24.5005C22.986 36.165 21.5015 35.7435 20.2128 34.9479C18.924 34.1524 17.8819 33.0141 17.2029 31.6604C16.5238 30.3067 16.2346 28.7908 16.3674 27.2822C16.5003 25.7735 17.0501 24.3315 17.9553 23.1173C18.8606 21.9032 20.0856 20.9646 21.4935 20.4066C22.9015 19.8486 24.4369 19.6931 25.9281 19.9574C27.4193 20.2218 28.8077 20.8956 29.938 21.9036C31.0684 22.9116 31.8961 24.214 32.3288 25.6654H34.4172C35.8096 25.6654 37.1449 26.2185 38.1295 27.2031C39.1141 28.1876 39.6672 29.523 39.6672 30.9154C39.6672 32.3078 39.1141 33.6431 38.1295 34.6277C37.1449 35.6122 35.8096 36.1654 34.4172 36.1654Z" stroke="white" strokeWidth="2.33333" strokeLinecap="round" strokeLinejoin="round"/>
<defs>
<linearGradient id="paint0_linear_1283_13187" x1="28" y1="0" x2="28" y2="56" gradientUnits="userSpaceOnUse">
<stop stopColor="#FF9500"/>
<stop offset="1" stopColor="#E68600"/>
</linearGradient>
</defs>
</svg>
