<svg width="56" height="56" viewBox="0 0 56 56" fill="none" xmlns="http://www.w3.org/2000/svg">
<path d="M0 14C0 6.26801 6.26801 0 14 0H42C49.732 0 56 6.26801 56 14V42C56 49.732 49.732 56 42 56H14C6.26801 56 0 49.732 0 42V14Z" fill="url(#paint0_linear_1283_13216)"/>
<path d="M27.9996 19.8345C28.001 19.3679 27.9091 18.9057 27.7292 18.4751C27.5493 18.0446 27.2852 17.6543 26.9523 17.3273C26.6194 17.0003 26.2245 16.7432 25.7907 16.5711C25.357 16.3989 24.8932 16.3153 24.4267 16.325C23.9602 16.3347 23.5003 16.4376 23.0741 16.6277C22.648 16.8177 22.2641 17.0911 21.9451 17.4317C21.6261 17.7723 21.3785 18.1732 21.2167 18.6109C21.0549 19.0486 20.9823 19.5142 21.0031 19.9804C20.3174 20.1567 19.6807 20.4868 19.1414 20.9456C18.6021 21.4044 18.1743 21.9799 17.8903 22.6285C17.6063 23.2772 17.4737 23.9819 17.5024 24.6894C17.5312 25.3969 17.7205 26.0886 18.0561 26.712C17.466 27.1915 17.002 27.8078 16.7044 28.5075C16.4068 29.2071 16.2846 29.9689 16.3486 30.7265C16.4125 31.4841 16.6606 32.2147 17.0712 32.8546C17.4819 33.4944 18.0427 34.0243 18.7048 34.398C18.623 35.0306 18.6718 35.6733 18.8482 36.2863C19.0245 36.8993 19.3247 37.4697 19.7301 37.9621C20.1355 38.4546 20.6375 38.8587 21.2052 39.1496C21.7729 39.4404 22.3942 39.6118 23.0308 39.6531C23.6673 39.6944 24.3056 39.6048 24.9061 39.3897C25.5066 39.1747 26.0567 38.8389 26.5224 38.4029C26.988 37.967 27.3593 37.4402 27.6134 36.8551C27.8675 36.27 27.999 35.6391 27.9996 35.0012V19.8345Z" stroke="white" strokeWidth="2.33333" strokeLinecap="round" strokeLinejoin="round"/>
<path d="M28 19.8345C27.9986 19.3679 28.0906 18.9057 28.2705 18.4751C28.4503 18.0446 28.7145 17.6543 29.0474 17.3273C29.3803 17.0003 29.7752 16.7432 30.2089 16.5711C30.6426 16.3989 31.1064 16.3153 31.5729 16.325C32.0395 16.3347 32.4993 16.4376 32.9255 16.6277C33.3517 16.8177 33.7356 17.0911 34.0545 17.4317C34.3735 17.7723 34.6212 18.1732 34.783 18.6109C34.9447 19.0486 35.0173 19.5142 34.9965 19.9804C35.6823 20.1567 36.3189 20.4868 36.8582 20.9456C37.3976 21.4044 37.8254 21.9799 38.1094 22.6285C38.3933 23.2772 38.526 23.9819 38.4972 24.6894C38.4685 25.3969 38.2791 26.0886 37.9435 26.712C38.5336 27.1915 38.9977 27.8078 39.2953 28.5075C39.5929 29.2071 39.715 29.9689 39.6511 30.7265C39.5872 31.4841 39.3391 32.2147 38.9284 32.8546C38.5178 33.4944 37.957 34.0243 37.2948 34.398C37.3766 35.0306 37.3278 35.6733 37.1515 36.2863C36.9751 36.8993 36.675 37.4697 36.2696 37.9621C35.8642 38.4546 35.3621 38.8587 34.7944 39.1496C34.2267 39.4404 33.6054 39.6118 32.9689 39.6531C32.3323 39.6944 31.6941 39.6048 31.0936 39.3897C30.493 39.1747 29.9429 38.8389 29.4773 38.4029C29.0116 37.967 28.6403 37.4402 28.3862 36.8551C28.1321 36.27 28.0007 35.6391 28 35.0012V19.8345Z" stroke="white" strokeWidth="2.33333" strokeLinecap="round" strokeLinejoin="round"/>
<path d="M31.5 29.1667C30.5205 28.8221 29.6652 28.1948 29.0422 27.3642C28.4192 26.5335 28.0565 25.5368 28 24.5C27.9435 25.5368 27.5808 26.5335 26.9578 27.3642C26.3348 28.1948 25.4795 28.8221 24.5 29.1667" stroke="white" strokeWidth="2.33333" strokeLinecap="round" strokeLinejoin="round"/>
<path d="M34.5312 21.5846C34.8136 21.0953 34.9733 20.5449 34.9967 19.9805" stroke="white" strokeWidth="2.33333" strokeLinecap="round" strokeLinejoin="round"/>
<path d="M21.0039 19.9805C21.027 20.5448 21.1863 21.0952 21.4682 21.5846" stroke="white" strokeWidth="2.33333" strokeLinecap="round" strokeLinejoin="round"/>
<path d="M18.0547 26.712C18.2681 26.5382 18.4965 26.3836 18.7372 26.25" stroke="white" strokeWidth="2.33333" strokeLinecap="round" strokeLinejoin="round"/>
<path d="M37.2617 26.25C37.5024 26.3836 37.7308 26.5382 37.9442 26.712" stroke="white" strokeWidth="2.33333" strokeLinecap="round" strokeLinejoin="round"/>
<path d="M21.0019 35.0004C20.1978 35.0008 19.4073 34.7934 18.707 34.3984" stroke="white" strokeWidth="2.33333" strokeLinecap="round" strokeLinejoin="round"/>
<path d="M37.2948 34.3984C36.5945 34.7934 35.804 35.0008 35 35.0004" stroke="white" strokeWidth="2.33333" strokeLinecap="round" strokeLinejoin="round"/>
<defs>
<linearGradient id="paint0_linear_1283_13216" x1="28" y1="0" x2="28" y2="56" gradientUnits="userSpaceOnUse">
<stop stopColor="#FF9500"/>
<stop offset="1" stopColor="#E68600"/>
</linearGradient>
</defs>
</svg>
