<svg width="56" height="56" viewBox="0 0 56 56" fill="none" xmlns="http://www.w3.org/2000/svg">
<path d="M0 14C0 6.26801 6.26801 0 14 0H42C49.732 0 56 6.26801 56 14V42C56 49.732 49.732 56 42 56H14C6.26801 56 0 49.732 0 42V14Z" fill="url(#paint0_linear_1283_13177)"/>
<path d="M27.9987 39.6654C34.442 39.6654 39.6654 34.442 39.6654 27.9987C39.6654 21.5554 34.442 16.332 27.9987 16.332C21.5554 16.332 16.332 21.5554 16.332 27.9987C16.332 34.442 21.5554 39.6654 27.9987 39.6654Z" stroke="white" strokeWidth="2.33333" strokeLinecap="round" strokeLinejoin="round"/>
<path d="M28 35C31.866 35 35 31.866 35 28C35 24.134 31.866 21 28 21C24.134 21 21 24.134 21 28C21 31.866 24.134 35 28 35Z" stroke="white" strokeWidth="2.33333" strokeLinecap="round" strokeLinejoin="round"/>
<path d="M28.0013 30.3346C29.29 30.3346 30.3346 29.29 30.3346 28.0013C30.3346 26.7126 29.29 25.668 28.0013 25.668C26.7126 25.668 25.668 26.7126 25.668 28.0013C25.668 29.29 26.7126 30.3346 28.0013 30.3346Z" stroke="white" strokeWidth="2.33333" strokeLinecap="round" strokeLinejoin="round"/>
<defs>
<linearGradient id="paint0_linear_1283_13177" x1="28" y1="0" x2="28" y2="56" gradientUnits="userSpaceOnUse">
<stop stopColor="#FF9500"/>
<stop offset="1" stopColor="#E68600"/>
</linearGradient>
</defs>
</svg>
