<svg width="218" height="48" viewBox="0 0 218 48" fill="none" xmlns="http://www.w3.org/2000/svg">
<path d="M126.175 5.625V27.8749H135.756V33.4308H119.836V5.625H126.175Z" fill="#1F1F1F"/>
<path d="M137.641 19.515C137.641 15.4864 139.011 12.083 141.752 9.29851C144.5 6.51727 147.808 5.125 151.676 5.125C155.567 5.125 158.871 6.51398 161.586 9.28534C164.307 12.06 165.671 15.4699 165.671 19.515C165.671 23.5799 164.33 26.9997 161.652 29.7711C158.98 32.5457 155.656 33.9314 151.676 33.9314C147.597 33.9314 144.236 32.5589 141.594 29.8106C138.958 27.0557 137.641 23.6227 137.641 19.515ZM144.493 19.515C144.493 20.9731 144.717 22.3029 145.166 23.5042C145.614 24.7089 146.398 25.7259 147.524 26.5587C148.648 27.3848 150.032 27.7962 151.676 27.7962C154.038 27.7962 155.82 26.9898 157.026 25.3737C158.229 23.761 158.832 21.8059 158.832 19.515C158.832 17.244 158.216 15.2955 156.987 13.6695C155.764 12.037 153.995 11.2207 151.676 11.2207C149.383 11.2207 147.61 12.037 146.365 13.6695C145.116 15.2955 144.493 17.244 144.493 19.515Z" fill="#1F1F1F"/>
<path d="M168.479 5.625H178.428C181.097 5.625 183.278 6.34253 184.965 7.771C186.652 9.19289 187.495 11.2303 187.495 13.8799C187.495 15.9271 186.981 17.6419 185.953 19.0276C184.932 20.4067 183.548 21.3777 181.802 21.9372L191.383 33.4308H183.318L174.817 22.4375V33.4308H168.479V5.625ZM174.817 17.9612H175.555C176.142 17.9612 176.639 17.9546 177.045 17.9349C177.446 17.9085 177.908 17.8295 178.428 17.6979C178.946 17.5596 179.357 17.3655 179.667 17.1186C179.983 16.875 180.254 16.513 180.484 16.039C180.711 15.5651 180.827 14.9956 180.827 14.3275C180.827 13.6527 180.711 13.0767 180.484 12.6028C180.254 12.1288 179.983 11.7701 179.667 11.5232C179.357 11.2796 178.946 11.0887 178.428 10.9571C177.908 10.8188 177.446 10.7398 177.045 10.7201C176.639 10.6938 176.142 10.6806 175.555 10.6806H174.817V17.9612Z" fill="#1F1F1F"/>
<path d="M206.758 5.625L217.999 33.4308H211.186L209.117 27.8749H198.535L196.466 33.4308H189.652L200.894 5.625H206.758ZM206.969 22.3059L203.859 14.2222H203.793L200.683 22.3059H206.969Z" fill="#1F1F1F"/>
<path d="M86.3852 39.3682L81.575 47.9983H74.4883L82.1878 34.1875C83.5452 36.0537 84.9487 37.785 86.3852 39.3682Z" fill="#F2647B"/>
<path d="M84.9228 29.279L96.3848 8.71094L109.682 32.5769L109.893 32.9489C111.685 30.1545 112.584 27.1033 112.921 26.1389C112.673 29.2098 112.067 32.3498 110.963 34.8743C110.407 36.1448 109.728 37.2573 108.898 38.1263C108.203 38.8602 107.432 39.3869 106.575 39.7094C105.883 39.9727 105.129 40.1044 104.312 40.1044H104.308C102.559 40.1044 100.503 39.5021 98.2034 38.3205C97.3567 37.886 96.5166 37.3857 95.6896 36.8327C99.4718 38.4455 102.704 38.6035 105.195 37.4153C105.221 37.4022 105.247 37.389 105.274 37.3758L104.994 36.8689L96.3848 21.4224L89.3705 34.012C91.8975 36.418 94.5892 38.4916 97.3765 39.9234C113.191 48.063 115.263 29.0946 114.802 20.4613C118.225 29.2065 118.475 46.7168 107.87 47.8524C94.7869 49.7153 79.8491 33.8803 71.4609 8.77018C71.4609 8.77018 76.9366 19.8984 84.9228 29.279Z" fill="#F2647B"/>
<mask id="mask0_2_41" style="mask-type:luminance" maskUnits="userSpaceOnUse" x="67" y="0" width="12" height="16">
<path d="M67.2344 0H78.8117V15.5256H67.2344V0Z" fill="white"/>
</mask>
<g mask="url(#mask0_2_41)">
<path d="M67.6527 0.00570679L78.7556 9.91614L74.2584 11.8482L70.3214 6.20014L71.7282 12.9377L67.2343 14.873L67.6527 0.00570679Z" fill="#F2647B"/>
</g>
<path d="M15.9196 5.625V11.1809H6.33886V16.7105H15.5111V22.2795H6.33886V27.8749H15.9196V33.4308H0V5.625H15.9196Z" fill="#1F1F1F"/>
<path d="M45.6074 33.4308H37.4103L30.8343 23.9647L24.245 33.4308H16.3906L26.9202 18.4615L18.1434 5.625H25.7078L30.8343 13.2084L35.9607 5.625H43.8546L34.7483 18.4615L45.6074 33.4308Z" fill="#1F1F1F"/>
<path d="M46.4844 5.625H56.6318C59.4685 5.625 61.7616 6.35898 63.511 7.82366C65.267 9.28176 66.1467 11.4047 66.1467 14.1958C66.1467 16.9804 65.2572 19.1659 63.4846 20.7523C61.7088 22.3322 59.4257 23.1221 56.6318 23.1221H52.8232V33.4308H46.4844V5.625ZM52.8232 18.0665H54.6155C56.0289 18.0665 57.1886 17.7835 58.0946 17.2108C59.0072 16.6315 59.4652 15.6934 59.4652 14.3933C59.4652 13.0702 59.0072 12.1222 58.0946 11.5495C57.1886 10.9702 56.0289 10.6806 54.6155 10.6806H52.8232V18.0665Z" fill="#1F1F1F"/>
</svg>
