<svg width="222" height="207" viewBox="0 0 222 207" fill="none" xmlns="http://www.w3.org/2000/svg">
<mask id="mask0_5_46" style="mask-type:luminance" maskUnits="userSpaceOnUse" x="31" y="45" width="38" height="24">
<path d="M30.9999 45.9795H68.7119V68.4356H30.9999V45.9795Z" fill="white"/>
</mask>
<g mask="url(#mask0_5_46)">
<path d="M30.9999 52.9751C30.9999 52.9751 60.4297 35.921 67.6592 58.0628C58.9677 55.2923 49.2674 55.8259 49.2674 55.8259C49.2674 55.8259 57.0671 57.8947 66.687 62.785C56.6066 74.2324 46.7089 64.8318 39.5013 58.114C35.7002 54.5759 30.9999 52.9751 30.9999 52.9751Z" fill="#6D8AFF"/>
</g>
<mask id="mask1_5_46" style="mask-type:luminance" maskUnits="userSpaceOnUse" x="160" y="23" width="31" height="31">
<path d="M160.408 23.5233H191V53.4648H160.408V23.5233Z" fill="white"/>
</mask>
<g mask="url(#mask1_5_46)">
<path d="M191.007 24.2543C191.007 24.2543 157.023 25.7821 162.893 48.3186C168.719 41.2937 177.169 36.513 177.169 36.513C177.169 36.513 171.724 42.4633 166.263 51.7689C180.927 55.9648 184.18 42.7119 186.621 33.1724C187.915 28.1432 191.007 24.2543 191.007 24.2543Z" fill="#6D8AFF"/>
</g>
<mask id="mask2_5_46" style="mask-type:luminance" maskUnits="userSpaceOnUse" x="96" y="0" width="26" height="39">
<path d="M96.7821 0H121.11V38.4942H96.7821V0Z" fill="white"/>
</mask>
<g mask="url(#mask2_5_46)">
<path d="M101.833 0.00732422C101.833 0.00732422 87.6666 30.826 109.94 36.7763C107.484 26.769 106.753 16.7983 106.753 16.7983C106.753 16.7983 111.526 25.5848 114.86 35.3363C130.4 18.3041 101.833 0.00732422 101.833 0.00732422Z" fill="#6D8AFF"/>
</g>
<mask id="mask3_5_46" style="mask-type:luminance" maskUnits="userSpaceOnUse" x="59" y="42" width="83" height="121">
<path d="M59.3553 42.2368H141.694V162.807H59.3553V42.2368Z" fill="white"/>
</mask>
<g mask="url(#mask3_5_46)">
<path d="M116.943 55.3144C123.763 55.0804 129.501 61.0234 129.757 68.5746C130.013 76.1331 124.692 82.4416 117.871 82.6755C111.044 82.9094 105.306 76.9664 105.05 69.4152C104.794 61.8568 110.116 55.5483 116.943 55.3144ZM89.1067 162.8C131.037 106.184 80.1301 60.4167 80.1301 60.4167C112.842 74.057 112.155 102.763 121.863 101.418C128.887 100.446 131.746 76.2866 136.804 57.8363C137.798 54.1959 139.253 51.0234 140.942 48.2603C133.763 45.0146 125.795 43.2018 117.404 43.2018C85.8611 43.2018 60.2836 68.772 60.2836 100.307C60.2836 122.749 73.2295 142.164 92.0673 151.499C91.4971 154.649 90.5176 159.167 89.1067 162.8Z" fill="#6D8AFF"/>
</g>
<path d="M154.648 57.0102C154.677 52.6973 155.188 40.4312 159.867 32.3464C130.225 57.8581 164.772 121.374 103.902 155.804C108.229 156.849 112.754 157.412 117.403 157.412C148.953 157.412 174.523 131.842 174.523 100.307C174.523 82.997 166.819 67.4853 154.648 57.0102Z" fill="#6D8AFF"/>
<path d="M5.55403 196.807V182.551H0.394031V180.007H13.498V182.551H8.33803V196.807H5.55403ZM15.3284 196.807V180.007H18.0164V196.807H15.3284ZM23.4644 196.807V190.663H26.1524V196.807H23.4644ZM23.4644 190.663C23.4644 189.703 23.3524 188.967 23.1284 188.455C22.9044 187.927 22.5924 187.559 22.1924 187.351C21.8084 187.143 21.3604 187.039 20.8484 187.039C19.9364 187.023 19.2324 187.319 18.7364 187.927C18.2564 188.535 18.0164 189.407 18.0164 190.543H16.9844C16.9844 189.279 17.1684 188.199 17.5364 187.303C17.9204 186.391 18.4564 185.703 19.1444 185.239C19.8324 184.759 20.6484 184.519 21.5924 184.519C22.5364 184.519 23.3524 184.711 24.0404 185.095C24.7284 185.479 25.2484 186.079 25.6004 186.895C25.9684 187.695 26.1524 188.743 26.1524 190.039V190.663H23.4644ZM34.2267 197.095C33.0587 197.095 32.0187 196.831 31.1067 196.303C30.2107 195.759 29.4987 195.015 28.9707 194.071C28.4587 193.127 28.2027 192.039 28.2027 190.807C28.2027 189.575 28.4667 188.487 28.9947 187.543C29.5227 186.599 30.2427 185.863 31.1547 185.335C32.0827 184.791 33.1387 184.519 34.3227 184.519C35.3947 184.519 36.3627 184.799 37.2267 185.359C38.0907 185.903 38.7707 186.695 39.2667 187.735C39.7787 188.775 40.0347 190.015 40.0347 191.455H30.6027L30.9627 191.119C30.9627 191.855 31.1227 192.495 31.4427 193.039C31.7627 193.567 32.1867 193.975 32.7147 194.263C33.2427 194.551 33.8267 194.695 34.4667 194.695C35.2027 194.695 35.8107 194.535 36.2907 194.215C36.7707 193.879 37.1467 193.447 37.4187 192.919L39.7947 193.927C39.4587 194.567 39.0267 195.127 38.4987 195.607C37.9867 196.087 37.3707 196.455 36.6507 196.711C35.9467 196.967 35.1387 197.095 34.2267 197.095ZM31.1307 189.727L30.7467 189.391H37.5147L37.1547 189.727C37.1547 189.071 37.0107 188.535 36.7227 188.119C36.4347 187.687 36.0667 187.367 35.6187 187.159C35.1867 186.935 34.7307 186.823 34.2507 186.823C33.7707 186.823 33.2907 186.935 32.8107 187.159C32.3307 187.367 31.9307 187.687 31.6107 188.119C31.2907 188.535 31.1307 189.071 31.1307 189.727ZM53.9065 197.095C53.0265 197.095 52.2185 196.991 51.4825 196.783C50.7625 196.575 50.1225 196.287 49.5625 195.919C49.0185 195.551 48.5625 195.143 48.1945 194.695C47.8425 194.231 47.5945 193.751 47.4505 193.255L50.1865 192.415C50.3945 193.007 50.8025 193.527 51.4105 193.975C52.0185 194.423 52.7705 194.655 53.6665 194.671C54.7065 194.671 55.5305 194.455 56.1385 194.023C56.7465 193.591 57.0505 193.023 57.0505 192.319C57.0505 191.679 56.7945 191.159 56.2825 190.759C55.7705 190.343 55.0825 190.023 54.2185 189.799L52.1545 189.271C51.3705 189.063 50.6585 188.759 50.0185 188.359C49.3945 187.959 48.8985 187.455 48.5305 186.847C48.1785 186.239 48.0025 185.519 48.0025 184.687C48.0025 183.119 48.5145 181.903 49.5385 181.039C50.5625 180.159 52.0265 179.719 53.9305 179.719C55.0025 179.719 55.9385 179.887 56.7385 180.223C57.5545 180.543 58.2265 180.991 58.7545 181.567C59.2825 182.127 59.6745 182.767 59.9305 183.487L57.2425 184.351C57.0025 183.711 56.5865 183.183 55.9945 182.767C55.4025 182.351 54.6665 182.143 53.7865 182.143C52.8745 182.143 52.1545 182.359 51.6265 182.791C51.1145 183.223 50.8585 183.823 50.8585 184.591C50.8585 185.215 51.0585 185.703 51.4585 186.055C51.8745 186.391 52.4345 186.647 53.1385 186.823L55.2025 187.327C56.7065 187.695 57.8745 188.327 58.7065 189.223C59.5385 190.119 59.9545 191.111 59.9545 192.199C59.9545 193.159 59.7225 194.007 59.2585 194.743C58.7945 195.479 58.1065 196.055 57.1945 196.471C56.2985 196.887 55.2025 197.095 53.9065 197.095ZM68.147 197.095C66.915 197.095 65.827 196.831 64.883 196.303C63.939 195.759 63.195 195.015 62.651 194.071C62.123 193.127 61.859 192.039 61.859 190.807C61.859 189.575 62.123 188.487 62.651 187.543C63.195 186.599 63.931 185.863 64.859 185.335C65.803 184.791 66.883 184.519 68.099 184.519C69.283 184.519 70.355 184.807 71.315 185.383C72.275 185.943 72.987 186.751 73.451 187.807L70.955 188.767C70.699 188.239 70.307 187.815 69.779 187.495C69.251 187.175 68.651 187.015 67.979 187.015C67.323 187.015 66.739 187.183 66.227 187.519C65.715 187.839 65.315 188.287 65.027 188.863C64.739 189.423 64.595 190.071 64.595 190.807C64.595 191.543 64.739 192.199 65.027 192.775C65.331 193.335 65.739 193.783 66.251 194.119C66.779 194.439 67.371 194.599 68.027 194.599C68.699 194.599 69.299 194.431 69.827 194.095C70.355 193.743 70.747 193.271 71.003 192.679L73.499 193.639C73.035 194.727 72.323 195.575 71.363 196.183C70.419 196.791 69.347 197.095 68.147 197.095ZM75.7537 196.807V184.807H78.4177V196.807H75.7537ZM77.0977 182.527C76.6657 182.527 76.2897 182.375 75.9697 182.071C75.6657 181.751 75.5137 181.375 75.5137 180.943C75.5137 180.511 75.6657 180.143 75.9697 179.839C76.2897 179.535 76.6657 179.383 77.0977 179.383C77.5297 179.383 77.8977 179.535 78.2017 179.839C78.5217 180.143 78.6817 180.511 78.6817 180.943C78.6817 181.375 78.5217 181.751 78.2017 182.071C77.8977 182.375 77.5297 182.527 77.0977 182.527ZM88.9057 196.807L88.7857 194.551V190.639C88.7857 189.823 88.6977 189.143 88.5217 188.599C88.3617 188.039 88.0897 187.615 87.7057 187.327C87.3377 187.023 86.8417 186.871 86.2177 186.871C85.6417 186.871 85.1377 186.991 84.7057 187.231C84.2737 187.471 83.9057 187.847 83.6017 188.359L81.2497 187.495C81.5057 186.967 81.8417 186.479 82.2577 186.031C82.6897 185.567 83.2257 185.199 83.8657 184.927C84.5217 184.655 85.3057 184.519 86.2177 184.519C87.3857 184.519 88.3617 184.751 89.1457 185.215C89.9297 185.663 90.5057 186.311 90.8737 187.159C91.2577 188.007 91.4497 189.031 91.4497 190.231L91.3777 196.807H88.9057ZM85.4497 197.095C84.0097 197.095 82.8897 196.775 82.0897 196.135C81.3057 195.495 80.9137 194.591 80.9137 193.423C80.9137 192.175 81.3297 191.223 82.1617 190.567C83.0097 189.911 84.1857 189.583 85.6897 189.583H88.9057V191.647H86.5537C85.4817 191.647 84.7297 191.799 84.2977 192.103C83.8657 192.391 83.6497 192.807 83.6497 193.351C83.6497 193.815 83.8337 194.183 84.2017 194.455C84.5857 194.711 85.1137 194.839 85.7857 194.839C86.3937 194.839 86.9217 194.703 87.3697 194.431C87.8177 194.159 88.1617 193.799 88.4017 193.351C88.6577 192.903 88.7857 192.399 88.7857 191.839H89.5777C89.5777 193.471 89.2497 194.759 88.5937 195.703C87.9377 196.631 86.8897 197.095 85.4497 197.095ZM98.9476 197.095C97.6836 197.095 96.7156 196.783 96.0436 196.159C95.3876 195.519 95.0596 194.607 95.0596 193.423V181.063H97.7236V192.919C97.7236 193.479 97.8516 193.903 98.1076 194.191C98.3796 194.479 98.7716 194.623 99.2836 194.623C99.4436 194.623 99.6196 194.591 99.8116 194.527C100.004 194.463 100.22 194.343 100.46 194.167L101.444 196.207C101.028 196.495 100.612 196.711 100.196 196.855C99.7796 197.015 99.3636 197.095 98.9476 197.095ZM93.0676 187.111V184.807H100.964V187.111H93.0676ZM103.761 196.807V184.807H106.425V196.807H103.761ZM105.105 182.527C104.673 182.527 104.297 182.375 103.977 182.071C103.673 181.751 103.521 181.375 103.521 180.943C103.521 180.511 103.673 180.143 103.977 179.839C104.297 179.535 104.673 179.383 105.105 179.383C105.537 179.383 105.905 179.535 106.209 179.839C106.529 180.143 106.689 180.511 106.689 180.943C106.689 181.375 106.529 181.751 106.209 182.071C105.905 182.375 105.537 182.527 105.105 182.527ZM115.209 197.095C113.977 197.095 112.889 196.831 111.945 196.303C111.001 195.759 110.257 195.015 109.713 194.071C109.185 193.127 108.921 192.039 108.921 190.807C108.921 189.575 109.185 188.487 109.713 187.543C110.257 186.599 110.993 185.863 111.921 185.335C112.865 184.791 113.945 184.519 115.161 184.519C116.345 184.519 117.417 184.807 118.377 185.383C119.337 185.943 120.049 186.751 120.513 187.807L118.017 188.767C117.761 188.239 117.369 187.815 116.841 187.495C116.313 187.175 115.713 187.015 115.041 187.015C114.385 187.015 113.801 187.183 113.289 187.519C112.777 187.839 112.377 188.287 112.089 188.863C111.801 189.423 111.657 190.071 111.657 190.807C111.657 191.543 111.801 192.199 112.089 192.775C112.393 193.335 112.801 193.783 113.313 194.119C113.841 194.439 114.433 194.599 115.089 194.599C115.761 194.599 116.361 194.431 116.889 194.095C117.417 193.743 117.809 193.271 118.065 192.679L120.561 193.639C120.097 194.727 119.385 195.575 118.425 196.183C117.481 196.791 116.409 197.095 115.209 197.095ZM129.968 196.807L129.848 194.551V190.639C129.848 189.823 129.76 189.143 129.584 188.599C129.424 188.039 129.152 187.615 128.768 187.327C128.4 187.023 127.904 186.871 127.28 186.871C126.704 186.871 126.2 186.991 125.768 187.231C125.336 187.471 124.968 187.847 124.664 188.359L122.312 187.495C122.568 186.967 122.904 186.479 123.32 186.031C123.752 185.567 124.288 185.199 124.928 184.927C125.584 184.655 126.368 184.519 127.28 184.519C128.448 184.519 129.424 184.751 130.208 185.215C130.992 185.663 131.568 186.311 131.936 187.159C132.32 188.007 132.512 189.031 132.512 190.231L132.44 196.807H129.968ZM126.512 197.095C125.072 197.095 123.952 196.775 123.152 196.135C122.368 195.495 121.976 194.591 121.976 193.423C121.976 192.175 122.392 191.223 123.224 190.567C124.072 189.911 125.248 189.583 126.752 189.583H129.968V191.647H127.616C126.544 191.647 125.792 191.799 125.36 192.103C124.928 192.391 124.712 192.807 124.712 193.351C124.712 193.815 124.896 194.183 125.264 194.455C125.648 194.711 126.176 194.839 126.848 194.839C127.456 194.839 127.984 194.703 128.432 194.431C128.88 194.159 129.224 193.799 129.464 193.351C129.72 192.903 129.848 192.399 129.848 191.839H130.64C130.64 193.471 130.312 194.759 129.656 195.703C129 196.631 127.952 197.095 126.512 197.095ZM147.047 197.095C146.167 197.095 145.359 196.991 144.623 196.783C143.903 196.575 143.263 196.287 142.703 195.919C142.159 195.551 141.703 195.143 141.335 194.695C140.983 194.231 140.735 193.751 140.591 193.255L143.327 192.415C143.535 193.007 143.943 193.527 144.551 193.975C145.159 194.423 145.911 194.655 146.807 194.671C147.847 194.671 148.671 194.455 149.279 194.023C149.887 193.591 150.191 193.023 150.191 192.319C150.191 191.679 149.935 191.159 149.423 190.759C148.911 190.343 148.223 190.023 147.359 189.799L145.295 189.271C144.511 189.063 143.799 188.759 143.159 188.359C142.535 187.959 142.039 187.455 141.671 186.847C141.319 186.239 141.143 185.519 141.143 184.687C141.143 183.119 141.655 181.903 142.679 181.039C143.703 180.159 145.167 179.719 147.071 179.719C148.143 179.719 149.079 179.887 149.879 180.223C150.695 180.543 151.367 180.991 151.895 181.567C152.423 182.127 152.815 182.767 153.071 183.487L150.383 184.351C150.143 183.711 149.727 183.183 149.135 182.767C148.543 182.351 147.807 182.143 146.927 182.143C146.015 182.143 145.295 182.359 144.767 182.791C144.255 183.223 143.999 183.823 143.999 184.591C143.999 185.215 144.199 185.703 144.599 186.055C145.015 186.391 145.575 186.647 146.279 186.823L148.343 187.327C149.847 187.695 151.015 188.327 151.847 189.223C152.679 190.119 153.095 191.111 153.095 192.199C153.095 193.159 152.863 194.007 152.399 194.743C151.935 195.479 151.247 196.055 150.335 196.471C149.439 196.887 148.343 197.095 147.047 197.095ZM157.568 201.895C157.184 201.895 156.752 201.823 156.272 201.679C155.808 201.535 155.36 201.351 154.928 201.127L155.936 198.943C156.24 199.087 156.52 199.199 156.776 199.279C157.032 199.375 157.24 199.423 157.4 199.423C157.784 199.423 158.104 199.319 158.36 199.111C158.632 198.919 158.848 198.631 159.008 198.247L160.424 194.935L164.48 184.807H167.408L161.84 198.079C161.504 198.847 161.16 199.519 160.808 200.095C160.472 200.671 160.048 201.111 159.536 201.415C159.024 201.735 158.368 201.895 157.568 201.895ZM159.704 196.807L154.328 184.807H157.256L161.432 194.911L162.296 196.807H159.704ZM173.376 197.095C172.576 197.095 171.84 196.975 171.168 196.735C170.496 196.495 169.92 196.159 169.44 195.727C168.96 195.279 168.592 194.759 168.336 194.167L170.664 193.135C170.904 193.583 171.256 193.959 171.72 194.263C172.2 194.567 172.728 194.719 173.304 194.719C173.928 194.719 174.424 194.615 174.792 194.407C175.176 194.183 175.368 193.879 175.368 193.495C175.368 193.127 175.224 192.847 174.936 192.655C174.648 192.447 174.24 192.279 173.712 192.151L172.584 191.839C171.448 191.551 170.56 191.095 169.92 190.471C169.28 189.831 168.96 189.103 168.96 188.287C168.96 187.087 169.344 186.159 170.112 185.503C170.896 184.847 172.016 184.519 173.472 184.519C174.208 184.519 174.88 184.631 175.488 184.855C176.112 185.063 176.648 185.367 177.096 185.767C177.544 186.151 177.856 186.607 178.032 187.135L175.8 188.143C175.64 187.743 175.336 187.439 174.888 187.231C174.44 187.007 173.944 186.895 173.4 186.895C172.856 186.895 172.432 187.015 172.128 187.255C171.824 187.479 171.672 187.799 171.672 188.215C171.672 188.455 171.808 188.679 172.08 188.887C172.352 189.079 172.744 189.239 173.256 189.367L174.672 189.703C175.456 189.895 176.096 190.199 176.592 190.615C177.088 191.015 177.456 191.471 177.696 191.983C177.936 192.479 178.056 192.983 178.056 193.495C178.056 194.215 177.848 194.847 177.432 195.391C177.032 195.935 176.48 196.359 175.776 196.663C175.072 196.951 174.272 197.095 173.376 197.095ZM184.963 197.095C183.699 197.095 182.731 196.783 182.059 196.159C181.403 195.519 181.075 194.607 181.075 193.423V181.063H183.739V192.919C183.739 193.479 183.867 193.903 184.123 194.191C184.395 194.479 184.787 194.623 185.299 194.623C185.459 194.623 185.635 194.591 185.827 194.527C186.019 194.463 186.235 194.343 186.475 194.167L187.459 196.207C187.043 196.495 186.627 196.711 186.211 196.855C185.795 197.015 185.379 197.095 184.963 197.095ZM179.083 187.111V184.807H186.979V187.111H179.083ZM194.797 197.095C193.629 197.095 192.589 196.831 191.677 196.303C190.781 195.759 190.069 195.015 189.541 194.071C189.029 193.127 188.773 192.039 188.773 190.807C188.773 189.575 189.037 188.487 189.565 187.543C190.093 186.599 190.813 185.863 191.725 185.335C192.653 184.791 193.709 184.519 194.893 184.519C195.965 184.519 196.933 184.799 197.797 185.359C198.661 185.903 199.341 186.695 199.837 187.735C200.349 188.775 200.605 190.015 200.605 191.455H191.173L191.533 191.119C191.533 191.855 191.693 192.495 192.013 193.039C192.333 193.567 192.757 193.975 193.285 194.263C193.813 194.551 194.397 194.695 195.037 194.695C195.773 194.695 196.381 194.535 196.861 194.215C197.341 193.879 197.717 193.447 197.989 192.919L200.365 193.927C200.029 194.567 199.597 195.127 199.069 195.607C198.557 196.087 197.941 196.455 197.221 196.711C196.517 196.967 195.709 197.095 194.797 197.095ZM191.701 189.727L191.317 189.391H198.085L197.725 189.727C197.725 189.071 197.581 188.535 197.293 188.119C197.005 187.687 196.637 187.367 196.189 187.159C195.757 186.935 195.301 186.823 194.821 186.823C194.341 186.823 193.861 186.935 193.381 187.159C192.901 187.367 192.501 187.687 192.181 188.119C191.861 188.535 191.701 189.071 191.701 189.727ZM202.664 196.807V184.807H205.184L205.304 186.415C205.672 185.791 206.144 185.319 206.72 184.999C207.296 184.679 207.952 184.519 208.688 184.519C209.648 184.519 210.464 184.735 211.136 185.167C211.808 185.599 212.296 186.255 212.6 187.135C212.952 186.287 213.448 185.639 214.088 185.191C214.728 184.743 215.48 184.519 216.344 184.519C217.736 184.519 218.808 184.967 219.56 185.863C220.312 186.743 220.68 188.103 220.664 189.943V196.807H218V190.663C218 189.703 217.896 188.967 217.688 188.455C217.48 187.927 217.2 187.559 216.848 187.351C216.496 187.143 216.088 187.039 215.624 187.039C214.792 187.023 214.144 187.319 213.68 187.927C213.232 188.535 213.008 189.407 213.008 190.543V196.807H210.32V190.663C210.32 189.703 210.216 188.967 210.008 188.455C209.816 187.927 209.544 187.559 209.192 187.351C208.84 187.143 208.432 187.039 207.968 187.039C207.136 187.023 206.488 187.319 206.024 187.927C205.576 188.535 205.352 189.407 205.352 190.543V196.807H202.664Z" fill="#6D8AFF"/>
</svg>
