<svg width="268" height="70" viewBox="0 0 268 70" fill="none" xmlns="http://www.w3.org/2000/svg">
<path d="M34.7865 1.43234C16.2438 1.43234 1.21883 16.4573 1.21883 35C1.21883 53.5426 16.2438 68.5676 34.7865 68.5676C53.3291 68.5676 68.3541 53.5426 68.3541 35C68.3541 16.4573 53.3291 1.43234 34.7865 1.43234ZM7.96565 25.7453C8.98655 24.7244 10.6511 24.7244 11.672 25.7453C12.6929 26.7662 12.6929 28.4307 11.672 29.4516C10.6511 30.4725 8.98655 30.4725 7.96565 29.4516C6.94475 28.4307 6.94475 26.7662 7.96565 25.7453ZM47.8695 27.3765C47.8695 27.3765 47.8695 27.3765 47.8695 27.3654C47.8695 26.8772 48.1802 23.7812 45.2174 20.8184C42.2546 17.8555 38.9256 18.3882 38.9256 18.3882C38.9256 18.3882 38.8479 18.366 38.8035 18.366C38.7591 18.366 38.7258 18.366 38.6814 18.366C38.6814 18.366 38.6814 18.366 38.6703 18.366C38.1821 18.366 35.0861 18.0553 32.1233 21.0181C29.1604 23.9809 29.6931 27.3099 29.6931 27.3099C29.6931 27.3099 29.6931 27.4098 29.6931 27.4653C29.6931 27.5097 29.6931 27.5541 29.6931 27.5985C29.6931 27.5985 29.1604 30.9275 32.1233 33.8903C34.964 36.7311 37.9269 36.5646 38.5927 36.5535C39.8688 36.4981 41.1671 36.953 42.1436 37.9295C43.0757 38.8617 43.5418 40.0823 43.5307 41.3029C43.5307 41.3584 43.5196 41.4028 43.5196 41.4583C43.5196 41.7024 43.4974 41.9577 43.453 42.2018C43.2755 43.1006 42.8427 43.9662 42.1436 44.6653C41.1671 45.6418 39.8688 46.0967 38.5816 46.0413C37.8936 46.0191 34.9529 45.8637 32.1122 48.7045C29.1493 51.6673 29.682 54.9963 29.682 54.9963C29.7042 55.6177 29.6043 56.2392 29.3824 56.8273C29.3824 56.8384 29.3824 56.8606 29.3713 56.8717C29.2714 57.138 29.1382 57.3821 28.994 57.6263C28.9718 57.6595 28.9607 57.7039 28.9385 57.7372C28.7609 58.0146 28.5501 58.2699 28.3171 58.5029C26.8523 59.9677 24.6884 60.2562 22.9241 59.4239C22.4469 59.202 21.9919 58.9024 21.5924 58.5029C21.5592 58.4696 21.537 58.4363 21.5037 58.403C21.3039 58.1922 21.1264 57.9703 20.971 57.7372C20.9377 57.6817 20.9044 57.6152 20.8712 57.5486C20.738 57.3266 20.6159 57.1047 20.5272 56.8606C20.5161 56.8273 20.5161 56.8051 20.505 56.7718C20.2941 56.1948 20.1943 55.5955 20.2165 54.9852C20.2165 54.9852 20.7491 51.6562 17.7863 48.6934C14.8234 45.7305 11.7274 46.0413 11.2281 46.0413C9.97416 46.0634 8.72022 45.6196 7.7659 44.6542C5.91275 42.801 5.91275 39.7827 7.7659 37.9295C9.61906 36.0764 12.6374 36.0764 14.4905 37.9295C15.4449 38.8839 15.8998 40.1489 15.8665 41.3917C15.8665 41.88 15.5558 44.9871 18.5297 47.9499C21.4926 50.9127 24.8216 50.3801 24.8216 50.3801C24.8216 50.3801 24.9215 50.4023 24.9659 50.4023C25.0102 50.4023 25.0657 50.3912 25.1101 50.4023C25.1101 50.4023 28.4391 50.9238 31.402 47.961C34.3648 44.9982 34.0541 41.9022 34.0541 41.4139C34.0541 41.3806 34.0541 41.3584 34.0541 41.3251C34.0541 41.2918 34.0541 41.2586 34.0541 41.2253C34.0541 40.737 34.3648 37.6299 31.402 34.6671C28.4391 31.7043 25.1101 32.2369 25.1101 32.2369C24.4998 32.2369 23.8784 32.1481 23.3013 31.9262C23.2792 31.9262 23.257 31.9262 23.2348 31.904C22.9795 31.8041 22.7354 31.671 22.5024 31.5267C22.458 31.5045 22.4136 31.4823 22.3692 31.4601C22.0918 31.2826 21.8366 31.0717 21.6035 30.8387C20.2165 29.4516 19.8614 27.4098 20.5605 25.6898C20.6603 25.4457 20.7824 25.2238 20.9266 25.0018C20.9488 24.9574 20.971 24.9131 20.9932 24.8687C21.1708 24.6023 21.3705 24.3582 21.6035 24.1252C21.8366 23.8922 22.1029 23.6813 22.3692 23.5038C22.4247 23.4705 22.4802 23.4483 22.5357 23.415C22.7576 23.2818 22.9906 23.1598 23.2348 23.0599C23.2681 23.0488 23.3124 23.0377 23.3457 23.0266C23.6121 22.9267 23.8895 22.8491 24.1669 22.8047C24.1669 22.8047 24.1891 22.8047 24.2002 22.8047C24.4998 22.7603 24.8105 22.7381 25.1101 22.7492C25.1101 22.7492 28.4391 23.2707 31.402 20.3079C34.3648 17.3451 34.0541 14.2491 34.0541 13.7497C34.043 13.1283 34.1429 12.5069 34.3759 11.9188C34.3759 11.9188 34.3759 11.9077 34.3759 11.8966C34.4758 11.6413 34.6089 11.3861 34.7643 11.142C34.7865 11.1087 34.7976 11.0754 34.8198 11.0421C34.9973 10.7758 35.1971 10.5206 35.4412 10.2764C35.6742 10.0434 35.9183 9.84367 36.1847 9.66613C38.0267 8.44548 40.5346 8.64523 42.1658 10.2764C42.3988 10.5206 42.6097 10.7758 42.7872 11.0421C42.8205 11.0865 42.8316 11.1309 42.8649 11.1864C43.0092 11.4194 43.1312 11.6635 43.2311 11.9077C43.2422 11.941 43.2533 11.9742 43.2644 12.0075C43.3643 12.2739 43.4419 12.5513 43.4863 12.8287C43.4863 12.8287 43.4863 12.8509 43.4863 12.862C43.5307 13.1616 43.5529 13.4723 43.5418 13.783C43.5418 13.783 43.0092 17.112 45.972 20.0749C48.9348 23.0377 52.0308 22.727 52.5191 22.727C53.773 22.6937 55.0269 23.1487 55.9813 24.1141C57.8344 25.9672 57.8344 28.9856 55.9813 30.8387C54.1281 32.6919 51.1209 32.6919 49.2566 30.8387C48.3023 29.8844 47.8473 28.6305 47.8695 27.3765ZM51.4094 49.1261C49.2455 46.9623 49.2455 43.4668 51.4094 41.2918C53.5622 39.128 57.0687 39.128 59.2326 41.2918C61.3965 43.4557 61.3965 46.9623 59.2326 49.1261C57.0687 51.29 53.5733 51.29 51.4094 49.1261Z" fill="#0184FF"/>
<path d="M99.7555 22.3645V39.4796C99.7555 42.1292 99.0036 44.1701 97.4998 45.6023C96.0198 47.0345 94.0147 47.7506 91.4845 47.7506C88.8349 47.7506 86.7104 46.9987 85.1111 45.4949C83.5118 43.9911 82.7121 41.8547 82.7121 39.0857H88.7991C88.7991 40.136 89.0139 40.9357 89.4436 41.4847C89.8732 42.0098 90.4939 42.2724 91.3054 42.2724C92.0454 42.2724 92.6183 42.0337 93.0241 41.5563C93.4299 41.0789 93.6328 40.3866 93.6328 39.4796V22.3645H99.7555ZM113.438 47.7864C111.48 47.7864 109.714 47.3687 108.139 46.5333C106.587 45.6978 105.358 44.5043 104.451 42.9527C103.567 41.4011 103.126 39.587 103.126 37.5103C103.126 35.4574 103.579 33.6552 104.486 32.1036C105.393 30.5282 106.635 29.3227 108.21 28.4873C109.786 27.6518 111.552 27.2341 113.509 27.2341C115.467 27.2341 117.233 27.6518 118.809 28.4873C120.384 29.3227 121.625 30.5282 122.532 32.1036C123.439 33.6552 123.893 35.4574 123.893 37.5103C123.893 39.5631 123.427 41.3773 122.497 42.9527C121.589 44.5043 120.336 45.6978 118.737 46.5333C117.161 47.3687 115.395 47.7864 113.438 47.7864ZM113.438 42.4872C114.607 42.4872 115.598 42.0576 116.41 41.1982C117.245 40.3389 117.663 39.1096 117.663 37.5103C117.663 35.911 117.257 34.6816 116.445 33.8223C115.658 32.963 114.679 32.5333 113.509 32.5333C112.316 32.5333 111.325 32.963 110.537 33.8223C109.75 34.6578 109.356 35.8871 109.356 37.5103C109.356 39.1096 109.738 40.3389 110.502 41.1982C111.289 42.0576 112.268 42.4872 113.438 42.4872ZM132.906 30.3492C133.479 29.4182 134.302 28.6663 135.376 28.0934C136.451 27.5205 137.68 27.2341 139.064 27.2341C140.711 27.2341 142.203 27.6518 143.54 28.4873C144.877 29.3227 145.927 30.5163 146.691 32.0678C147.479 33.6194 147.873 35.4216 147.873 37.4745C147.873 39.5273 147.479 41.3415 146.691 42.9169C145.927 44.4685 144.877 45.6739 143.54 46.5333C142.203 47.3687 140.711 47.7864 139.064 47.7864C137.656 47.7864 136.427 47.5119 135.376 46.9629C134.326 46.39 133.503 45.6381 132.906 44.7072V47.5H126.783V21.0039H132.906V30.3492ZM141.642 37.4745C141.642 35.9468 141.213 34.7532 140.353 33.8939C139.518 33.0107 138.48 32.5691 137.238 32.5691C136.021 32.5691 134.983 33.0107 134.123 33.8939C133.288 34.7771 132.87 35.9826 132.87 37.5103C132.87 39.038 133.288 40.2434 134.123 41.1266C134.983 42.0098 136.021 42.4514 137.238 42.4514C138.456 42.4514 139.494 42.0098 140.353 41.1266C141.213 40.2196 141.642 39.0022 141.642 37.4745ZM186.422 22.3645V47.5H180.299V32.4259L174.677 47.5H169.736L164.079 32.3901V47.5H157.956V22.3645H165.189L172.243 39.766L179.225 22.3645H186.422ZM193.546 25.4438C192.472 25.4438 191.588 25.1335 190.896 24.5129C190.228 23.8684 189.894 23.0807 189.894 22.1497C189.894 21.1949 190.228 20.4072 190.896 19.7866C191.588 19.1421 192.472 18.8198 193.546 18.8198C194.596 18.8198 195.455 19.1421 196.124 19.7866C196.816 20.4072 197.162 21.1949 197.162 22.1497C197.162 23.0807 196.816 23.8684 196.124 24.5129C195.455 25.1335 194.596 25.4438 193.546 25.4438ZM196.589 27.5205V47.5H190.467V27.5205H196.589ZM212.842 27.3057C215.181 27.3057 217.043 28.0696 218.428 29.5973C219.836 31.1011 220.54 33.1778 220.54 35.8274V47.5H214.453V36.6509C214.453 35.3142 214.107 34.2758 213.415 33.5359C212.723 32.7959 211.792 32.4259 210.622 32.4259C209.453 32.4259 208.522 32.7959 207.829 33.5359C207.137 34.2758 206.791 35.3142 206.791 36.6509V47.5H200.668V27.5205H206.791V30.1701C207.412 29.2869 208.247 28.5947 209.297 28.0934C210.348 27.5683 211.529 27.3057 212.842 27.3057ZM223.22 37.4745C223.22 35.4216 223.602 33.6194 224.365 32.0678C225.153 30.5163 226.215 29.3227 227.552 28.4873C228.889 27.6518 230.381 27.2341 232.028 27.2341C233.341 27.2341 234.534 27.5086 235.608 28.0576C236.706 28.6066 237.566 29.3466 238.186 30.2776V21.0039H244.309V47.5H238.186V44.6356C237.613 45.5904 236.79 46.3542 235.716 46.9271C234.665 47.5 233.436 47.7864 232.028 47.7864C230.381 47.7864 228.889 47.3687 227.552 46.5333C226.215 45.6739 225.153 44.4685 224.365 42.9169C223.602 41.3415 223.22 39.5273 223.22 37.4745ZM238.186 37.5103C238.186 35.9826 237.757 34.7771 236.897 33.8939C236.062 33.0107 235.035 32.5691 233.818 32.5691C232.601 32.5691 231.562 33.0107 230.703 33.8939C229.867 34.7532 229.45 35.9468 229.45 37.4745C229.45 39.0022 229.867 40.2196 230.703 41.1266C231.562 42.0098 232.601 42.4514 233.818 42.4514C235.035 42.4514 236.062 42.0098 236.897 41.1266C237.757 40.2434 238.186 39.038 238.186 37.5103ZM256.508 47.7864C254.766 47.7864 253.214 47.4881 251.854 46.8913C250.493 46.2945 249.419 45.483 248.631 44.4565C247.843 43.4062 247.402 42.2366 247.306 40.9476H253.357C253.429 41.6398 253.751 42.2008 254.324 42.6305C254.897 43.0601 255.601 43.275 256.437 43.275C257.201 43.275 257.785 43.1317 258.191 42.8453C258.621 42.535 258.836 42.1411 258.836 41.6637C258.836 41.0908 258.537 40.6731 257.941 40.4105C257.344 40.1241 256.377 39.8138 255.04 39.4796C253.608 39.1454 252.415 38.7993 251.46 38.4412C250.505 38.0593 249.681 37.4745 248.989 36.6867C248.297 35.8752 247.951 34.7891 247.951 33.4284C247.951 32.2827 248.261 31.2443 248.882 30.3134C249.526 29.3586 250.457 28.6066 251.675 28.0576C252.916 27.5086 254.384 27.2341 256.079 27.2341C258.585 27.2341 260.554 27.8547 261.987 29.096C263.443 30.3372 264.278 31.9843 264.493 34.0371H258.836C258.74 33.3449 258.43 32.7959 257.905 32.3901C257.403 31.9843 256.735 31.7814 255.9 31.7814C255.184 31.7814 254.635 31.9246 254.253 32.2111C253.871 32.4736 253.68 32.8436 253.68 33.321C253.68 33.8939 253.978 34.3236 254.575 34.61C255.195 34.8965 256.15 35.1829 257.439 35.4694C258.919 35.8513 260.125 36.2332 261.056 36.6151C261.987 36.9732 262.798 37.5699 263.49 38.4054C264.207 39.217 264.577 40.315 264.6 41.6995C264.6 42.8692 264.266 43.9195 263.598 44.8504C262.953 45.7575 262.01 46.4736 260.769 46.9987C259.552 47.5239 258.132 47.7864 256.508 47.7864Z" fill="#0184FF"/>
</svg>
