<svg width="240" height="48" viewBox="0 0 240 48" fill="none" xmlns="http://www.w3.org/2000/svg">
<g clipPath="url(#clip0_9_7)">
<path d="M24.0005 57.936C42.7428 57.936 57.9364 42.7423 57.9364 24C57.9364 5.25763 42.7428 -9.93604 24.0005 -9.93604C5.25812 -9.93604 -9.93555 5.25763 -9.93555 24C-9.93555 42.7423 5.25812 57.936 24.0005 57.936Z" fill="#1E90FF"/>
<path d="M30.1791 35.2683C30.2031 35.1363 30.2391 35.0163 30.2391 34.8843C30.2391 34.7043 30.2151 34.5123 30.2031 34.3323C30.1431 33.7923 30.0351 33.2643 29.8551 32.7603C29.7231 32.4003 29.6031 32.0403 29.4591 31.6923C29.3151 31.3803 29.1351 31.0923 28.9791 30.7923C28.8591 30.5763 28.9071 30.4563 29.1111 30.3363C29.4951 30.1203 29.8671 30.1803 30.2391 30.3723C30.5151 30.5163 30.7191 30.7563 30.9111 30.9963C31.2111 31.3683 31.5111 31.7523 31.8951 32.0403C31.9791 32.1003 32.0871 32.1363 32.1831 32.1723C32.1951 32.1603 32.2191 32.1483 32.2311 32.1243C32.2071 32.0643 32.2071 32.0043 32.1711 31.9563C32.0151 31.7643 31.8591 31.5843 31.7031 31.3923C31.6671 31.3563 31.6431 31.3083 31.6191 31.2723C31.4871 31.0683 31.5471 30.9243 31.7871 30.9003C31.8471 30.8883 31.9191 30.9003 31.9791 30.9123C32.6271 31.0683 33.2631 31.0083 33.8871 30.8043C34.1271 30.7323 34.3671 30.6363 34.6071 30.5403C34.6671 30.5163 34.7151 30.4683 34.7631 30.4323C34.7511 30.4083 34.7511 30.3963 34.7391 30.3723C34.6671 30.3723 34.5951 30.3603 34.5231 30.3723C34.1871 30.4443 33.8631 30.5403 33.5391 30.6003C33.0111 30.6843 32.4831 30.5883 31.9791 30.4323C31.6791 30.3363 31.3671 30.2523 31.0671 30.1443C30.9351 30.1083 30.8151 30.0483 30.6951 30.0003C30.4191 29.8923 30.1311 29.8083 29.8311 29.7723C29.1591 29.7003 28.5111 29.4963 27.9711 29.0643C27.5991 28.7763 27.2631 28.4403 27.0351 28.0083C26.8911 27.7323 26.8431 27.4323 26.9271 27.1083C27.0231 26.7603 27.1071 26.4243 27.3111 26.1243C27.5391 25.7883 27.8751 25.6083 28.2591 25.4883C28.5831 25.3803 28.9191 25.3923 29.2551 25.3923C29.8311 25.3803 30.3471 25.5603 30.8631 25.7883C31.2951 25.9803 31.7511 26.1363 32.2191 26.2563C32.6871 26.3763 33.1551 26.3763 33.6231 26.3643C33.6951 26.3643 33.7671 26.3763 33.8511 26.3763C33.8991 26.3763 33.9471 26.3523 33.9951 26.3403C33.9951 26.3163 34.0071 26.3043 34.0071 26.2803C33.9471 26.2443 33.8991 26.1963 33.8271 26.1843C33.5991 26.1363 33.3711 26.1003 33.1431 26.0403C32.8911 25.9803 32.6271 25.9083 32.3871 25.8243C32.0631 25.7163 31.7391 25.5963 31.4271 25.4523C31.1751 25.3323 31.0311 25.1403 31.1271 24.9483C31.1991 24.8043 31.2831 24.6723 31.3791 24.5523C31.6671 24.2163 32.0511 23.9883 32.4471 23.8083C32.7711 23.6523 33.1071 23.5083 33.4431 23.3883C33.7791 23.2683 34.1391 23.1843 34.4871 23.0763C34.5831 23.0523 34.6671 22.9923 34.7631 22.9443C34.7151 22.7763 34.6191 22.7163 34.4751 22.7043C34.0671 22.6923 33.6711 22.8123 33.2871 22.9323C33.1551 22.9683 33.0351 23.0163 32.9031 23.0523C32.6871 23.1003 32.4111 22.9203 32.3991 22.6683C32.3751 22.3803 32.3871 22.0803 32.4231 21.7923C32.4711 21.4563 32.5671 21.1203 32.6271 20.7843C32.7351 20.1963 33.0231 19.6923 33.2871 19.1763C33.3711 19.0083 33.4911 18.8763 33.5991 18.7203C33.5751 18.5763 33.4791 18.5163 33.3711 18.5883C33.2031 18.7083 33.0231 18.8403 32.9151 19.0083C32.7471 19.2483 32.6271 19.5243 32.4951 19.7883C32.3871 20.0163 32.2791 20.2563 32.1951 20.4963C32.0871 20.8203 31.9791 21.1443 31.8951 21.4683C31.7151 22.2123 31.4511 22.9203 30.9231 23.4963C30.3231 24.1443 29.5911 24.4683 28.6911 24.3963C28.4631 24.3843 28.2591 24.3483 28.0791 24.1923C27.9831 24.1083 27.9591 24.0003 28.0071 23.8803C28.0911 23.6403 28.1511 23.4003 28.2351 23.1723C28.3791 22.7643 28.5231 22.3683 28.6671 21.9723C28.7871 21.6243 28.8831 21.2763 29.0031 20.9403C29.0871 20.6763 29.1831 20.4123 29.2671 20.1483C29.3151 19.9923 29.3511 19.8243 29.3991 19.6563C29.4351 19.5603 29.4711 19.4523 29.5191 19.3083C29.2671 19.3923 29.0631 19.4643 28.8591 19.5243C28.6911 19.5843 28.5351 19.6443 28.3671 19.6923C28.0431 19.8003 27.7191 19.8963 27.3951 19.9923C27.0111 20.1123 26.6151 20.2443 26.2311 20.3763C25.8711 20.4963 25.5231 20.6283 25.1631 20.7483C24.9231 20.8323 24.6831 20.9043 24.4551 20.9763C24.3471 21.0123 24.2751 20.9643 24.2631 20.8443C24.2151 20.3763 24.2031 19.8963 24.4791 19.4883C24.6231 19.2723 24.8271 19.0803 25.0191 18.9003C25.5231 18.4323 26.0871 18.0363 26.6751 17.6763C27.0231 17.4603 27.3711 17.2323 27.7311 17.0283C28.1511 16.7883 28.5831 16.5723 29.0151 16.3563C29.3751 16.1763 29.7351 15.9963 30.1071 15.8523C30.3231 15.7683 30.5631 15.7083 30.8031 15.6843C31.2831 15.6243 31.7391 15.7443 32.1711 15.9723C32.2671 16.0203 32.3871 16.0443 32.4711 16.0803C32.5791 15.9843 32.5431 15.9243 32.4831 15.8523C32.2191 15.5163 31.8711 15.3123 31.4631 15.1683C31.2591 15.0963 31.0551 15.0123 30.8511 14.9163C30.5871 14.7843 30.5151 14.4723 30.6591 14.2203C30.7431 14.0643 30.8391 13.9203 30.9111 13.7643C30.9471 13.6923 30.9351 13.5963 30.9471 13.5363C30.7551 13.4403 30.6831 13.4403 30.5751 13.5843C30.2511 13.9923 29.9391 14.4123 29.6031 14.8203C29.2671 15.2163 28.9071 15.5763 28.4511 15.8403C28.1751 15.9963 27.8871 16.0683 27.5631 16.0203C27.2751 15.9843 27.1191 15.7803 27.0111 15.5643C26.8551 15.2643 26.7351 14.9403 26.6511 14.6043C26.5071 13.9923 26.6871 13.4523 27.0711 12.9723C27.1671 12.8403 27.2511 12.7083 27.3471 12.5763C27.3351 12.5643 27.3351 12.5403 27.3231 12.5283C27.2511 12.5403 27.1791 12.5163 27.1311 12.5523C26.8431 12.7563 26.6271 13.0083 26.4831 13.3323C26.2311 13.8843 26.2911 14.4483 26.3631 15.0243C26.3991 15.3723 26.4111 15.7323 26.3751 16.0683C26.3031 16.6203 26.0391 17.0883 25.5951 17.4483C25.3791 17.6163 25.1391 17.7123 24.8871 17.7843C24.5991 17.8563 24.2391 17.6643 24.2391 17.2923C24.2391 16.9443 24.2391 16.6083 24.2391 16.2603C24.2511 15.1563 24.2511 14.0523 24.2631 12.9483C24.2631 12.6003 24.2751 12.2523 24.2631 11.9163C24.2511 11.4963 24.3591 11.1003 24.5991 10.7523C24.8871 10.3323 25.2711 10.0203 25.7271 9.80431C26.0511 9.66031 26.3751 9.52831 26.7351 9.54031C26.9991 9.55231 27.2631 9.58831 27.5271 9.64831C28.1271 9.81631 28.5111 10.2723 28.8951 10.7163C28.9551 10.7883 29.0151 10.8483 29.0871 10.9323C30.0831 10.6443 30.9951 10.7283 31.8471 11.3643C32.6991 12.0003 33.0591 12.8403 33.0951 13.8603C33.2151 13.8963 33.3111 13.9203 33.3951 13.9563C33.7671 14.0643 34.0791 14.2803 34.3911 14.5203C34.8471 14.8683 35.2191 15.2883 35.4711 15.7923C35.6511 16.1403 35.7711 16.5363 35.7591 16.9443C35.7591 17.3043 35.7591 17.6643 35.7111 18.0243C35.6871 18.2523 35.5911 18.4683 35.5311 18.6843C35.5191 18.7443 35.5191 18.8163 35.5071 18.8763C35.5191 18.8643 35.5311 18.8643 35.5551 18.8523C35.8791 19.0683 36.2151 19.2603 36.5151 19.5003C36.9471 19.8483 37.3191 20.2563 37.5591 20.7603C37.6791 20.9883 37.7871 21.2283 37.8831 21.4683C37.9431 21.6003 37.9671 21.7563 37.9911 21.9003C38.0391 22.3083 38.1471 22.7163 38.1111 23.1123C38.0631 23.5803 37.9791 24.0723 37.7151 24.4923C37.5471 24.7563 37.3791 25.0323 37.2111 25.3083C37.1871 25.3563 37.1871 25.4283 37.2111 25.4763C37.3311 25.6923 37.4751 25.8963 37.5951 26.1123C37.7511 26.3883 37.8471 26.6763 37.9311 26.9883C38.0871 27.5523 38.0391 28.1163 38.0031 28.6683C37.9791 29.0643 37.8111 29.4603 37.6071 29.8203C37.2351 30.5043 36.7071 31.0443 36.0951 31.5123C36.0711 31.5243 36.0591 31.5483 36.0351 31.5603C36.0711 31.6683 36.1071 31.7643 36.1431 31.8723C36.2871 32.3043 36.3471 32.7483 36.2751 33.2163C36.2031 33.6963 36.0231 34.1163 35.7471 34.5003C35.2791 35.1363 34.7391 35.7003 33.9351 35.8803C33.5631 35.9643 33.1791 35.9763 32.7591 36.0123C32.6271 36.2283 32.4711 36.4923 32.3031 36.7443C31.9551 37.2363 31.5351 37.6563 31.0191 37.9803C30.6231 38.2323 30.1911 38.3763 29.7351 38.4843C29.2671 38.5923 28.8111 38.5803 28.3551 38.5323C28.1031 38.5083 27.8511 38.4483 27.6111 38.3763C27.2871 38.2803 26.9511 38.1723 26.6511 38.0283C26.2071 37.8243 25.8111 37.5483 25.4631 37.2123C25.0911 36.8403 24.7551 36.4323 24.5631 35.9403C24.3951 35.5203 24.2871 35.1123 24.4791 34.6443C24.6471 34.2483 24.7551 33.8163 24.8871 33.3963C25.0191 32.9763 25.1751 32.5683 25.3071 32.1603C25.4031 31.8723 25.4871 31.5723 25.5831 31.2723C25.6911 30.9603 25.7991 30.6483 25.9071 30.3363C25.9551 30.1803 26.0031 30.0363 26.0511 29.8803C26.1111 29.6643 26.2071 29.4483 26.4231 29.3763C26.6511 29.2923 26.8431 29.4123 27.0351 29.5443C27.5391 29.9043 27.9231 30.3723 28.2831 30.8643C28.4271 31.0683 28.5471 31.2843 28.6671 31.5003C28.8711 31.8963 29.0871 32.2803 29.2551 32.6883C29.4231 33.0723 29.5551 33.4563 29.6751 33.8523C29.7951 34.2363 29.8911 34.6203 30.0111 35.0043C30.0471 35.1123 30.1071 35.1963 30.1671 35.2923C30.1191 35.2683 30.1431 35.2683 30.1791 35.2683Z" fill="white"/>
<path d="M15.2757 35.9762C12.6477 36.0962 11.0877 33.7922 12.0117 31.5602C11.9277 31.5002 11.8437 31.4162 11.7597 31.3562C11.3037 31.0322 10.9077 30.6602 10.6197 30.1922C10.2237 29.5322 10.0317 28.8242 10.0437 28.0562C10.0437 27.9122 10.0437 27.7562 10.0437 27.6122C10.0317 26.9162 10.2717 26.2802 10.6317 25.6922C10.7037 25.5722 10.7997 25.4642 10.9077 25.3322C10.0077 24.2642 9.87569 23.0162 10.1757 21.7202C10.4877 20.4122 11.3517 19.4882 12.5517 18.8522C12.5517 18.8162 12.5637 18.7682 12.5517 18.7322C12.5157 18.6002 12.4917 18.4442 12.4197 18.3242C12.2877 18.1082 12.2997 17.8562 12.2757 17.6282C12.2037 17.0882 12.3237 16.5602 12.5157 16.0442C12.7437 15.4202 13.1277 14.9282 13.6437 14.5322C14.0037 14.2442 14.3997 14.0162 14.8317 13.8482C14.9397 13.8122 14.9997 13.7522 15.0117 13.6202C15.0597 13.1282 15.1677 12.6482 15.4077 12.1922C15.6957 11.6522 16.1397 11.2802 16.6677 11.0282C17.3997 10.6802 18.1797 10.6322 18.9597 10.8962C18.9717 10.8962 18.9837 10.8962 19.0317 10.9082C19.1157 10.8122 19.2117 10.7042 19.3077 10.5842C19.5837 10.2242 19.9197 9.91221 20.3157 9.72021C20.7237 9.51621 21.1797 9.36021 21.6597 9.52821C21.9117 9.61221 22.1757 9.67221 22.4277 9.76821C22.8117 9.92421 23.1117 10.2002 23.3637 10.5362C23.5317 10.7642 23.6517 11.0282 23.7237 11.3042C23.7477 11.3762 23.7357 11.4722 23.7117 11.5562C23.5557 12.0602 23.3997 12.5642 23.2317 13.0682C23.0517 13.6202 22.8597 14.1722 22.6797 14.7242C22.4997 15.2882 22.3437 15.8642 22.1637 16.4162C22.0797 16.6562 22.0437 16.9202 21.8397 17.1122C21.6837 17.2442 21.4917 17.2802 21.3357 17.1482C21.0477 16.8962 20.7717 16.6442 20.5197 16.3562C20.1957 15.9842 19.8837 15.5882 19.6077 15.1802C19.3677 14.8202 19.1757 14.4242 18.9837 14.0402C18.8517 13.7642 18.7437 13.4642 18.6237 13.1762C18.5637 13.0322 18.5277 12.8762 18.4797 12.7202C18.4677 12.6602 18.4437 12.6002 18.4197 12.5522C18.3597 12.4562 18.2757 12.3482 18.1557 12.4082C18.0837 12.4442 17.9997 12.5762 18.0117 12.6482C18.0357 12.8882 18.0717 13.1282 18.1317 13.3682C18.2637 13.8722 18.3957 14.3762 18.6477 14.8442C18.7677 15.0722 18.8757 15.3122 19.0077 15.5402C19.1277 15.7562 18.9717 16.0802 18.7077 16.1282C18.6117 16.1402 18.5037 16.1282 18.3957 16.1162C17.8557 16.0202 17.4237 15.7442 17.0757 15.3362C16.9677 15.2042 16.8837 15.0602 16.7877 14.9162C16.7037 14.7722 16.6197 14.6282 16.5477 14.4962C16.2837 14.4242 16.1157 14.1482 15.7797 14.2442C15.8157 14.3162 15.8397 14.3642 15.8757 14.4122C16.0317 14.6282 16.1997 14.8202 16.3557 15.0362C16.4997 15.2402 16.4157 15.4082 16.1637 15.3962C16.0077 15.3962 15.8637 15.3602 15.7077 15.3362C15.3717 15.2882 15.0357 15.2642 14.6997 15.3482C14.5197 15.3962 14.3517 15.4562 14.1717 15.5042C14.0877 15.5282 13.9797 15.5522 14.0037 15.6722C14.0277 15.7922 14.1237 15.7802 14.2197 15.7802C14.7237 15.7802 15.2397 15.7682 15.7437 15.8042C15.9957 15.8162 16.2477 15.9002 16.4877 15.9722C17.1477 16.1762 17.7597 16.5122 18.4557 16.6202C18.6837 16.6562 18.8997 16.7042 19.1277 16.7282C19.4037 16.7642 19.6317 16.8962 19.8717 17.0402C20.3637 17.3402 20.7237 17.7602 21.0717 18.2162C21.1317 18.2882 21.1797 18.3962 21.1917 18.4922C21.2157 18.8162 21.2397 19.1282 21.1437 19.4522C21.0357 19.8122 20.8917 20.1602 20.7357 20.5082C20.5317 20.9522 20.2317 21.3362 19.7397 21.4802C19.4517 21.5642 19.1397 21.5762 18.8397 21.5642C18.5277 21.5522 18.2037 21.4922 17.8917 21.4202C17.5557 21.3362 17.2077 21.2282 16.8837 21.0962C16.5237 20.9642 16.1877 20.7842 15.8277 20.6522C15.5877 20.5682 15.3237 20.5202 15.0597 20.5082C14.7477 20.4962 14.4237 20.5442 14.0997 20.5682C14.0757 20.5682 14.0517 20.5922 14.0397 20.5922C13.9917 20.7122 14.0757 20.7362 14.1477 20.7482C14.3877 20.7842 14.6157 20.8322 14.8557 20.8562C15.2517 20.8922 15.6357 21.0122 16.0077 21.1562C16.2237 21.2402 16.4277 21.3362 16.6197 21.4442C16.7277 21.5042 16.8237 21.6242 16.8957 21.7322C17.0157 21.9122 16.9917 22.1642 16.8357 22.3082C16.6677 22.4642 16.4877 22.6202 16.2837 22.7282C15.8637 22.9682 15.4437 23.2082 14.9997 23.4122C14.5677 23.6162 14.1357 23.8082 13.6557 23.8562C13.4517 23.8802 13.3917 23.9402 13.3557 24.1562C13.3797 24.1922 13.4037 24.2282 13.4517 24.3122C13.6677 24.2642 13.8837 24.2162 14.1117 24.1562C14.5077 24.0602 14.8917 23.9522 15.2997 23.9882C15.5877 24.0122 15.7437 24.1802 15.7077 24.4682C15.6477 24.9602 15.6237 25.4522 15.5157 25.9322C15.3597 26.6042 15.1797 27.2642 14.7597 27.8402C14.6757 27.9482 14.5557 28.0802 14.6637 28.2602C14.8197 28.2962 14.8797 28.1762 14.9397 28.0922C15.2517 27.6842 15.5037 27.2402 15.7317 26.7722C15.9477 26.3162 16.0557 25.8242 16.1877 25.3322C16.3557 24.6722 16.5837 24.0482 17.0037 23.5082C17.3397 23.0762 17.7717 22.8002 18.3477 22.7282C18.7557 22.6802 19.1517 22.6082 19.5717 22.6202C19.8957 22.6202 20.0157 22.8002 19.9197 23.1122C19.7397 23.6882 19.5597 24.2642 19.3797 24.8522C19.2357 25.3082 19.0797 25.7522 18.9357 26.2082C18.8397 26.5082 18.7557 26.8202 18.6717 27.1202C18.6117 27.3122 18.5397 27.5042 18.4797 27.6962C18.4197 27.8762 18.3717 28.0562 18.3117 28.2602C18.4437 28.2242 18.5637 28.1882 18.6717 28.1522C19.0917 28.0082 19.5237 27.8642 19.9437 27.7322C20.3637 27.5882 20.7957 27.4562 21.2157 27.3122C21.6477 27.1682 22.0677 27.0242 22.4997 26.8802C22.7997 26.7842 23.1117 26.6882 23.4117 26.5922C23.4357 26.5802 23.4597 26.5802 23.4837 26.5682C23.7357 26.4602 23.7957 26.5082 23.8077 26.7842C23.8077 26.9642 23.8197 27.1442 23.8077 27.3242C23.7837 27.8162 23.5677 28.2122 23.1717 28.4882C22.5357 28.9442 21.8757 29.3642 21.2277 29.7842C20.7837 30.0722 20.3397 30.3482 19.8837 30.6122C19.2957 30.9482 18.6837 31.2602 18.0837 31.5722C17.2797 31.9802 16.4397 32.0642 15.5517 31.8842C15.2757 31.8242 15.0357 31.7162 14.8197 31.5362C14.6517 31.4042 14.5077 31.4162 14.3997 31.5722C14.5317 31.7642 14.7477 31.8602 14.9277 31.9802C15.2757 32.1962 15.6237 32.3882 15.9597 32.6042C16.1397 32.7122 16.3077 32.8802 16.3317 33.0842C16.3557 33.2282 16.2837 33.3842 16.2237 33.5282C16.1757 33.6482 16.0797 33.7562 16.0077 33.8642C15.9117 34.0202 15.9237 34.0682 16.0917 34.1762C16.2237 34.1882 16.3077 34.1042 16.3917 34.0082C16.6557 33.6962 16.9317 33.3842 17.2077 33.0842C17.3757 32.9162 17.5437 32.7482 17.7357 32.6042C17.9277 32.4602 18.1317 32.3402 18.3477 32.2202C18.4797 32.1482 18.6117 32.0882 18.7557 32.0402C18.9237 31.9802 19.1037 31.9322 19.2957 31.9082C19.9317 31.8482 20.5077 32.0282 20.9997 32.4482C21.2757 32.6762 21.4557 32.9642 21.4197 33.3482C21.3957 33.6002 21.2757 33.8042 21.1317 34.0082C21.0357 34.1402 20.9157 34.2602 20.9157 34.4402C20.9757 34.5362 21.0357 34.5242 21.1077 34.4642C21.4317 34.2002 21.6357 33.8882 21.7197 33.4562C21.8277 32.8082 21.7197 32.1602 21.7317 31.5122C21.7437 30.9242 21.8637 30.3842 22.3557 29.9882C22.7037 29.7002 23.1117 29.6642 23.5317 29.7242C23.6877 29.7482 23.8197 29.9522 23.8317 30.1442C23.8317 30.6002 23.8317 31.0562 23.8317 31.5122C23.8317 32.4482 23.8317 33.3842 23.8317 34.3202C23.8317 34.7042 23.8077 35.0882 23.6877 35.4602C23.4117 36.3122 22.9677 37.0442 22.2717 37.6322C21.9237 37.9202 21.5397 38.1362 21.1317 38.3042C20.9397 38.3882 20.7117 38.4002 20.5077 38.4602C19.9557 38.6282 19.3917 38.5682 18.8277 38.5442C18.5157 38.5322 18.2037 38.4602 17.9157 38.3522C17.5797 38.2442 17.2557 38.0882 16.9557 37.9082C16.4877 37.6322 16.1277 37.2362 15.8277 36.7922C15.6837 36.5642 15.5517 36.3242 15.4197 36.0962C15.3597 36.0482 15.3237 36.0122 15.2757 35.9762Z" fill="white"/>
</g>
<path d="M60.275 31V20.326H56.342V17.986H66.755V20.326H62.912V31H60.275ZM71.1207 31.18C70.1967 31.18 69.3837 30.988 68.6817 30.604C67.9857 30.214 67.4427 29.665 67.0527 28.957C66.6627 28.249 66.4677 27.415 66.4677 26.455C66.4677 25.525 66.6447 24.688 66.9987 23.944C67.3587 23.194 67.8747 22.603 68.5467 22.171C69.2187 21.733 70.0317 21.514 70.9857 21.514C71.9337 21.514 72.7287 21.715 73.3707 22.117C74.0127 22.513 74.4987 23.068 74.8287 23.782C75.1587 24.49 75.3237 25.309 75.3237 26.239V26.95H69.0687C69.0687 27.424 69.1467 27.838 69.3027 28.192C69.4587 28.54 69.6837 28.81 69.9777 29.002C70.2777 29.188 70.6377 29.281 71.0577 29.281C71.5077 29.281 71.9007 29.185 72.2367 28.993C72.5727 28.801 72.8097 28.486 72.9477 28.048H75.3147C75.2067 28.708 74.9427 29.272 74.5227 29.74C74.1027 30.208 73.5927 30.565 72.9927 30.811C72.3927 31.057 71.7687 31.18 71.1207 31.18ZM69.0687 25.384H72.8667C72.8667 25.012 72.7947 24.67 72.6507 24.358C72.5127 24.046 72.3027 23.8 72.0207 23.62C71.7447 23.44 71.3967 23.35 70.9767 23.35C70.5747 23.35 70.2297 23.449 69.9417 23.647C69.6597 23.839 69.4407 24.091 69.2847 24.403C69.1347 24.715 69.0627 25.042 69.0687 25.384ZM81.2668 31.18C80.4028 31.18 79.6318 30.988 78.9538 30.604C78.2758 30.22 77.7418 29.671 77.3518 28.957C76.9678 28.237 76.7758 27.379 76.7758 26.383C76.7758 25.423 76.9618 24.577 77.3338 23.845C77.7058 23.113 78.2278 22.543 78.8998 22.135C79.5778 21.721 80.3668 21.514 81.2668 21.514C82.0468 21.514 82.7188 21.673 83.2828 21.991C83.8528 22.309 84.2998 22.738 84.6238 23.278C84.9538 23.818 85.1428 24.421 85.1908 25.087H83.0038C82.9618 24.841 82.8748 24.598 82.7428 24.358C82.6108 24.112 82.4248 23.911 82.1848 23.755C81.9448 23.593 81.6448 23.512 81.2848 23.512C80.6728 23.512 80.1748 23.749 79.7908 24.223C79.4128 24.691 79.2238 25.405 79.2238 26.365C79.2238 27.271 79.4098 27.991 79.7818 28.525C80.1538 29.053 80.6728 29.317 81.3388 29.317C81.6928 29.317 81.9868 29.23 82.2208 29.056C82.4608 28.882 82.6468 28.675 82.7788 28.435C82.9108 28.189 82.9948 27.961 83.0308 27.751H85.1638C85.1218 28.393 84.9358 28.975 84.6058 29.497C84.2758 30.013 83.8258 30.424 83.2558 30.73C82.6918 31.03 82.0288 31.18 81.2668 31.18ZM87.0078 31V17.626H89.6178V23.035C89.7678 22.819 89.9568 22.606 90.1848 22.396C90.4128 22.18 90.6978 22 91.0398 21.856C91.3818 21.712 91.7988 21.64 92.2908 21.64C92.8848 21.64 93.4248 21.757 93.9108 21.991C94.4028 22.219 94.7958 22.552 95.0898 22.99C95.3898 23.428 95.5398 23.962 95.5398 24.592V31H92.9028V24.979C92.9028 24.559 92.7498 24.238 92.4438 24.016C92.1438 23.788 91.7778 23.674 91.3458 23.674C91.0638 23.674 90.7908 23.725 90.5268 23.827C90.2628 23.929 90.0468 24.085 89.8788 24.295C89.7168 24.499 89.6358 24.754 89.6358 25.06V31H87.0078ZM104.888 31V20.326H100.955V17.986H111.368V20.326H107.525V31H104.888ZM114.486 31.18C113.898 31.18 113.364 31.069 112.884 30.847C112.41 30.625 112.035 30.304 111.759 29.884C111.483 29.458 111.345 28.942 111.345 28.336C111.345 27.316 111.726 26.542 112.488 26.014C113.25 25.48 114.453 25.204 116.097 25.186L117.267 25.168V24.61C117.267 24.184 117.141 23.857 116.889 23.629C116.643 23.395 116.256 23.281 115.728 23.287C115.35 23.293 114.987 23.383 114.639 23.557C114.297 23.731 114.06 24.034 113.928 24.466H111.741C111.777 23.794 111.972 23.242 112.326 22.81C112.686 22.372 113.169 22.048 113.775 21.838C114.381 21.622 115.074 21.514 115.854 21.514C116.802 21.514 117.564 21.634 118.14 21.874C118.716 22.108 119.133 22.447 119.391 22.891C119.655 23.329 119.787 23.851 119.787 24.457V31H117.591L117.375 29.398C117.057 30.07 116.658 30.535 116.178 30.793C115.704 31.051 115.14 31.18 114.486 31.18ZM115.377 29.452C115.611 29.452 115.839 29.41 116.061 29.326C116.289 29.236 116.493 29.119 116.673 28.975C116.853 28.825 116.994 28.657 117.096 28.471C117.204 28.285 117.261 28.093 117.267 27.895V26.518L116.322 26.536C115.884 26.542 115.476 26.596 115.098 26.698C114.72 26.794 114.414 26.953 114.18 27.175C113.952 27.397 113.838 27.697 113.838 28.075C113.838 28.507 113.985 28.846 114.279 29.092C114.579 29.332 114.945 29.452 115.377 29.452ZM121.918 31V17.626H124.546V25.555L127.966 21.694H130.792L127.408 25.402L130.909 31H128.29L125.779 26.986L124.546 28.3V31H121.918ZM136.142 31.18C135.218 31.18 134.405 30.988 133.703 30.604C133.007 30.214 132.464 29.665 132.074 28.957C131.684 28.249 131.489 27.415 131.489 26.455C131.489 25.525 131.666 24.688 132.02 23.944C132.38 23.194 132.896 22.603 133.568 22.171C134.24 21.733 135.053 21.514 136.007 21.514C136.955 21.514 137.75 21.715 138.392 22.117C139.034 22.513 139.52 23.068 139.85 23.782C140.18 24.49 140.345 25.309 140.345 26.239V26.95H134.09C134.09 27.424 134.168 27.838 134.324 28.192C134.48 28.54 134.705 28.81 134.999 29.002C135.299 29.188 135.659 29.281 136.079 29.281C136.529 29.281 136.922 29.185 137.258 28.993C137.594 28.801 137.831 28.486 137.969 28.048H140.336C140.228 28.708 139.964 29.272 139.544 29.74C139.124 30.208 138.614 30.565 138.014 30.811C137.414 31.057 136.79 31.18 136.142 31.18ZM134.09 25.384H137.888C137.888 25.012 137.816 24.67 137.672 24.358C137.534 24.046 137.324 23.8 137.042 23.62C136.766 23.44 136.418 23.35 135.998 23.35C135.596 23.35 135.251 23.449 134.963 23.647C134.681 23.839 134.462 24.091 134.306 24.403C134.156 24.715 134.084 25.042 134.09 25.384ZM145.965 31.18C145.317 31.18 144.693 31.075 144.093 30.865C143.499 30.649 142.992 30.313 142.572 29.857C142.158 29.395 141.897 28.798 141.789 28.066H144.057C144.141 28.396 144.285 28.657 144.489 28.849C144.699 29.041 144.936 29.179 145.2 29.263C145.464 29.341 145.716 29.38 145.956 29.38C146.46 29.38 146.865 29.302 147.171 29.146C147.483 28.984 147.639 28.738 147.639 28.408C147.639 28.156 147.546 27.955 147.36 27.805C147.18 27.655 146.88 27.541 146.46 27.463L144.822 27.121C144 26.947 143.337 26.653 142.833 26.239C142.335 25.819 142.083 25.225 142.077 24.457C142.071 23.899 142.215 23.398 142.509 22.954C142.809 22.51 143.25 22.159 143.832 21.901C144.42 21.643 145.137 21.514 145.983 21.514C147.129 21.514 148.044 21.766 148.728 22.27C149.418 22.774 149.769 23.485 149.781 24.403H147.585C147.519 24.043 147.339 23.767 147.045 23.575C146.757 23.377 146.391 23.278 145.947 23.278C145.497 23.278 145.125 23.359 144.831 23.521C144.537 23.683 144.39 23.929 144.39 24.259C144.39 24.505 144.51 24.7 144.75 24.844C144.99 24.982 145.362 25.102 145.866 25.204L147.378 25.546C147.9 25.672 148.323 25.846 148.647 26.068C148.977 26.284 149.232 26.521 149.412 26.779C149.592 27.037 149.715 27.298 149.781 27.562C149.853 27.82 149.889 28.054 149.889 28.264C149.889 28.882 149.724 29.41 149.394 29.848C149.064 30.28 148.605 30.61 148.017 30.838C147.429 31.066 146.745 31.18 145.965 31.18Z" fill="url(#paint0_linear_9_7)"/>
<defs>
<linearGradient id="paint0_linear_9_7" x1="56" y1="24" x2="151" y2="24" gradientUnits="userSpaceOnUse">
<stop stopColor="#125699"/>
<stop offset="1" stopColor="#1E90FF"/>
</linearGradient>
<clipPath id="clip0_9_7">
<rect width="48" height="48" rx="24" fill="white"/>
</clipPath>
</defs>
</svg>
