<svg width="215" height="70" viewBox="0 0 215 70" fill="none" xmlns="http://www.w3.org/2000/svg">
<path d="M15.2954 7.33387C8.70102 11.9346 6.29242 14.8809 3.02131 20.4279L37.9552 3.77977C29.2956 2.65028 24.3862 2.76008 15.2954 7.33387Z" fill="#FF6B6B"/>
<path d="M23.0375 19.3056C23.0375 19.3056 7.78822 27.1345 0 32.9608V40.256C20.1638 27.3245 32.1304 21.1775 55.5166 13.6938L50.2293 9.57856C39.928 11.7454 23.0375 19.3056 23.0375 19.3056Z" fill="#FF6B6B"/>
<path d="M34.9339 30.529L3.02131 46.0548L5.47613 51.1054L37.9552 35.9537L40.41 41.1913L49.6628 26.6008L32.6679 26.0396L34.9339 30.529Z" fill="#FF6B6B"/>
<path d="M62.881 32.0255C43.8726 43.7089 32.2742 49.3706 9.4416 57.8395L15.2954 62.1418C15.2954 62.1418 30.487 57.2239 39.6547 52.7889C49.4962 48.0279 63.6364 38.3855 63.6364 38.3855L62.881 32.0255Z" fill="#FF6B6B"/>
<path d="M58.7267 51.6665L29.4578 66.8182C36.4907 66.4215 40.2793 65.6543 46.6415 62.89C52.4226 59.0392 54.911 56.5066 58.7267 51.6665Z" fill="#FF6B6B"/>
<path d="M83.778 39.0691C83.778 37.9745 83.6126 37.1855 83.2817 36.7018C82.9762 36.2182 82.518 35.9255 81.9071 35.8236C81.3217 35.7218 80.6089 35.6836 79.7689 35.7091L78.2035 35.7855V42.8491C78.2035 43.5364 78.1908 44.1727 78.1653 44.7582C78.1399 45.3182 78.1017 45.7636 78.0508 46.0945L83.8926 46.0564C84.7835 46.0564 85.598 45.8909 86.3362 45.56C87.0744 45.2036 87.6726 44.6182 88.1308 43.8036C88.5889 42.9636 88.818 41.8309 88.818 40.4055H90.918L90.7271 48.5H70.7199V46.4C71.4326 46.3745 71.9799 46.26 72.3617 46.0564C72.7435 45.8273 73.0108 45.4455 73.1635 44.9109C73.3162 44.3509 73.3926 43.5873 73.3926 42.62V27.3855C73.3926 26.7491 73.4053 26.1382 73.4308 25.5527C73.4817 24.9673 73.5199 24.5091 73.5453 24.1782C73.1126 24.2036 72.6162 24.2291 72.0562 24.2545C71.4962 24.2545 71.0508 24.2673 70.7199 24.2927V21.7727H89.5435L89.7726 28.9509H87.6726C87.6726 27.5 87.4308 26.4182 86.9471 25.7055C86.4889 24.9673 85.8908 24.4709 85.1526 24.2164C84.4144 23.9618 83.6508 23.8473 82.8617 23.8727L80.8762 23.9109C80.1889 23.9364 79.6544 24.0509 79.2726 24.2545C78.8908 24.4582 78.6108 24.8273 78.4326 25.3618C78.2799 25.8709 78.2035 26.6345 78.2035 27.6527V33.4945L83.5489 33.5327L83.358 30.2109H85.878V39.0691H83.778ZM100.124 49.1109C98.5971 49.1109 97.2352 48.7164 96.0389 47.9273C94.8425 47.1382 93.9007 46.0182 93.2134 44.5673C92.5516 43.1164 92.2207 41.4109 92.2207 39.4509C92.2207 37.3891 92.628 35.5564 93.4425 33.9527C94.2571 32.3491 95.3771 31.0891 96.8025 30.1727C98.2534 29.2564 99.9207 28.7982 101.804 28.7982C102.543 28.7982 103.23 28.8873 103.866 29.0655C104.528 29.2182 105.101 29.3964 105.584 29.6V26.2018C105.584 25.82 105.584 25.3491 105.584 24.7891C105.61 24.2291 105.648 23.6691 105.699 23.1091C105.292 23.1345 104.821 23.16 104.286 23.1855C103.777 23.2109 103.344 23.2364 102.988 23.2618V20.78C104.159 20.78 105.113 20.7291 105.852 20.6273C106.59 20.5 107.163 20.3473 107.57 20.1691C108.003 19.9909 108.308 19.8255 108.486 19.6727H110.243V43.04C110.243 43.4218 110.23 43.9055 110.204 44.4909C110.179 45.0509 110.141 45.6109 110.09 46.1709C110.523 46.12 110.968 46.0945 111.426 46.0945C111.91 46.0691 112.317 46.0436 112.648 46.0182V48.5H106.004C105.953 48.1945 105.903 47.8891 105.852 47.5836C105.826 47.2527 105.788 46.9473 105.737 46.6673C104.948 47.5073 104.083 48.1182 103.141 48.5C102.199 48.9073 101.193 49.1109 100.124 49.1109ZM101.919 46.1709C102.632 46.1709 103.319 45.98 103.981 45.5982C104.643 45.1909 105.177 44.6945 105.584 44.1091C105.559 43.7527 105.546 43.3964 105.546 43.04C105.546 42.6582 105.546 42.2764 105.546 41.8945L105.584 32.12C105.203 31.8145 104.719 31.5855 104.133 31.4327C103.548 31.2545 102.95 31.1655 102.339 31.1655C101.143 31.1909 100.163 31.5727 99.3989 32.3109C98.6607 33.0236 98.1134 33.9655 97.7571 35.1364C97.4261 36.3073 97.2734 37.58 97.2989 38.9545C97.2989 40.2018 97.4643 41.3727 97.7952 42.4673C98.1261 43.5618 98.6225 44.4527 99.2843 45.14C99.9716 45.8273 100.85 46.1709 101.919 46.1709ZM121.685 49.1109C120.208 49.1109 118.999 48.8309 118.058 48.2709C117.141 47.7109 116.467 46.82 116.034 45.5982C115.601 44.3509 115.385 42.7218 115.385 40.7109V35.5182C115.385 35.0855 115.398 34.6018 115.423 34.0673C115.448 33.5327 115.474 32.9982 115.499 32.4636C115.092 32.4891 114.634 32.5145 114.125 32.54C113.616 32.54 113.196 32.5527 112.865 32.5782V30.1345H113.514C114.914 30.1345 115.996 30.02 116.759 29.7909C117.548 29.5364 118.083 29.2818 118.363 29.0273H120.119V40.7109C120.119 42.5436 120.361 43.9055 120.845 44.7964C121.354 45.6873 122.168 46.1327 123.288 46.1327C124.052 46.1073 124.803 45.8782 125.541 45.4455C126.305 45.0127 126.916 44.5036 127.374 43.9182V35.6709C127.374 35.1618 127.387 34.64 127.412 34.1055C127.438 33.5455 127.476 32.9982 127.527 32.4636C127.119 32.4891 126.648 32.5145 126.114 32.54C125.605 32.54 125.185 32.5527 124.854 32.5782V30.1345H125.847C127.018 30.1345 127.985 30.0073 128.748 29.7527C129.538 29.4982 130.059 29.2564 130.314 29.0273H132.07V42.7345C132.07 43.0909 132.058 43.6127 132.032 44.3C132.007 44.9873 131.968 45.6109 131.918 46.1709C132.35 46.12 132.808 46.0945 133.292 46.0945C133.776 46.0691 134.17 46.0436 134.476 46.0182V48.5H127.832C127.781 48.1436 127.73 47.7873 127.679 47.4309C127.654 47.0745 127.628 46.7309 127.603 46.4C126.814 47.1127 125.923 47.7491 124.93 48.3091C123.963 48.8436 122.881 49.1109 121.685 49.1109ZM135.641 48.5V46.4C136.354 46.3745 136.901 46.26 137.283 46.0564C137.665 45.8273 137.932 45.4455 138.085 44.9109C138.237 44.3509 138.314 43.5873 138.314 42.62V27.3855C138.314 26.7491 138.326 26.1382 138.352 25.5527C138.403 24.9673 138.441 24.5091 138.466 24.1782C138.034 24.2036 137.537 24.2291 136.977 24.2545C136.417 24.2545 135.972 24.2673 135.641 24.2927V21.7727H145.797V23.8727C145.11 23.8982 144.563 24.0255 144.155 24.2545C143.774 24.4582 143.506 24.8273 143.354 25.3618C143.201 25.8964 143.125 26.66 143.125 27.6527V33.7236H154.655V27.3855C154.655 26.7491 154.668 26.1382 154.694 25.5527C154.719 24.9673 154.757 24.5091 154.808 24.1782C154.375 24.2036 153.879 24.2291 153.319 24.2545C152.759 24.2545 152.314 24.2673 151.983 24.2927V21.7727H162.139V23.8727C161.452 23.8982 160.905 24.0255 160.497 24.2545C160.115 24.4582 159.848 24.8273 159.695 25.3618C159.543 25.8964 159.466 26.66 159.466 27.6527V42.8109C159.466 43.4982 159.454 44.1345 159.428 44.72C159.403 45.3055 159.365 45.7636 159.314 46.0945C159.746 46.0691 160.243 46.0436 160.803 46.0182C161.388 45.9927 161.834 45.98 162.139 45.98V48.5H151.983V46.4C152.695 46.3745 153.243 46.26 153.625 46.0564C154.006 45.8273 154.274 45.4455 154.426 44.9109C154.579 44.3509 154.655 43.5873 154.655 42.62V36.1673L143.125 36.32V42.8109C143.125 43.4982 143.112 44.1345 143.086 44.72C143.061 45.3055 143.023 45.7636 142.972 46.0945C143.405 46.0691 143.901 46.0436 144.461 46.0182C145.021 45.9927 145.466 45.98 145.797 45.98V48.5H135.641ZM173.817 23.8727C173.155 23.8982 172.621 24.0127 172.213 24.2164C171.832 24.42 171.552 24.7509 171.373 25.2091C171.221 25.6418 171.144 26.2655 171.144 27.08V37.3127C171.144 38.84 171.284 40.1764 171.564 41.3218C171.87 42.4418 172.302 43.3836 172.862 44.1473C173.422 44.9109 174.11 45.4836 174.924 45.8655C175.764 46.2473 176.732 46.4382 177.826 46.4382C179.353 46.4891 180.639 46.1709 181.682 45.4836C182.752 44.7964 183.553 43.7909 184.088 42.4673C184.622 41.1436 184.89 39.5273 184.89 37.6182L184.928 27.3855C184.928 26.7491 184.941 26.1382 184.966 25.5527C184.992 24.9673 185.03 24.5091 185.081 24.1782C184.648 24.2036 184.152 24.2291 183.592 24.2545C183.032 24.2545 182.586 24.2673 182.255 24.2927V21.7727H190.502V23.8727C189.815 23.8982 189.268 24.0255 188.861 24.2545C188.479 24.4582 188.212 24.8273 188.059 25.3618C187.906 25.8964 187.83 26.66 187.83 27.6527L187.792 36.9691C187.792 38.98 187.55 40.7491 187.066 42.2764C186.608 43.7782 185.921 45.0382 185.004 46.0564C184.088 47.0745 182.981 47.8382 181.682 48.3473C180.384 48.8564 178.908 49.1109 177.253 49.1109C175.141 49.1109 173.372 48.8182 171.946 48.2327C170.546 47.6473 169.426 46.8073 168.586 45.7127C167.772 44.5927 167.186 43.2818 166.83 41.78C166.499 40.2527 166.333 38.5473 166.333 36.6636V27.92C166.333 27.2582 166.346 26.5709 166.372 25.8582C166.422 25.12 166.461 24.56 166.486 24.1782C166.053 24.2036 165.557 24.2291 164.997 24.2545C164.437 24.2545 163.992 24.2673 163.661 24.2927V21.7727H173.817V23.8727ZM191.947 48.5V46.4C192.66 46.3745 193.207 46.2473 193.589 46.0182C193.971 45.7891 194.238 45.4073 194.391 44.8727C194.543 44.3127 194.62 43.5364 194.62 42.5436V27.4618C194.62 26.7745 194.633 26.1382 194.658 25.5527C194.709 24.9673 194.747 24.5091 194.773 24.1782C194.34 24.2036 193.843 24.2291 193.283 24.2545C192.723 24.2545 192.278 24.2673 191.947 24.2927V21.7727C193.576 21.7473 195.218 21.7345 196.873 21.7345C198.527 21.7345 200.194 21.7218 201.874 21.6964C204.878 21.6709 207.258 22.2182 209.014 23.3382C210.771 24.4582 211.598 26.1764 211.496 28.4927C211.471 29.2564 211.242 30.0073 210.809 30.7455C210.376 31.4836 209.74 32.1455 208.9 32.7309C208.06 33.3164 207.003 33.7618 205.731 34.0673V34.1055C208.353 34.3855 210.3 35.1745 211.573 36.4727C212.845 37.7455 213.482 39.2345 213.482 40.94C213.482 42.5691 213.087 43.9436 212.298 45.0636C211.509 46.1836 210.414 47.0364 209.014 47.6218C207.64 48.2073 206.074 48.5 204.318 48.5H191.947ZM199.278 46.1709C199.711 46.1964 200.156 46.2091 200.614 46.2091C201.098 46.2091 201.556 46.2091 201.989 46.2091C202.422 46.1836 202.791 46.1709 203.096 46.1709C204.776 46.12 206.049 45.6364 206.914 44.72C207.805 43.7782 208.251 42.5182 208.251 40.94C208.251 39.6418 207.983 38.6236 207.449 37.8855C206.94 37.1473 206.265 36.6255 205.425 36.32C204.611 36.0145 203.733 35.8618 202.791 35.8618C202.103 35.8618 201.505 35.8618 200.996 35.8618C200.487 35.8618 199.965 35.8873 199.431 35.9382V42.9636C199.431 43.6509 199.418 44.2745 199.393 44.8345C199.367 45.3945 199.329 45.84 199.278 46.1709ZM199.431 33.6091L201.683 33.5709C202.88 33.5455 203.822 33.2909 204.509 32.8073C205.196 32.2982 205.693 31.6491 205.998 30.86C206.303 30.0455 206.456 29.1673 206.456 28.2255C206.431 27.1055 206.176 26.24 205.693 25.6291C205.234 24.9927 204.662 24.5473 203.974 24.2927C203.287 24.0382 202.574 23.9236 201.836 23.9491C201.302 23.9491 200.856 24.0255 200.5 24.1782C200.143 24.3309 199.876 24.6491 199.698 25.1327C199.52 25.6164 199.431 26.3418 199.431 27.3091V33.6091Z" fill="#FF6B6B"/>
</svg>
