<svg width="458" height="229" viewBox="0 0 458 229" fill="none" xmlns="http://www.w3.org/2000/svg">
<g clipPath="url(#clip0_2_82)">
<path d="M318.616 0H139.961V185.591H318.616V0ZM312.429 179.17H146.141V6.4273H312.429V179.17Z" fill="#C98575"/>
<path d="M178.713 38.2792V53.4506C178.713 67.2385 187.627 77.4719 199.734 78.9943C187.685 82.8335 178.108 94.1061 178.108 107.424V112.772C178.108 130.552 192.597 141.07 207.367 142.672C212.019 156.195 224.196 165.945 238.908 165.945H246.695C262.714 165.945 279.899 155.189 279.899 135.821V130.472C279.899 117.154 270.322 105.882 258.273 102.043C270.379 100.52 279.294 90.2868 279.294 76.4988V62.7175C279.294 56.4358 284.71 51.3456 290.247 50.088H206.902V51.8487H266.658V82.4562C266.658 91.5775 260.235 100.48 252.315 100.48H207.947V102.248H230.561L246.752 102.513C259.566 102.513 267.168 117.273 267.168 127.467V135.576C267.168 150.668 255.393 162.907 240.858 162.907H239.1C225.744 162.907 214.243 154.666 209.043 142.811C209.802 142.857 210.56 142.89 211.312 142.89H219.098C235.327 142.89 251.098 128.626 251.098 113.223H249.83C249.83 128.089 233.875 139.845 218.907 139.845H217.148C202.62 139.845 190.839 127.613 190.839 112.514V104.406C190.839 94.2054 198.447 79.451 211.254 79.451L224.444 79.2392C234.117 79.2392 246.402 90.4655 246.402 90.4655L232.422 66.0139C232.422 66.0139 232.932 77.4255 216.046 77.4255H205.685C197.759 77.4255 191.342 68.5226 191.342 59.4013V28.7938H214.198C233.467 28.7938 248.829 46.5599 248.829 46.5599L245.688 27.0331H167.747C171.672 27.2515 178.7 31.5143 178.7 38.2726L178.713 38.2792Z" fill="#C98575"/>
<path d="M12.6291 226.425C12.5463 226.703 12.4635 226.922 12.3742 227.094C12.2914 227.259 12.1767 227.385 12.0174 227.478C11.8581 227.564 11.667 227.623 11.4312 227.643C11.1954 227.67 10.8832 227.683 10.5009 227.683H5.00195V219.468H5.05292C5.52444 219.468 5.95136 219.468 6.3273 219.482C6.70325 219.495 7.11742 219.502 7.54434 219.521C7.97763 219.541 8.46827 219.561 9.02262 219.588C9.57698 219.621 10.2651 219.641 11.0935 219.68V218.548C10.348 218.588 9.73627 218.608 9.24564 218.628C8.76137 218.641 8.3026 218.661 7.88205 218.681C7.4615 218.694 7.03459 218.714 6.60767 218.72C6.18075 218.734 5.66463 218.734 5.05929 218.734H5.00832V211.558H10.2843C10.6538 211.558 10.9151 211.611 11.068 211.737C11.2209 211.863 11.3484 212.068 11.4694 212.366L12.6291 215.49H13.3874V210.718H0V211.4H1.51651C1.79688 211.4 1.98166 211.453 2.04538 211.545C2.1091 211.638 2.14733 211.777 2.14733 211.949V227.292C2.14733 227.484 2.09636 227.623 2.00715 227.709C1.91157 227.795 1.7459 227.842 1.51651 227.842H0V228.55H14.4706V223.407H13.5658L12.6355 226.425H12.6291Z" fill="#C98575"/>
<path d="M36.0484 218.045C35.1563 217.8 34.3853 217.575 33.729 217.364C33.0727 217.152 32.5247 216.907 32.0978 216.629C31.6645 216.351 31.3459 216.02 31.1356 215.629C30.919 215.245 30.817 214.756 30.817 214.16C30.817 213.2 31.0846 212.445 31.6199 211.883C32.1551 211.327 32.8879 211.049 33.8118 211.049C34.3662 211.049 34.8441 211.122 35.2519 211.274C35.6597 211.426 36.0101 211.664 36.3096 211.995C36.6091 212.326 36.8703 212.763 37.0806 213.306C37.2909 213.849 37.4757 214.511 37.6477 215.298H38.5079V210.135L38.5334 210.122H38.0555C37.8707 210.294 37.7178 210.42 37.5967 210.493C37.482 210.559 37.3355 210.599 37.1698 210.599C37.0169 210.599 36.8512 210.585 36.6792 210.546C36.5071 210.506 36.2969 210.48 36.0611 210.44C35.819 210.4 35.545 210.374 35.2136 210.334C34.8823 210.301 34.4809 210.281 34.0093 210.281C32.1742 210.281 30.7597 210.698 29.7529 211.532C28.7462 212.359 28.2491 213.551 28.2491 215.087C28.2491 217.251 29.4598 218.74 31.862 219.548C33.0026 219.932 33.9329 220.269 34.6274 220.547C35.322 220.825 35.8699 221.123 36.2586 221.428C36.641 221.732 36.9086 222.083 37.0424 222.48C37.1826 222.871 37.2463 223.38 37.2463 223.989C37.2463 224.565 37.1507 225.101 36.9468 225.591C36.7429 226.088 36.4689 226.511 36.1121 226.862C35.7553 227.22 35.3347 227.498 34.8504 227.696C34.3598 227.895 33.8309 227.994 33.2575 227.994C32.0404 227.994 31.0846 227.577 30.3774 226.743C29.6701 225.916 29.224 224.698 29.0393 223.109H28.0771V228.96H28.5359C28.7015 228.769 28.8608 228.649 28.9947 228.603C29.1348 228.557 29.3324 228.537 29.6 228.537H29.8995C30.0142 228.537 30.1161 228.537 30.1989 228.563C30.6832 228.616 31.1038 228.663 31.4351 228.709C31.7728 228.755 32.0595 228.782 32.3081 228.802C32.5566 228.815 32.7605 228.835 32.9261 228.841C33.0918 228.855 33.2575 228.855 33.404 228.855C35.4876 228.855 37.0997 228.345 38.2467 227.319C39.3936 226.3 39.9671 224.837 39.9671 222.95C39.9671 221.64 39.674 220.594 39.0814 219.813C38.4952 219.038 37.482 218.442 36.0484 218.045Z" fill="#C98575"/>
<path d="M52.3189 215.603H53.1026L54.1349 212.584C54.2878 212.147 54.4726 211.863 54.702 211.73C54.9314 211.598 55.3456 211.538 55.9509 211.538H59.3599V227.226C59.3599 227.431 59.3152 227.59 59.2197 227.683C59.1241 227.776 58.9266 227.828 58.6271 227.828H57.066V228.537H64.3427V227.828H62.9281C62.6223 227.828 62.4247 227.776 62.3355 227.683C62.2463 227.59 62.1954 227.438 62.1954 227.226V211.538H65.8082C66.3307 211.538 66.7067 211.618 66.9233 211.79C67.1399 211.955 67.3184 212.247 67.4522 212.644L68.4143 215.609H69.2172V210.704H52.3253V215.603H52.3189Z" fill="#C98575"/>
<path d="M93.1034 226.425C93.0206 226.703 92.9377 226.922 92.8485 227.094C92.7657 227.259 92.651 227.385 92.4917 227.478C92.3324 227.564 92.1412 227.623 91.9055 227.643C91.6697 227.67 91.3575 227.683 90.9752 227.683H85.4699V219.468H85.5208C85.9923 219.468 86.4193 219.468 86.7952 219.482C87.1712 219.495 87.5853 219.502 88.0122 219.521C88.4455 219.541 88.9362 219.561 89.4905 219.588C90.0449 219.621 90.733 219.641 91.5614 219.68V218.548C90.8159 218.588 90.2042 218.608 89.7135 218.628C89.2293 218.641 88.7705 218.661 88.3499 218.681C87.9294 218.694 87.5025 218.714 87.0756 218.72C86.6486 218.734 86.1325 218.734 85.5272 218.734H85.4762V211.558H90.7522C91.1217 211.558 91.383 211.611 91.5359 211.737C91.6888 211.863 91.8163 212.068 91.9373 212.366L93.097 215.49H93.8553V210.718H80.4743V211.4H81.9908C82.2711 211.4 82.4559 211.453 82.5197 211.545C82.5834 211.638 82.6216 211.777 82.6216 211.949V227.292C82.6216 227.484 82.5706 227.623 82.4814 227.709C82.3858 227.795 82.2202 227.842 81.9908 227.842H80.4743V228.55H94.9449V223.407H94.0401L93.1098 226.425H93.1034Z" fill="#C98575"/>
<path d="M119.613 211.38H120.729C120.945 211.38 121.092 211.413 121.168 211.459C121.245 211.505 121.283 211.598 121.283 211.724C121.283 211.797 121.257 211.909 121.219 212.081C121.181 212.253 121.06 212.558 120.875 213.015L116.001 225.26H115.924L111.05 212.882C110.916 212.571 110.827 212.333 110.782 212.161C110.737 211.995 110.725 211.856 110.725 211.731C110.725 211.625 110.756 211.545 110.814 211.479C110.871 211.419 110.992 211.386 111.183 211.386H112.273V210.705H105.812V211.386H106.57C106.723 211.386 106.85 211.386 106.946 211.426C107.042 211.459 107.144 211.519 107.233 211.625C107.322 211.724 107.418 211.883 107.52 212.081C107.622 212.28 107.743 212.551 107.876 212.882L114.465 228.967H114.484H115.268C115.523 228.299 115.867 227.478 116.313 226.498C116.759 225.525 117.23 224.499 117.74 223.42C118.243 222.341 118.753 221.262 119.269 220.19C119.779 219.118 120.244 218.145 120.646 217.264L122.838 212.492C123.061 212.035 123.258 211.737 123.443 211.598C123.621 211.453 123.895 211.386 124.246 211.386H124.775V210.705H119.62V211.386L119.613 211.38Z" fill="#C98575"/>
<path d="M221.67 228.239C221.574 228.206 221.472 228.146 221.383 228.04C221.294 227.941 221.198 227.782 221.096 227.584C220.994 227.385 220.873 227.114 220.74 226.783L214.151 210.698H214.132H213.348C213.093 211.366 212.749 212.187 212.303 213.167C211.857 214.14 211.386 215.166 210.876 216.245C210.373 217.324 209.863 218.403 209.347 219.475C208.837 220.547 208.372 221.52 207.97 222.401L205.778 227.173C205.555 227.63 205.358 227.928 205.173 228.067C204.995 228.212 204.721 228.279 204.37 228.279H203.841V228.96H208.996V228.279H207.881C207.664 228.279 207.518 228.246 207.441 228.199C207.365 228.146 207.327 228.06 207.327 227.934C207.327 227.862 207.352 227.749 207.39 227.577C207.435 227.412 207.55 227.1 207.735 226.644L209.423 222.407H215.846L217.566 226.776C217.7 227.087 217.789 227.325 217.834 227.498C217.879 227.663 217.891 227.802 217.891 227.928C217.891 228.034 217.86 228.113 217.802 228.179C217.745 228.239 217.624 228.272 217.433 228.272H216.343V228.954H222.804V228.272H222.046C221.893 228.272 221.765 228.272 221.67 228.232V228.239ZM209.703 221.699L212.609 214.405H212.686L215.559 221.699H209.703Z" fill="#C98575"/>
<path d="M147.055 226.425C146.972 226.703 146.889 226.922 146.8 227.094C146.717 227.259 146.602 227.385 146.443 227.478C146.284 227.564 146.093 227.623 145.857 227.643C145.621 227.67 145.309 227.683 144.927 227.683H139.421V219.468H139.472C139.944 219.468 140.371 219.468 140.747 219.482C141.123 219.495 141.537 219.502 141.964 219.521C142.397 219.541 142.888 219.561 143.442 219.588C143.996 219.621 144.684 219.641 145.513 219.68V218.548C144.767 218.588 144.156 218.608 143.665 218.628C143.181 218.641 142.722 218.661 142.301 218.681C141.881 218.694 141.454 218.714 141.027 218.72C140.6 218.734 140.084 218.734 139.479 218.734H139.428V211.558H144.704C145.073 211.558 145.334 211.611 145.487 211.737C145.64 211.863 145.768 212.068 145.889 212.366L147.048 215.49H147.807V210.718H134.426V211.4H135.942C136.223 211.4 136.407 211.453 136.471 211.545C136.535 211.638 136.573 211.777 136.573 211.949V227.292C136.573 227.484 136.522 227.623 136.433 227.709C136.337 227.795 136.172 227.842 135.942 227.842H134.426V228.55H148.896V223.407H147.991L147.061 226.425H147.055Z" fill="#C98575"/>
<path d="M175.22 226.247C175.137 226.538 175.048 226.776 174.946 226.955C174.85 227.127 174.704 227.259 174.532 227.345C174.359 227.431 174.13 227.498 173.85 227.524C173.576 227.557 173.206 227.577 172.747 227.577H164.617L176.029 211.34V210.711H161.992V215.722H162.794L163.597 213.233C163.718 212.862 163.833 212.571 163.941 212.353C164.05 212.134 164.171 211.969 164.298 211.856C164.426 211.737 164.579 211.671 164.77 211.631C164.948 211.598 165.178 211.578 165.452 211.578H172.798L160.826 227.815V228.55H177.01V223.122H176.124L175.22 226.247Z" fill="#C98575"/>
<path d="M265.742 218.045C264.85 217.8 264.079 217.575 263.422 217.364C262.766 217.152 262.218 216.907 261.791 216.629C261.358 216.351 261.039 216.02 260.829 215.629C260.612 215.245 260.51 214.756 260.51 214.16C260.51 213.2 260.778 212.445 261.313 211.883C261.848 211.327 262.581 211.049 263.505 211.049C264.059 211.049 264.537 211.122 264.945 211.274C265.347 211.426 265.703 211.664 266.003 211.995C266.302 212.326 266.564 212.763 266.774 213.306C266.984 213.849 267.169 214.511 267.341 215.298H268.201V210.135L268.227 210.122H267.749C267.564 210.294 267.411 210.42 267.29 210.493C267.175 210.559 267.029 210.599 266.863 210.599C266.71 210.599 266.544 210.585 266.372 210.546C266.2 210.506 265.99 210.48 265.754 210.44C265.512 210.4 265.238 210.374 264.907 210.334C264.576 210.301 264.174 210.281 263.703 210.281C261.867 210.281 260.453 210.698 259.446 211.532C258.439 212.359 257.942 213.551 257.942 215.087C257.942 217.251 259.153 218.74 261.555 219.548C262.696 219.932 263.626 220.269 264.321 220.547C265.015 220.825 265.563 221.123 265.952 221.428C266.334 221.732 266.602 222.083 266.736 222.48C266.876 222.871 266.94 223.38 266.94 223.989C266.94 224.565 266.844 225.101 266.64 225.591C266.436 226.088 266.162 226.511 265.805 226.862C265.448 227.22 265.028 227.498 264.544 227.696C264.053 227.895 263.524 227.994 262.951 227.994C261.734 227.994 260.778 227.577 260.071 226.743C259.363 225.916 258.917 224.698 258.733 223.109H257.77V228.96H258.229C258.395 228.769 258.554 228.649 258.688 228.603C258.828 228.557 259.026 228.537 259.293 228.537H259.593C259.707 228.537 259.809 228.537 259.892 228.563C260.376 228.616 260.797 228.663 261.128 228.709C261.466 228.755 261.753 228.782 262.001 228.802C262.25 228.815 262.454 228.835 262.619 228.841C262.785 228.855 262.951 228.855 263.097 228.855C265.181 228.855 266.793 228.345 267.94 227.319C269.087 226.3 269.66 224.837 269.66 222.95C269.66 221.64 269.367 220.594 268.775 219.813C268.188 219.038 267.175 218.442 265.742 218.045Z" fill="#C98575"/>
<path d="M281.509 215.603H282.293L283.325 212.584C283.478 212.147 283.663 211.863 283.892 211.73C284.121 211.598 284.536 211.538 285.141 211.538H288.55V227.226C288.55 227.431 288.505 227.59 288.41 227.683C288.314 227.776 288.117 227.828 287.817 227.828H286.256V228.537H293.533V227.828H292.118C291.812 227.828 291.615 227.776 291.526 227.683C291.436 227.59 291.385 227.438 291.385 227.226V211.538H294.998C295.521 211.538 295.897 211.618 296.113 211.79C296.33 211.955 296.508 212.247 296.642 212.644L297.604 215.609H298.407V210.704H281.515V215.603H281.509Z" fill="#C98575"/>
<path d="M326.957 227.656C326.855 227.537 326.804 227.299 326.804 226.948V212.181C326.804 211.903 326.849 211.697 326.932 211.572C327.015 211.452 327.187 211.393 327.435 211.393H328.824V210.711H321.802V211.393H323.191C323.51 211.393 323.72 211.446 323.822 211.572C323.924 211.691 323.975 211.929 323.975 212.28V218.575H315.673V212.214C315.673 211.903 315.717 211.684 315.8 211.572C315.883 211.459 316.049 211.406 316.278 211.406H317.693V210.724H310.671V211.406H312.111C312.378 211.406 312.563 211.459 312.665 211.585C312.767 211.711 312.818 211.962 312.818 212.346V227.22C312.818 227.431 312.773 227.59 312.691 227.696C312.608 227.802 312.429 227.855 312.162 227.855H310.671V228.563H317.693V227.855H316.354C316.074 227.855 315.883 227.802 315.8 227.696C315.717 227.59 315.673 227.378 315.673 227.067V219.356H323.982V226.961C323.982 227.312 323.931 227.544 323.841 227.67C323.752 227.789 323.58 227.848 323.351 227.848H321.809V228.557H328.831V227.848H327.492C327.238 227.848 327.066 227.789 326.964 227.67L326.957 227.656Z" fill="#C98575"/>
<path d="M354.228 226.425C354.145 226.703 354.063 226.922 353.973 227.094C353.891 227.259 353.776 227.385 353.617 227.478C353.457 227.564 353.266 227.623 353.03 227.643C352.795 227.67 352.482 227.683 352.1 227.683H346.595V219.468H346.646C347.117 219.468 347.544 219.468 347.92 219.482C348.296 219.495 348.71 219.502 349.137 219.521C349.57 219.541 350.061 219.561 350.615 219.588C351.17 219.621 351.858 219.641 352.686 219.68V218.548C351.941 218.588 351.329 218.608 350.838 218.628C350.354 218.641 349.895 218.661 349.475 218.681C349.054 218.694 348.627 218.714 348.2 218.72C347.773 218.734 347.257 218.734 346.652 218.734H346.601V218.747V211.558H351.877C352.247 211.558 352.508 211.611 352.661 211.737C352.814 211.863 352.941 212.068 353.062 212.366L354.222 215.49H354.98V210.718H341.599V211.4H343.116C343.396 211.4 343.581 211.453 343.645 211.545C343.708 211.638 343.746 211.777 343.746 211.949V227.292C343.746 227.484 343.695 227.623 343.606 227.709C343.511 227.795 343.345 227.842 343.116 227.842H341.599V228.55H356.07V223.407H355.165L354.235 226.425H354.228Z" fill="#C98575"/>
<path d="M244.782 226.425C244.7 226.703 244.617 226.922 244.527 227.094C244.445 227.259 244.33 227.385 244.171 227.478C244.011 227.564 243.82 227.623 243.584 227.643C243.349 227.67 243.036 227.683 242.654 227.683H237.149V219.468H237.2C237.671 219.468 238.098 219.468 238.474 219.482C238.85 219.495 239.264 219.502 239.691 219.521C240.124 219.541 240.615 219.561 241.169 219.588C241.724 219.621 242.412 219.641 243.24 219.68V218.548C242.495 218.588 241.883 218.608 241.392 218.628C240.908 218.641 240.449 218.661 240.029 218.681C239.608 218.694 239.181 218.714 238.755 218.72C238.328 218.734 237.811 218.734 237.206 218.734H237.155V218.747V211.558H242.431C242.801 211.558 243.062 211.611 243.215 211.737C243.368 211.863 243.495 212.068 243.616 212.366L244.776 215.49H245.534V210.718H232.153V211.4H233.67C233.95 211.4 234.135 211.453 234.199 211.545C234.262 211.638 234.301 211.777 234.301 211.949V227.292C234.301 227.484 234.25 227.623 234.16 227.709C234.065 227.795 233.899 227.842 233.67 227.842H232.153V228.55H246.624V223.407H245.719L244.789 226.425H244.782Z" fill="#C98575"/>
<path d="M367.585 215.603H368.369L369.401 212.584C369.554 212.147 369.739 211.863 369.968 211.73C370.198 211.598 370.612 211.538 371.217 211.538H374.626V227.226C374.626 227.431 374.582 227.59 374.486 227.683C374.39 227.776 374.193 227.828 373.893 227.828H372.332V228.537H379.609V227.828H378.195C377.889 227.828 377.691 227.776 377.602 227.683C377.513 227.59 377.462 227.438 377.462 227.226V211.538H381.075C381.597 211.538 381.973 211.618 382.19 211.79C382.406 211.962 382.585 212.247 382.719 212.644L383.681 215.609H384.484V210.704H367.592V215.603H367.585Z" fill="#C98575"/>
<path d="M396.243 211.386H397.562C397.83 211.386 398.015 211.439 398.117 211.532C398.219 211.631 398.27 211.823 398.27 212.128V227.16C398.27 227.425 398.219 227.603 398.129 227.696C398.034 227.789 397.868 227.842 397.639 227.842H396.25V228.55H403.272V227.842H401.832C401.354 227.842 401.124 227.617 401.124 227.16V212.128C401.124 211.83 401.175 211.631 401.264 211.532C401.354 211.433 401.526 211.386 401.755 211.386H403.272V210.705H396.25V211.386H396.243Z" fill="#C98575"/>
<path d="M432.26 223.514H432.269L432.26 223.505V223.514Z" fill="#C98575"/>
<path d="M429.526 227.041C428.634 227.762 427.398 228.126 425.817 228.126C424.556 228.126 423.511 227.895 422.682 227.431C421.854 226.968 421.198 226.24 420.714 225.24C420.338 224.486 420.064 223.625 419.879 222.652C419.694 221.679 419.605 220.627 419.605 219.495C419.605 217.767 419.783 216.324 420.146 215.166C420.51 214.007 421.045 213.114 421.752 212.458C422.071 212.161 422.377 211.916 422.67 211.724C422.963 211.538 423.262 211.386 423.568 211.28C423.874 211.174 424.193 211.102 424.53 211.055C424.868 211.015 425.238 210.996 425.645 210.996C426.467 210.996 427.2 211.082 427.837 211.26C428.475 211.433 429.029 211.704 429.488 212.075C429.953 212.445 430.329 212.915 430.622 213.491C430.915 214.067 431.151 214.762 431.316 215.589H432.247V210.294H431.871C431.501 210.486 431.221 210.612 431.049 210.665C430.877 210.718 430.686 210.744 430.482 210.744C430.163 210.744 429.825 210.711 429.481 210.665C429.137 210.612 428.749 210.559 428.322 210.506C427.888 210.453 427.41 210.4 426.869 210.347C426.327 210.294 425.715 210.268 425.021 210.268C422.294 210.268 420.185 211.049 418.706 212.604C417.222 214.166 416.483 216.549 416.483 219.766C416.483 222.983 417.19 225.128 418.617 226.677C420.044 228.226 422.096 229 424.792 229C425.467 229 426.091 228.967 426.658 228.907C427.226 228.848 427.748 228.775 428.207 228.696C428.672 228.616 429.086 228.543 429.456 228.484C429.832 228.424 430.15 228.391 430.418 228.391C430.603 228.391 430.768 228.391 430.896 228.418C431.03 228.437 431.157 228.47 431.265 228.51C431.38 228.557 431.488 228.609 431.597 228.676C431.705 228.742 431.832 228.841 431.966 228.96H432.24V223.506H431.412C431.042 225.134 430.405 226.313 429.52 227.034L429.526 227.041Z" fill="#C98575"/>
<path d="M457.118 219.813C456.532 219.038 455.519 218.442 454.085 218.045C453.193 217.8 452.422 217.575 451.766 217.364C451.109 217.152 450.562 216.907 450.135 216.629C449.701 216.351 449.383 216.02 449.172 215.629C448.956 215.245 448.854 214.756 448.854 214.16C448.854 213.2 449.121 212.445 449.657 211.883C450.192 211.327 450.925 211.049 451.849 211.049C452.403 211.049 452.881 211.122 453.289 211.274C453.696 211.426 454.047 211.664 454.346 211.995C454.646 212.326 454.907 212.763 455.117 213.306C455.328 213.849 455.512 214.511 455.685 215.298H456.545V210.135L456.57 210.122H456.092C455.908 210.294 455.755 210.42 455.634 210.493C455.519 210.559 455.372 210.599 455.207 210.599C455.054 210.599 454.888 210.585 454.716 210.546C454.544 210.506 454.334 210.48 454.098 210.44C453.856 210.4 453.582 210.374 453.25 210.334C452.919 210.301 452.518 210.281 452.046 210.281C450.211 210.281 448.796 210.698 447.79 211.532C446.783 212.359 446.286 213.551 446.286 215.087C446.286 217.251 447.497 218.74 449.899 219.548C451.039 219.932 451.97 220.269 452.664 220.547C453.359 220.825 453.907 221.123 454.295 221.428C454.678 221.732 454.945 222.083 455.079 222.48C455.219 222.871 455.283 223.38 455.283 223.989C455.283 224.565 455.188 225.101 454.984 225.591C454.78 226.088 454.506 226.511 454.149 226.862C453.792 227.22 453.372 227.498 452.887 227.696C452.397 227.895 451.868 227.994 451.294 227.994C450.077 227.994 449.121 227.577 448.414 226.743C447.707 225.916 447.261 224.698 447.076 223.109H446.114V228.96H446.573C446.738 228.769 446.898 228.649 447.031 228.603C447.172 228.557 447.369 228.537 447.637 228.537H447.936C448.051 228.537 448.153 228.537 448.236 228.563C448.72 228.616 449.141 228.663 449.472 228.709C449.81 228.755 450.096 228.782 450.345 228.802C450.593 228.815 450.797 228.835 450.963 228.841C451.129 228.855 451.294 228.855 451.441 228.855C453.524 228.855 455.137 228.345 456.283 227.319C457.43 226.3 458.004 224.837 458.004 222.95C458.004 221.64 457.711 220.594 457.118 219.813Z" fill="#C98575"/>
</g>
<defs>
<clipPath id="clip0_2_82">
<rect width="458" height="229" fill="white"/>
</clipPath>
</defs>
</svg>
