<svg width="360" height="60" viewBox="0 0 360 60" fill="none" xmlns="http://www.w3.org/2000/svg">
<path d="M24.1667 40.8333H29.1667H102.5L109.167 6.25H114.167V10.8333H116.667C124.667 10.8333 132.222 17.2222 135 20.4167H139.167V20.8333V21.6667H140V22.5H117.5V31.6667H146.667C156.333 31.6667 159.583 37.2222 160 40V48.3333H23.3333V43.3333H24.1667V40.8333Z" fill="#E85909"/>
<path d="M85.4167 6.25H17.5V12.0833H85.4167V18.2828L101.25 9.14138L85.4167 0V6.25Z" fill="#3B302A"/>
<path d="M67.9167 24.5834H0V30.4167H67.9167V36.6161L83.75 27.4748L67.9167 18.3334V24.5834Z" fill="#E85909"/>
<path d="M156.063 37.0284C156.752 38.0808 156.651 39.1892 156.08 39.563C155.508 39.9368 155.522 38.7098 154.834 37.6573C154.145 36.6049 153.016 36.1255 153.587 35.7517C154.159 35.3779 155.375 35.9759 156.063 37.0284Z" fill="white"/>
<circle cx="137.083" cy="48.75" r="11.25" fill="white"/>
<circle cx="137.083" cy="48.75" r="9.58333" fill="#3B302A"/>
<circle cx="137.083" cy="48.75" r="4.58333" fill="white"/>
<circle cx="47.9167" cy="48.75" r="11.25" fill="white"/>
<circle cx="47.9167" cy="48.75" r="9.58333" fill="#3B302A"/>
<circle cx="47.9167" cy="48.75" r="4.58333" fill="white"/>
<path d="M176 12.5118H181.155V42.7823H208.005V47.4883H176V12.5118Z" fill="#3B302A"/>
<path d="M243.043 48C235.778 48 230.698 47.5215 227.802 46.5645C224.906 45.6491 223.067 43.8766 222.284 41.2469C221.735 39.4411 221.46 35.7087 221.46 30.0499C221.46 24.2913 221.718 20.5589 222.234 18.853C223.017 16.1983 224.872 14.3925 227.802 13.4355C230.731 12.4785 235.811 12 243.043 12C250.3 12 255.376 12.4619 258.272 13.3856C261.135 14.3426 262.978 16.1484 263.802 18.8031C264.343 20.6089 264.613 24.3578 264.613 30.0499C264.613 35.7753 264.359 39.491 263.852 41.1969C263.069 43.8599 261.226 45.6491 258.322 46.5645C255.426 47.5215 250.333 48 243.043 48ZM243.043 43.294C251.082 43.294 255.817 42.699 257.248 41.509C258.688 40.3107 259.408 36.491 259.408 30.0499C259.408 23.5756 258.709 19.7434 257.311 18.5534C255.879 17.3551 251.123 16.7559 243.043 16.7559C234.963 16.7559 230.223 17.3551 228.825 18.5534C227.394 19.7434 226.678 23.5756 226.678 30.0499C226.678 36.4577 227.394 40.2607 228.825 41.4591C230.257 42.6824 234.996 43.294 243.043 43.294Z" fill="#3B302A"/>
<path d="M309.462 12.5118C312.424 12.5118 314.709 13.5188 316.315 15.5326C317.913 17.5798 318.712 20.2885 318.712 23.6589C318.712 26.5548 318.254 28.7185 317.338 30.1498C316.689 31.1734 315.649 31.9931 314.218 32.6089C315.483 33.1249 316.473 33.7906 317.189 34.6062C318.204 35.7629 318.712 37.1942 318.712 38.9002V47.4883H313.556V38.9002C313.556 37.7435 313.011 36.7698 311.921 35.9792C310.798 35.2303 309.449 34.8558 307.877 34.8558H283.286V47.4883H278.068V12.5118H309.462ZM283.286 30.0999H307.365C309.279 30.0999 310.694 29.7587 311.609 29.0763C312.907 28.1277 313.556 26.3218 313.556 23.6589C313.556 21.0042 312.89 19.1817 311.559 18.1915C310.677 17.5424 309.279 17.2178 307.365 17.2178H283.286V30.0999Z" fill="#3B302A"/>
<path d="M348.237 47.4855H343.019V12.509H348.237V47.4855Z" fill="#3B302A"/>
<path d="M359.077 12.5085V17.5L332.167 17.5V12.5085L359.077 12.5085Z" fill="#3B302A"/>
<path d="M359.077 42.5V47.4916H332.167V42.5H359.077Z" fill="#3B302A"/>
</svg>
