<svg width="258" height="163" viewBox="0 0 258 163" fill="none" xmlns="http://www.w3.org/2000/svg">
<path d="M74.4289 31.5923V39.2106H83.5519V41.9507H74.4289V51.5963H71.0394V28.8522H85.1357V31.5923H74.4289Z" fill="#2A2927"/>
<path d="M153.956 64.3107C152.276 61.5509 149.397 59.8711 146.157 59.8711C144.957 59.8711 143.877 60.1111 142.797 60.591C143.037 60.471 143.277 60.3511 143.397 60.3511L136.438 48.9521C135.598 50.032 134.398 50.632 133.078 50.752L140.278 62.0309L140.398 61.9109C136.918 64.6706 135.958 69.7102 138.358 73.5498C140.038 76.3096 142.917 77.9894 146.157 77.9894C147.837 77.9894 149.397 77.5094 150.837 76.6695C155.156 74.0298 156.356 68.5103 153.956 64.3107ZM149.637 74.5097C148.677 75.1097 147.477 75.4696 146.277 75.4696C143.997 75.4696 141.837 74.2697 140.638 72.2299C138.838 69.1102 139.798 65.1506 142.917 63.2308C143.877 62.6308 145.077 62.2709 146.277 62.2709C148.677 62.2709 150.717 63.4708 151.916 65.5106C153.716 68.5103 152.756 72.5899 149.637 74.5097ZM121.679 43.6726L127.559 33.8335L108.481 2.15652C108.241 1.79656 107.881 1.43659 107.401 1.3166C106.921 1.19661 106.441 1.3166 106.081 1.55658C105.361 2.03654 105.001 2.99645 105.361 3.71638L121.679 43.6726Z" fill="#FB9400"/>
<path d="M151.917 1.55638C151.557 1.31641 151.077 1.31641 150.597 1.31641C150.117 1.43639 149.757 1.67637 149.517 2.15633L114.48 60.3508C114.72 60.4708 114.84 60.4708 114.96 60.5908C113.88 60.2309 112.801 59.9909 111.721 59.9909C108.601 59.9909 105.601 61.6707 103.921 64.4305C101.402 68.7501 102.722 74.2695 107.041 76.7893C108.481 77.6292 110.041 78.1092 111.721 78.1092C114.84 78.1092 117.84 76.4293 119.52 73.6696C121.8 69.83 120.96 64.9104 117.48 62.0307L123.24 52.5516C124.799 49.9118 127.799 48.232 130.919 48.232C131.399 48.232 131.999 48.232 132.479 48.352C133.559 48.592 134.639 47.992 134.998 47.0321L152.637 3.83617C152.997 2.99625 152.637 2.03634 151.917 1.55638ZM117.36 72.2297C116.16 74.2695 114 75.4694 111.721 75.4694C110.521 75.4694 109.321 75.1095 108.361 74.5095C105.241 72.7097 104.281 68.6301 106.081 65.5104C107.281 63.4706 109.321 62.2707 111.721 62.2707C112.921 62.2707 114.12 62.6306 115.08 63.2306C118.2 65.1504 119.28 69.11 117.36 72.2297ZM130.799 44.9923C129.479 44.9923 128.399 43.9124 128.399 42.5925C128.399 41.2726 129.479 40.0728 130.799 40.0728C132.119 40.0728 133.319 41.1527 133.319 42.5925C133.319 43.9124 132.239 44.9923 130.799 44.9923Z" fill="#FB9400"/>
<path d="M186.335 32.5584C186.23 32.7379 186.119 32.8699 186.003 32.9544C185.887 33.0389 185.739 33.0811 185.559 33.0811C185.369 33.0811 185.153 32.9966 184.91 32.8277C184.667 32.6482 184.361 32.4528 183.991 32.2417C183.632 32.0199 183.199 31.8246 182.693 31.6556C182.186 31.4761 181.579 31.3864 180.871 31.3864C180.206 31.3864 179.62 31.4761 179.113 31.6556C178.617 31.8246 178.2 32.0622 177.862 32.3684C177.524 32.664 177.265 33.0177 177.086 33.4295C176.917 33.8308 176.832 34.269 176.832 34.7441C176.832 35.3566 176.985 35.8634 177.292 36.2646C177.608 36.6659 178.02 37.009 178.527 37.2941C179.034 37.5792 179.609 37.8274 180.253 38.0385C180.898 38.2497 181.557 38.4715 182.233 38.7038C182.909 38.9255 183.569 39.1842 184.213 39.4799C184.857 39.7755 185.433 40.1504 185.939 40.6044C186.446 41.0479 186.853 41.5969 187.159 42.2516C187.476 42.8957 187.634 43.6876 187.634 44.6274C187.634 45.6305 187.46 46.5702 187.111 47.4466C186.774 48.323 186.277 49.0885 185.623 49.7432C184.968 50.3979 184.16 50.9153 183.199 51.2954C182.249 51.6649 181.167 51.8497 179.952 51.8497C179.224 51.8497 178.516 51.7758 177.83 51.628C177.144 51.4907 176.494 51.2954 175.882 51.042C175.27 50.778 174.694 50.4665 174.156 50.1075C173.628 49.7379 173.152 49.3261 172.73 48.8721L173.696 47.2566C173.791 47.1299 173.902 47.0243 174.029 46.9398C174.166 46.8553 174.319 46.8131 174.488 46.8131C174.71 46.8131 174.963 46.9292 175.248 47.1615C175.544 47.3938 175.903 47.6525 176.325 47.9376C176.758 48.2122 177.27 48.4656 177.862 48.6979C178.464 48.9302 179.192 49.0463 180.048 49.0463C180.744 49.0463 181.367 48.9566 181.916 48.7771C182.466 48.587 182.925 48.323 183.294 47.9851C183.675 47.6367 183.965 47.2196 184.166 46.7339C184.366 46.2482 184.466 45.7097 184.466 45.1184C184.466 44.4531 184.313 43.9094 184.007 43.487C183.701 43.0646 183.294 42.7109 182.788 42.4258C182.281 42.1407 181.705 41.8979 181.061 41.6972C180.417 41.4966 179.757 41.2907 179.081 41.0795C178.406 40.8578 177.746 40.6044 177.102 40.3193C176.457 40.0342 175.882 39.6646 175.375 39.2106C174.868 38.746 174.462 38.1705 174.156 37.4842C173.849 36.7873 173.696 35.932 173.696 34.9184C173.696 34.1053 173.855 33.3187 174.171 32.5584C174.488 31.7982 174.948 31.1277 175.549 30.5469C176.162 29.9556 176.911 29.4858 177.798 29.1373C178.685 28.7783 179.699 28.5988 180.839 28.5988C182.117 28.5988 183.289 28.8047 184.356 29.2165C185.433 29.6177 186.367 30.1985 187.159 30.9587L186.335 32.5584Z" fill="#2A2927"/>
<path d="M7.13849 101.816V108.664H15.8105V112.104H7.13849V121.528H2.81849V98.392H17.4105V101.816H7.13849ZM29.2155 109.4C30.0262 109.4 30.7302 109.299 31.3275 109.096C31.9355 108.893 32.4315 108.616 32.8155 108.264C33.2102 107.901 33.5035 107.475 33.6955 106.984C33.8875 106.493 33.9835 105.955 33.9835 105.368C33.9835 104.195 33.5942 103.293 32.8155 102.664C32.0475 102.035 30.8688 101.72 29.2795 101.72H26.5275V109.4H29.2155ZM40.2875 121.528H36.3995C35.6635 121.528 35.1302 121.24 34.7995 120.664L29.9355 113.256C29.7542 112.979 29.5515 112.781 29.3275 112.664C29.1142 112.547 28.7942 112.488 28.3675 112.488H26.5275V121.528H22.2235V98.392H29.2795C30.8475 98.392 32.1915 98.5573 33.3115 98.888C34.4422 99.208 35.3648 99.6613 36.0795 100.248C36.8048 100.835 37.3382 101.539 37.6795 102.36C38.0208 103.171 38.1915 104.067 38.1915 105.048C38.1915 105.827 38.0742 106.563 37.8395 107.256C37.6155 107.949 37.2848 108.579 36.8475 109.144C36.4208 109.709 35.8875 110.205 35.2475 110.632C34.6182 111.059 33.8982 111.395 33.0875 111.64C33.3648 111.8 33.6208 111.992 33.8555 112.216C34.0902 112.429 34.3035 112.685 34.4955 112.984L40.2875 121.528ZM56.29 112.792L53.474 105.096C53.3353 104.755 53.1913 104.349 53.042 103.88C52.8927 103.411 52.7433 102.904 52.594 102.36C52.4553 102.904 52.3113 103.416 52.162 103.896C52.0127 104.365 51.8687 104.776 51.73 105.128L48.93 112.792H56.29ZM63.89 121.528H60.562C60.1887 121.528 59.8847 121.437 59.65 121.256C59.4153 121.064 59.2393 120.829 59.122 120.552L57.394 115.832H47.81L46.082 120.552C45.9967 120.797 45.8313 121.021 45.586 121.224C45.3407 121.427 45.0367 121.528 44.674 121.528H41.314L50.418 98.392H54.802L63.89 121.528ZM88.1087 109.96C88.1087 111.656 87.8261 113.213 87.2607 114.632C86.6954 116.051 85.9007 117.272 84.8767 118.296C83.8527 119.32 82.6207 120.115 81.1807 120.68C79.7407 121.245 78.1407 121.528 76.3807 121.528H67.5647V98.392H76.3807C78.1407 98.392 79.7407 98.68 81.1807 99.256C82.6207 99.8213 83.8527 100.616 84.8767 101.64C85.9007 102.653 86.6954 103.869 87.2607 105.288C87.8261 106.707 88.1087 108.264 88.1087 109.96ZM83.6927 109.96C83.6927 108.691 83.5221 107.555 83.1807 106.552C82.8501 105.539 82.3647 104.685 81.7247 103.992C81.0954 103.288 80.3274 102.749 79.4207 102.376C78.5247 102.003 77.5114 101.816 76.3807 101.816H71.8847V118.104H76.3807C77.5114 118.104 78.5247 117.917 79.4207 117.544C80.3274 117.171 81.0954 116.637 81.7247 115.944C82.3647 115.24 82.8501 114.387 83.1807 113.384C83.5221 112.371 83.6927 111.229 83.6927 109.96ZM97.5085 101.816V108.232H105.604V111.544H97.5085V118.088H107.78V121.528H93.1885V98.392H107.78V101.816H97.5085ZM126.427 117.976V121.528H112.875V98.392H117.179V117.976H126.427ZM143.944 110.712C143.091 111.267 142.467 111.896 142.072 112.6C141.688 113.293 141.496 114.04 141.496 114.84C141.496 115.427 141.598 115.955 141.8 116.424C142.003 116.893 142.275 117.293 142.616 117.624C142.968 117.944 143.374 118.195 143.832 118.376C144.302 118.547 144.798 118.632 145.32 118.632C146.259 118.632 147.118 118.488 147.896 118.2C148.675 117.901 149.379 117.491 150.008 116.968L143.944 110.712ZM159.352 121.528H155.48C155.075 121.528 154.744 121.48 154.488 121.384C154.243 121.288 153.982 121.085 153.704 120.776L152.104 119.128C151.091 119.96 149.955 120.611 148.696 121.08C147.438 121.549 146.078 121.784 144.616 121.784C143.731 121.784 142.856 121.635 141.992 121.336C141.139 121.027 140.376 120.584 139.704 120.008C139.032 119.432 138.488 118.739 138.072 117.928C137.667 117.107 137.464 116.184 137.464 115.16C137.464 114.435 137.582 113.752 137.816 113.112C138.051 112.461 138.376 111.859 138.792 111.304C139.208 110.749 139.704 110.253 140.28 109.816C140.856 109.368 141.486 108.984 142.168 108.664C141.592 107.864 141.176 107.085 140.92 106.328C140.664 105.56 140.536 104.797 140.536 104.04C140.536 103.24 140.68 102.483 140.968 101.768C141.267 101.043 141.694 100.413 142.248 99.88C142.803 99.3466 143.486 98.9253 144.296 98.616C145.107 98.296 146.024 98.136 147.048 98.136C147.987 98.136 148.824 98.28 149.56 98.568C150.307 98.856 150.942 99.24 151.464 99.72C151.998 100.2 152.414 100.749 152.712 101.368C153.022 101.987 153.203 102.627 153.256 103.288L150.744 103.816C150.275 103.912 149.934 103.709 149.72 103.208C149.624 102.931 149.496 102.669 149.336 102.424C149.187 102.168 149.006 101.949 148.792 101.768C148.579 101.576 148.328 101.427 148.04 101.32C147.752 101.203 147.422 101.144 147.048 101.144C146.6 101.144 146.2 101.224 145.848 101.384C145.496 101.533 145.198 101.741 144.952 102.008C144.718 102.264 144.536 102.568 144.408 102.92C144.28 103.261 144.216 103.624 144.216 104.008C144.216 104.328 144.248 104.637 144.312 104.936C144.376 105.235 144.483 105.533 144.632 105.832C144.782 106.131 144.974 106.44 145.208 106.76C145.454 107.069 145.752 107.405 146.104 107.768L152.248 114.152C152.6 113.48 152.883 112.771 153.096 112.024C153.31 111.277 153.448 110.52 153.512 109.752C153.544 109.507 153.63 109.309 153.768 109.16C153.907 109.011 154.099 108.936 154.344 108.936H156.808C156.798 110.344 156.595 111.688 156.2 112.968C155.806 114.248 155.24 115.427 154.504 116.504L159.352 121.528ZM184.69 102.6C184.562 102.824 184.423 102.989 184.274 103.096C184.135 103.192 183.959 103.24 183.746 103.24C183.522 103.24 183.276 103.16 183.01 103C182.754 102.829 182.444 102.643 182.082 102.44C181.719 102.237 181.292 102.056 180.802 101.896C180.322 101.725 179.751 101.64 179.09 101.64C178.492 101.64 177.97 101.715 177.522 101.864C177.074 102.003 176.695 102.2 176.386 102.456C176.087 102.712 175.863 103.021 175.714 103.384C175.564 103.736 175.49 104.125 175.49 104.552C175.49 105.096 175.639 105.549 175.938 105.912C176.247 106.275 176.652 106.584 177.154 106.84C177.655 107.096 178.226 107.325 178.866 107.528C179.506 107.731 180.162 107.949 180.834 108.184C181.506 108.408 182.162 108.675 182.802 108.984C183.442 109.283 184.012 109.667 184.514 110.136C185.015 110.595 185.415 111.16 185.714 111.832C186.023 112.504 186.178 113.32 186.178 114.28C186.178 115.325 185.996 116.307 185.634 117.224C185.282 118.131 184.759 118.925 184.066 119.608C183.383 120.28 182.546 120.813 181.554 121.208C180.562 121.592 179.426 121.784 178.146 121.784C177.41 121.784 176.684 121.709 175.97 121.56C175.255 121.421 174.567 121.219 173.906 120.952C173.255 120.685 172.642 120.365 172.066 119.992C171.49 119.619 170.978 119.203 170.53 118.744L171.794 116.68C171.9 116.531 172.039 116.408 172.21 116.312C172.38 116.205 172.562 116.152 172.754 116.152C173.02 116.152 173.308 116.264 173.618 116.488C173.927 116.701 174.295 116.941 174.722 117.208C175.148 117.475 175.644 117.72 176.21 117.944C176.786 118.157 177.474 118.264 178.274 118.264C179.5 118.264 180.45 117.976 181.122 117.4C181.794 116.813 182.13 115.976 182.13 114.888C182.13 114.28 181.975 113.784 181.666 113.4C181.367 113.016 180.967 112.696 180.466 112.44C179.964 112.173 179.394 111.949 178.754 111.768C178.114 111.587 177.463 111.389 176.802 111.176C176.14 110.963 175.49 110.707 174.85 110.408C174.21 110.109 173.639 109.72 173.138 109.24C172.636 108.76 172.231 108.163 171.922 107.448C171.623 106.723 171.474 105.832 171.474 104.776C171.474 103.933 171.639 103.112 171.97 102.312C172.311 101.512 172.802 100.803 173.442 100.184C174.082 99.5653 174.871 99.0693 175.81 98.696C176.748 98.3226 177.826 98.136 179.042 98.136C180.407 98.136 181.666 98.3493 182.818 98.776C183.97 99.2026 184.951 99.8 185.762 100.568L184.69 102.6ZM198.732 110.024C199.522 110.024 200.21 109.928 200.796 109.736C201.383 109.533 201.868 109.251 202.252 108.888C202.647 108.515 202.94 108.067 203.132 107.544C203.324 107.011 203.42 106.419 203.42 105.768C203.42 105.149 203.324 104.589 203.132 104.088C202.94 103.587 202.652 103.16 202.268 102.808C201.884 102.456 201.399 102.189 200.812 102.008C200.226 101.816 199.532 101.72 198.732 101.72H195.516V110.024H198.732ZM198.732 98.392C200.279 98.392 201.618 98.5733 202.748 98.936C203.879 99.2986 204.812 99.8053 205.548 100.456C206.284 101.107 206.828 101.885 207.18 102.792C207.543 103.699 207.724 104.691 207.724 105.768C207.724 106.888 207.538 107.917 207.164 108.856C206.791 109.784 206.231 110.584 205.484 111.256C204.738 111.928 203.799 112.451 202.668 112.824C201.548 113.197 200.236 113.384 198.732 113.384H195.516V121.528H191.212V98.392H198.732ZM216.625 121.528H212.305V98.392H216.625V121.528ZM227.405 101.816V108.232H235.501V111.544H227.405V118.088H237.677V121.528H223.085V98.392H237.677V101.816H227.405ZM255.091 102.6C254.963 102.824 254.824 102.989 254.675 103.096C254.536 103.192 254.36 103.24 254.147 103.24C253.923 103.24 253.678 103.16 253.411 103C253.155 102.829 252.846 102.643 252.483 102.44C252.12 102.237 251.694 102.056 251.203 101.896C250.723 101.725 250.152 101.64 249.491 101.64C248.894 101.64 248.371 101.715 247.923 101.864C247.475 102.003 247.096 102.2 246.787 102.456C246.488 102.712 246.264 103.021 246.115 103.384C245.966 103.736 245.891 104.125 245.891 104.552C245.891 105.096 246.04 105.549 246.339 105.912C246.648 106.275 247.054 106.584 247.555 106.84C248.056 107.096 248.627 107.325 249.267 107.528C249.907 107.731 250.563 107.949 251.235 108.184C251.907 108.408 252.563 108.675 253.203 108.984C253.843 109.283 254.414 109.667 254.915 110.136C255.416 110.595 255.816 111.16 256.115 111.832C256.424 112.504 256.579 113.32 256.579 114.28C256.579 115.325 256.398 116.307 256.035 117.224C255.683 118.131 255.16 118.925 254.467 119.608C253.784 120.28 252.947 120.813 251.955 121.208C250.963 121.592 249.827 121.784 248.547 121.784C247.811 121.784 247.086 121.709 246.371 121.56C245.656 121.421 244.968 121.219 244.307 120.952C243.656 120.685 243.043 120.365 242.467 119.992C241.891 119.619 241.379 119.203 240.931 118.744L242.195 116.68C242.302 116.531 242.44 116.408 242.611 116.312C242.782 116.205 242.963 116.152 243.155 116.152C243.422 116.152 243.71 116.264 244.019 116.488C244.328 116.701 244.696 116.941 245.123 117.208C245.55 117.475 246.046 117.72 246.611 117.944C247.187 118.157 247.875 118.264 248.675 118.264C249.902 118.264 250.851 117.976 251.523 117.4C252.195 116.813 252.531 115.976 252.531 114.888C252.531 114.28 252.376 113.784 252.067 113.4C251.768 113.016 251.368 112.696 250.867 112.44C250.366 112.173 249.795 111.949 249.155 111.768C248.515 111.587 247.864 111.389 247.203 111.176C246.542 110.963 245.891 110.707 245.251 110.408C244.611 110.109 244.04 109.72 243.539 109.24C243.038 108.76 242.632 108.163 242.323 107.448C242.024 106.723 241.875 105.832 241.875 104.776C241.875 103.933 242.04 103.112 242.371 102.312C242.712 101.512 243.203 100.803 243.843 100.184C244.483 99.5653 245.272 99.0693 246.211 98.696C247.15 98.3226 248.227 98.136 249.443 98.136C250.808 98.136 252.067 98.3493 253.219 98.776C254.371 99.2026 255.352 99.8 256.163 100.568L255.091 102.6Z" fill="#25221F"/>
<path d="M45.0568 153.922C45.5699 153.922 46.0071 153.862 46.3682 153.741C46.7356 153.621 47.0334 153.456 47.2615 153.247C47.4959 153.038 47.6669 152.791 47.7747 152.506C47.8824 152.215 47.9362 151.898 47.9362 151.556C47.9362 150.878 47.7018 150.346 47.233 149.959C46.7642 149.566 46.0387 149.37 45.0568 149.37H42.2058V153.922H45.0568ZM42.2058 143.469V147.935H44.5341C45.5287 147.935 46.2668 147.735 46.7483 147.336C47.2361 146.931 47.4801 146.386 47.4801 145.702C47.4801 144.922 47.2488 144.355 46.7863 144.001C46.3238 143.646 45.6048 143.469 44.6291 143.469H42.2058ZM44.6291 141.881C45.4844 141.881 46.2161 141.964 46.8243 142.129C47.4389 142.293 47.9425 142.531 48.3353 142.841C48.7281 143.152 49.0164 143.529 49.2001 143.972C49.3902 144.409 49.4852 144.907 49.4852 145.464C49.4852 145.794 49.4345 146.11 49.3332 146.414C49.2318 146.719 49.0766 147.004 48.8675 147.27C48.6584 147.53 48.3955 147.764 48.0787 147.973C47.762 148.182 47.3882 148.356 46.9574 148.496C48.9404 148.888 49.9319 149.924 49.9319 151.603C49.9319 152.186 49.8242 152.718 49.6087 153.2C49.3933 153.675 49.0797 154.087 48.6679 154.435C48.2561 154.784 47.7493 155.053 47.1474 155.243C46.5456 155.433 45.8614 155.528 45.0948 155.528H40.1817V141.881H44.6291ZM63.3725 150.444L61.3484 145.151C61.2026 144.789 61.0569 144.333 60.9112 143.782C60.8415 144.055 60.7687 144.308 60.6926 144.542C60.6229 144.777 60.5533 144.986 60.4836 145.17L58.4689 150.444H63.3725ZM67.3733 155.528H65.8148C65.6374 155.528 65.4917 155.484 65.3777 155.395C65.2636 155.306 65.1813 155.192 65.1306 155.053L63.9237 151.888H57.9082L56.7013 155.053C56.657 155.173 56.5746 155.284 56.4543 155.385C56.3339 155.48 56.1882 155.528 56.0171 155.528H54.4586L59.8944 141.881H61.9375L67.3733 155.528ZM76.7461 148.458C77.2656 148.458 77.7217 148.394 78.1145 148.268C78.5136 148.141 78.8462 147.963 79.1123 147.735C79.3784 147.501 79.578 147.225 79.711 146.909C79.8441 146.586 79.9106 146.231 79.9106 145.844C79.9106 145.059 79.6508 144.466 79.1313 144.067C78.6182 143.668 77.8452 143.469 76.8126 143.469H74.9025V148.458H76.7461ZM83.1131 155.528H81.3075C80.9464 155.528 80.6835 155.385 80.5188 155.1L77.1452 150.368C77.0375 150.209 76.9203 150.099 76.7936 150.035C76.6669 149.965 76.4768 149.931 76.2234 149.931H74.9025V155.528H72.8783V141.881H76.8126C77.6932 141.881 78.4503 141.973 79.0838 142.157C79.7237 142.334 80.2495 142.591 80.6613 142.927C81.0795 143.256 81.3867 143.655 81.5831 144.124C81.7859 144.593 81.8872 145.119 81.8872 145.702C81.8872 146.177 81.8144 146.624 81.6687 147.042C81.523 147.46 81.3075 147.837 81.0225 148.173C80.7437 148.502 80.4016 148.787 79.9961 149.028C79.5907 149.269 79.1313 149.452 78.6182 149.579C78.8716 149.731 79.0902 149.943 79.2739 150.216L83.1131 155.528ZM93.5449 153.922C94.058 153.922 94.4952 153.862 94.8563 153.741C95.2238 153.621 95.5215 153.456 95.7496 153.247C95.984 153.038 96.1551 152.791 96.2628 152.506C96.3705 152.215 96.4243 151.898 96.4243 151.556C96.4243 150.878 96.1899 150.346 95.7211 149.959C95.2523 149.566 94.5269 149.37 93.5449 149.37H90.6939V153.922H93.5449ZM90.6939 143.469V147.935H93.0222C94.0169 147.935 94.7549 147.735 95.2364 147.336C95.7243 146.931 95.9682 146.386 95.9682 145.702C95.9682 144.922 95.7369 144.355 95.2744 144.001C94.812 143.646 94.0929 143.469 93.1172 143.469H90.6939ZM93.1172 141.881C93.9725 141.881 94.7043 141.964 95.3125 142.129C95.927 142.293 96.4307 142.531 96.8234 142.841C97.2162 143.152 97.5045 143.529 97.6882 143.972C97.8783 144.409 97.9733 144.907 97.9733 145.464C97.9733 145.794 97.9226 146.11 97.8213 146.414C97.7199 146.719 97.5647 147.004 97.3556 147.27C97.1466 147.53 96.8836 147.764 96.5669 147.973C96.2501 148.182 95.8763 148.356 95.4455 148.496C97.4285 148.888 98.42 149.924 98.42 151.603C98.42 152.186 98.3123 152.718 98.0969 153.2C97.8815 153.675 97.5679 154.087 97.1561 154.435C96.7443 154.784 96.2374 155.053 95.6356 155.243C95.0337 155.433 94.3495 155.528 93.5829 155.528H88.6698V141.881H93.1172ZM113.281 153.884L113.272 155.528H104.814V141.881H113.272V143.526H106.848V147.849H112.017V149.436H106.848V153.884H113.281ZM123.452 148.458C123.972 148.458 124.428 148.394 124.821 148.268C125.22 148.141 125.553 147.963 125.819 147.735C126.085 147.501 126.284 147.225 126.417 146.909C126.55 146.586 126.617 146.231 126.617 145.844C126.617 145.059 126.357 144.466 125.838 144.067C125.324 143.668 124.552 143.469 123.519 143.469H121.609V148.458H123.452ZM129.819 155.528H128.014C127.653 155.528 127.39 155.385 127.225 155.1L123.851 150.368C123.744 150.209 123.627 150.099 123.5 150.035C123.373 149.965 123.183 149.931 122.93 149.931H121.609V155.528H119.585V141.881H123.519C124.399 141.881 125.157 141.973 125.79 142.157C126.43 142.334 126.956 142.591 127.368 142.927C127.786 143.256 128.093 143.655 128.289 144.124C128.492 144.593 128.594 145.119 128.594 145.702C128.594 146.177 128.521 146.624 128.375 147.042C128.229 147.46 128.014 147.837 127.729 148.173C127.45 148.502 127.108 148.787 126.702 149.028C126.297 149.269 125.838 149.452 125.324 149.579C125.578 149.731 125.796 149.943 125.98 150.216L129.819 155.528ZM151.045 144.105C150.982 144.213 150.915 144.292 150.846 144.343C150.776 144.393 150.687 144.419 150.58 144.419C150.466 144.419 150.336 144.368 150.19 144.267C150.044 144.159 149.861 144.042 149.639 143.915C149.423 143.782 149.164 143.665 148.86 143.564C148.556 143.456 148.191 143.402 147.767 143.402C147.368 143.402 147.016 143.456 146.712 143.564C146.414 143.665 146.164 143.807 145.961 143.991C145.758 144.169 145.603 144.381 145.496 144.628C145.394 144.869 145.343 145.132 145.343 145.417C145.343 145.784 145.435 146.088 145.619 146.329C145.809 146.57 146.056 146.776 146.36 146.947C146.664 147.118 147.01 147.267 147.396 147.393C147.783 147.52 148.179 147.653 148.584 147.792C148.99 147.925 149.385 148.081 149.772 148.258C150.158 148.435 150.504 148.66 150.808 148.933C151.112 149.199 151.356 149.528 151.54 149.921C151.73 150.308 151.825 150.783 151.825 151.347C151.825 151.948 151.72 152.512 151.511 153.038C151.308 153.564 151.011 154.023 150.618 154.416C150.225 154.809 149.74 155.119 149.164 155.347C148.594 155.569 147.944 155.68 147.216 155.68C146.778 155.68 146.354 155.636 145.942 155.547C145.53 155.465 145.141 155.347 144.773 155.195C144.406 155.037 144.061 154.85 143.737 154.635C143.421 154.413 143.136 154.166 142.882 153.893L143.462 152.924C143.519 152.848 143.585 152.785 143.661 152.734C143.744 152.683 143.836 152.658 143.937 152.658C144.07 152.658 144.222 152.728 144.393 152.867C144.571 153.006 144.786 153.162 145.039 153.333C145.299 153.497 145.606 153.65 145.961 153.789C146.322 153.928 146.759 153.998 147.273 153.998C147.691 153.998 148.065 153.944 148.394 153.836C148.723 153.722 148.999 153.564 149.221 153.361C149.449 153.152 149.623 152.902 149.743 152.611C149.864 152.319 149.924 151.996 149.924 151.641C149.924 151.242 149.832 150.916 149.648 150.662C149.465 150.409 149.221 150.197 148.917 150.026C148.613 149.855 148.267 149.709 147.881 149.589C147.494 149.468 147.098 149.345 146.693 149.218C146.287 149.085 145.891 148.933 145.505 148.762C145.119 148.591 144.773 148.369 144.469 148.097C144.165 147.818 143.921 147.472 143.737 147.061C143.554 146.643 143.462 146.129 143.462 145.521C143.462 145.033 143.557 144.561 143.747 144.105C143.937 143.649 144.213 143.247 144.574 142.898C144.941 142.544 145.391 142.262 145.923 142.053C146.455 141.837 147.064 141.729 147.748 141.729C148.514 141.729 149.218 141.853 149.857 142.1C150.504 142.341 151.064 142.689 151.54 143.145L151.045 144.105ZM169.3 141.881V155.528H167.276V149.379H160.158V155.528H158.124V141.881H160.158V147.906H167.276V141.881H169.3ZM189.192 148.705C189.192 149.725 189.027 150.662 188.698 151.518C188.375 152.367 187.916 153.101 187.32 153.722C186.725 154.337 186.012 154.815 185.182 155.157C184.352 155.499 183.43 155.671 182.416 155.671C181.409 155.671 180.487 155.499 179.651 155.157C178.821 154.815 178.108 154.337 177.513 153.722C176.924 153.101 176.464 152.367 176.135 151.518C175.805 150.662 175.641 149.725 175.641 148.705C175.641 147.691 175.805 146.757 176.135 145.901C176.464 145.046 176.924 144.311 177.513 143.697C178.108 143.076 178.821 142.594 179.651 142.252C180.487 141.904 181.409 141.729 182.416 141.729C183.43 141.729 184.352 141.904 185.182 142.252C186.012 142.594 186.725 143.076 187.32 143.697C187.916 144.311 188.375 145.046 188.698 145.901C189.027 146.757 189.192 147.691 189.192 148.705ZM187.12 148.705C187.12 147.894 187.01 147.165 186.788 146.519C186.566 145.873 186.249 145.325 185.838 144.875C185.432 144.425 184.938 144.08 184.355 143.839C183.779 143.598 183.132 143.478 182.416 143.478C181.701 143.478 181.051 143.598 180.468 143.839C179.892 144.08 179.398 144.425 178.986 144.875C178.574 145.325 178.257 145.873 178.036 146.519C177.814 147.165 177.703 147.894 177.703 148.705C177.703 149.522 177.814 150.254 178.036 150.9C178.257 151.54 178.574 152.085 178.986 152.534C179.398 152.984 179.892 153.33 180.468 153.57C181.051 153.805 181.701 153.922 182.416 153.922C183.132 153.922 183.779 153.805 184.355 153.57C184.938 153.33 185.432 152.984 185.838 152.534C186.249 152.085 186.566 151.54 186.788 150.9C187.01 150.254 187.12 149.522 187.12 148.705ZM199.669 148.904C200.182 148.904 200.632 148.838 201.018 148.705C201.411 148.572 201.738 148.385 201.997 148.144C202.263 147.897 202.463 147.606 202.596 147.27C202.729 146.928 202.796 146.551 202.796 146.139C202.796 145.309 202.536 144.656 202.016 144.181C201.503 143.706 200.721 143.469 199.669 143.469H197.559V148.904H199.669ZM199.669 141.881C200.543 141.881 201.304 141.983 201.95 142.186C202.596 142.388 203.131 142.677 203.556 143.05C203.98 143.418 204.294 143.864 204.497 144.39C204.706 144.916 204.81 145.499 204.81 146.139C204.81 146.779 204.699 147.368 204.478 147.906C204.256 148.439 203.93 148.898 203.499 149.284C203.068 149.671 202.529 149.972 201.883 150.187C201.243 150.396 200.505 150.501 199.669 150.501H197.559V155.528H195.535V141.881H199.669ZM217.905 144.105C217.842 144.213 217.775 144.292 217.705 144.343C217.636 144.393 217.547 144.419 217.439 144.419C217.325 144.419 217.195 144.368 217.05 144.267C216.904 144.159 216.72 144.042 216.498 143.915C216.283 143.782 216.023 143.665 215.719 143.564C215.415 143.456 215.051 143.402 214.626 143.402C214.227 143.402 213.876 143.456 213.571 143.564C213.274 143.665 213.023 143.807 212.821 143.991C212.618 144.169 212.463 144.381 212.355 144.628C212.254 144.869 212.203 145.132 212.203 145.417C212.203 145.784 212.295 146.088 212.479 146.329C212.669 146.57 212.916 146.776 213.22 146.947C213.524 147.118 213.869 147.267 214.256 147.393C214.642 147.52 215.038 147.653 215.444 147.792C215.849 147.925 216.245 148.081 216.631 148.258C217.018 148.435 217.363 148.66 217.667 148.933C217.971 149.199 218.215 149.528 218.399 149.921C218.589 150.308 218.684 150.783 218.684 151.347C218.684 151.948 218.58 152.512 218.371 153.038C218.168 153.564 217.87 154.023 217.477 154.416C217.084 154.809 216.6 155.119 216.023 155.347C215.453 155.569 214.804 155.68 214.075 155.68C213.638 155.68 213.214 155.636 212.802 155.547C212.39 155.465 212 155.347 211.633 155.195C211.265 155.037 210.92 154.85 210.597 154.635C210.28 154.413 209.995 154.166 209.742 153.893L210.321 152.924C210.378 152.848 210.445 152.785 210.521 152.734C210.603 152.683 210.695 152.658 210.797 152.658C210.93 152.658 211.082 152.728 211.253 152.867C211.43 153.006 211.646 153.162 211.899 153.333C212.159 153.497 212.466 153.65 212.821 153.789C213.182 153.928 213.619 153.998 214.132 153.998C214.55 153.998 214.924 153.944 215.254 153.836C215.583 153.722 215.859 153.564 216.08 153.361C216.308 153.152 216.483 152.902 216.603 152.611C216.723 152.319 216.784 151.996 216.784 151.641C216.784 151.242 216.692 150.916 216.508 150.662C216.324 150.409 216.08 150.197 215.776 150.026C215.472 149.855 215.127 149.709 214.74 149.589C214.354 149.468 213.958 149.345 213.552 149.218C213.147 149.085 212.751 148.933 212.365 148.762C211.978 148.591 211.633 148.369 211.329 148.097C211.025 147.818 210.781 147.472 210.597 147.061C210.413 146.643 210.321 146.129 210.321 145.521C210.321 145.033 210.416 144.561 210.607 144.105C210.797 143.649 211.072 143.247 211.433 142.898C211.801 142.544 212.251 142.262 212.783 142.053C213.315 141.837 213.923 141.729 214.607 141.729C215.374 141.729 216.077 141.853 216.717 142.1C217.363 142.341 217.924 142.689 218.399 143.145L217.905 144.105Z" fill="#FDB54D"/>
</svg>
