<svg width="47" height="47" viewBox="0 0 47 47" fill="none" xmlns="http://www.w3.org/2000/svg">
<path d="M0 11.5663C0 5.1784 5.17839 0 11.5663 0H34.6988C41.0867 0 46.2651 5.17839 46.2651 11.5663V34.6988C46.2651 41.0867 41.0867 46.2651 34.6988 46.2651H11.5663C5.1784 46.2651 0 41.0867 0 34.6988V11.5663Z" fill="url(#paint0_linear_1707_31550)"/>
<g clipPath="url(#clip0_1707_31550)">
<path d="M22.168 27.9521L24.0957 29.8798C24.2855 30.0697 24.5109 30.2203 24.759 30.3231C25.0071 30.4258 25.273 30.4787 25.5415 30.4787C25.81 30.4787 26.0758 30.4258 26.3239 30.3231C26.572 30.2203 26.7974 30.0697 26.9872 29.8798C27.1771 29.69 27.3277 29.4646 27.4305 29.2165C27.5332 28.9684 27.5861 28.7026 27.5861 28.4341C27.5861 28.1656 27.5332 27.8997 27.4305 27.6516C27.3277 27.4035 27.1771 27.1781 26.9872 26.9883" stroke="white" strokeWidth="1.92771" strokeLinecap="round" strokeLinejoin="round"/>
<path d="M25.0592 25.0599L27.4689 27.4696C27.8523 27.853 28.3724 28.0684 28.9147 28.0684C29.4569 28.0684 29.977 27.853 30.3604 27.4696C30.7439 27.0861 30.9593 26.5661 30.9593 26.0238C30.9593 25.4815 30.7439 24.9614 30.3604 24.578L26.6207 20.8382C26.0785 20.2967 25.3436 19.9926 24.5773 19.9926C23.811 19.9926 23.0761 20.2967 22.5339 20.8382L21.6857 21.6864C21.3023 22.0699 20.7822 22.2853 20.24 22.2853C19.6977 22.2853 19.1776 22.0699 18.7942 21.6864C18.4107 21.303 18.1953 20.7829 18.1953 20.2406C18.1953 19.6984 18.4107 19.1783 18.7942 18.7949L21.5026 16.0864C22.3819 15.2095 23.5285 14.6508 24.7611 14.4989C25.9936 14.3471 27.2416 14.6106 28.3074 15.2479L28.7604 15.5178C29.1708 15.7655 29.6588 15.8514 30.1291 15.7587L31.8062 15.4214" stroke="white" strokeWidth="1.92771" strokeLinecap="round" strokeLinejoin="round"/>
<path d="M31.8076 14.457L32.7715 25.0594H30.8438" stroke="white" strokeWidth="1.92771" strokeLinecap="round" strokeLinejoin="round"/>
<path d="M14.456 14.457L13.4922 25.0594L19.7572 31.3245C20.1407 31.7079 20.6608 31.9234 21.203 31.9234C21.7453 31.9234 22.2654 31.7079 22.6488 31.3245C23.0323 30.9411 23.2477 30.421 23.2477 29.8787C23.2477 29.3364 23.0323 28.8164 22.6488 28.4329" stroke="white" strokeWidth="1.92771" strokeLinecap="round" strokeLinejoin="round"/>
<path d="M14.457 15.4219H22.1679" stroke="white" strokeWidth="1.92771" strokeLinecap="round" strokeLinejoin="round"/>
</g>
<defs>
<linearGradient id="paint0_linear_1707_31550" x1="0" y1="0" x2="46.2651" y2="46.2651" gradientUnits="userSpaceOnUse">
<stop stopColor="#2B7FFF"/>
<stop offset="1" stopColor="#00B8DB"/>
</linearGradient>
<clipPath id="clip0_1707_31550">
<rect width="23.1325" height="23.1325" fill="white" transform="translate(11.5664 11.5664)"/>
</clipPath>
</defs>
</svg>
