<svg width="47" height="47" viewBox="0 0 47 47" fill="none" xmlns="http://www.w3.org/2000/svg">
<path d="M0 11.5663C0 5.1784 5.17839 0 11.5663 0H34.6988C41.0867 0 46.2651 5.17839 46.2651 11.5663V34.6988C46.2651 41.0867 41.0867 46.2651 34.6988 46.2651H11.5663C5.1784 46.2651 0 41.0867 0 34.6988V11.5663Z" fill="url(#paint0_linear_1707_31600)"/>
<path d="M22.1679 32.511C22.4609 32.6802 22.7933 32.7693 23.1317 32.7693C23.4701 32.7693 23.8025 32.6802 24.0956 32.511L30.8426 28.6556C31.1353 28.4865 31.3785 28.2435 31.5477 27.9508C31.7168 27.6582 31.8061 27.3261 31.8064 26.9881V19.2773C31.8061 18.9392 31.7168 18.6072 31.5477 18.3145C31.3785 18.0218 31.1353 17.7788 30.8426 17.6098L24.0956 13.7544C23.8025 13.5852 23.4701 13.4961 23.1317 13.4961C22.7933 13.4961 22.4609 13.5852 22.1679 13.7544L15.4209 17.6098C15.1281 17.7788 14.885 18.0218 14.7158 18.3145C14.5466 18.6072 14.4574 18.9392 14.457 19.2773V26.9881C14.4574 27.3261 14.5466 27.6582 14.7158 27.9508C14.885 28.2435 15.1281 28.4865 15.4209 28.6556L22.1679 32.511Z" stroke="white" strokeWidth="1.92771" strokeLinecap="round" strokeLinejoin="round"/>
<path d="M23.1328 32.7714V23.1328" stroke="white" strokeWidth="1.92771" strokeLinecap="round" strokeLinejoin="round"/>
<path d="M14.7344 18.3125L23.1296 23.1318L31.5247 18.3125" stroke="white" strokeWidth="1.92771" strokeLinecap="round" strokeLinejoin="round"/>
<path d="M18.7969 15.6836L27.4716 20.6474" stroke="white" strokeWidth="1.92771" strokeLinecap="round" strokeLinejoin="round"/>
<defs>
<linearGradient id="paint0_linear_1707_31600" x1="0" y1="0" x2="46.2651" y2="46.2651" gradientUnits="userSpaceOnUse">
<stop stopColor="#FF9500"/>
<stop offset="1" stopColor="#F54900"/>
</linearGradient>
</defs>
</svg>
