<?xml version="1.0" encoding="UTF-8"?>
<svg id="Layer_1" data-name="Layer 1" xmlns="http://www.w3.org/2000/svg" viewBox="0 0 1440 1040">
  <defs>
    <style>
      .cls-1, .cls-2, .cls-3 {
        strokeWidth: 0px;
      }

      .cls-2 {
        fill: #f69348;
      }

      .cls-3 {
        fill: #fff;
      }
    </style>
  </defs>
  <rect class="cls-1" width="1440" height="1040"/>
  <g>
    <polygon class="cls-2" points="980.17 395.94 980.17 343.42 1006.43 369.68 980.17 395.94"/>
    <path class="cls-3" d="m187.06,558.01v-196.76h18.27v79.2c7.64-9.39,16.21-16.42,25.68-21.07,9.47-4.65,19.85-6.98,31.15-6.98,20.07,0,37.21,7.29,51.42,21.85,14.21,14.57,21.31,32.25,21.31,53.04s-7.17,38.06-21.51,52.58c-14.34,14.53-31.59,21.79-51.75,21.79-11.56,0-22.03-2.48-31.41-7.44-9.39-4.96-17.68-12.4-24.9-22.31v26.1h-18.27Zm73.07-13.96c10.15,0,19.53-2.5,28.12-7.5,8.59-5,15.42-12.03,20.5-21.07,5.08-9.05,7.62-18.61,7.62-28.7s-2.56-19.7-7.68-28.84c-5.12-9.13-12-16.25-20.64-21.33-8.64-5.09-17.85-7.63-27.66-7.63s-19.46,2.54-28.44,7.63c-8.98,5.09-15.88,11.94-20.7,20.55s-7.22,18.31-7.22,29.1c0,16.44,5.4,30.19,16.21,41.23,10.81,11.05,24.1,16.57,39.9,16.57Z"/>
    <path class="cls-3" d="m482.68,510.91l15.4,8.09c-5.05,9.92-10.88,17.92-17.5,24.01-6.62,6.09-14.06,10.72-22.33,13.9-8.27,3.17-17.63,4.76-28.08,4.76-23.16,0-41.27-7.59-54.33-22.77-13.06-15.18-19.59-32.33-19.59-51.47,0-18.01,5.53-34.05,16.59-48.15,14.02-17.92,32.78-26.88,56.29-26.88s43.53,9.18,57.98,27.53c10.27,12.96,15.5,29.14,15.67,48.54h-127.74c.35,16.49,5.62,30.01,15.81,40.55,10.19,10.54,22.77,15.82,37.75,15.82,7.23,0,14.26-1.25,21.1-3.77,6.84-2.51,12.65-5.85,17.44-10.01,4.79-4.16,9.97-10.88,15.55-20.15Zm0-38.23c-2.44-9.74-5.99-17.53-10.65-23.36-4.66-5.83-10.82-10.52-18.48-14.09-7.67-3.57-15.72-5.35-24.17-5.35-13.94,0-25.91,4.48-35.93,13.44-7.32,6.52-12.85,16.31-16.59,29.36h105.82Z"/>
    <path class="cls-3" d="m547.75,363.34h18.27v52.71h28.97v15.79h-28.97v126.17h-18.27v-126.17h-24.92v-15.79h24.92v-52.71Z"/>
    <path class="cls-3" d="m684.58,412.4c21.87,0,40,7.92,54.37,23.75,13.07,14.44,19.61,31.53,19.61,51.28s-6.91,37.17-20.72,52c-13.81,14.83-31.57,22.25-53.26,22.25s-39.58-7.42-53.39-22.25c-13.81-14.83-20.72-32.16-20.72-52s6.53-36.71,19.61-51.15c14.38-15.92,32.55-23.88,54.5-23.88Zm-.06,17.87c-15.19,0-28.24,5.61-39.15,16.83-10.91,11.22-16.37,24.79-16.37,40.71,0,10.26,2.49,19.83,7.46,28.7,4.97,8.87,11.7,15.72,20.16,20.55,8.47,4.83,17.76,7.24,27.89,7.24s19.42-2.41,27.89-7.24c8.47-4.83,15.19-11.68,20.16-20.55,4.97-8.87,7.46-18.44,7.46-28.7,0-15.92-5.48-29.49-16.43-40.71-10.96-11.22-23.98-16.83-39.08-16.83Z"/>
    <path class="cls-3" d="m787.62,416.05h18.27v26.09c7.21-9.92,15.51-17.35,24.89-22.31,9.39-4.96,19.85-7.44,31.41-7.44,20.16,0,37.41,7.26,51.75,21.79,14.34,14.53,21.51,32.01,21.51,52.45s-7.1,38.6-21.31,53.17c-14.21,14.57-31.35,21.85-51.42,21.85-11.3,0-21.68-2.35-31.15-7.05-9.47-4.7-18.03-11.7-25.67-21.01v76.33h-18.27v-193.89Zm73.07,13.96c-15.8,0-29.09,5.52-39.9,16.55-10.81,11.04-16.21,24.76-16.21,41.18,0,10.78,2.41,20.46,7.22,29.06,4.82,8.6,11.72,15.42,20.7,20.46,8.98,5.04,18.46,7.56,28.44,7.56s19.03-2.54,27.66-7.62c8.64-5.08,15.51-12.19,20.63-21.31,5.12-9.12,7.68-18.68,7.68-28.67s-2.54-19.63-7.62-28.67c-5.07-9.04-11.91-16.05-20.5-21.05-8.59-5-17.97-7.49-28.12-7.49Z"/>
    <path class="cls-3" d="m961.9,416.06v141.96h18.27v-162.08l-18.27,20.11Z"/>
    <path class="cls-3" d="m1154.56,416.05v141.96h-18v-24.4c-7.65,9.31-16.24,16.31-25.77,21.01-9.52,4.7-19.94,7.05-31.25,7.05-20.09,0-37.26-7.29-51.47-21.85-14.22-14.57-21.34-32.29-21.34-53.17s7.18-37.92,21.53-52.45c14.35-14.53,31.62-21.79,51.8-21.79,11.65,0,22.2,2.48,31.64,7.44,9.44,4.96,17.73,12.4,24.86,22.31v-26.09h18Zm-73,13.96c-10.17,0-19.55,2.5-28.15,7.49-8.6,5-15.45,12.01-20.53,21.05-5.08,9.04-7.62,18.59-7.62,28.67s2.56,19.55,7.69,28.67c5.13,9.12,12.01,16.23,20.66,21.31,8.64,5.08,17.92,7.62,27.82,7.62s19.46-2.52,28.41-7.56c8.95-5.04,15.84-11.86,20.66-20.46,4.82-8.6,7.24-18.29,7.24-29.06,0-16.42-5.41-30.15-16.23-41.18-10.82-11.03-24.14-16.55-39.95-16.55Z"/>
    <g>
      <path class="cls-3" d="m863.29,670.45c-5.48,0-10.39-1.26-14.75-3.8-4.35-2.53-7.78-6.01-10.27-10.45-2.49-4.44-3.73-9.48-3.73-15.12s1.25-10.56,3.73-14.99c2.49-4.44,5.89-7.94,10.2-10.51,4.31-2.57,9.21-3.86,14.68-3.86,4.48,0,8.5.85,12.07,2.55,3.57,1.7,6.53,4.09,8.9,7.16,2.36,3.07,3.88,6.72,4.54,10.95v17.54c-.75,4.15-2.3,7.78-4.67,10.89-2.36,3.11-5.31,5.5-8.83,7.15-3.53,1.66-7.49,2.49-11.88,2.49Zm-1.24,26.13c-5.64,0-10.75-1.06-15.31-3.17-4.56-2.12-8.21-5.16-10.95-9.15l3.98-3.98c2.24,3.15,5.27,5.66,9.08,7.53,3.81,1.87,8.25,2.8,13.31,2.8,7.38,0,13.21-1.99,17.48-5.97,4.27-3.98,6.41-9.33,6.41-16.05v-14.56l1.49-13.44-1.49-13.07v-14.56h6.35v55.62c0,5.64-1.27,10.53-3.79,14.68-2.53,4.15-6.08,7.4-10.64,9.77-4.56,2.36-9.87,3.55-15.93,3.55Zm2.36-31.98c4.31,0,8.15-.97,11.51-2.92,3.36-1.95,5.95-4.69,7.78-8.21,1.82-3.53,2.74-7.65,2.74-12.38s-.93-8.71-2.8-12.19-4.46-6.22-7.78-8.21c-3.32-1.99-7.22-2.99-11.7-2.99s-8.46,1-11.95,2.99-6.22,4.73-8.21,8.21c-1.99,3.48-2.99,7.51-2.99,12.07s1,8.63,2.99,12.19c1.99,3.57,4.75,6.37,8.28,8.4,3.53,2.03,7.57,3.05,12.13,3.05Z"/>
      <path class="cls-3" d="m911.08,670.83v-57.86h6.35v57.86h-6.35Zm6.35-34.59l-3.11-1.12c0-7.38,1.87-13.13,5.6-17.23,3.73-4.11,8.63-6.16,14.68-6.16,2.82,0,5.45.5,7.9,1.49,2.45,1,4.71,2.61,6.78,4.85l-4.23,4.48c-1.58-1.74-3.28-2.99-5.1-3.73-1.83-.75-3.98-1.12-6.47-1.12-4.73,0-8.59,1.6-11.57,4.79-2.99,3.19-4.48,7.78-4.48,13.75Z"/>
      <path class="cls-3" d="m983.75,672.07c-5.64,0-10.72-1.35-15.24-4.04-4.52-2.69-8.11-6.35-10.76-10.95-2.66-4.6-3.98-9.73-3.98-15.37s1.33-10.72,3.98-15.24c2.65-4.52,6.24-8.11,10.76-10.76,4.52-2.65,9.6-3.98,15.24-3.98s10.6,1.33,15.12,3.98c4.52,2.66,8.11,6.24,10.76,10.76,2.65,4.52,3.98,9.6,3.98,15.24s-1.33,10.87-3.98,15.43c-2.66,4.56-6.24,8.19-10.76,10.89-4.52,2.7-9.56,4.04-15.12,4.04Zm0-5.97c4.4,0,8.36-1.08,11.88-3.24,3.53-2.16,6.3-5.08,8.34-8.77,2.03-3.69,3.05-7.86,3.05-12.51s-1.02-8.63-3.05-12.19c-2.03-3.57-4.81-6.41-8.34-8.52-3.53-2.12-7.49-3.17-11.88-3.17s-8.48,1.06-12.01,3.17c-3.53,2.12-6.33,4.96-8.4,8.52-2.07,3.57-3.11,7.67-3.11,12.32s1.04,8.79,3.11,12.44c2.07,3.65,4.87,6.55,8.4,8.71,3.53,2.16,7.53,3.24,12.01,3.24Z"/>
      <path class="cls-3" d="m1051.19,672.07c-4.65,0-8.79-1.08-12.44-3.24-3.65-2.16-6.49-5.14-8.52-8.96-2.03-3.81-3.05-8.21-3.05-13.19v-33.72h6.35v33.47c0,3.9.73,7.32,2.18,10.27,1.45,2.95,3.5,5.25,6.16,6.91,2.65,1.66,5.76,2.49,9.33,2.49,5.31,0,9.56-1.8,12.75-5.41,3.19-3.61,4.79-8.36,4.79-14.25v-33.47h6.35v33.72c0,4.98-1.02,9.38-3.05,13.19-2.03,3.82-4.85,6.8-8.46,8.96s-7.74,3.24-12.38,3.24Z"/>
      <path class="cls-3" d="m1092.38,695.34v-82.38h6.35v14.43l-1.49,14.06,1.49,14.19v39.69h-6.35Zm29.37-23.27c-4.31,0-8.27-.87-11.88-2.61-3.61-1.74-6.62-4.17-9.02-7.28-2.41-3.11-3.98-6.74-4.73-10.89v-18.91c.75-4.23,2.34-7.9,4.79-11.01,2.45-3.11,5.48-5.5,9.08-7.16,3.61-1.66,7.53-2.49,11.76-2.49,5.48,0,10.37,1.33,14.68,3.98,4.31,2.66,7.71,6.26,10.2,10.83,2.49,4.56,3.73,9.71,3.73,15.43s-1.24,10.85-3.73,15.37c-2.49,4.52-5.89,8.11-10.2,10.76-4.31,2.66-9.21,3.98-14.68,3.98Zm-1.12-5.97c4.56,0,8.59-1.04,12.07-3.11,3.48-2.07,6.22-4.93,8.21-8.59,1.99-3.65,2.99-7.84,2.99-12.57s-1-8.92-2.99-12.57c-1.99-3.65-4.71-6.49-8.15-8.52-3.44-2.03-7.36-3.05-11.76-3.05s-8.4,1.02-11.76,3.05c-3.36,2.03-5.99,4.87-7.9,8.52-1.91,3.65-2.86,7.88-2.86,12.69s.93,8.9,2.8,12.51c1.87,3.61,4.48,6.45,7.84,8.52,3.36,2.08,7.2,3.11,11.51,3.11Z"/>
    </g>
    <g>
      <path class="cls-3" d="m1173.43,401.24v-5.06h33.23v5.06h-33.23Zm13.88,35.76v-39.64h5.53v39.64h-5.53Z"/>
      <path class="cls-3" d="m1213.24,437v-40.81h3.88l17.29,28.4h-2.65l17.29-28.4h3.88v40.81h-5.53v-31.11l1.29.35-13.64,22.41h-3.88l-13.64-22.41,1.24-.35v31.11h-5.53Z"/>
    </g>
  </g>
</svg>