<?xml version="1.0" encoding="UTF-8"?>
<svg id="Layer_1" data-name="Layer 1" xmlns="http://www.w3.org/2000/svg" viewBox="0 0 1440 1040">
  <defs>
    <style>
      .cls-1, .cls-2, .cls-3 {
        strokeWidth: 0px;
      }

      .cls-2 {
        fill: #f69348;
      }

      .cls-3 {
        fill: #fff;
      }
    </style>
  </defs>
  <rect class="cls-3" width="1440" height="1040"/>
  <polygon class="cls-2" points="1039.36 402.36 1039.36 349.83 1065.62 376.1 1039.36 402.36"/>
  <g>
    <path class="cls-1" d="m221.25,564.43v-196.76h18.27v79.2c7.64-9.39,16.21-16.42,25.68-21.07,9.47-4.65,19.85-6.98,31.15-6.98,20.07,0,37.21,7.29,51.42,21.85,14.21,14.57,21.31,32.25,21.31,53.04s-7.17,38.06-21.51,52.58c-14.34,14.53-31.59,21.79-51.75,21.79-11.56,0-22.03-2.48-31.41-7.44-9.39-4.96-17.68-12.4-24.9-22.31v26.1h-18.27Zm73.07-13.96c10.15,0,19.53-2.5,28.12-7.5,8.59-5,15.42-12.03,20.5-21.07,5.08-9.05,7.62-18.61,7.62-28.7s-2.56-19.7-7.68-28.84c-5.12-9.13-12-16.25-20.64-21.33-8.64-5.09-17.85-7.63-27.66-7.63s-19.46,2.54-28.44,7.63c-8.98,5.09-15.88,11.94-20.7,20.55-4.82,8.61-7.22,18.31-7.22,29.1,0,16.44,5.4,30.19,16.21,41.23,10.81,11.05,24.1,16.57,39.9,16.57Z"/>
    <path class="cls-1" d="m521.87,517.33l15.4,8.09c-5.05,9.92-10.88,17.92-17.5,24.01-6.62,6.09-14.06,10.72-22.33,13.9-8.27,3.17-17.63,4.76-28.08,4.76-23.16,0-41.27-7.59-54.33-22.77-13.06-15.18-19.59-32.33-19.59-51.47,0-18.01,5.53-34.05,16.59-48.15,14.02-17.92,32.78-26.88,56.29-26.88s43.53,9.18,57.98,27.53c10.27,12.96,15.5,29.14,15.67,48.54h-127.74c.35,16.49,5.62,30.01,15.81,40.55,10.19,10.54,22.77,15.82,37.75,15.82,7.23,0,14.26-1.25,21.1-3.77,6.84-2.51,12.65-5.85,17.44-10.01,4.79-4.16,9.97-10.88,15.55-20.15Zm0-38.23c-2.44-9.74-5.99-17.53-10.65-23.36-4.66-5.83-10.82-10.52-18.48-14.09-7.67-3.57-15.72-5.35-24.17-5.35-13.94,0-25.91,4.48-35.93,13.44-7.32,6.52-12.85,16.31-16.59,29.36h105.82Z"/>
    <path class="cls-1" d="m591.94,369.75h18.27v52.71h28.97v15.79h-28.97v126.17h-18.27v-126.17h-24.92v-15.79h24.92v-52.71Z"/>
    <path class="cls-1" d="m733.77,418.81c21.87,0,40,7.92,54.37,23.75,13.07,14.44,19.61,31.53,19.61,51.28s-6.91,37.17-20.72,52c-13.81,14.83-31.57,22.25-53.26,22.25s-39.58-7.42-53.39-22.25c-13.81-14.83-20.72-32.16-20.72-52s6.53-36.71,19.61-51.15c14.38-15.92,32.55-23.88,54.5-23.88Zm-.06,17.87c-15.19,0-28.24,5.61-39.15,16.83-10.91,11.22-16.37,24.79-16.37,40.71,0,10.26,2.49,19.83,7.46,28.7,4.97,8.87,11.7,15.72,20.16,20.55,8.47,4.83,17.76,7.24,27.89,7.24s19.42-2.41,27.89-7.24c8.47-4.83,15.19-11.68,20.16-20.55,4.97-8.87,7.46-18.44,7.46-28.7,0-15.92-5.48-29.49-16.43-40.71-10.96-11.22-23.98-16.83-39.08-16.83Z"/>
    <path class="cls-1" d="m841.8,422.47h18.27v26.09c7.21-9.92,15.51-17.35,24.89-22.31,9.39-4.96,19.85-7.44,31.41-7.44,20.16,0,37.41,7.26,51.75,21.79,14.34,14.53,21.51,32.01,21.51,52.45s-7.1,38.6-21.31,53.17c-14.21,14.57-31.35,21.85-51.42,21.85-11.3,0-21.68-2.35-31.15-7.05-9.47-4.7-18.03-11.7-25.67-21.01v76.33h-18.27v-193.89Zm73.07,13.96c-15.8,0-29.09,5.52-39.9,16.55-10.81,11.04-16.21,24.76-16.21,41.18,0,10.78,2.41,20.46,7.22,29.06,4.82,8.6,11.72,15.42,20.7,20.46,8.98,5.04,18.46,7.56,28.44,7.56s19.03-2.54,27.66-7.62c8.64-5.08,15.51-12.19,20.63-21.31,5.12-9.12,7.68-18.68,7.68-28.67s-2.54-19.63-7.62-28.67c-5.07-9.04-11.91-16.05-20.5-21.05-8.59-5-17.97-7.49-28.12-7.49Z"/>
    <path class="cls-1" d="m1021.09,422.47v141.96h18.27v-162.08l-18.27,20.11Z"/>
    <path class="cls-1" d="m1218.75,422.47v141.96h-18v-24.4c-7.65,9.31-16.24,16.31-25.77,21.01-9.52,4.7-19.94,7.05-31.25,7.05-20.09,0-37.26-7.29-51.47-21.85-14.22-14.57-21.34-32.29-21.34-53.17s7.18-37.92,21.53-52.45c14.35-14.53,31.62-21.79,51.8-21.79,11.65,0,22.2,2.48,31.64,7.44,9.44,4.96,17.73,12.4,24.86,22.31v-26.09h18Zm-73,13.96c-10.17,0-19.55,2.5-28.15,7.49-8.6,5-15.45,12.01-20.53,21.05-5.08,9.04-7.62,18.59-7.62,28.67s2.56,19.55,7.69,28.67c5.13,9.12,12.01,16.23,20.66,21.31,8.64,5.08,17.92,7.62,27.82,7.62s19.46-2.52,28.41-7.56,15.84-11.86,20.66-20.46c4.82-8.6,7.24-18.29,7.24-29.06,0-16.42-5.41-30.15-16.23-41.18-10.82-11.03-24.14-16.55-39.95-16.55Z"/>
    <g>
      <path class="cls-1" d="m893.45,619.42h7.06v62.72h27.18v6.7h-34.24v-69.42Z"/>
      <path class="cls-1" d="m940.1,616.36c1.53,0,2.84.53,3.92,1.6,1.08,1.07,1.63,2.36,1.63,3.87s-.54,2.75-1.63,3.82c-1.08,1.07-2.39,1.6-3.92,1.6s-2.79-.53-3.87-1.6c-1.08-1.07-1.62-2.35-1.62-3.82s.54-2.8,1.62-3.87c1.08-1.07,2.38-1.6,3.87-1.6Zm-3.34,21.14h6.72v51.35h-6.72v-51.35Z"/>
      <path class="cls-1" d="m957.41,637.5h6.72v8.87c2.34-3.27,4.74-5.66,7.21-7.17,3.4-2.01,6.97-3.02,10.72-3.02,2.53,0,4.93.49,7.21,1.46,2.27.98,4.13,2.27,5.58,3.89,1.44,1.62,2.69,3.94,3.75,6.96,2.23-4.03,5.03-7.09,8.38-9.18,3.35-2.09,6.96-3.14,10.83-3.14,3.61,0,6.79.89,9.56,2.69s4.81,4.3,6.15,7.5c1.34,3.21,2.01,8.02,2.01,14.44v28.03h-6.87v-28.03c0-5.51-.4-9.29-1.2-11.35-.8-2.06-2.16-3.72-4.09-4.98-1.93-1.26-4.24-1.89-6.92-1.89-3.25,0-6.23.94-8.92,2.83-2.7,1.89-4.67,4.4-5.91,7.55-1.24,3.15-1.87,8.4-1.87,15.76v20.1h-6.72v-26.29c0-6.2-.39-10.41-1.18-12.62-.78-2.22-2.15-4-4.11-5.33-1.95-1.34-4.27-2.01-6.96-2.01-3.11,0-6.01.92-8.72,2.76s-4.7,4.32-6,7.43c-1.3,3.11-1.94,7.88-1.94,14.3v21.76h-6.72v-51.35Z"/>
      <path class="cls-1" d="m1052.02,616.36c1.53,0,2.84.53,3.92,1.6,1.08,1.07,1.63,2.36,1.63,3.87s-.54,2.75-1.63,3.82c-1.08,1.07-2.39,1.6-3.92,1.6s-2.79-.53-3.87-1.6c-1.08-1.07-1.62-2.35-1.62-3.82s.54-2.8,1.62-3.87c1.08-1.07,2.38-1.6,3.87-1.6Zm-3.34,21.14h6.72v51.35h-6.72v-51.35Z"/>
      <path class="cls-1" d="m1075.24,618.43h6.72v19.07h10.66v5.71h-10.66v45.64h-6.72v-45.64h-9.17v-5.71h9.17v-19.07Z"/>
      <path class="cls-1" d="m1146.68,671.81l5.66,2.92c-1.86,3.59-4.01,6.48-6.44,8.69-2.44,2.2-5.18,3.88-8.22,5.03-3.04,1.15-6.49,1.72-10.33,1.72-8.52,0-15.19-2.75-19.99-8.24-4.81-5.49-7.21-11.69-7.21-18.62,0-6.51,2.03-12.32,6.1-17.41,5.16-6.48,12.06-9.72,20.71-9.72s16.02,3.32,21.34,9.96c3.78,4.69,5.7,10.54,5.77,17.56h-47.01c.13,5.96,2.07,10.85,5.82,14.67,3.75,3.81,8.38,5.72,13.89,5.72,2.66,0,5.25-.46,7.76-1.37,2.51-.91,4.65-2.11,6.42-3.62,1.76-1.5,3.67-3.93,5.72-7.29Zm0-13.83c-.9-3.52-2.2-6.34-3.92-8.45-1.72-2.11-3.98-3.81-6.8-5.1-2.82-1.29-5.79-1.94-8.89-1.94-5.13,0-9.54,1.62-13.22,4.86-2.69,2.36-4.73,5.9-6.1,10.62h38.94Z"/>
      <path class="cls-1" d="m1218.75,617.68v71.17h-6.63v-8.83c-2.82,3.37-5.98,5.9-9.48,7.6-3.51,1.7-7.34,2.55-11.5,2.55-7.4,0-13.71-2.64-18.94-7.91-5.23-5.27-7.85-11.68-7.85-19.23s2.64-13.72,7.92-18.97c5.28-5.25,11.64-7.88,19.06-7.88,4.29,0,8.17.89,11.64,2.69,3.47,1.79,6.52,4.48,9.15,8.07v-29.26h6.63Zm-26.86,24.87c-3.74,0-7.19.9-10.36,2.71-3.17,1.81-5.68,4.34-7.55,7.61-1.87,3.27-2.8,6.73-2.8,10.37s.94,7.07,2.83,10.37c1.88,3.3,4.42,5.87,7.6,7.71,3.18,1.84,6.59,2.76,10.24,2.76s7.16-.91,10.46-2.74c3.29-1.82,5.83-4.29,7.6-7.4,1.77-3.11,2.66-6.62,2.66-10.51,0-5.94-1.99-10.9-5.97-14.9-3.98-3.99-8.88-5.99-14.7-5.99Z"/>
    </g>
  </g>
</svg>