<?xml version="1.0" encoding="UTF-8"?>
<svg id="Layer_1" data-name="Layer 1" xmlns="http://www.w3.org/2000/svg" viewBox="0 0 515.92 176.03">
  <defs>
    <style>
      .cls-1 {
        fill: #f69348;
      }

      .cls-1, .cls-2 {
        strokeWidth: 0px;
      }

      .cls-2 {
        fill: #fff;
      }
    </style>
  </defs>
  <path class="cls-2" d="m0,110.99V9.22h9.45v40.96c3.95-4.86,8.38-8.49,13.28-10.9,4.9-2.41,10.27-3.61,16.11-3.61,10.38,0,19.25,3.77,26.6,11.3,7.35,7.54,11.02,16.68,11.02,27.43s-3.71,19.68-11.13,27.2c-7.42,7.51-16.34,11.27-26.76,11.27-5.98,0-11.39-1.28-16.25-3.85-4.85-2.57-9.15-6.41-12.88-11.54v13.5H0Zm37.79-7.22c5.25,0,10.1-1.29,14.54-3.88,4.44-2.59,7.98-6.22,10.6-10.9,2.63-4.68,3.94-9.63,3.94-14.85s-1.32-10.19-3.97-14.91c-2.65-4.72-6.21-8.4-10.67-11.03-4.47-2.63-9.23-3.95-14.31-3.95s-10.07,1.32-14.71,3.95-8.21,6.17-10.71,10.63-3.74,9.47-3.74,15.05c0,8.5,2.79,15.61,8.38,21.33,5.59,5.71,12.47,8.57,20.64,8.57Z"/>
  <path class="cls-2" d="m155.49,86.63l7.96,4.18c-2.61,5.13-5.63,9.27-9.05,12.42-3.42,3.15-7.27,5.55-11.55,7.19-4.28,1.64-9.12,2.46-14.52,2.46-11.98,0-21.34-3.93-28.1-11.78-6.76-7.85-10.13-16.72-10.13-26.62,0-9.31,2.86-17.61,8.58-24.9,7.25-9.27,16.95-13.9,29.11-13.9s22.51,4.75,29.99,14.24c5.31,6.7,8.02,15.07,8.11,25.1h-66.07c.18,8.53,2.9,15.52,8.18,20.97,5.27,5.45,11.78,8.18,19.53,8.18,3.74,0,7.38-.65,10.91-1.95,3.54-1.3,6.54-3.03,9.02-5.18,2.48-2.15,5.16-5.62,8.04-10.42Zm0-19.77c-1.26-5.04-3.1-9.07-5.51-12.08-2.41-3.01-5.6-5.44-9.56-7.29-3.96-1.84-8.13-2.77-12.5-2.77-7.21,0-13.4,2.32-18.58,6.95-3.78,3.37-6.65,8.44-8.58,15.18h54.73Z"/>
  <path class="cls-2" d="m191.73,10.3h9.45v27.26h14.98v8.17h-14.98v65.26h-9.45V45.73h-12.89v-8.17h12.89V10.3Z"/>
  <path class="cls-2" d="m265.08,35.68c11.31,0,20.69,4.09,28.12,12.28,6.76,7.47,10.14,16.31,10.14,26.52s-3.57,19.22-10.72,26.89c-7.14,7.67-16.33,11.51-27.55,11.51s-20.47-3.84-27.62-11.51c-7.14-7.67-10.72-16.64-10.72-26.89s3.38-18.99,10.14-26.45c7.44-8.23,16.83-12.35,28.19-12.35Zm-.03,9.25c-7.86,0-14.61,2.9-20.25,8.71-5.64,5.8-8.47,12.82-8.47,21.06,0,5.31,1.29,10.26,3.86,14.85,2.57,4.59,6.05,8.13,10.43,10.63,4.38,2.5,9.19,3.75,14.43,3.75s10.04-1.25,14.42-3.75c4.38-2.5,7.86-6.04,10.43-10.63,2.57-4.59,3.86-9.54,3.86-14.85,0-8.23-2.83-15.25-8.5-21.06-5.67-5.8-12.4-8.71-20.21-8.71Z"/>
  <path class="cls-2" d="m320.96,37.57h9.45v13.5c3.73-5.13,8.02-8.97,12.88-11.54,4.85-2.56,10.27-3.85,16.25-3.85,10.43,0,19.35,3.76,26.76,11.27,7.42,7.51,11.13,16.56,11.13,27.13s-3.67,19.96-11.02,27.5c-7.35,7.54-16.21,11.3-26.6,11.3-5.84,0-11.21-1.21-16.11-3.64-4.9-2.43-9.33-6.05-13.28-10.86v39.48h-9.45V37.57Zm37.79,7.22c-8.17,0-15.05,2.85-20.64,8.56-5.59,5.71-8.38,12.81-8.38,21.3,0,5.57,1.25,10.58,3.74,15.03,2.49,4.45,6.06,7.98,10.71,10.58,4.65,2.61,9.55,3.91,14.71,3.91s9.84-1.31,14.31-3.94c4.47-2.63,8.02-6.3,10.67-11.02,2.65-4.72,3.97-9.66,3.97-14.83s-1.31-10.16-3.94-14.83c-2.62-4.67-6.16-8.3-10.6-10.89-4.45-2.58-9.29-3.88-14.54-3.88Z"/>
  <path class="cls-2" d="m413.69,37.57v73.43h9.45V27.17l-9.45,10.4Z"/>
  <path class="cls-2" d="m515.92,37.57v73.42h-9.31v-12.62c-3.96,4.81-8.4,8.44-13.33,10.86-4.92,2.43-10.31,3.64-16.16,3.64-10.39,0-19.27-3.77-26.62-11.3-7.36-7.54-11.04-16.7-11.04-27.5s3.71-19.62,11.14-27.13c7.42-7.51,16.35-11.27,26.79-11.27,6.03,0,11.48,1.28,16.36,3.85,4.88,2.57,9.17,6.41,12.86,11.54v-13.5h9.31Zm-37.76,7.22c-5.26,0-10.11,1.29-14.56,3.88s-7.99,6.21-10.62,10.89c-2.63,4.67-3.94,9.62-3.94,14.83s1.32,10.11,3.98,14.83c2.65,4.72,6.21,8.39,10.68,11.02,4.47,2.63,9.27,3.94,14.39,3.94s10.07-1.3,14.69-3.91,8.19-6.13,10.69-10.58,3.74-9.46,3.74-15.03c0-8.49-2.8-15.59-8.39-21.3-5.6-5.71-12.48-8.56-20.66-8.56Z"/>
  <polygon class="cls-1" points="423.14 27.17 423.14 0 436.72 13.58 423.14 27.17"/>
  <g>
    <path class="cls-2" d="m347.67,139.44h3.65v32.44h14.06v3.47h-17.71v-35.91Z"/>
    <path class="cls-2" d="m371.8,137.85c.79,0,1.47.28,2.03.83.56.55.84,1.22.84,2s-.28,1.42-.84,1.98c-.56.55-1.24.83-2.03.83s-1.44-.28-2-.83c-.56-.55-.84-1.21-.84-1.98s.28-1.45.84-2c.56-.55,1.23-.83,2-.83Zm-1.73,10.93h3.48v26.56h-3.48v-26.56Z"/>
    <path class="cls-2" d="m380.75,148.79h3.48v4.59c1.21-1.69,2.45-2.93,3.73-3.71,1.76-1.04,3.61-1.56,5.55-1.56,1.31,0,2.55.25,3.73.76,1.18.5,2.14,1.18,2.88,2.01.75.84,1.39,2.04,1.94,3.6,1.16-2.08,2.6-3.67,4.33-4.75,1.73-1.08,3.6-1.62,5.6-1.62,1.87,0,3.51.46,4.94,1.39s2.49,2.22,3.18,3.88c.69,1.66,1.04,4.15,1.04,7.47v14.5h-3.55v-14.5c0-2.85-.21-4.8-.62-5.87-.41-1.07-1.12-1.92-2.12-2.58-1-.65-2.19-.98-3.58-.98-1.68,0-3.22.49-4.62,1.46-1.39.98-2.41,2.28-3.06,3.91-.64,1.63-.96,4.34-.96,8.15v10.4h-3.48v-13.6c0-3.21-.2-5.38-.61-6.53-.41-1.15-1.11-2.07-2.12-2.76-1.01-.69-2.21-1.04-3.6-1.04-1.61,0-3.11.48-4.51,1.43s-2.43,2.23-3.1,3.84c-.67,1.61-1.01,4.08-1.01,7.4v11.25h-3.48v-26.56Z"/>
    <path class="cls-2" d="m429.69,137.85c.79,0,1.47.28,2.03.83.56.55.84,1.22.84,2s-.28,1.42-.84,1.98c-.56.55-1.24.83-2.03.83s-1.44-.28-2-.83c-.56-.55-.84-1.21-.84-1.98s.28-1.45.84-2c.56-.55,1.23-.83,2-.83Zm-1.73,10.93h3.48v26.56h-3.48v-26.56Z"/>
    <path class="cls-2" d="m441.7,138.92h3.48v9.86h5.51v2.95h-5.51v23.6h-3.48v-23.6h-4.74v-2.95h4.74v-9.86Z"/>
    <path class="cls-2" d="m478.65,166.53l2.93,1.51c-.96,1.86-2.07,3.35-3.33,4.49-1.26,1.14-2.68,2-4.25,2.6-1.57.59-3.36.89-5.34.89-4.41,0-7.86-1.42-10.34-4.26-2.49-2.84-3.73-6.05-3.73-9.63,0-3.37,1.05-6.37,3.16-9.01,2.67-3.35,6.24-5.03,10.71-5.03s8.29,1.72,11.04,5.15c1.96,2.42,2.95,5.45,2.98,9.08h-24.31c.07,3.08,1.07,5.61,3.01,7.59s4.33,2.96,7.19,2.96c1.38,0,2.71-.24,4.02-.71,1.3-.47,2.41-1.09,3.32-1.87.91-.78,1.9-2.03,2.96-3.77Zm0-7.15c-.46-1.82-1.14-3.28-2.03-4.37-.89-1.09-2.06-1.97-3.52-2.64-1.46-.67-2.99-1-4.6-1-2.65,0-4.93.84-6.84,2.51-1.39,1.22-2.45,3.05-3.16,5.49h20.14Z"/>
    <path class="cls-2" d="m515.92,138.53v36.81h-3.43v-4.56c-1.46,1.74-3.09,3.05-4.91,3.93s-3.8,1.32-5.95,1.32c-3.83,0-7.09-1.36-9.8-4.09-2.71-2.73-4.06-6.04-4.06-9.95s1.37-7.09,4.1-9.81c2.73-2.72,6.02-4.08,9.86-4.08,2.22,0,4.23.46,6.02,1.39s3.37,2.32,4.73,4.17v-15.13h3.43Zm-13.89,12.86c-1.93,0-3.72.47-5.36,1.4s-2.94,2.25-3.91,3.94-1.45,3.48-1.45,5.36.49,3.66,1.46,5.36c.97,1.71,2.29,3.04,3.93,3.99,1.64.95,3.41,1.43,5.3,1.43s3.7-.47,5.41-1.42c1.7-.94,3.01-2.22,3.93-3.83.92-1.61,1.38-3.42,1.38-5.44,0-3.07-1.03-5.64-3.09-7.7s-4.59-3.1-7.6-3.1Z"/>
  </g>
</svg>