<svg width="64" height="64" viewBox="0 0 64 64" fill="none" xmlns="http://www.w3.org/2000/svg">
<path d="M0 14C0 6.26801 6.26801 0 14 0H50C57.732 0 64 6.26801 64 14V50C64 57.732 57.732 64 50 64H14C6.26801 64 0 57.732 0 50V14Z" fill="url(#paint0_linear_1283_13096)"/>
<path d="M36.6357 33.1875L38.6557 44.5555C38.6783 44.6894 38.6595 44.8269 38.6018 44.9498C38.5442 45.0727 38.4503 45.1751 38.3329 45.2432C38.2155 45.3114 38.0801 45.342 37.9447 45.3311C37.8094 45.3202 37.6807 45.2682 37.5757 45.1822L32.8023 41.5995C32.5719 41.4273 32.292 41.3343 32.0043 41.3343C31.7167 41.3343 31.4368 41.4273 31.2063 41.5995L26.425 45.1808C26.3201 45.2667 26.1915 45.3186 26.0563 45.3296C25.9212 45.3405 25.7859 45.3099 25.6686 45.242C25.5512 45.174 25.4574 45.0719 25.3996 44.9493C25.3418 44.8266 25.3227 44.6893 25.345 44.5555L27.3637 33.1875" stroke="white" strokeWidth="2.66667" strokeLinecap="round" strokeLinejoin="round"/>
<path d="M32 34.668C36.4183 34.668 40 31.0862 40 26.668C40 22.2497 36.4183 18.668 32 18.668C27.5817 18.668 24 22.2497 24 26.668C24 31.0862 27.5817 34.668 32 34.668Z" stroke="white" strokeWidth="2.66667" strokeLinecap="round" strokeLinejoin="round"/>
<defs>
<linearGradient id="paint0_linear_1283_13096" x1="0" y1="0" x2="64" y2="64" gradientUnits="userSpaceOnUse">
<stop stopColor="#2B7FFF"/>
<stop offset="1" stopColor="#155DFC"/>
</linearGradient>
</defs>
</svg>
