<svg width="64" height="64" viewBox="0 0 64 64" fill="none" xmlns="http://www.w3.org/2000/svg">
<path d="M0 14C0 6.26801 6.26801 0 14 0H50C57.732 0 64 6.26801 64 14V50C64 57.732 57.732 64 50 64H14C6.26801 64 0 57.732 0 50V14Z" fill="url(#paint0_linear_1283_13105)"/>
<path d="M39.3322 41.3346H27.9989C26.2681 41.3342 24.5714 40.8525 23.0986 39.9433C21.6258 39.0341 20.4348 37.7332 19.6587 36.1861C18.8827 34.639 18.5521 32.9066 18.704 31.1824C18.8558 29.4582 19.4841 27.8102 20.5187 26.4226C21.5533 25.035 22.9533 23.9624 24.5624 23.3246C26.1715 22.6869 27.9262 22.5091 29.6304 22.8113C31.3347 23.1134 32.9214 23.8835 34.2132 25.0354C35.505 26.1874 36.4511 27.6759 36.9456 29.3346H39.3322C40.9235 29.3346 42.4497 29.9668 43.5749 31.092C44.7001 32.2172 45.3322 33.7433 45.3322 35.3346C45.3322 36.9259 44.7001 38.4521 43.5749 39.5773C42.4497 40.7025 40.9235 41.3346 39.3322 41.3346Z" stroke="white" strokeWidth="2.66667" strokeLinecap="round" strokeLinejoin="round"/>
<defs>
<linearGradient id="paint0_linear_1283_13105" x1="0" y1="0" x2="64" y2="64" gradientUnits="userSpaceOnUse">
<stop stopColor="#AD46FF"/>
<stop offset="1" stopColor="#9810FA"/>
</linearGradient>
</defs>
</svg>
